<?xml version="1.0" encoding="UTF-8" standalone="no"?><svg xmlns="http://www.w3.org/2000/svg" xmlns:xlink="http://www.w3.org/1999/xlink" contentScriptType="application/ecmascript" contentStyleType="text/css" height="795px" preserveAspectRatio="none" style="width:450px;height:795px;" version="1.1" viewBox="0 0 450 795" width="450px" zoomAndPan="magnify"><defs><filter height="300%" id="f1riievdoo2adv" width="300%" x="-1" y="-1"><feGaussianBlur result="blurOut" stdDeviation="2.0"/><feColorMatrix in="blurOut" result="blurOut2" type="matrix" values="0 0 0 0 0 0 0 0 0 0 0 0 0 0 0 0 0 0 .4 0"/><feOffset dx="4.0" dy="4.0" in="blurOut2" result="blurOut3"/><feBlend in="SourceGraphic" in2="blurOut3" mode="normal"/></filter></defs><g><!--MD5=[9681dc6e01e10c6b4fe06895ae94f592]
cluster UI--><polygon fill="#FFFFFF" filter="url(#f1riievdoo2adv)" points="119,6,141,6,148,28.2969,311,28.2969,311,105,119,105,119,6" style="stroke: #000000; stroke-width: 1.5;"/><line style="stroke: #000000; stroke-width: 1.5;" x1="119" x2="148" y1="28.2969" y2="28.2969"/><text fill="#000000" font-family="sans-serif" font-size="14" font-weight="bold" lengthAdjust="spacingAndGlyphs" textLength="16" x="123" y="20.9951">UI</text><!--MD5=[ed1d20ea533a2a0e7df5ba3c35e56ced]
cluster Controllers--><polygon fill="#FFFFFF" filter="url(#f1riievdoo2adv)" points="16,138,112,138,119,160.2969,414,160.2969,414,263,16,263,16,138" style="stroke: #000000; stroke-width: 1.5;"/><line style="stroke: #000000; stroke-width: 1.5;" x1="16" x2="119" y1="160.2969" y2="160.2969"/><text fill="#000000" font-family="sans-serif" font-size="14" font-weight="bold" lengthAdjust="spacingAndGlyphs" textLength="90" x="20" y="152.9951">Controllers</text><!--MD5=[121a8bf1197281ab89ed693fab589f94]
cluster Domain--><polygon fill="#FFFFFF" filter="url(#f1riievdoo2adv)" points="28,296,95,296,102,318.2969,428,318.2969,428,783,28,783,28,296" style="stroke: #000000; stroke-width: 1.5;"/><line style="stroke: #000000; stroke-width: 1.5;" x1="28" x2="102" y1="318.2969" y2="318.2969"/><text fill="#000000" font-family="sans-serif" font-size="14" font-weight="bold" lengthAdjust="spacingAndGlyphs" textLength="61" x="32" y="310.9951">Domain</text><!--MD5=[8c0a1b052d1b0dc6eb29862f9d459289]
class RegisterFreelancerUI--><rect fill="#FEFECE" filter="url(#f1riievdoo2adv)" height="48" id="RegisterFreelancerUI" style="stroke: #A80036; stroke-width: 1.5;" width="159" x="135.5" y="41"/><ellipse cx="150.5" cy="57" fill="#ADD1B2" rx="11" ry="11" style="stroke: #A80036; stroke-width: 1.0;"/><path d="M152.8438,52.6719 C151.9063,52.2344 151.3125,52.0938 150.4375,52.0938 C147.8125,52.0938 145.8125,54.1719 145.8125,56.8906 L145.8125,58.0156 C145.8125,60.5938 147.9219,62.4844 150.8125,62.4844 C152.0313,62.4844 153.1875,62.1875 153.9375,61.6406 C154.5156,61.2344 154.8438,60.7813 154.8438,60.3906 C154.8438,59.9375 154.4531,59.5469 153.9844,59.5469 C153.7656,59.5469 153.5625,59.625 153.375,59.8125 C152.9219,60.2969 152.9219,60.2969 152.7344,60.3906 C152.3125,60.6563 151.625,60.7813 150.8594,60.7813 C148.8125,60.7813 147.5156,59.6875 147.5156,57.9844 L147.5156,56.8906 C147.5156,55.1094 148.7656,53.7969 150.5,53.7969 C151.0781,53.7969 151.6875,53.9531 152.1563,54.2031 C152.6406,54.4844 152.8125,54.7031 152.9063,55.1094 C152.9688,55.5156 153,55.6406 153.1406,55.7656 C153.2813,55.9063 153.5156,56.0156 153.7344,56.0156 C154,56.0156 154.2656,55.875 154.4375,55.6563 C154.5469,55.5 154.5781,55.3125 154.5781,54.8906 L154.5781,53.4688 C154.5781,53.0313 154.5625,52.9063 154.4688,52.75 C154.3125,52.4844 154.0313,52.3438 153.7344,52.3438 C153.4375,52.3438 153.2344,52.4375 153.0156,52.75 L152.8438,52.6719 Z "/><text fill="#000000" font-family="sans-serif" font-size="12" lengthAdjust="spacingAndGlyphs" textLength="127" x="164.5" y="61.1543">RegisterFreelancerUI</text><line style="stroke: #A80036; stroke-width: 1.5;" x1="136.5" x2="293.5" y1="73" y2="73"/><line style="stroke: #A80036; stroke-width: 1.5;" x1="136.5" x2="293.5" y1="81" y2="81"/><!--MD5=[98ab5b16b76df8bafec1c77ae86b6459]
class RegisterFreelancerController--><rect fill="#FEFECE" filter="url(#f1riievdoo2adv)" height="73.6094" id="RegisterFreelancerController" style="stroke: #A80036; stroke-width: 1.5;" width="365" x="32.5" y="173"/><ellipse cx="123.75" cy="189" fill="#ADD1B2" rx="11" ry="11" style="stroke: #A80036; stroke-width: 1.0;"/><path d="M126.0938,184.6719 C125.1563,184.2344 124.5625,184.0938 123.6875,184.0938 C121.0625,184.0938 119.0625,186.1719 119.0625,188.8906 L119.0625,190.0156 C119.0625,192.5938 121.1719,194.4844 124.0625,194.4844 C125.2813,194.4844 126.4375,194.1875 127.1875,193.6406 C127.7656,193.2344 128.0938,192.7813 128.0938,192.3906 C128.0938,191.9375 127.7031,191.5469 127.2344,191.5469 C127.0156,191.5469 126.8125,191.625 126.625,191.8125 C126.1719,192.2969 126.1719,192.2969 125.9844,192.3906 C125.5625,192.6563 124.875,192.7813 124.1094,192.7813 C122.0625,192.7813 120.7656,191.6875 120.7656,189.9844 L120.7656,188.8906 C120.7656,187.1094 122.0156,185.7969 123.75,185.7969 C124.3281,185.7969 124.9375,185.9531 125.4063,186.2031 C125.8906,186.4844 126.0625,186.7031 126.1563,187.1094 C126.2188,187.5156 126.25,187.6406 126.3906,187.7656 C126.5313,187.9063 126.7656,188.0156 126.9844,188.0156 C127.25,188.0156 127.5156,187.875 127.6875,187.6563 C127.7969,187.5 127.8281,187.3125 127.8281,186.8906 L127.8281,185.4688 C127.8281,185.0313 127.8125,184.9063 127.7188,184.75 C127.5625,184.4844 127.2813,184.3438 126.9844,184.3438 C126.6875,184.3438 126.4844,184.4375 126.2656,184.75 L126.0938,184.6719 Z "/><text fill="#000000" font-family="sans-serif" font-size="12" lengthAdjust="spacingAndGlyphs" textLength="174" x="144.25" y="193.1543">RegisterFreelancerController</text><line style="stroke: #A80036; stroke-width: 1.5;" x1="33.5" x2="396.5" y1="205" y2="205"/><line style="stroke: #A80036; stroke-width: 1.5;" x1="33.5" x2="396.5" y1="213" y2="213"/><text fill="#000000" font-family="sans-serif" font-size="11" lengthAdjust="spacingAndGlyphs" textLength="353" x="38.5" y="227.2104">+newFreelancer(id, name, levelOfExpertise e-mail, NIF, IBAN)</text><text fill="#000000" font-family="sans-serif" font-size="11" lengthAdjust="spacingAndGlyphs" textLength="122" x="38.5" y="240.0151">+registerFreelancer()</text><!--MD5=[99b8db98afdc2c8404e39242ef4c1e65]
class Platform--><rect fill="#FEFECE" filter="url(#f1riievdoo2adv)" height="60.8047" id="Platform" style="stroke: #A80036; stroke-width: 1.5;" width="156" x="51" y="331"/><ellipse cx="100.75" cy="347" fill="#ADD1B2" rx="11" ry="11" style="stroke: #A80036; stroke-width: 1.0;"/><path d="M103.0938,342.6719 C102.1563,342.2344 101.5625,342.0938 100.6875,342.0938 C98.0625,342.0938 96.0625,344.1719 96.0625,346.8906 L96.0625,348.0156 C96.0625,350.5938 98.1719,352.4844 101.0625,352.4844 C102.2813,352.4844 103.4375,352.1875 104.1875,351.6406 C104.7656,351.2344 105.0938,350.7813 105.0938,350.3906 C105.0938,349.9375 104.7031,349.5469 104.2344,349.5469 C104.0156,349.5469 103.8125,349.625 103.625,349.8125 C103.1719,350.2969 103.1719,350.2969 102.9844,350.3906 C102.5625,350.6563 101.875,350.7813 101.1094,350.7813 C99.0625,350.7813 97.7656,349.6875 97.7656,347.9844 L97.7656,346.8906 C97.7656,345.1094 99.0156,343.7969 100.75,343.7969 C101.3281,343.7969 101.9375,343.9531 102.4063,344.2031 C102.8906,344.4844 103.0625,344.7031 103.1563,345.1094 C103.2188,345.5156 103.25,345.6406 103.3906,345.7656 C103.5313,345.9063 103.7656,346.0156 103.9844,346.0156 C104.25,346.0156 104.5156,345.875 104.6875,345.6563 C104.7969,345.5 104.8281,345.3125 104.8281,344.8906 L104.8281,343.4688 C104.8281,343.0313 104.8125,342.9063 104.7188,342.75 C104.5625,342.4844 104.2813,342.3438 103.9844,342.3438 C103.6875,342.3438 103.4844,342.4375 103.2656,342.75 L103.0938,342.6719 Z "/><text fill="#000000" font-family="sans-serif" font-size="12" lengthAdjust="spacingAndGlyphs" textLength="48" x="121.25" y="351.1543">Platform</text><line style="stroke: #A80036; stroke-width: 1.5;" x1="52" x2="206" y1="363" y2="363"/><line style="stroke: #A80036; stroke-width: 1.5;" x1="52" x2="206" y1="371" y2="371"/><text fill="#000000" font-family="sans-serif" font-size="11" lengthAdjust="spacingAndGlyphs" textLength="144" x="57" y="385.2104">+getFreelancerRegister()</text><!--MD5=[52bbee025a435258c6397b17d94a5a49]
class FreelancerRegister--><rect fill="#FEFECE" filter="url(#f1riievdoo2adv)" height="99.2188" id="FreelancerRegister" style="stroke: #A80036; stroke-width: 1.5;" width="368" x="44" y="453"/><ellipse cx="166.25" cy="469" fill="#ADD1B2" rx="11" ry="11" style="stroke: #A80036; stroke-width: 1.0;"/><path d="M168.5938,464.6719 C167.6563,464.2344 167.0625,464.0938 166.1875,464.0938 C163.5625,464.0938 161.5625,466.1719 161.5625,468.8906 L161.5625,470.0156 C161.5625,472.5938 163.6719,474.4844 166.5625,474.4844 C167.7813,474.4844 168.9375,474.1875 169.6875,473.6406 C170.2656,473.2344 170.5938,472.7813 170.5938,472.3906 C170.5938,471.9375 170.2031,471.5469 169.7344,471.5469 C169.5156,471.5469 169.3125,471.625 169.125,471.8125 C168.6719,472.2969 168.6719,472.2969 168.4844,472.3906 C168.0625,472.6563 167.375,472.7813 166.6094,472.7813 C164.5625,472.7813 163.2656,471.6875 163.2656,469.9844 L163.2656,468.8906 C163.2656,467.1094 164.5156,465.7969 166.25,465.7969 C166.8281,465.7969 167.4375,465.9531 167.9063,466.2031 C168.3906,466.4844 168.5625,466.7031 168.6563,467.1094 C168.7188,467.5156 168.75,467.6406 168.8906,467.7656 C169.0313,467.9063 169.2656,468.0156 169.4844,468.0156 C169.75,468.0156 170.0156,467.875 170.1875,467.6563 C170.2969,467.5 170.3281,467.3125 170.3281,466.8906 L170.3281,465.4688 C170.3281,465.0313 170.3125,464.9063 170.2188,464.75 C170.0625,464.4844 169.7813,464.3438 169.4844,464.3438 C169.1875,464.3438 168.9844,464.4375 168.7656,464.75 L168.5938,464.6719 Z "/><text fill="#000000" font-family="sans-serif" font-size="12" lengthAdjust="spacingAndGlyphs" textLength="115" x="186.75" y="473.1543">FreelancerRegister</text><line style="stroke: #A80036; stroke-width: 1.5;" x1="45" x2="411" y1="485" y2="485"/><line style="stroke: #A80036; stroke-width: 1.5;" x1="45" x2="411" y1="493" y2="493"/><text fill="#000000" font-family="sans-serif" font-size="11" lengthAdjust="spacingAndGlyphs" textLength="356" x="50" y="507.2104">+newFreelancer(id, name, levelOfExpertise, e-mail, NIF, IBAN)</text><text fill="#000000" font-family="sans-serif" font-size="11" lengthAdjust="spacingAndGlyphs" textLength="181" x="50" y="520.0151">+registerFreelancer(freelancer)</text><text fill="#000000" font-family="sans-serif" font-size="11" lengthAdjust="spacingAndGlyphs" textLength="183" x="50" y="532.8198">+validateFreelancer(freelancer)</text><text fill="#000000" font-family="sans-serif" font-size="11" lengthAdjust="spacingAndGlyphs" textLength="158" x="50" y="545.6245">+addFreelancer(freelancer)</text><!--MD5=[1f687b5315377fe49fca59b457947463]
class Freelancer--><rect fill="#FEFECE" filter="url(#f1riievdoo2adv)" height="137.6328" id="Freelancer" style="stroke: #A80036; stroke-width: 1.5;" width="149" x="153.5" y="629"/><ellipse cx="191.9" cy="645" fill="#ADD1B2" rx="11" ry="11" style="stroke: #A80036; stroke-width: 1.0;"/><path d="M194.2438,640.6719 C193.3063,640.2344 192.7125,640.0938 191.8375,640.0938 C189.2125,640.0938 187.2125,642.1719 187.2125,644.8906 L187.2125,646.0156 C187.2125,648.5938 189.3219,650.4844 192.2125,650.4844 C193.4313,650.4844 194.5875,650.1875 195.3375,649.6406 C195.9156,649.2344 196.2438,648.7813 196.2438,648.3906 C196.2438,647.9375 195.8531,647.5469 195.3844,647.5469 C195.1656,647.5469 194.9625,647.625 194.775,647.8125 C194.3219,648.2969 194.3219,648.2969 194.1344,648.3906 C193.7125,648.6563 193.025,648.7813 192.2594,648.7813 C190.2125,648.7813 188.9156,647.6875 188.9156,645.9844 L188.9156,644.8906 C188.9156,643.1094 190.1656,641.7969 191.9,641.7969 C192.4781,641.7969 193.0875,641.9531 193.5563,642.2031 C194.0406,642.4844 194.2125,642.7031 194.3063,643.1094 C194.3688,643.5156 194.4,643.6406 194.5406,643.7656 C194.6813,643.9063 194.9156,644.0156 195.1344,644.0156 C195.4,644.0156 195.6656,643.875 195.8375,643.6563 C195.9469,643.5 195.9781,643.3125 195.9781,642.8906 L195.9781,641.4688 C195.9781,641.0313 195.9625,640.9063 195.8688,640.75 C195.7125,640.4844 195.4313,640.3438 195.1344,640.3438 C194.8375,640.3438 194.6344,640.4375 194.4156,640.75 L194.2438,640.6719 Z "/><text fill="#000000" font-family="sans-serif" font-size="12" lengthAdjust="spacingAndGlyphs" textLength="65" x="211.1" y="649.1543">Freelancer</text><line style="stroke: #A80036; stroke-width: 1.5;" x1="154.5" x2="301.5" y1="661" y2="661"/><text fill="#000000" font-family="sans-serif" font-size="11" lengthAdjust="spacingAndGlyphs" textLength="51" x="159.5" y="675.2104">-String id</text><text fill="#000000" font-family="sans-serif" font-size="11" lengthAdjust="spacingAndGlyphs" textLength="74" x="159.5" y="688.0151">-String name</text><text fill="#000000" font-family="sans-serif" font-size="11" lengthAdjust="spacingAndGlyphs" textLength="137" x="159.5" y="700.8198">-String levelOfExpertise</text><text fill="#000000" font-family="sans-serif" font-size="11" lengthAdjust="spacingAndGlyphs" textLength="58" x="159.5" y="713.6245">-String NIF</text><text fill="#000000" font-family="sans-serif" font-size="11" lengthAdjust="spacingAndGlyphs" textLength="68" x="159.5" y="726.4292">-String IBAN</text><text fill="#000000" font-family="sans-serif" font-size="11" lengthAdjust="spacingAndGlyphs" textLength="79" x="159.5" y="739.2339">-String adress</text><text fill="#000000" font-family="sans-serif" font-size="11" lengthAdjust="spacingAndGlyphs" textLength="83" x="159.5" y="752.0386">-String country</text><line style="stroke: #A80036; stroke-width: 1.5;" x1="154.5" x2="301.5" y1="758.6328" y2="758.6328"/><!--MD5=[e15b53ec274e70a190c6400a3b603543]
link RegisterFreelancerUI to RegisterFreelancerController--><path d="M215,89.294 C215,110.514 215,142.337 215,167.839 " fill="none" id="RegisterFreelancerUI-&gt;RegisterFreelancerController" style="stroke: #A80036; stroke-width: 1.0; stroke-dasharray: 7.0,7.0;"/><polygon fill="#A80036" points="215,172.85,219,163.85,215,167.85,211,163.85,215,172.85" style="stroke: #A80036; stroke-width: 1.0;"/><!--MD5=[3527abece0f63d4bc1c2480af2924c67]
link RegisterFreelancerController to Platform--><path d="M194.182,247.19 C180.387,271.17 162.398,302.442 148.814,326.057 " fill="none" id="RegisterFreelancerController-&gt;Platform" style="stroke: #A80036; stroke-width: 1.0; stroke-dasharray: 7.0,7.0;"/><polygon fill="#A80036" points="146.158,330.673,154.114,324.8676,148.6519,326.3394,147.1801,320.8773,146.158,330.673" style="stroke: #A80036; stroke-width: 1.0;"/><!--MD5=[d9172cd10311a4d0d75d70e4fe1b8489]
link RegisterFreelancerController to FreelancerRegister--><path d="M220.593,247.34 C222.333,260.157 224.045,274.689 225,288 C228.886,342.184 229.306,404.294 228.955,447.501 " fill="none" id="RegisterFreelancerController-&gt;FreelancerRegister" style="stroke: #A80036; stroke-width: 1.0; stroke-dasharray: 7.0,7.0;"/><polygon fill="#A80036" points="228.909,452.675,232.9911,443.712,228.9547,447.6752,224.9915,443.6388,228.909,452.675" style="stroke: #A80036; stroke-width: 1.0;"/><!--MD5=[31b160c41b40f1f198969df3eb5fcc67]
link Platform to FreelancerRegister--><path d="M150.238,392.319 C161.911,408.709 176.738,429.526 190.308,448.579 " fill="none" id="Platform-&gt;FreelancerRegister" style="stroke: #A80036; stroke-width: 1.0; stroke-dasharray: 7.0,7.0;"/><polygon fill="#A80036" points="193.363,452.869,191.4012,443.2175,190.4629,448.796,184.8844,447.8577,193.363,452.869" style="stroke: #A80036; stroke-width: 1.0;"/><!--MD5=[a4cb23ae9b63896b4ff4e454c9456065]
link FreelancerRegister to Freelancer--><path d="M228,552.328 C228,575.504 228,603.587 228,628.822 " fill="none" id="FreelancerRegister-Freelancer" style="stroke: #A80036; stroke-width: 1.0;"/><text fill="#000000" font-family="sans-serif" font-size="13" lengthAdjust="spacingAndGlyphs" textLength="33" x="229" y="595.0669">has&gt;</text><text fill="#000000" font-family="sans-serif" font-size="13" lengthAdjust="spacingAndGlyphs" textLength="8" x="219.4375" y="572.4506">1</text><text fill="#000000" font-family="sans-serif" font-size="13" lengthAdjust="spacingAndGlyphs" textLength="23" x="203.8141" y="618.0073">1..*</text><!--MD5=[8db3bc3ce688ce28981a506503a2c3d2]
@startuml
skinparam classAttributeIconSize 0

package UI <<Folder>> {
  class RegisterFreelancerUI
}

package Controllers <<Folder>> {
  class RegisterFreelancerController
}

package Domain <<Folder>> {
class Platform
class FreelancerRegister
class Freelancer
}
class RegisterFreelancerUI {
}

class RegisterFreelancerController {
  +newFreelancer(id, name, levelOfExpertise e-mail, NIF, IBAN)
  +registerFreelancer()
}

class Platform {
  +getFreelancerRegister()
}

class FreelancerRegister {
  +newFreelancer(id, name, levelOfExpertise, e-mail, NIF, IBAN)
  +registerFreelancer(freelancer)
  +validateFreelancer(freelancer)
  +addFreelancer(freelancer)
}

class Freelancer{
-String id
-String name
-String levelOfExpertise
-String NIF
-String IBAN
-String adress
-String country
}

RegisterFreelancerUI ..> RegisterFreelancerController

RegisterFreelancerController ..> Platform
RegisterFreelancerController ..> FreelancerRegister

Platform ..> FreelancerRegister

FreelancerRegister"1" - - "1..*" Freelancer : has>
@enduml

PlantUML version 1.2020.12(Sat Jun 06 10:54:15 UTC 2020)
(GPL source distribution)
Java Runtime: Java(TM) SE Runtime Environment
JVM: Java HotSpot(TM) 64-Bit Server VM
Default Encoding: UTF-8
Language: en
Country: US
--></g></svg>