<?xml version="1.0" encoding="UTF-8" standalone="no"?><svg xmlns="http://www.w3.org/2000/svg" xmlns:xlink="http://www.w3.org/1999/xlink" contentScriptType="application/ecmascript" contentStyleType="text/css" height="166px" preserveAspectRatio="none" style="width:842px;height:166px;" version="1.1" viewBox="0 0 842 166" width="842px" zoomAndPan="magnify"><defs><filter height="300%" id="fmk56pzmaf4kz" width="300%" x="-1" y="-1"><feGaussianBlur result="blurOut" stdDeviation="2.0"/><feColorMatrix in="blurOut" result="blurOut2" type="matrix" values="0 0 0 0 0 0 0 0 0 0 0 0 0 0 0 0 0 0 .4 0"/><feOffset dx="4.0" dy="4.0" in="blurOut2" result="blurOut3"/><feBlend in="SourceGraphic" in2="blurOut3" mode="normal"/></filter></defs><g><!--MD5=[99b8db98afdc2c8404e39242ef4c1e65]
class Platform--><rect fill="#FEFECE" filter="url(#fmk56pzmaf4kz)" height="40" id="Platform" style="stroke: #A80036; stroke-width: 1.5;" width="80" x="6" y="71"/><ellipse cx="21" cy="87" fill="#ADD1B2" rx="11" ry="11" style="stroke: #A80036; stroke-width: 1.0;"/><path d="M23.3438,82.6719 C22.4063,82.2344 21.8125,82.0938 20.9375,82.0938 C18.3125,82.0938 16.3125,84.1719 16.3125,86.8906 L16.3125,88.0156 C16.3125,90.5938 18.4219,92.4844 21.3125,92.4844 C22.5313,92.4844 23.6875,92.1875 24.4375,91.6406 C25.0156,91.2344 25.3438,90.7813 25.3438,90.3906 C25.3438,89.9375 24.9531,89.5469 24.4844,89.5469 C24.2656,89.5469 24.0625,89.625 23.875,89.8125 C23.4219,90.2969 23.4219,90.2969 23.2344,90.3906 C22.8125,90.6563 22.125,90.7813 21.3594,90.7813 C19.3125,90.7813 18.0156,89.6875 18.0156,87.9844 L18.0156,86.8906 C18.0156,85.1094 19.2656,83.7969 21,83.7969 C21.5781,83.7969 22.1875,83.9531 22.6563,84.2031 C23.1406,84.4844 23.3125,84.7031 23.4063,85.1094 C23.4688,85.5156 23.5,85.6406 23.6406,85.7656 C23.7813,85.9063 24.0156,86.0156 24.2344,86.0156 C24.5,86.0156 24.7656,85.875 24.9375,85.6563 C25.0469,85.5 25.0781,85.3125 25.0781,84.8906 L25.0781,83.4688 C25.0781,83.0313 25.0625,82.9063 24.9688,82.75 C24.8125,82.4844 24.5313,82.3438 24.2344,82.3438 C23.9375,82.3438 23.7344,82.4375 23.5156,82.75 L23.3438,82.6719 Z "/><text fill="#000000" font-family="sans-serif" font-size="12" lengthAdjust="spacingAndGlyphs" textLength="48" x="35" y="91.1543">Platform</text><line style="stroke: #A80036; stroke-width: 1.5;" x1="7" x2="85" y1="103" y2="103"/><!--MD5=[86c7c362de55a38b660185a1328fe18d]
class Organization--><rect fill="#FEFECE" filter="url(#fmk56pzmaf4kz)" height="65.6094" id="Organization" style="stroke: #A80036; stroke-width: 1.5;" width="108" x="215" y="8"/><ellipse cx="230" cy="24" fill="#ADD1B2" rx="11" ry="11" style="stroke: #A80036; stroke-width: 1.0;"/><path d="M232.3438,19.6719 C231.4063,19.2344 230.8125,19.0938 229.9375,19.0938 C227.3125,19.0938 225.3125,21.1719 225.3125,23.8906 L225.3125,25.0156 C225.3125,27.5938 227.4219,29.4844 230.3125,29.4844 C231.5313,29.4844 232.6875,29.1875 233.4375,28.6406 C234.0156,28.2344 234.3438,27.7813 234.3438,27.3906 C234.3438,26.9375 233.9531,26.5469 233.4844,26.5469 C233.2656,26.5469 233.0625,26.625 232.875,26.8125 C232.4219,27.2969 232.4219,27.2969 232.2344,27.3906 C231.8125,27.6563 231.125,27.7813 230.3594,27.7813 C228.3125,27.7813 227.0156,26.6875 227.0156,24.9844 L227.0156,23.8906 C227.0156,22.1094 228.2656,20.7969 230,20.7969 C230.5781,20.7969 231.1875,20.9531 231.6563,21.2031 C232.1406,21.4844 232.3125,21.7031 232.4063,22.1094 C232.4688,22.5156 232.5,22.6406 232.6406,22.7656 C232.7813,22.9063 233.0156,23.0156 233.2344,23.0156 C233.5,23.0156 233.7656,22.875 233.9375,22.6563 C234.0469,22.5 234.0781,22.3125 234.0781,21.8906 L234.0781,20.4688 C234.0781,20.0313 234.0625,19.9063 233.9688,19.75 C233.8125,19.4844 233.5313,19.3438 233.2344,19.3438 C232.9375,19.3438 232.7344,19.4375 232.5156,19.75 L232.3438,19.6719 Z "/><text fill="#000000" font-family="sans-serif" font-size="12" lengthAdjust="spacingAndGlyphs" textLength="76" x="244" y="28.1543">Organization</text><line style="stroke: #A80036; stroke-width: 1.5;" x1="216" x2="322" y1="40" y2="40"/><text fill="#000000" font-family="sans-serif" font-size="11" lengthAdjust="spacingAndGlyphs" textLength="74" x="221" y="54.2104">-String name</text><text fill="#000000" font-family="sans-serif" font-size="11" lengthAdjust="spacingAndGlyphs" textLength="58" x="221" y="67.0151">-String NIF</text><!--MD5=[f483d6e5de34a60207b28a5563be5e8b]
class Collaborator--><rect fill="#FEFECE" filter="url(#fmk56pzmaf4kz)" height="65.6094" id="Collaborator" style="stroke: #A80036; stroke-width: 1.5;" width="106" x="452" y="8"/><ellipse cx="467" cy="24" fill="#ADD1B2" rx="11" ry="11" style="stroke: #A80036; stroke-width: 1.0;"/><path d="M469.3438,19.6719 C468.4063,19.2344 467.8125,19.0938 466.9375,19.0938 C464.3125,19.0938 462.3125,21.1719 462.3125,23.8906 L462.3125,25.0156 C462.3125,27.5938 464.4219,29.4844 467.3125,29.4844 C468.5313,29.4844 469.6875,29.1875 470.4375,28.6406 C471.0156,28.2344 471.3438,27.7813 471.3438,27.3906 C471.3438,26.9375 470.9531,26.5469 470.4844,26.5469 C470.2656,26.5469 470.0625,26.625 469.875,26.8125 C469.4219,27.2969 469.4219,27.2969 469.2344,27.3906 C468.8125,27.6563 468.125,27.7813 467.3594,27.7813 C465.3125,27.7813 464.0156,26.6875 464.0156,24.9844 L464.0156,23.8906 C464.0156,22.1094 465.2656,20.7969 467,20.7969 C467.5781,20.7969 468.1875,20.9531 468.6563,21.2031 C469.1406,21.4844 469.3125,21.7031 469.4063,22.1094 C469.4688,22.5156 469.5,22.6406 469.6406,22.7656 C469.7813,22.9063 470.0156,23.0156 470.2344,23.0156 C470.5,23.0156 470.7656,22.875 470.9375,22.6563 C471.0469,22.5 471.0781,22.3125 471.0781,21.8906 L471.0781,20.4688 C471.0781,20.0313 471.0625,19.9063 470.9688,19.75 C470.8125,19.4844 470.5313,19.3438 470.2344,19.3438 C469.9375,19.3438 469.7344,19.4375 469.5156,19.75 L469.3438,19.6719 Z "/><text fill="#000000" font-family="sans-serif" font-size="12" lengthAdjust="spacingAndGlyphs" textLength="74" x="481" y="28.1543">Collaborator</text><line style="stroke: #A80036; stroke-width: 1.5;" x1="453" x2="557" y1="40" y2="40"/><text fill="#000000" font-family="sans-serif" font-size="11" lengthAdjust="spacingAndGlyphs" textLength="74" x="458" y="54.2104">-String name</text><text fill="#000000" font-family="sans-serif" font-size="11" lengthAdjust="spacingAndGlyphs" textLength="73" x="458" y="67.0151">-String email</text><!--MD5=[1f687b5315377fe49fca59b457947463]
class Freelancer--><rect fill="#FEFECE" filter="url(#fmk56pzmaf4kz)" height="129.6328" id="Freelancer" style="stroke: #A80036; stroke-width: 1.5;" width="149" x="682" y="26"/><ellipse cx="720.4" cy="42" fill="#ADD1B2" rx="11" ry="11" style="stroke: #A80036; stroke-width: 1.0;"/><path d="M722.7438,37.6719 C721.8063,37.2344 721.2125,37.0938 720.3375,37.0938 C717.7125,37.0938 715.7125,39.1719 715.7125,41.8906 L715.7125,43.0156 C715.7125,45.5938 717.8219,47.4844 720.7125,47.4844 C721.9313,47.4844 723.0875,47.1875 723.8375,46.6406 C724.4156,46.2344 724.7438,45.7813 724.7438,45.3906 C724.7438,44.9375 724.3531,44.5469 723.8844,44.5469 C723.6656,44.5469 723.4625,44.625 723.275,44.8125 C722.8219,45.2969 722.8219,45.2969 722.6344,45.3906 C722.2125,45.6563 721.525,45.7813 720.7594,45.7813 C718.7125,45.7813 717.4156,44.6875 717.4156,42.9844 L717.4156,41.8906 C717.4156,40.1094 718.6656,38.7969 720.4,38.7969 C720.9781,38.7969 721.5875,38.9531 722.0563,39.2031 C722.5406,39.4844 722.7125,39.7031 722.8063,40.1094 C722.8688,40.5156 722.9,40.6406 723.0406,40.7656 C723.1813,40.9063 723.4156,41.0156 723.6344,41.0156 C723.9,41.0156 724.1656,40.875 724.3375,40.6563 C724.4469,40.5 724.4781,40.3125 724.4781,39.8906 L724.4781,38.4688 C724.4781,38.0313 724.4625,37.9063 724.3688,37.75 C724.2125,37.4844 723.9313,37.3438 723.6344,37.3438 C723.3375,37.3438 723.1344,37.4375 722.9156,37.75 L722.7438,37.6719 Z "/><text fill="#000000" font-family="sans-serif" font-size="12" lengthAdjust="spacingAndGlyphs" textLength="65" x="739.6" y="46.1543">Freelancer</text><line style="stroke: #A80036; stroke-width: 1.5;" x1="683" x2="830" y1="58" y2="58"/><text fill="#000000" font-family="sans-serif" font-size="11" lengthAdjust="spacingAndGlyphs" textLength="51" x="688" y="72.2104">-String id</text><text fill="#000000" font-family="sans-serif" font-size="11" lengthAdjust="spacingAndGlyphs" textLength="74" x="688" y="85.0151">-String name</text><text fill="#000000" font-family="sans-serif" font-size="11" lengthAdjust="spacingAndGlyphs" textLength="137" x="688" y="97.8198">-String levelOfExpertise</text><text fill="#000000" font-family="sans-serif" font-size="11" lengthAdjust="spacingAndGlyphs" textLength="58" x="688" y="110.6245">-String NIF</text><text fill="#000000" font-family="sans-serif" font-size="11" lengthAdjust="spacingAndGlyphs" textLength="68" x="688" y="123.4292">-String IBAN</text><text fill="#000000" font-family="sans-serif" font-size="11" lengthAdjust="spacingAndGlyphs" textLength="79" x="688" y="136.2339">-String adress</text><text fill="#000000" font-family="sans-serif" font-size="11" lengthAdjust="spacingAndGlyphs" textLength="83" x="688" y="149.0386">-String country</text><!--MD5=[7640e466c042ba2d6f9c19c816f7f0fc]
link Platform to Organization--><path d="M86.0016,82.1761 C121.813,74.0739 175.183,61.9993 214.879,53.018 " fill="none" id="Platform-Organization" style="stroke: #A80036; stroke-width: 1.0;"/><text fill="#000000" font-family="sans-serif" font-size="13" lengthAdjust="spacingAndGlyphs" textLength="54" x="117" y="57.0669">contains</text><polygon fill="#000000" points="174,51.0664,180,54.0664,174,57.0664,174,51.0664" style="stroke: #000000; stroke-width: 1.0;"/><text fill="#000000" font-family="sans-serif" font-size="13" lengthAdjust="spacingAndGlyphs" textLength="8" x="94.1144" y="76.2455">1</text><text fill="#000000" font-family="sans-serif" font-size="13" lengthAdjust="spacingAndGlyphs" textLength="7" x="200.1362" y="67.7428">*</text><!--MD5=[22697d4d863c2e08ab1d60ca0d61f844]
link Platform to Freelancer--><path d="M86.1012,91 C199.964,91 532.643,91 681.734,91 " fill="none" id="Platform-Freelancer" style="stroke: #A80036; stroke-width: 1.0;"/><text fill="#000000" font-family="sans-serif" font-size="13" lengthAdjust="spacingAndGlyphs" textLength="23" x="369.5" y="87.0669">has</text><polygon fill="#000000" points="395.5,81.0664,401.5,84.0664,395.5,87.0664,395.5,81.0664" style="stroke: #000000; stroke-width: 1.0;"/><text fill="#000000" font-family="sans-serif" font-size="13" lengthAdjust="spacingAndGlyphs" textLength="8" x="93.9567" y="104.4147">1</text><text fill="#000000" font-family="sans-serif" font-size="13" lengthAdjust="spacingAndGlyphs" textLength="23" x="651.0509" y="103.7571">0..*</text><!--MD5=[45817597bcd7048073a670d966abfd17]
link Organization to Collaborator--><path d="M323.098,41 C361.663,41 413.59,41 451.918,41 " fill="none" id="Organization-Collaborator" style="stroke: #A80036; stroke-width: 1.0;"/><text fill="#000000" font-family="sans-serif" font-size="13" lengthAdjust="spacingAndGlyphs" textLength="54" x="354" y="37.0669">contains</text><polygon fill="#000000" points="411,31.0664,417,34.0664,411,37.0664,411,31.0664" style="stroke: #000000; stroke-width: 1.0;"/><text fill="#000000" font-family="sans-serif" font-size="13" lengthAdjust="spacingAndGlyphs" textLength="8" x="330.9049" y="54.1099">1</text><text fill="#000000" font-family="sans-serif" font-size="13" lengthAdjust="spacingAndGlyphs" textLength="8" x="435.8908" y="54.1584">1</text><!--MD5=[d2c3650dbd07e79cdad2ffd4a879dec6]
link Collaborator to Freelancer--><path d="M558.303,51.482 C594.17,58.6693 642.262,68.3071 681.974,76.2654 " fill="none" id="Collaborator-Freelancer" style="stroke: #A80036; stroke-width: 1.0;"/><text fill="#000000" font-family="sans-serif" font-size="13" lengthAdjust="spacingAndGlyphs" textLength="49" x="589" y="55.0669">register</text><polygon fill="#000000" points="641,49.0664,647,52.0664,641,55.0664,641,49.0664" style="stroke: #000000; stroke-width: 1.0;"/><text fill="#000000" font-family="sans-serif" font-size="13" lengthAdjust="spacingAndGlyphs" textLength="8" x="566.0031" y="66.0004">1</text><text fill="#000000" font-family="sans-serif" font-size="13" lengthAdjust="spacingAndGlyphs" textLength="7" x="666.9276" y="71.0651">*</text><!--MD5=[94e1e0ffbd9605805313ad873caf1f8e]
@startuml
skinparam classAttributeIconSize 0
hide methods
left to right direction


class Platform{

}

class Organization{
-String name
-String NIF
}

class Collaborator {
 -String name
 -String email
}

class Freelancer{
-String id
-String name
-String levelOfExpertise
-String NIF
-String IBAN
-String adress
-String country
}

Platform"1" - - "*"Organization : contains >
Platform"1" - - "0..*"Freelancer : has >

Organization"1" - - "1"Collaborator : contains >

Collaborator"1" - - "*" Freelancer : register >
@enduml

PlantUML version 1.2020.11(Sat May 30 10:13:43 UTC 2020)
(GPL source distribution)
Java Runtime: Java(TM) SE Runtime Environment
JVM: Java HotSpot(TM) 64-Bit Server VM
Default Encoding: UTF-8
Language: en
Country: US
--></g></svg>