<?xml version="1.0" encoding="UTF-8" standalone="no"?><svg xmlns="http://www.w3.org/2000/svg" xmlns:xlink="http://www.w3.org/1999/xlink" contentScriptType="application/ecmascript" contentStyleType="text/css" height="110px" preserveAspectRatio="none" style="width:793px;height:110px;" version="1.1" viewBox="0 0 793 110" width="793px" zoomAndPan="magnify"><defs><filter height="300%" id="fa5k189vbttvk" width="300%" x="-1" y="-1"><feGaussianBlur result="blurOut" stdDeviation="2.0"/><feColorMatrix in="blurOut" result="blurOut2" type="matrix" values="0 0 0 0 0 0 0 0 0 0 0 0 0 0 0 0 0 0 .4 0"/><feOffset dx="4.0" dy="4.0" in="blurOut2" result="blurOut3"/><feBlend in="SourceGraphic" in2="blurOut3" mode="normal"/></filter></defs><g><!--MD5=[99b8db98afdc2c8404e39242ef4c1e65]
class Platform--><rect fill="#FEFECE" filter="url(#fa5k189vbttvk)" height="40" id="Platform" style="stroke: #A80036; stroke-width: 1.5;" width="84" x="6" y="33.5"/><ellipse cx="21" cy="49.5" fill="#ADD1B2" rx="11" ry="11" style="stroke: #A80036; stroke-width: 1.0;"/><path d="M23.9688,55.1406 Q23.3906,55.4375 22.75,55.5781 Q22.1094,55.7344 21.4063,55.7344 Q18.9063,55.7344 17.5781,54.0938 Q16.2656,52.4375 16.2656,49.3125 Q16.2656,46.1875 17.5781,44.5313 Q18.9063,42.875 21.4063,42.875 Q22.1094,42.875 22.75,43.0313 Q23.4063,43.1875 23.9688,43.4844 L23.9688,46.2031 Q23.3438,45.625 22.75,45.3594 Q22.1563,45.0781 21.5313,45.0781 Q20.1875,45.0781 19.5,46.1563 Q18.8125,47.2188 18.8125,49.3125 Q18.8125,51.4063 19.5,52.4844 Q20.1875,53.5469 21.5313,53.5469 Q22.1563,53.5469 22.75,53.2813 Q23.3438,53 23.9688,52.4219 L23.9688,55.1406 Z "/><text fill="#000000" font-family="sans-serif" font-size="12" lengthAdjust="spacingAndGlyphs" textLength="52" x="35" y="53.6543">Platform</text><line style="stroke: #A80036; stroke-width: 1.5;" x1="7" x2="89" y1="65.5" y2="65.5"/><!--MD5=[86c7c362de55a38b660185a1328fe18d]
class Organization--><rect fill="#FEFECE" filter="url(#fa5k189vbttvk)" height="65.6094" id="Organization" style="stroke: #A80036; stroke-width: 1.5;" width="110" x="219" y="20.5"/><ellipse cx="234" cy="36.5" fill="#ADD1B2" rx="11" ry="11" style="stroke: #A80036; stroke-width: 1.0;"/><path d="M236.9688,42.1406 Q236.3906,42.4375 235.75,42.5781 Q235.1094,42.7344 234.4063,42.7344 Q231.9063,42.7344 230.5781,41.0938 Q229.2656,39.4375 229.2656,36.3125 Q229.2656,33.1875 230.5781,31.5313 Q231.9063,29.875 234.4063,29.875 Q235.1094,29.875 235.75,30.0313 Q236.4063,30.1875 236.9688,30.4844 L236.9688,33.2031 Q236.3438,32.625 235.75,32.3594 Q235.1563,32.0781 234.5313,32.0781 Q233.1875,32.0781 232.5,33.1563 Q231.8125,34.2188 231.8125,36.3125 Q231.8125,38.4063 232.5,39.4844 Q233.1875,40.5469 234.5313,40.5469 Q235.1563,40.5469 235.75,40.2813 Q236.3438,40 236.9688,39.4219 L236.9688,42.1406 Z "/><text fill="#000000" font-family="sans-serif" font-size="12" lengthAdjust="spacingAndGlyphs" textLength="78" x="248" y="40.6543">Organization</text><line style="stroke: #A80036; stroke-width: 1.5;" x1="220" x2="328" y1="52.5" y2="52.5"/><text fill="#000000" font-family="sans-serif" font-size="11" lengthAdjust="spacingAndGlyphs" textLength="74" x="225" y="66.7104">-String name</text><text fill="#000000" font-family="sans-serif" font-size="11" lengthAdjust="spacingAndGlyphs" textLength="59" x="225" y="79.5151">-String NIF</text><!--MD5=[3fd616f346a44cd59a91eb10b19e157c]
class User--><rect fill="#FEFECE" filter="url(#fa5k189vbttvk)" height="91.2188" id="User" style="stroke: #A80036; stroke-width: 1.5;" width="110" x="672" y="8"/><ellipse cx="709.05" cy="24" fill="#ADD1B2" rx="11" ry="11" style="stroke: #A80036; stroke-width: 1.0;"/><path d="M712.0188,29.6406 Q711.4406,29.9375 710.8,30.0781 Q710.1594,30.2344 709.4563,30.2344 Q706.9563,30.2344 705.6281,28.5938 Q704.3156,26.9375 704.3156,23.8125 Q704.3156,20.6875 705.6281,19.0313 Q706.9563,17.375 709.4563,17.375 Q710.1594,17.375 710.8,17.5313 Q711.4563,17.6875 712.0188,17.9844 L712.0188,20.7031 Q711.3938,20.125 710.8,19.8594 Q710.2063,19.5781 709.5813,19.5781 Q708.2375,19.5781 707.55,20.6563 Q706.8625,21.7188 706.8625,23.8125 Q706.8625,25.9063 707.55,26.9844 Q708.2375,28.0469 709.5813,28.0469 Q710.2063,28.0469 710.8,27.7813 Q711.3938,27.5 712.0188,26.9219 L712.0188,29.6406 Z "/><text fill="#000000" font-family="sans-serif" font-size="12" lengthAdjust="spacingAndGlyphs" textLength="29" x="727.95" y="28.1543">User</text><line style="stroke: #A80036; stroke-width: 1.5;" x1="673" x2="781" y1="40" y2="40"/><text fill="#000000" font-family="sans-serif" font-size="11" lengthAdjust="spacingAndGlyphs" textLength="74" x="678" y="54.2104">-String name</text><text fill="#000000" font-family="sans-serif" font-size="11" lengthAdjust="spacingAndGlyphs" textLength="73" x="678" y="67.0151">-String email</text><text fill="#000000" font-family="sans-serif" font-size="11" lengthAdjust="spacingAndGlyphs" textLength="98" x="678" y="79.8198">-String password</text><text fill="#000000" font-family="sans-serif" font-size="11" lengthAdjust="spacingAndGlyphs" textLength="64" x="678" y="92.6245">-String role</text><!--MD5=[b24ed8d4ae84bae9290d9aab401637c7]
class Manager--><rect fill="#FEFECE" filter="url(#fa5k189vbttvk)" height="65.6094" id="Manager" style="stroke: #A80036; stroke-width: 1.5;" width="87" x="458" y="20.5"/><ellipse cx="473" cy="36.5" fill="#ADD1B2" rx="11" ry="11" style="stroke: #A80036; stroke-width: 1.0;"/><path d="M475.9688,42.1406 Q475.3906,42.4375 474.75,42.5781 Q474.1094,42.7344 473.4063,42.7344 Q470.9063,42.7344 469.5781,41.0938 Q468.2656,39.4375 468.2656,36.3125 Q468.2656,33.1875 469.5781,31.5313 Q470.9063,29.875 473.4063,29.875 Q474.1094,29.875 474.75,30.0313 Q475.4063,30.1875 475.9688,30.4844 L475.9688,33.2031 Q475.3438,32.625 474.75,32.3594 Q474.1563,32.0781 473.5313,32.0781 Q472.1875,32.0781 471.5,33.1563 Q470.8125,34.2188 470.8125,36.3125 Q470.8125,38.4063 471.5,39.4844 Q472.1875,40.5469 473.5313,40.5469 Q474.1563,40.5469 474.75,40.2813 Q475.3438,40 475.9688,39.4219 L475.9688,42.1406 Z "/><text fill="#000000" font-family="sans-serif" font-size="12" lengthAdjust="spacingAndGlyphs" textLength="55" x="487" y="40.6543">Manager</text><line style="stroke: #A80036; stroke-width: 1.5;" x1="459" x2="544" y1="52.5" y2="52.5"/><text fill="#000000" font-family="sans-serif" font-size="11" lengthAdjust="spacingAndGlyphs" textLength="74" x="464" y="66.7104">-String name</text><text fill="#000000" font-family="sans-serif" font-size="11" lengthAdjust="spacingAndGlyphs" textLength="73" x="464" y="79.5151">-String email</text><!--MD5=[7640e466c042ba2d6f9c19c816f7f0fc]
link Platform to Organization--><path d="M90.0851,53.5 C126.208,53.5 179.049,53.5 218.66,53.5 " fill="none" id="Platform-Organization" style="stroke: #A80036; stroke-width: 1.0;"/><text fill="#000000" font-family="sans-serif" font-size="13" lengthAdjust="spacingAndGlyphs" textLength="54" x="121" y="49.5669">contains</text><polygon fill="#000000" points="178,43.5664,184,46.5664,178,49.5664,178,43.5664" style="stroke: #000000; stroke-width: 1.0;"/><text fill="#000000" font-family="sans-serif" font-size="13" lengthAdjust="spacingAndGlyphs" textLength="8" x="98.006" y="66.8674">1</text><text fill="#000000" font-family="sans-serif" font-size="13" lengthAdjust="spacingAndGlyphs" textLength="7" x="204.1211" y="66.5614">*</text><!--MD5=[bc039f41cf0b27fadee5cae63fc6e1fe]
link Organization to Manager--><path d="M329.013,53.5 C368.493,53.5 421.303,53.5 457.84,53.5 " fill="none" id="Organization-Manager" style="stroke: #A80036; stroke-width: 1.0;"/><text fill="#000000" font-family="sans-serif" font-size="13" lengthAdjust="spacingAndGlyphs" textLength="54" x="360" y="49.5669">contains</text><polygon fill="#000000" points="417,43.5664,423,46.5664,417,49.5664,417,43.5664" style="stroke: #000000; stroke-width: 1.0;"/><text fill="#000000" font-family="sans-serif" font-size="13" lengthAdjust="spacingAndGlyphs" textLength="8" x="336.9429" y="66.6099">1</text><text fill="#000000" font-family="sans-serif" font-size="13" lengthAdjust="spacingAndGlyphs" textLength="8" x="441.9463" y="66.8524">1</text><!--MD5=[6eb6e197a729f6ec2412743e0bdbca1d]
link Manager to User--><path d="M545.065,53.5 C581.034,53.5 632.77,53.5 671.714,53.5 " fill="none" id="Manager-User" style="stroke: #A80036; stroke-width: 1.0;"/><text fill="#000000" font-family="sans-serif" font-size="13" lengthAdjust="spacingAndGlyphs" textLength="52" x="576" y="49.5669">acts like</text><polygon fill="#000000" points="631,43.5664,637,46.5664,631,49.5664,631,43.5664" style="stroke: #000000; stroke-width: 1.0;"/><text fill="#000000" font-family="sans-serif" font-size="13" lengthAdjust="spacingAndGlyphs" textLength="8" x="552.943" y="66.8524">1</text><text fill="#000000" font-family="sans-serif" font-size="13" lengthAdjust="spacingAndGlyphs" textLength="8" x="656.118" y="66.5223">1</text><!--MD5=[5319636e835e0f4efacb58f999dcd467]
@startuml
skinparam classAttributeIconSize 0
hide methods
left to right direction


class Platform{

}


class Organization{
-String name
-String NIF
}


class User{
-String name
-String email
-String password
-String role
}



class Manager{
-String name
-String email
}



Platform"1" - - "*"Organization : contains >

Organization"1" - - "1"Manager : contains >

Manager"1" - - "1" User : acts like >
@enduml

PlantUML version 1.2019.11(Sun Sep 22 12:02:15 CEST 2019)
(GPL source distribution)
Java Runtime: OpenJDK Runtime Environment
JVM: OpenJDK 64-Bit Server VM
Java Version: 1.8.0_242-8u242-b08-0ubuntu3~16.04-b08
Operating System: Linux
Default Encoding: UTF-8
Language: en
Country: US
--></g></svg>