<?xml version="1.0" encoding="UTF-8" standalone="no"?><svg xmlns="http://www.w3.org/2000/svg" xmlns:xlink="http://www.w3.org/1999/xlink" contentScriptType="application/ecmascript" contentStyleType="text/css" height="655px" preserveAspectRatio="none" style="width:1823px;height:655px;" version="1.1" viewBox="0 0 1823 655" width="1823px" zoomAndPan="magnify"><defs><filter height="300%" id="f1601e957dipgk" width="300%" x="-1" y="-1"><feGaussianBlur result="blurOut" stdDeviation="2.0"/><feColorMatrix in="blurOut" result="blurOut2" type="matrix" values="0 0 0 0 0 0 0 0 0 0 0 0 0 0 0 0 0 0 .4 0"/><feOffset dx="4.0" dy="4.0" in="blurOut2" result="blurOut3"/><feBlend in="SourceGraphic" in2="blurOut3" mode="normal"/></filter></defs><g><!--MD5=[9681dc6e01e10c6b4fe06895ae94f592]
cluster UI--><polygon fill="#FFFFFF" filter="url(#f1601e957dipgk)" points="22,43,43,43,50,65.2969,221,65.2969,221,142,22,142,22,43" style="stroke: #000000; stroke-width: 1.5;"/><line style="stroke: #000000; stroke-width: 1.5;" x1="22" x2="50" y1="65.2969" y2="65.2969"/><text fill="#000000" font-family="sans-serif" font-size="14" font-weight="bold" lengthAdjust="spacingAndGlyphs" textLength="15" x="26" y="57.9951">UI</text><!--MD5=[afa595e9dd3d9bdddc483728263165b0]
cluster Controladores--><polygon fill="#FFFFFF" filter="url(#f1601e957dipgk)" points="254,24,373,24,380,46.2969,699.5,46.2969,699.5,161,254,161,254,24" style="stroke: #000000; stroke-width: 1.5;"/><line style="stroke: #000000; stroke-width: 1.5;" x1="254" x2="380" y1="46.2969" y2="46.2969"/><text fill="#000000" font-family="sans-serif" font-size="14" font-weight="bold" lengthAdjust="spacingAndGlyphs" textLength="113" x="258" y="38.9951">Controladores</text><!--MD5=[84902790dff09be9bc57cd3348c79b7d]
cluster Autorizacao.model--><polygon fill="#FFFFFF" filter="url(#f1601e957dipgk)" points="535,185,688,185,695,207.2969,702,207.2969,702,298,535,298,535,185" style="stroke: #000000; stroke-width: 1.5;"/><line style="stroke: #000000; stroke-width: 1.5;" x1="535" x2="695" y1="207.2969" y2="207.2969"/><text fill="#000000" font-family="sans-serif" font-size="14" font-weight="bold" lengthAdjust="spacingAndGlyphs" textLength="147" x="539" y="199.9951">Autorizacao.model</text><!--MD5=[746f6c2d331a0a8008673ce2aa14c974]
cluster Domínio--><polygon fill="#FFFFFF" filter="url(#f1601e957dipgk)" points="533,322,602,322,609,344.2969,1801,344.2969,1801,643,533,643,533,322" style="stroke: #000000; stroke-width: 1.5;"/><line style="stroke: #000000; stroke-width: 1.5;" x1="533" x2="609" y1="344.2969" y2="344.2969"/><text fill="#000000" font-family="sans-serif" font-size="14" font-weight="bold" lengthAdjust="spacingAndGlyphs" textLength="63" x="537" y="336.9951">Domínio</text><!--MD5=[d42d3fb38fc9f01e099b32254c041d40]
class DefinePaymentTimeUI--><rect fill="#FEFECE" filter="url(#f1601e957dipgk)" height="48" id="DefinePaymentTimeUI" style="stroke: #A80036; stroke-width: 1.5;" width="167" x="38" y="78"/><ellipse cx="53" cy="94" fill="#ADD1B2" rx="11" ry="11" style="stroke: #A80036; stroke-width: 1.0;"/><path d="M55.9688,99.6406 Q55.3906,99.9375 54.75,100.0781 Q54.1094,100.2344 53.4063,100.2344 Q50.9063,100.2344 49.5781,98.5938 Q48.2656,96.9375 48.2656,93.8125 Q48.2656,90.6875 49.5781,89.0313 Q50.9063,87.375 53.4063,87.375 Q54.1094,87.375 54.75,87.5313 Q55.4063,87.6875 55.9688,87.9844 L55.9688,90.7031 Q55.3438,90.125 54.75,89.8594 Q54.1563,89.5781 53.5313,89.5781 Q52.1875,89.5781 51.5,90.6563 Q50.8125,91.7188 50.8125,93.8125 Q50.8125,95.9063 51.5,96.9844 Q52.1875,98.0469 53.5313,98.0469 Q54.1563,98.0469 54.75,97.7813 Q55.3438,97.5 55.9688,96.9219 L55.9688,99.6406 Z "/><text fill="#000000" font-family="sans-serif" font-size="12" lengthAdjust="spacingAndGlyphs" textLength="135" x="67" y="98.1543">DefinePaymentTimeUI</text><line style="stroke: #A80036; stroke-width: 1.5;" x1="39" x2="204" y1="110" y2="110"/><line style="stroke: #A80036; stroke-width: 1.5;" x1="39" x2="204" y1="118" y2="118"/><!--MD5=[d8806e952e5bb261fe965da3bf116788]
class DefinePaymentTimeController--><rect fill="#FEFECE" filter="url(#f1601e957dipgk)" height="86.4141" id="DefinePaymentTimeController" style="stroke: #A80036; stroke-width: 1.5;" width="216" x="270" y="59"/><ellipse cx="285" cy="75" fill="#ADD1B2" rx="11" ry="11" style="stroke: #A80036; stroke-width: 1.0;"/><path d="M287.9688,80.6406 Q287.3906,80.9375 286.75,81.0781 Q286.1094,81.2344 285.4063,81.2344 Q282.9063,81.2344 281.5781,79.5938 Q280.2656,77.9375 280.2656,74.8125 Q280.2656,71.6875 281.5781,70.0313 Q282.9063,68.375 285.4063,68.375 Q286.1094,68.375 286.75,68.5313 Q287.4063,68.6875 287.9688,68.9844 L287.9688,71.7031 Q287.3438,71.125 286.75,70.8594 Q286.1563,70.5781 285.5313,70.5781 Q284.1875,70.5781 283.5,71.6563 Q282.8125,72.7188 282.8125,74.8125 Q282.8125,76.9063 283.5,77.9844 Q284.1875,79.0469 285.5313,79.0469 Q286.1563,79.0469 286.75,78.7813 Q287.3438,78.5 287.9688,77.9219 L287.9688,80.6406 Z "/><text fill="#000000" font-family="sans-serif" font-size="12" lengthAdjust="spacingAndGlyphs" textLength="184" x="299" y="79.1543">DefinePaymentTimeController</text><line style="stroke: #A80036; stroke-width: 1.5;" x1="271" x2="485" y1="91" y2="91"/><line style="stroke: #A80036; stroke-width: 1.5;" x1="271" x2="485" y1="99" y2="99"/><text fill="#000000" font-family="sans-serif" font-size="11" lengthAdjust="spacingAndGlyphs" textLength="56" x="276" y="113.2104">+getOrg()</text><text fill="#000000" font-family="sans-serif" font-size="11" lengthAdjust="spacingAndGlyphs" textLength="136" x="276" y="126.0151">+validateDate(day,time)</text><text fill="#000000" font-family="sans-serif" font-size="11" lengthAdjust="spacingAndGlyphs" textLength="166" x="276" y="138.8198">+schedulePayment(day,time)</text><!--MD5=[380d12a68ed0046a60f31008a02875d0]
class AplicacaoPOT--><rect fill="#FEFECE" filter="url(#f1601e957dipgk)" height="73.6094" id="AplicacaoPOT" style="stroke: #A80036; stroke-width: 1.5;" width="130" x="553.5" y="65"/><ellipse cx="574.8" cy="81" fill="#ADD1B2" rx="11" ry="11" style="stroke: #A80036; stroke-width: 1.0;"/><path d="M577.7688,86.6406 Q577.1906,86.9375 576.55,87.0781 Q575.9094,87.2344 575.2063,87.2344 Q572.7063,87.2344 571.3781,85.5938 Q570.0656,83.9375 570.0656,80.8125 Q570.0656,77.6875 571.3781,76.0313 Q572.7063,74.375 575.2063,74.375 Q575.9094,74.375 576.55,74.5313 Q577.2063,74.6875 577.7688,74.9844 L577.7688,77.7031 Q577.1438,77.125 576.55,76.8594 Q575.9563,76.5781 575.3313,76.5781 Q573.9875,76.5781 573.3,77.6563 Q572.6125,78.7188 572.6125,80.8125 Q572.6125,82.9063 573.3,83.9844 Q573.9875,85.0469 575.3313,85.0469 Q575.9563,85.0469 576.55,84.7813 Q577.1438,84.5 577.7688,83.9219 L577.7688,86.6406 Z "/><text fill="#000000" font-family="sans-serif" font-size="12" lengthAdjust="spacingAndGlyphs" textLength="84" x="590.2" y="85.1543">AplicacaoPOT</text><line style="stroke: #A80036; stroke-width: 1.5;" x1="554.5" x2="682.5" y1="97" y2="97"/><line style="stroke: #A80036; stroke-width: 1.5;" x1="554.5" x2="682.5" y1="105" y2="105"/><text fill="#000000" font-family="sans-serif" font-size="11" lengthAdjust="spacingAndGlyphs" textLength="118" x="559.5" y="119.2104">+static getInstance()</text><text fill="#000000" font-family="sans-serif" font-size="11" lengthAdjust="spacingAndGlyphs" textLength="106" x="559.5" y="132.0151">+getSessaoAtual()</text><!--MD5=[1e13576e8c070e32200b62ceaa1f39ec]
class SessaoUtilizador--><rect fill="#FEFECE" filter="url(#f1601e957dipgk)" height="60.8047" id="SessaoUtilizador" style="stroke: #A80036; stroke-width: 1.5;" width="135" x="551" y="220.5"/><ellipse cx="566" cy="236.5" fill="#ADD1B2" rx="11" ry="11" style="stroke: #A80036; stroke-width: 1.0;"/><path d="M568.9688,242.1406 Q568.3906,242.4375 567.75,242.5781 Q567.1094,242.7344 566.4063,242.7344 Q563.9063,242.7344 562.5781,241.0938 Q561.2656,239.4375 561.2656,236.3125 Q561.2656,233.1875 562.5781,231.5313 Q563.9063,229.875 566.4063,229.875 Q567.1094,229.875 567.75,230.0313 Q568.4063,230.1875 568.9688,230.4844 L568.9688,233.2031 Q568.3438,232.625 567.75,232.3594 Q567.1563,232.0781 566.5313,232.0781 Q565.1875,232.0781 564.5,233.1563 Q563.8125,234.2188 563.8125,236.3125 Q563.8125,238.4063 564.5,239.4844 Q565.1875,240.5469 566.5313,240.5469 Q567.1563,240.5469 567.75,240.2813 Q568.3438,240 568.9688,239.4219 L568.9688,242.1406 Z "/><text fill="#000000" font-family="sans-serif" font-size="12" lengthAdjust="spacingAndGlyphs" textLength="103" x="580" y="240.6543">SessaoUtilizador</text><line style="stroke: #A80036; stroke-width: 1.5;" x1="552" x2="685" y1="252.5" y2="252.5"/><line style="stroke: #A80036; stroke-width: 1.5;" x1="552" x2="685" y1="260.5" y2="260.5"/><text fill="#000000" font-family="sans-serif" font-size="11" lengthAdjust="spacingAndGlyphs" textLength="118" x="557" y="274.7104">+getEmailUtilizador()</text><!--MD5=[03dcba4cf8fb1a884adf843655d65df1]
class Plataform--><rect fill="#FEFECE" filter="url(#f1601e957dipgk)" height="60.8047" id="Plataform" style="stroke: #A80036; stroke-width: 1.5;" width="139" x="549" y="357.5"/><ellipse cx="585.15" cy="373.5" fill="#ADD1B2" rx="11" ry="11" style="stroke: #A80036; stroke-width: 1.0;"/><path d="M588.1188,379.1406 Q587.5406,379.4375 586.9,379.5781 Q586.2594,379.7344 585.5563,379.7344 Q583.0563,379.7344 581.7281,378.0938 Q580.4156,376.4375 580.4156,373.3125 Q580.4156,370.1875 581.7281,368.5313 Q583.0563,366.875 585.5563,366.875 Q586.2594,366.875 586.9,367.0313 Q587.5563,367.1875 588.1188,367.4844 L588.1188,370.2031 Q587.4938,369.625 586.9,369.3594 Q586.3063,369.0781 585.6813,369.0781 Q584.3375,369.0781 583.65,370.1563 Q582.9625,371.2188 582.9625,373.3125 Q582.9625,375.4063 583.65,376.4844 Q584.3375,377.5469 585.6813,377.5469 Q586.3063,377.5469 586.9,377.2813 Q587.4938,377 588.1188,376.4219 L588.1188,379.1406 Z "/><text fill="#000000" font-family="sans-serif" font-size="12" lengthAdjust="spacingAndGlyphs" textLength="60" x="603.85" y="377.6543">Plataform</text><line style="stroke: #A80036; stroke-width: 1.5;" x1="550" x2="687" y1="389.5" y2="389.5"/><line style="stroke: #A80036; stroke-width: 1.5;" x1="550" x2="687" y1="397.5" y2="397.5"/><text fill="#000000" font-family="sans-serif" font-size="11" lengthAdjust="spacingAndGlyphs" textLength="127" x="555" y="411.7104">+getOrganizationReg()</text><!--MD5=[20060696b302850b41b79a5236eadb69]
class OrganizationReg--><rect fill="#FEFECE" filter="url(#f1601e957dipgk)" height="60.8047" id="OrganizationReg" style="stroke: #A80036; stroke-width: 1.5;" width="194" x="809" y="441.5"/><ellipse cx="851" cy="457.5" fill="#ADD1B2" rx="11" ry="11" style="stroke: #A80036; stroke-width: 1.0;"/><path d="M853.9688,463.1406 Q853.3906,463.4375 852.75,463.5781 Q852.1094,463.7344 851.4063,463.7344 Q848.9063,463.7344 847.5781,462.0938 Q846.2656,460.4375 846.2656,457.3125 Q846.2656,454.1875 847.5781,452.5313 Q848.9063,450.875 851.4063,450.875 Q852.1094,450.875 852.75,451.0313 Q853.4063,451.1875 853.9688,451.4844 L853.9688,454.2031 Q853.3438,453.625 852.75,453.3594 Q852.1563,453.0781 851.5313,453.0781 Q850.1875,453.0781 849.5,454.1563 Q848.8125,455.2188 848.8125,457.3125 Q848.8125,459.4063 849.5,460.4844 Q850.1875,461.5469 851.5313,461.5469 Q852.1563,461.5469 852.75,461.2813 Q853.3438,461 853.9688,460.4219 L853.9688,463.1406 Z "/><text fill="#000000" font-family="sans-serif" font-size="12" lengthAdjust="spacingAndGlyphs" textLength="102" x="871" y="461.6543">OrganizationReg</text><line style="stroke: #A80036; stroke-width: 1.5;" x1="810" x2="1002" y1="473.5" y2="473.5"/><line style="stroke: #A80036; stroke-width: 1.5;" x1="810" x2="1002" y1="481.5" y2="481.5"/><text fill="#000000" font-family="sans-serif" font-size="11" lengthAdjust="spacingAndGlyphs" textLength="182" x="815" y="495.7104">+getOrganizationByEmail(email)</text><!--MD5=[b24ed8d4ae84bae9290d9aab401637c7]
class Manager--><rect fill="#FEFECE" filter="url(#f1601e957dipgk)" height="73.6094" id="Manager" style="stroke: #A80036; stroke-width: 1.5;" width="87" x="1432.5" y="553"/><ellipse cx="1447.5" cy="569" fill="#ADD1B2" rx="11" ry="11" style="stroke: #A80036; stroke-width: 1.0;"/><path d="M1450.4688,574.6406 Q1449.8906,574.9375 1449.25,575.0781 Q1448.6094,575.2344 1447.9063,575.2344 Q1445.4063,575.2344 1444.0781,573.5938 Q1442.7656,571.9375 1442.7656,568.8125 Q1442.7656,565.6875 1444.0781,564.0313 Q1445.4063,562.375 1447.9063,562.375 Q1448.6094,562.375 1449.25,562.5313 Q1449.9063,562.6875 1450.4688,562.9844 L1450.4688,565.7031 Q1449.8438,565.125 1449.25,564.8594 Q1448.6563,564.5781 1448.0313,564.5781 Q1446.6875,564.5781 1446,565.6563 Q1445.3125,566.7188 1445.3125,568.8125 Q1445.3125,570.9063 1446,571.9844 Q1446.6875,573.0469 1448.0313,573.0469 Q1448.6563,573.0469 1449.25,572.7813 Q1449.8438,572.5 1450.4688,571.9219 L1450.4688,574.6406 Z "/><text fill="#000000" font-family="sans-serif" font-size="12" lengthAdjust="spacingAndGlyphs" textLength="55" x="1461.5" y="573.1543">Manager</text><line style="stroke: #A80036; stroke-width: 1.5;" x1="1433.5" x2="1518.5" y1="585" y2="585"/><text fill="#000000" font-family="sans-serif" font-size="11" lengthAdjust="spacingAndGlyphs" textLength="74" x="1438.5" y="599.2104">-String name</text><text fill="#000000" font-family="sans-serif" font-size="11" lengthAdjust="spacingAndGlyphs" textLength="73" x="1438.5" y="612.0151">-String email</text><line style="stroke: #A80036; stroke-width: 1.5;" x1="1433.5" x2="1518.5" y1="618.6094" y2="618.6094"/><!--MD5=[86c7c362de55a38b660185a1328fe18d]
class Organization--><rect fill="#FEFECE" filter="url(#f1601e957dipgk)" height="112.0234" id="Organization" style="stroke: #A80036; stroke-width: 1.5;" width="149" x="1132" y="424"/><ellipse cx="1164.55" cy="440" fill="#ADD1B2" rx="11" ry="11" style="stroke: #A80036; stroke-width: 1.0;"/><path d="M1167.5188,445.6406 Q1166.9406,445.9375 1166.3,446.0781 Q1165.6594,446.2344 1164.9563,446.2344 Q1162.4563,446.2344 1161.1281,444.5938 Q1159.8156,442.9375 1159.8156,439.8125 Q1159.8156,436.6875 1161.1281,435.0313 Q1162.4563,433.375 1164.9563,433.375 Q1165.6594,433.375 1166.3,433.5313 Q1166.9563,433.6875 1167.5188,433.9844 L1167.5188,436.7031 Q1166.8938,436.125 1166.3,435.8594 Q1165.7063,435.5781 1165.0813,435.5781 Q1163.7375,435.5781 1163.05,436.6563 Q1162.3625,437.7188 1162.3625,439.8125 Q1162.3625,441.9063 1163.05,442.9844 Q1163.7375,444.0469 1165.0813,444.0469 Q1165.7063,444.0469 1166.3,443.7813 Q1166.8938,443.5 1167.5188,442.9219 L1167.5188,445.6406 Z "/><text fill="#000000" font-family="sans-serif" font-size="12" lengthAdjust="spacingAndGlyphs" textLength="78" x="1182.45" y="444.1543">Organization</text><line style="stroke: #A80036; stroke-width: 1.5;" x1="1133" x2="1280" y1="456" y2="456"/><text fill="#000000" font-family="sans-serif" font-size="11" lengthAdjust="spacingAndGlyphs" textLength="74" x="1138" y="470.2104">-String name</text><text fill="#000000" font-family="sans-serif" font-size="11" lengthAdjust="spacingAndGlyphs" textLength="59" x="1138" y="483.0151">-String NIF</text><line style="stroke: #A80036; stroke-width: 1.5;" x1="1133" x2="1280" y1="489.6094" y2="489.6094"/><text fill="#000000" font-family="sans-serif" font-size="11" lengthAdjust="spacingAndGlyphs" textLength="84" x="1138" y="503.8198">+getManager()</text><text fill="#000000" font-family="sans-serif" font-size="11" lengthAdjust="spacingAndGlyphs" textLength="107" x="1138" y="516.6245">+validateDate(day)</text><text fill="#000000" font-family="sans-serif" font-size="11" lengthAdjust="spacingAndGlyphs" textLength="137" x="1138" y="529.4292">+schedulePayment(day)</text><!--MD5=[74054751ba3b9eca75fda5044dcc84d9]
class TimerTask--><rect fill="#FEFECE" filter="url(#f1601e957dipgk)" height="60.8047" id="TimerTask" style="stroke: #A80036; stroke-width: 1.5;" width="95" x="1682.5" y="409.5"/><ellipse cx="1697.5" cy="425.5" fill="#A9DCDF" rx="11" ry="11" style="stroke: #A80036; stroke-width: 1.0;"/><path d="M1697.6094,420.8438 L1696.4531,425.9219 L1698.7813,425.9219 L1697.6094,420.8438 Z M1696.125,418.6094 L1699.1094,418.6094 L1702.4688,431 L1700.0156,431 L1699.25,427.9375 L1695.9688,427.9375 L1695.2188,431 L1692.7813,431 L1696.125,418.6094 Z "/><text fill="#000000" font-family="sans-serif" font-size="12" font-style="italic" lengthAdjust="spacingAndGlyphs" textLength="63" x="1711.5" y="429.6543">TimerTask</text><line style="stroke: #A80036; stroke-width: 1.5;" x1="1683.5" x2="1776.5" y1="441.5" y2="441.5"/><line style="stroke: #A80036; stroke-width: 1.5;" x1="1683.5" x2="1776.5" y1="449.5" y2="449.5"/><text fill="#000000" font-family="sans-serif" font-size="11" lengthAdjust="spacingAndGlyphs" textLength="77" x="1688.5" y="463.7104">+TimerTask()</text><!--MD5=[1b844c90688aafb95cd8c95626c3b83a]
class Timer--><rect fill="#FEFECE" filter="url(#f1601e957dipgk)" height="73.6094" id="Timer" style="stroke: #A80036; stroke-width: 1.5;" width="132" x="1410" y="357"/><ellipse cx="1454.75" cy="373" fill="#ADD1B2" rx="11" ry="11" style="stroke: #A80036; stroke-width: 1.0;"/><path d="M1457.7188,378.6406 Q1457.1406,378.9375 1456.5,379.0781 Q1455.8594,379.2344 1455.1563,379.2344 Q1452.6563,379.2344 1451.3281,377.5938 Q1450.0156,375.9375 1450.0156,372.8125 Q1450.0156,369.6875 1451.3281,368.0313 Q1452.6563,366.375 1455.1563,366.375 Q1455.8594,366.375 1456.5,366.5313 Q1457.1563,366.6875 1457.7188,366.9844 L1457.7188,369.7031 Q1457.0938,369.125 1456.5,368.8594 Q1455.9063,368.5781 1455.2813,368.5781 Q1453.9375,368.5781 1453.25,369.6563 Q1452.5625,370.7188 1452.5625,372.8125 Q1452.5625,374.9063 1453.25,375.9844 Q1453.9375,377.0469 1455.2813,377.0469 Q1455.9063,377.0469 1456.5,376.7813 Q1457.0938,376.5 1457.7188,375.9219 L1457.7188,378.6406 Z "/><text fill="#000000" font-family="sans-serif" font-size="12" lengthAdjust="spacingAndGlyphs" textLength="34" x="1475.25" y="377.1543">Timer</text><line style="stroke: #A80036; stroke-width: 1.5;" x1="1411" x2="1541" y1="389" y2="389"/><line style="stroke: #A80036; stroke-width: 1.5;" x1="1411" x2="1541" y1="397" y2="397"/><text fill="#000000" font-family="sans-serif" font-size="11" lengthAdjust="spacingAndGlyphs" textLength="50" x="1416" y="411.2104">+Timer()</text><text fill="#000000" font-family="sans-serif" font-size="11" lengthAdjust="spacingAndGlyphs" textLength="120" x="1416" y="424.0151">+schedule(task, day)</text><!--MD5=[3fd616f346a44cd59a91eb10b19e157c]
class User--><rect fill="#FEFECE" filter="url(#f1601e957dipgk)" height="99.2188" id="User" style="stroke: #A80036; stroke-width: 1.5;" width="110" x="1675" y="527.5"/><ellipse cx="1712.05" cy="543.5" fill="#ADD1B2" rx="11" ry="11" style="stroke: #A80036; stroke-width: 1.0;"/><path d="M1715.0188,549.1406 Q1714.4406,549.4375 1713.8,549.5781 Q1713.1594,549.7344 1712.4563,549.7344 Q1709.9563,549.7344 1708.6281,548.0938 Q1707.3156,546.4375 1707.3156,543.3125 Q1707.3156,540.1875 1708.6281,538.5313 Q1709.9563,536.875 1712.4563,536.875 Q1713.1594,536.875 1713.8,537.0313 Q1714.4563,537.1875 1715.0188,537.4844 L1715.0188,540.2031 Q1714.3938,539.625 1713.8,539.3594 Q1713.2063,539.0781 1712.5813,539.0781 Q1711.2375,539.0781 1710.55,540.1563 Q1709.8625,541.2188 1709.8625,543.3125 Q1709.8625,545.4063 1710.55,546.4844 Q1711.2375,547.5469 1712.5813,547.5469 Q1713.2063,547.5469 1713.8,547.2813 Q1714.3938,547 1715.0188,546.4219 L1715.0188,549.1406 Z "/><text fill="#000000" font-family="sans-serif" font-size="12" lengthAdjust="spacingAndGlyphs" textLength="29" x="1730.95" y="547.6543">User</text><line style="stroke: #A80036; stroke-width: 1.5;" x1="1676" x2="1784" y1="559.5" y2="559.5"/><text fill="#000000" font-family="sans-serif" font-size="11" lengthAdjust="spacingAndGlyphs" textLength="74" x="1681" y="573.7104">-String name</text><text fill="#000000" font-family="sans-serif" font-size="11" lengthAdjust="spacingAndGlyphs" textLength="73" x="1681" y="586.5151">-String email</text><text fill="#000000" font-family="sans-serif" font-size="11" lengthAdjust="spacingAndGlyphs" textLength="98" x="1681" y="599.3198">-String password</text><text fill="#000000" font-family="sans-serif" font-size="11" lengthAdjust="spacingAndGlyphs" textLength="64" x="1681" y="612.1245">-String role</text><line style="stroke: #A80036; stroke-width: 1.5;" x1="1676" x2="1784" y1="618.7188" y2="618.7188"/><!--MD5=[f3a20e78468e750909dc6b4dc55c6979]
link DefinePaymentTimeUI to DefinePaymentTimeController--><path d="M205.129,102 C224.129,102 244.648,102 264.668,102 " fill="none" id="DefinePaymentTimeUI-&gt;DefinePaymentTimeController" style="stroke: #A80036; stroke-width: 1.0; stroke-dasharray: 7.0,7.0;"/><polygon fill="#A80036" points="269.746,102,260.746,98,264.746,102,260.746,106,269.746,102" style="stroke: #A80036; stroke-width: 1.0;"/><!--MD5=[7236b2928c18c0284b6de771f1e60df8]
link DefinePaymentTimeController to Plataform--><path d="M408.186,145.179 C436.413,185.932 481.231,248.062 525,298 C541.888,317.268 562.145,337.28 579.392,353.527 " fill="none" id="DefinePaymentTimeController-&gt;Plataform" style="stroke: #A80036; stroke-width: 1.0; stroke-dasharray: 7.0,7.0;"/><polygon fill="#A80036" points="583.251,357.147,579.4238,348.0722,579.6044,353.7262,573.9504,353.9068,583.251,357.147" style="stroke: #A80036; stroke-width: 1.0;"/><!--MD5=[4050e475c5ddc9b32c23c1dd249fafe0]
link DefinePaymentTimeController to OrganizationReg--><path d="M383.988,145.119 C394.974,218.418 428.498,366.144 525,436 C604.971,493.89 720.557,496.594 803.222,488.737 " fill="none" id="DefinePaymentTimeController-&gt;OrganizationReg" style="stroke: #A80036; stroke-width: 1.0; stroke-dasharray: 7.0,7.0;"/><polygon fill="#A80036" points="808.618,488.205,799.2693,485.1063,803.6421,488.695,800.0533,493.0678,808.618,488.205" style="stroke: #A80036; stroke-width: 1.0;"/><!--MD5=[f652909b932c16e5f59f114568362d95]
link DefinePaymentTimeController to SessaoUtilizador--><path d="M447.984,145.097 C484.85,168.128 529.56,196.061 563.806,217.455 " fill="none" id="DefinePaymentTimeController-&gt;SessaoUtilizador" style="stroke: #A80036; stroke-width: 1.0; stroke-dasharray: 7.0,7.0;"/><polygon fill="#A80036" points="568.354,220.296,562.842,212.134,564.114,217.646,558.602,218.918,568.354,220.296" style="stroke: #A80036; stroke-width: 1.0;"/><!--MD5=[85483cb3bf064d9c1d7bdbc3d08e64b4]
link DefinePaymentTimeController to AplicacaoPOT--><path d="M486.041,102 C507.095,102 528.662,102 548.079,102 " fill="none" id="DefinePaymentTimeController-&gt;AplicacaoPOT" style="stroke: #A80036; stroke-width: 1.0; stroke-dasharray: 7.0,7.0;"/><polygon fill="#A80036" points="553.497,102,544.497,98,548.497,102,544.497,106,553.497,102" style="stroke: #A80036; stroke-width: 1.0;"/><!--MD5=[0f4df15e112760e7c08ff9014a9a7622]
link Plataform to OrganizationReg--><path d="M688.248,408.227 C724.382,418.859 769.261,432.063 808.793,443.694 " fill="none" id="Plataform-OrganizationReg" style="stroke: #A80036; stroke-width: 1.0;"/><text fill="#000000" font-family="sans-serif" font-size="13" lengthAdjust="spacingAndGlyphs" textLength="46" x="719" y="413.0669">contais</text><polygon fill="#000000" points="768,407.0664,774,410.0664,768,413.0664,768,407.0664" style="stroke: #000000; stroke-width: 1.0;"/><text fill="#000000" font-family="sans-serif" font-size="13" lengthAdjust="spacingAndGlyphs" textLength="8" x="695.8533" y="423.1702">1</text><text fill="#000000" font-family="sans-serif" font-size="13" lengthAdjust="spacingAndGlyphs" textLength="7" x="794.0826" y="454.1805">*</text><!--MD5=[8055e3cecaf06a25120a4c5a72968f1a]
link OrganizationReg to Organization--><path d="M1003.09,474.575 C1044.85,475.694 1092.99,476.985 1131.84,478.026 " fill="none" id="OrganizationReg-Organization" style="stroke: #A80036; stroke-width: 1.0;"/><text fill="#000000" font-family="sans-serif" font-size="13" lengthAdjust="spacingAndGlyphs" textLength="54" x="1034" y="471.0669">contains</text><polygon fill="#000000" points="1091,465.0664,1097,468.0664,1091,471.0664,1091,465.0664" style="stroke: #000000; stroke-width: 1.0;"/><text fill="#000000" font-family="sans-serif" font-size="13" lengthAdjust="spacingAndGlyphs" textLength="8" x="1011.1456" y="487.4578">1</text><text fill="#000000" font-family="sans-serif" font-size="13" lengthAdjust="spacingAndGlyphs" textLength="7" x="1116.7798" y="490.6684">*</text><!--MD5=[bc039f41cf0b27fadee5cae63fc6e1fe]
link Organization to Manager--><path d="M1281.3,510.349 C1329.86,530.317 1391.71,555.751 1432.29,572.4362 " fill="none" id="Organization-Manager" style="stroke: #A80036; stroke-width: 1.0;"/><text fill="#000000" font-family="sans-serif" font-size="13" lengthAdjust="spacingAndGlyphs" textLength="54" x="1312" y="521.0669">contains</text><polygon fill="#000000" points="1369,515.0664,1375,518.0664,1369,521.0664,1369,515.0664" style="stroke: #000000; stroke-width: 1.0;"/><text fill="#000000" font-family="sans-serif" font-size="13" lengthAdjust="spacingAndGlyphs" textLength="8" x="1289.0569" y="526.147">1</text><text fill="#000000" font-family="sans-serif" font-size="13" lengthAdjust="spacingAndGlyphs" textLength="8" x="1416.388" y="582.8796">1</text><!--MD5=[7f40a09025c74fbddd4bfc29cef9c228]
link Organization to TimerTask--><path d="M1281.05,478.956 C1348.91,477.51 1452.42,474.083 1542,466 C1589.99,461.67 1644.52,453.74 1682.26,447.772 " fill="none" id="Organization-TimerTask" style="stroke: #A80036; stroke-width: 1.0;"/><text fill="#000000" font-family="sans-serif" font-size="13" lengthAdjust="spacingAndGlyphs" textLength="54" x="1442.5" y="462.0669">contains</text><polygon fill="#000000" points="1499.5,456.0664,1505.5,459.0664,1499.5,462.0664,1499.5,456.0664" style="stroke: #000000; stroke-width: 1.0;"/><text fill="#000000" font-family="sans-serif" font-size="13" lengthAdjust="spacingAndGlyphs" textLength="8" x="1289.1505" y="491.6943">1</text><text fill="#000000" font-family="sans-serif" font-size="13" lengthAdjust="spacingAndGlyphs" textLength="8" x="1666.6607" y="462.1061">1</text><!--MD5=[b6fb913e1a248650605ecf7d0a027372]
link Organization to Timer--><path d="M1281.3,456.272 C1321.51,443.346 1370.83,427.489 1409.64,415.012 " fill="none" id="Organization-Timer" style="stroke: #A80036; stroke-width: 1.0;"/><text fill="#000000" font-family="sans-serif" font-size="13" lengthAdjust="spacingAndGlyphs" textLength="54" x="1312" y="422.0669">contains</text><polygon fill="#000000" points="1369,416.0664,1375,419.0664,1369,422.0664,1369,416.0664" style="stroke: #000000; stroke-width: 1.0;"/><text fill="#000000" font-family="sans-serif" font-size="13" lengthAdjust="spacingAndGlyphs" textLength="8" x="1289.0569" y="466.7468">1</text><text fill="#000000" font-family="sans-serif" font-size="13" lengthAdjust="spacingAndGlyphs" textLength="8" x="1393.9444" y="430.226">1</text><!--MD5=[c095f0fc5dcac8b48c3f09a153d574ac]
link Timer to TimerTask--><path d="M1542.22,405.906 C1586.12,413.919 1642.96,424.294 1682.35,431.484 " fill="none" id="Timer-TimerTask" style="stroke: #A80036; stroke-width: 1.0;"/><text fill="#000000" font-family="sans-serif" font-size="13" lengthAdjust="spacingAndGlyphs" textLength="58" x="1573" y="407.0669">executes</text><polygon fill="#000000" points="1634,401.0664,1640,404.0664,1634,407.0664,1634,401.0664" style="stroke: #000000; stroke-width: 1.0;"/><text fill="#000000" font-family="sans-serif" font-size="13" lengthAdjust="spacingAndGlyphs" textLength="7" x="1549.8456" y="420.1241">*</text><text fill="#000000" font-family="sans-serif" font-size="13" lengthAdjust="spacingAndGlyphs" textLength="8" x="1666.4411" y="443.4204">1</text><!--MD5=[6eb6e197a729f6ec2412743e0bdbca1d]
link Manager to User--><path d="M1519.75,587.7947 C1562.44,585.5925 1628.2,582.1999 1674.59,579.8068 " fill="none" id="Manager-User" style="stroke: #A80036; stroke-width: 1.0;"/><text fill="#000000" font-family="sans-serif" font-size="13" lengthAdjust="spacingAndGlyphs" textLength="52" x="1576" y="577.0669">acts like</text><polygon fill="#000000" points="1631,571.0664,1637,574.0664,1631,577.0664,1631,571.0664" style="stroke: #000000; stroke-width: 1.0;"/><text fill="#000000" font-family="sans-serif" font-size="13" lengthAdjust="spacingAndGlyphs" textLength="8" x="1527.3602" y="600.7471">1</text><text fill="#000000" font-family="sans-serif" font-size="13" lengthAdjust="spacingAndGlyphs" textLength="8" x="1658.9781" y="593.1887">1</text><!--MD5=[8033076baeb1cee11574a67a978e351a]
@startuml
skinparam classAttributeIconSize 0
left to right direction

package UI <<Folder>> {
  class DefinePaymentTimeUI
}

package Controladores <<Folder>> {
  class DefinePaymentTimeController
  class AplicacaoPOT
}

package Autorizacao.model <<Folder>>{
class SessaoUtilizador
}


package Domínio <<Folder>> {
class Plataform
class OrganizationReg
class Manager
class Organization
class  TimerTask
class Timer
class User
}

class DefinePaymentTimeUI {
}

class DefinePaymentTimeController {
  +getOrg()
  +validateDate(day,time)
  +schedulePayment(day,time)
}

class AplicacaoPOT{
  +static getInstance()
  +getSessaoAtual()
}

class SessaoUtilizador{
  +getEmailUtilizador()
}

class Plataform {
  +getOrganizationReg()
}

class OrganizationReg {
  +getOrganizationByEmail(email)
}

class Manager {
  -String name
  -String email
}

class User{
-String name
-String email
-String password
-String role
}

class Organization {
  -String name
-String NIF
  +getManager()
  +validateDate(day)
  +schedulePayment(day)
}

abstract TimerTask {
  +TimerTask()
}

class Timer {
  +Timer()
  +schedule(task, day)
  }

DefinePaymentTimeUI ..> DefinePaymentTimeController

DefinePaymentTimeController ..> Plataform
DefinePaymentTimeController ..> OrganizationReg
DefinePaymentTimeController ..> SessaoUtilizador
DefinePaymentTimeController ..> AplicacaoPOT

Plataform "1" - - "*" OrganizationReg : contais >

OrganizationReg "1" - -  "*" Organization : contains >

Organization "1" - - "1" Manager : contains >
Organization "1" - - "1" TimerTask : contains >
Organization "1" - - "1" Timer : contains >

Timer "*" - - "1" TimerTask : executes >

Manager "1" - - "1" User : acts like >
@enduml

PlantUML version 1.2019.11(Sun Sep 22 12:02:15 CEST 2019)
(GPL source distribution)
Java Runtime: OpenJDK Runtime Environment
JVM: OpenJDK 64-Bit Server VM
Java Version: 1.8.0_242-8u242-b08-0ubuntu3~16.04-b08
Operating System: Linux
Default Encoding: UTF-8
Language: en
Country: US
--></g></svg>