<?xml version="1.0" encoding="UTF-8" standalone="no"?><svg xmlns="http://www.w3.org/2000/svg" xmlns:xlink="http://www.w3.org/1999/xlink" contentScriptType="application/ecmascript" contentStyleType="text/css" height="777px" preserveAspectRatio="none" style="width:2002px;height:777px;" version="1.1" viewBox="0 0 2002 777" width="2002px" zoomAndPan="magnify"><defs><filter height="300%" id="f14k3nysrzv8o7" width="300%" x="-1" y="-1"><feGaussianBlur result="blurOut" stdDeviation="2.0"/><feColorMatrix in="blurOut" result="blurOut2" type="matrix" values="0 0 0 0 0 0 0 0 0 0 0 0 0 0 0 0 0 0 .4 0"/><feOffset dx="4.0" dy="4.0" in="blurOut2" result="blurOut3"/><feBlend in="SourceGraphic" in2="blurOut3" mode="normal"/></filter></defs><g><!--MD5=[99b8db98afdc2c8404e39242ef4c1e65]
class Platform--><rect fill="#FEFECE" filter="url(#f14k3nysrzv8o7)" height="40" id="Platform" style="stroke: #A80036; stroke-width: 1.5;" width="80" x="6" y="391"/><ellipse cx="21" cy="407" fill="#ADD1B2" rx="11" ry="11" style="stroke: #A80036; stroke-width: 1.0;"/><path d="M23.3438,402.6719 C22.4063,402.2344 21.8125,402.0938 20.9375,402.0938 C18.3125,402.0938 16.3125,404.1719 16.3125,406.8906 L16.3125,408.0156 C16.3125,410.5938 18.4219,412.4844 21.3125,412.4844 C22.5313,412.4844 23.6875,412.1875 24.4375,411.6406 C25.0156,411.2344 25.3438,410.7813 25.3438,410.3906 C25.3438,409.9375 24.9531,409.5469 24.4844,409.5469 C24.2656,409.5469 24.0625,409.625 23.875,409.8125 C23.4219,410.2969 23.4219,410.2969 23.2344,410.3906 C22.8125,410.6563 22.125,410.7813 21.3594,410.7813 C19.3125,410.7813 18.0156,409.6875 18.0156,407.9844 L18.0156,406.8906 C18.0156,405.1094 19.2656,403.7969 21,403.7969 C21.5781,403.7969 22.1875,403.9531 22.6563,404.2031 C23.1406,404.4844 23.3125,404.7031 23.4063,405.1094 C23.4688,405.5156 23.5,405.6406 23.6406,405.7656 C23.7813,405.9063 24.0156,406.0156 24.2344,406.0156 C24.5,406.0156 24.7656,405.875 24.9375,405.6563 C25.0469,405.5 25.0781,405.3125 25.0781,404.8906 L25.0781,403.4688 C25.0781,403.0313 25.0625,402.9063 24.9688,402.75 C24.8125,402.4844 24.5313,402.3438 24.2344,402.3438 C23.9375,402.3438 23.7344,402.4375 23.5156,402.75 L23.3438,402.6719 Z "/><text fill="#000000" font-family="sans-serif" font-size="12" lengthAdjust="spacingAndGlyphs" textLength="48" x="35" y="411.1543">Platform</text><line style="stroke: #A80036; stroke-width: 1.5;" x1="7" x2="85" y1="423" y2="423"/><!--MD5=[f19b4e962a0a02df55f236bf33fe7f31]
class LoadFile--><rect fill="#FEFECE" filter="url(#f14k3nysrzv8o7)" height="40" id="LoadFile" style="stroke: #A80036; stroke-width: 1.5;" width="82" x="626" y="318"/><ellipse cx="641" cy="334" fill="#ADD1B2" rx="11" ry="11" style="stroke: #A80036; stroke-width: 1.0;"/><path d="M643.3438,329.6719 C642.4063,329.2344 641.8125,329.0938 640.9375,329.0938 C638.3125,329.0938 636.3125,331.1719 636.3125,333.8906 L636.3125,335.0156 C636.3125,337.5938 638.4219,339.4844 641.3125,339.4844 C642.5313,339.4844 643.6875,339.1875 644.4375,338.6406 C645.0156,338.2344 645.3438,337.7813 645.3438,337.3906 C645.3438,336.9375 644.9531,336.5469 644.4844,336.5469 C644.2656,336.5469 644.0625,336.625 643.875,336.8125 C643.4219,337.2969 643.4219,337.2969 643.2344,337.3906 C642.8125,337.6563 642.125,337.7813 641.3594,337.7813 C639.3125,337.7813 638.0156,336.6875 638.0156,334.9844 L638.0156,333.8906 C638.0156,332.1094 639.2656,330.7969 641,330.7969 C641.5781,330.7969 642.1875,330.9531 642.6563,331.2031 C643.1406,331.4844 643.3125,331.7031 643.4063,332.1094 C643.4688,332.5156 643.5,332.6406 643.6406,332.7656 C643.7813,332.9063 644.0156,333.0156 644.2344,333.0156 C644.5,333.0156 644.7656,332.875 644.9375,332.6563 C645.0469,332.5 645.0781,332.3125 645.0781,331.8906 L645.0781,330.4688 C645.0781,330.0313 645.0625,329.9063 644.9688,329.75 C644.8125,329.4844 644.5313,329.3438 644.2344,329.3438 C643.9375,329.3438 643.7344,329.4375 643.5156,329.75 L643.3438,329.6719 Z "/><text fill="#000000" font-family="sans-serif" font-size="12" lengthAdjust="spacingAndGlyphs" textLength="50" x="655" y="338.1543">LoadFile</text><line style="stroke: #A80036; stroke-width: 1.5;" x1="627" x2="707" y1="350" y2="350"/><!--MD5=[86c7c362de55a38b660185a1328fe18d]
class Organization--><rect fill="#FEFECE" filter="url(#f14k3nysrzv8o7)" height="65.6094" id="Organization" style="stroke: #A80036; stroke-width: 1.5;" width="108" x="216" y="378"/><ellipse cx="231" cy="394" fill="#ADD1B2" rx="11" ry="11" style="stroke: #A80036; stroke-width: 1.0;"/><path d="M233.3438,389.6719 C232.4063,389.2344 231.8125,389.0938 230.9375,389.0938 C228.3125,389.0938 226.3125,391.1719 226.3125,393.8906 L226.3125,395.0156 C226.3125,397.5938 228.4219,399.4844 231.3125,399.4844 C232.5313,399.4844 233.6875,399.1875 234.4375,398.6406 C235.0156,398.2344 235.3438,397.7813 235.3438,397.3906 C235.3438,396.9375 234.9531,396.5469 234.4844,396.5469 C234.2656,396.5469 234.0625,396.625 233.875,396.8125 C233.4219,397.2969 233.4219,397.2969 233.2344,397.3906 C232.8125,397.6563 232.125,397.7813 231.3594,397.7813 C229.3125,397.7813 228.0156,396.6875 228.0156,394.9844 L228.0156,393.8906 C228.0156,392.1094 229.2656,390.7969 231,390.7969 C231.5781,390.7969 232.1875,390.9531 232.6563,391.2031 C233.1406,391.4844 233.3125,391.7031 233.4063,392.1094 C233.4688,392.5156 233.5,392.6406 233.6406,392.7656 C233.7813,392.9063 234.0156,393.0156 234.2344,393.0156 C234.5,393.0156 234.7656,392.875 234.9375,392.6563 C235.0469,392.5 235.0781,392.3125 235.0781,391.8906 L235.0781,390.4688 C235.0781,390.0313 235.0625,389.9063 234.9688,389.75 C234.8125,389.4844 234.5313,389.3438 234.2344,389.3438 C233.9375,389.3438 233.7344,389.4375 233.5156,389.75 L233.3438,389.6719 Z "/><text fill="#000000" font-family="sans-serif" font-size="12" lengthAdjust="spacingAndGlyphs" textLength="76" x="245" y="398.1543">Organization</text><line style="stroke: #A80036; stroke-width: 1.5;" x1="217" x2="323" y1="410" y2="410"/><text fill="#000000" font-family="sans-serif" font-size="11" lengthAdjust="spacingAndGlyphs" textLength="74" x="222" y="424.2104">-String name</text><text fill="#000000" font-family="sans-serif" font-size="11" lengthAdjust="spacingAndGlyphs" textLength="58" x="222" y="437.0151">-String NIF</text><!--MD5=[da547346deef918ea16944ba046651ef]
class Administrator--><rect fill="#FEFECE" filter="url(#f14k3nysrzv8o7)" height="40" id="Administrator" style="stroke: #A80036; stroke-width: 1.5;" width="112" x="998.5" y="125"/><ellipse cx="1013.5" cy="141" fill="#ADD1B2" rx="11" ry="11" style="stroke: #A80036; stroke-width: 1.0;"/><path d="M1015.8438,136.6719 C1014.9063,136.2344 1014.3125,136.0938 1013.4375,136.0938 C1010.8125,136.0938 1008.8125,138.1719 1008.8125,140.8906 L1008.8125,142.0156 C1008.8125,144.5938 1010.9219,146.4844 1013.8125,146.4844 C1015.0313,146.4844 1016.1875,146.1875 1016.9375,145.6406 C1017.5156,145.2344 1017.8438,144.7813 1017.8438,144.3906 C1017.8438,143.9375 1017.4531,143.5469 1016.9844,143.5469 C1016.7656,143.5469 1016.5625,143.625 1016.375,143.8125 C1015.9219,144.2969 1015.9219,144.2969 1015.7344,144.3906 C1015.3125,144.6563 1014.625,144.7813 1013.8594,144.7813 C1011.8125,144.7813 1010.5156,143.6875 1010.5156,141.9844 L1010.5156,140.8906 C1010.5156,139.1094 1011.7656,137.7969 1013.5,137.7969 C1014.0781,137.7969 1014.6875,137.9531 1015.1563,138.2031 C1015.6406,138.4844 1015.8125,138.7031 1015.9063,139.1094 C1015.9688,139.5156 1016,139.6406 1016.1406,139.7656 C1016.2813,139.9063 1016.5156,140.0156 1016.7344,140.0156 C1017,140.0156 1017.2656,139.875 1017.4375,139.6563 C1017.5469,139.5 1017.5781,139.3125 1017.5781,138.8906 L1017.5781,137.4688 C1017.5781,137.0313 1017.5625,136.9063 1017.4688,136.75 C1017.3125,136.4844 1017.0313,136.3438 1016.7344,136.3438 C1016.4375,136.3438 1016.2344,136.4375 1016.0156,136.75 L1015.8438,136.6719 Z "/><text fill="#000000" font-family="sans-serif" font-size="12" lengthAdjust="spacingAndGlyphs" textLength="80" x="1027.5" y="145.1543">Administrator</text><line style="stroke: #A80036; stroke-width: 1.5;" x1="999.5" x2="1109.5" y1="157" y2="157"/><!--MD5=[f483d6e5de34a60207b28a5563be5e8b]
class Collaborator--><rect fill="#FEFECE" filter="url(#f14k3nysrzv8o7)" height="65.6094" id="Collaborator" style="stroke: #A80036; stroke-width: 1.5;" width="106" x="1001.5" y="464"/><ellipse cx="1016.5" cy="480" fill="#ADD1B2" rx="11" ry="11" style="stroke: #A80036; stroke-width: 1.0;"/><path d="M1018.8438,475.6719 C1017.9063,475.2344 1017.3125,475.0938 1016.4375,475.0938 C1013.8125,475.0938 1011.8125,477.1719 1011.8125,479.8906 L1011.8125,481.0156 C1011.8125,483.5938 1013.9219,485.4844 1016.8125,485.4844 C1018.0313,485.4844 1019.1875,485.1875 1019.9375,484.6406 C1020.5156,484.2344 1020.8438,483.7813 1020.8438,483.3906 C1020.8438,482.9375 1020.4531,482.5469 1019.9844,482.5469 C1019.7656,482.5469 1019.5625,482.625 1019.375,482.8125 C1018.9219,483.2969 1018.9219,483.2969 1018.7344,483.3906 C1018.3125,483.6563 1017.625,483.7813 1016.8594,483.7813 C1014.8125,483.7813 1013.5156,482.6875 1013.5156,480.9844 L1013.5156,479.8906 C1013.5156,478.1094 1014.7656,476.7969 1016.5,476.7969 C1017.0781,476.7969 1017.6875,476.9531 1018.1563,477.2031 C1018.6406,477.4844 1018.8125,477.7031 1018.9063,478.1094 C1018.9688,478.5156 1019,478.6406 1019.1406,478.7656 C1019.2813,478.9063 1019.5156,479.0156 1019.7344,479.0156 C1020,479.0156 1020.2656,478.875 1020.4375,478.6563 C1020.5469,478.5 1020.5781,478.3125 1020.5781,477.8906 L1020.5781,476.4688 C1020.5781,476.0313 1020.5625,475.9063 1020.4688,475.75 C1020.3125,475.4844 1020.0313,475.3438 1019.7344,475.3438 C1019.4375,475.3438 1019.2344,475.4375 1019.0156,475.75 L1018.8438,475.6719 Z "/><text fill="#000000" font-family="sans-serif" font-size="12" lengthAdjust="spacingAndGlyphs" textLength="74" x="1030.5" y="484.1543">Collaborator</text><line style="stroke: #A80036; stroke-width: 1.5;" x1="1002.5" x2="1106.5" y1="496" y2="496"/><text fill="#000000" font-family="sans-serif" font-size="11" lengthAdjust="spacingAndGlyphs" textLength="74" x="1007.5" y="510.2104">-String name</text><text fill="#000000" font-family="sans-serif" font-size="11" lengthAdjust="spacingAndGlyphs" textLength="73" x="1007.5" y="523.0151">-String email</text><!--MD5=[3fd616f346a44cd59a91eb10b19e157c]
class User--><rect fill="#FEFECE" filter="url(#f14k3nysrzv8o7)" height="91.2188" id="User" style="stroke: #A80036; stroke-width: 1.5;" width="106" x="1292.5" y="74.5"/><ellipse cx="1327.75" cy="90.5" fill="#ADD1B2" rx="11" ry="11" style="stroke: #A80036; stroke-width: 1.0;"/><path d="M1330.0938,86.1719 C1329.1563,85.7344 1328.5625,85.5938 1327.6875,85.5938 C1325.0625,85.5938 1323.0625,87.6719 1323.0625,90.3906 L1323.0625,91.5156 C1323.0625,94.0938 1325.1719,95.9844 1328.0625,95.9844 C1329.2813,95.9844 1330.4375,95.6875 1331.1875,95.1406 C1331.7656,94.7344 1332.0938,94.2813 1332.0938,93.8906 C1332.0938,93.4375 1331.7031,93.0469 1331.2344,93.0469 C1331.0156,93.0469 1330.8125,93.125 1330.625,93.3125 C1330.1719,93.7969 1330.1719,93.7969 1329.9844,93.8906 C1329.5625,94.1563 1328.875,94.2813 1328.1094,94.2813 C1326.0625,94.2813 1324.7656,93.1875 1324.7656,91.4844 L1324.7656,90.3906 C1324.7656,88.6094 1326.0156,87.2969 1327.75,87.2969 C1328.3281,87.2969 1328.9375,87.4531 1329.4063,87.7031 C1329.8906,87.9844 1330.0625,88.2031 1330.1563,88.6094 C1330.2188,89.0156 1330.25,89.1406 1330.3906,89.2656 C1330.5313,89.4063 1330.7656,89.5156 1330.9844,89.5156 C1331.25,89.5156 1331.5156,89.375 1331.6875,89.1563 C1331.7969,89 1331.8281,88.8125 1331.8281,88.3906 L1331.8281,86.9688 C1331.8281,86.5313 1331.8125,86.4063 1331.7188,86.25 C1331.5625,85.9844 1331.2813,85.8438 1330.9844,85.8438 C1330.6875,85.8438 1330.4844,85.9375 1330.2656,86.25 L1330.0938,86.1719 Z "/><text fill="#000000" font-family="sans-serif" font-size="12" lengthAdjust="spacingAndGlyphs" textLength="29" x="1346.25" y="94.6543">User</text><line style="stroke: #A80036; stroke-width: 1.5;" x1="1293.5" x2="1397.5" y1="106.5" y2="106.5"/><text fill="#000000" font-family="sans-serif" font-size="11" lengthAdjust="spacingAndGlyphs" textLength="74" x="1298.5" y="120.7104">-String name</text><text fill="#000000" font-family="sans-serif" font-size="11" lengthAdjust="spacingAndGlyphs" textLength="73" x="1298.5" y="133.5151">-String email</text><text fill="#000000" font-family="sans-serif" font-size="11" lengthAdjust="spacingAndGlyphs" textLength="94" x="1298.5" y="146.3198">-String password</text><text fill="#000000" font-family="sans-serif" font-size="11" lengthAdjust="spacingAndGlyphs" textLength="63" x="1298.5" y="159.1245">-String role</text><!--MD5=[b645a18afb25b7e5623af7186d8eb36f]
class PaymentTransaction--><rect fill="#FEFECE" filter="url(#f14k3nysrzv8o7)" height="78.4141" id="PaymentTransaction" style="stroke: #A80036; stroke-width: 1.5;" width="151" x="1270" y="375"/><ellipse cx="1285" cy="391" fill="#ADD1B2" rx="11" ry="11" style="stroke: #A80036; stroke-width: 1.0;"/><path d="M1287.3438,386.6719 C1286.4063,386.2344 1285.8125,386.0938 1284.9375,386.0938 C1282.3125,386.0938 1280.3125,388.1719 1280.3125,390.8906 L1280.3125,392.0156 C1280.3125,394.5938 1282.4219,396.4844 1285.3125,396.4844 C1286.5313,396.4844 1287.6875,396.1875 1288.4375,395.6406 C1289.0156,395.2344 1289.3438,394.7813 1289.3438,394.3906 C1289.3438,393.9375 1288.9531,393.5469 1288.4844,393.5469 C1288.2656,393.5469 1288.0625,393.625 1287.875,393.8125 C1287.4219,394.2969 1287.4219,394.2969 1287.2344,394.3906 C1286.8125,394.6563 1286.125,394.7813 1285.3594,394.7813 C1283.3125,394.7813 1282.0156,393.6875 1282.0156,391.9844 L1282.0156,390.8906 C1282.0156,389.1094 1283.2656,387.7969 1285,387.7969 C1285.5781,387.7969 1286.1875,387.9531 1286.6563,388.2031 C1287.1406,388.4844 1287.3125,388.7031 1287.4063,389.1094 C1287.4688,389.5156 1287.5,389.6406 1287.6406,389.7656 C1287.7813,389.9063 1288.0156,390.0156 1288.2344,390.0156 C1288.5,390.0156 1288.7656,389.875 1288.9375,389.6563 C1289.0469,389.5 1289.0781,389.3125 1289.0781,388.8906 L1289.0781,387.4688 C1289.0781,387.0313 1289.0625,386.9063 1288.9688,386.75 C1288.8125,386.4844 1288.5313,386.3438 1288.2344,386.3438 C1287.9375,386.3438 1287.7344,386.4375 1287.5156,386.75 L1287.3438,386.6719 Z "/><text fill="#000000" font-family="sans-serif" font-size="12" lengthAdjust="spacingAndGlyphs" textLength="119" x="1299" y="395.1543">PaymentTransaction</text><line style="stroke: #A80036; stroke-width: 1.5;" x1="1271" x2="1420" y1="407" y2="407"/><text fill="#000000" font-family="sans-serif" font-size="11" lengthAdjust="spacingAndGlyphs" textLength="51" x="1276" y="421.2104">-String id</text><text fill="#000000" font-family="sans-serif" font-size="11" lengthAdjust="spacingAndGlyphs" textLength="71" x="1276" y="434.0151">-Float amout</text><text fill="#000000" font-family="sans-serif" font-size="11" lengthAdjust="spacingAndGlyphs" textLength="91" x="1276" y="446.8198">-Boolean payed</text><!--MD5=[b34797a66dc35cbf1d65f7e3ca75530e]
class Task--><rect fill="#FEFECE" filter="url(#f14k3nysrzv8o7)" height="104.0234" id="Task" style="stroke: #A80036; stroke-width: 1.5;" width="143" x="1848" y="369"/><ellipse cx="1901.25" cy="385" fill="#ADD1B2" rx="11" ry="11" style="stroke: #A80036; stroke-width: 1.0;"/><path d="M1903.5938,380.6719 C1902.6563,380.2344 1902.0625,380.0938 1901.1875,380.0938 C1898.5625,380.0938 1896.5625,382.1719 1896.5625,384.8906 L1896.5625,386.0156 C1896.5625,388.5938 1898.6719,390.4844 1901.5625,390.4844 C1902.7813,390.4844 1903.9375,390.1875 1904.6875,389.6406 C1905.2656,389.2344 1905.5938,388.7813 1905.5938,388.3906 C1905.5938,387.9375 1905.2031,387.5469 1904.7344,387.5469 C1904.5156,387.5469 1904.3125,387.625 1904.125,387.8125 C1903.6719,388.2969 1903.6719,388.2969 1903.4844,388.3906 C1903.0625,388.6563 1902.375,388.7813 1901.6094,388.7813 C1899.5625,388.7813 1898.2656,387.6875 1898.2656,385.9844 L1898.2656,384.8906 C1898.2656,383.1094 1899.5156,381.7969 1901.25,381.7969 C1901.8281,381.7969 1902.4375,381.9531 1902.9063,382.2031 C1903.3906,382.4844 1903.5625,382.7031 1903.6563,383.1094 C1903.7188,383.5156 1903.75,383.6406 1903.8906,383.7656 C1904.0313,383.9063 1904.2656,384.0156 1904.4844,384.0156 C1904.75,384.0156 1905.0156,383.875 1905.1875,383.6563 C1905.2969,383.5 1905.3281,383.3125 1905.3281,382.8906 L1905.3281,381.4688 C1905.3281,381.0313 1905.3125,380.9063 1905.2188,380.75 C1905.0625,380.4844 1904.7813,380.3438 1904.4844,380.3438 C1904.1875,380.3438 1903.9844,380.4375 1903.7656,380.75 L1903.5938,380.6719 Z "/><text fill="#000000" font-family="sans-serif" font-size="12" lengthAdjust="spacingAndGlyphs" textLength="28" x="1921.75" y="389.1543">Task</text><line style="stroke: #A80036; stroke-width: 1.5;" x1="1849" x2="1990" y1="401" y2="401"/><text fill="#000000" font-family="sans-serif" font-size="11" lengthAdjust="spacingAndGlyphs" textLength="51" x="1854" y="415.2104">-String id</text><text fill="#000000" font-family="sans-serif" font-size="11" lengthAdjust="spacingAndGlyphs" textLength="131" x="1854" y="428.0151">-String briefDescription</text><text fill="#000000" font-family="sans-serif" font-size="11" lengthAdjust="spacingAndGlyphs" textLength="123" x="1854" y="440.8198">-Integer timeDuration</text><text fill="#000000" font-family="sans-serif" font-size="11" lengthAdjust="spacingAndGlyphs" textLength="102" x="1854" y="453.6245">-Float costPerHour</text><text fill="#000000" font-family="sans-serif" font-size="11" lengthAdjust="spacingAndGlyphs" textLength="116" x="1854" y="466.4292">-String taskCategory</text><!--MD5=[feb7363c14fdfe20e6ad09f57508482a]
class ExecutionTask--><rect fill="#FEFECE" filter="url(#f14k3nysrzv8o7)" height="78.4141" id="ExecutionTask" style="stroke: #A80036; stroke-width: 1.5;" width="183" x="1567" y="291"/><ellipse cx="1611.25" cy="307" fill="#ADD1B2" rx="11" ry="11" style="stroke: #A80036; stroke-width: 1.0;"/><path d="M1613.5938,302.6719 C1612.6563,302.2344 1612.0625,302.0938 1611.1875,302.0938 C1608.5625,302.0938 1606.5625,304.1719 1606.5625,306.8906 L1606.5625,308.0156 C1606.5625,310.5938 1608.6719,312.4844 1611.5625,312.4844 C1612.7813,312.4844 1613.9375,312.1875 1614.6875,311.6406 C1615.2656,311.2344 1615.5938,310.7813 1615.5938,310.3906 C1615.5938,309.9375 1615.2031,309.5469 1614.7344,309.5469 C1614.5156,309.5469 1614.3125,309.625 1614.125,309.8125 C1613.6719,310.2969 1613.6719,310.2969 1613.4844,310.3906 C1613.0625,310.6563 1612.375,310.7813 1611.6094,310.7813 C1609.5625,310.7813 1608.2656,309.6875 1608.2656,307.9844 L1608.2656,306.8906 C1608.2656,305.1094 1609.5156,303.7969 1611.25,303.7969 C1611.8281,303.7969 1612.4375,303.9531 1612.9063,304.2031 C1613.3906,304.4844 1613.5625,304.7031 1613.6563,305.1094 C1613.7188,305.5156 1613.75,305.6406 1613.8906,305.7656 C1614.0313,305.9063 1614.2656,306.0156 1614.4844,306.0156 C1614.75,306.0156 1615.0156,305.875 1615.1875,305.6563 C1615.2969,305.5 1615.3281,305.3125 1615.3281,304.8906 L1615.3281,303.4688 C1615.3281,303.0313 1615.3125,302.9063 1615.2188,302.75 C1615.0625,302.4844 1614.7813,302.3438 1614.4844,302.3438 C1614.1875,302.3438 1613.9844,302.4375 1613.7656,302.75 L1613.5938,302.6719 Z "/><text fill="#000000" font-family="sans-serif" font-size="12" lengthAdjust="spacingAndGlyphs" textLength="86" x="1631.75" y="311.1543">ExecutionTask</text><line style="stroke: #A80036; stroke-width: 1.5;" x1="1568" x2="1749" y1="323" y2="323"/><text fill="#000000" font-family="sans-serif" font-size="11" lengthAdjust="spacingAndGlyphs" textLength="86" x="1573" y="337.2104">-Date endDate</text><text fill="#000000" font-family="sans-serif" font-size="11" lengthAdjust="spacingAndGlyphs" textLength="67" x="1573" y="350.0151">-Float delay</text><text fill="#000000" font-family="sans-serif" font-size="11" lengthAdjust="spacingAndGlyphs" textLength="171" x="1573" y="362.8198">-String briefDescriptionQuality</text><!--MD5=[b24ed8d4ae84bae9290d9aab401637c7]
class Manager--><rect fill="#FEFECE" filter="url(#f14k3nysrzv8o7)" height="65.6094" id="Manager" style="stroke: #A80036; stroke-width: 1.5;" width="86" x="1011.5" y="223"/><ellipse cx="1027.4" cy="239" fill="#ADD1B2" rx="11" ry="11" style="stroke: #A80036; stroke-width: 1.0;"/><path d="M1029.7438,234.6719 C1028.8063,234.2344 1028.2125,234.0938 1027.3375,234.0938 C1024.7125,234.0938 1022.7125,236.1719 1022.7125,238.8906 L1022.7125,240.0156 C1022.7125,242.5938 1024.8219,244.4844 1027.7125,244.4844 C1028.9313,244.4844 1030.0875,244.1875 1030.8375,243.6406 C1031.4156,243.2344 1031.7438,242.7813 1031.7438,242.3906 C1031.7438,241.9375 1031.3531,241.5469 1030.8844,241.5469 C1030.6656,241.5469 1030.4625,241.625 1030.275,241.8125 C1029.8219,242.2969 1029.8219,242.2969 1029.6344,242.3906 C1029.2125,242.6563 1028.525,242.7813 1027.7594,242.7813 C1025.7125,242.7813 1024.4156,241.6875 1024.4156,239.9844 L1024.4156,238.8906 C1024.4156,237.1094 1025.6656,235.7969 1027.4,235.7969 C1027.9781,235.7969 1028.5875,235.9531 1029.0563,236.2031 C1029.5406,236.4844 1029.7125,236.7031 1029.8063,237.1094 C1029.8688,237.5156 1029.9,237.6406 1030.0406,237.7656 C1030.1813,237.9063 1030.4156,238.0156 1030.6344,238.0156 C1030.9,238.0156 1031.1656,237.875 1031.3375,237.6563 C1031.4469,237.5 1031.4781,237.3125 1031.4781,236.8906 L1031.4781,235.4688 C1031.4781,235.0313 1031.4625,234.9063 1031.3688,234.75 C1031.2125,234.4844 1030.9313,234.3438 1030.6344,234.3438 C1030.3375,234.3438 1030.1344,234.4375 1029.9156,234.75 L1029.7438,234.6719 Z "/><text fill="#000000" font-family="sans-serif" font-size="12" lengthAdjust="spacingAndGlyphs" textLength="52" x="1041.6" y="243.1543">Manager</text><line style="stroke: #A80036; stroke-width: 1.5;" x1="1012.5" x2="1096.5" y1="255" y2="255"/><text fill="#000000" font-family="sans-serif" font-size="11" lengthAdjust="spacingAndGlyphs" textLength="74" x="1017.5" y="269.2104">-String name</text><text fill="#000000" font-family="sans-serif" font-size="11" lengthAdjust="spacingAndGlyphs" textLength="73" x="1017.5" y="282.0151">-String email</text><!--MD5=[1f687b5315377fe49fca59b457947463]
class Freelancer--><rect fill="#FEFECE" filter="url(#f14k3nysrzv8o7)" height="142.4375" id="Freelancer" style="stroke: #A80036; stroke-width: 1.5;" width="149" x="1584" y="562"/><ellipse cx="1622.4" cy="578" fill="#ADD1B2" rx="11" ry="11" style="stroke: #A80036; stroke-width: 1.0;"/><path d="M1624.7438,573.6719 C1623.8063,573.2344 1623.2125,573.0938 1622.3375,573.0938 C1619.7125,573.0938 1617.7125,575.1719 1617.7125,577.8906 L1617.7125,579.0156 C1617.7125,581.5938 1619.8219,583.4844 1622.7125,583.4844 C1623.9313,583.4844 1625.0875,583.1875 1625.8375,582.6406 C1626.4156,582.2344 1626.7438,581.7813 1626.7438,581.3906 C1626.7438,580.9375 1626.3531,580.5469 1625.8844,580.5469 C1625.6656,580.5469 1625.4625,580.625 1625.275,580.8125 C1624.8219,581.2969 1624.8219,581.2969 1624.6344,581.3906 C1624.2125,581.6563 1623.525,581.7813 1622.7594,581.7813 C1620.7125,581.7813 1619.4156,580.6875 1619.4156,578.9844 L1619.4156,577.8906 C1619.4156,576.1094 1620.6656,574.7969 1622.4,574.7969 C1622.9781,574.7969 1623.5875,574.9531 1624.0563,575.2031 C1624.5406,575.4844 1624.7125,575.7031 1624.8063,576.1094 C1624.8688,576.5156 1624.9,576.6406 1625.0406,576.7656 C1625.1813,576.9063 1625.4156,577.0156 1625.6344,577.0156 C1625.9,577.0156 1626.1656,576.875 1626.3375,576.6563 C1626.4469,576.5 1626.4781,576.3125 1626.4781,575.8906 L1626.4781,574.4688 C1626.4781,574.0313 1626.4625,573.9063 1626.3688,573.75 C1626.2125,573.4844 1625.9313,573.3438 1625.6344,573.3438 C1625.3375,573.3438 1625.1344,573.4375 1624.9156,573.75 L1624.7438,573.6719 Z "/><text fill="#000000" font-family="sans-serif" font-size="12" lengthAdjust="spacingAndGlyphs" textLength="65" x="1641.6" y="582.1543">Freelancer</text><line style="stroke: #A80036; stroke-width: 1.5;" x1="1585" x2="1732" y1="594" y2="594"/><text fill="#000000" font-family="sans-serif" font-size="11" lengthAdjust="spacingAndGlyphs" textLength="51" x="1590" y="608.2104">-String id</text><text fill="#000000" font-family="sans-serif" font-size="11" lengthAdjust="spacingAndGlyphs" textLength="74" x="1590" y="621.0151">-String name</text><text fill="#000000" font-family="sans-serif" font-size="11" lengthAdjust="spacingAndGlyphs" textLength="137" x="1590" y="633.8198">-String levelOfExpertise</text><text fill="#000000" font-family="sans-serif" font-size="11" lengthAdjust="spacingAndGlyphs" textLength="73" x="1590" y="646.6245">-String email</text><text fill="#000000" font-family="sans-serif" font-size="11" lengthAdjust="spacingAndGlyphs" textLength="58" x="1590" y="659.4292">-String NIF</text><text fill="#000000" font-family="sans-serif" font-size="11" lengthAdjust="spacingAndGlyphs" textLength="68" x="1590" y="672.2339">-String IBAN</text><text fill="#000000" font-family="sans-serif" font-size="11" lengthAdjust="spacingAndGlyphs" textLength="79" x="1590" y="685.0386">-String adress</text><text fill="#000000" font-family="sans-serif" font-size="11" lengthAdjust="spacingAndGlyphs" textLength="83" x="1590" y="697.8433">-String country</text><!--MD5=[d2893ab0b245814eb19299eeec071ce5]
class ExternalAlgorithmGeneratePwd--><rect fill="#FEFECE" filter="url(#f14k3nysrzv8o7)" height="40" id="ExternalAlgorithmGeneratePwd" style="stroke: #A80036; stroke-width: 1.5;" width="217" x="738" y="30"/><ellipse cx="753" cy="46" fill="#ADD1B2" rx="11" ry="11" style="stroke: #A80036; stroke-width: 1.0;"/><path d="M755.3438,41.6719 C754.4063,41.2344 753.8125,41.0938 752.9375,41.0938 C750.3125,41.0938 748.3125,43.1719 748.3125,45.8906 L748.3125,47.0156 C748.3125,49.5938 750.4219,51.4844 753.3125,51.4844 C754.5313,51.4844 755.6875,51.1875 756.4375,50.6406 C757.0156,50.2344 757.3438,49.7813 757.3438,49.3906 C757.3438,48.9375 756.9531,48.5469 756.4844,48.5469 C756.2656,48.5469 756.0625,48.625 755.875,48.8125 C755.4219,49.2969 755.4219,49.2969 755.2344,49.3906 C754.8125,49.6563 754.125,49.7813 753.3594,49.7813 C751.3125,49.7813 750.0156,48.6875 750.0156,46.9844 L750.0156,45.8906 C750.0156,44.1094 751.2656,42.7969 753,42.7969 C753.5781,42.7969 754.1875,42.9531 754.6563,43.2031 C755.1406,43.4844 755.3125,43.7031 755.4063,44.1094 C755.4688,44.5156 755.5,44.6406 755.6406,44.7656 C755.7813,44.9063 756.0156,45.0156 756.2344,45.0156 C756.5,45.0156 756.7656,44.875 756.9375,44.6563 C757.0469,44.5 757.0781,44.3125 757.0781,43.8906 L757.0781,42.4688 C757.0781,42.0313 757.0625,41.9063 756.9688,41.75 C756.8125,41.4844 756.5313,41.3438 756.2344,41.3438 C755.9375,41.3438 755.7344,41.4375 755.5156,41.75 L755.3438,41.6719 Z "/><text fill="#000000" font-family="sans-serif" font-size="12" lengthAdjust="spacingAndGlyphs" textLength="185" x="767" y="50.1543">ExternalAlgorithmGeneratePwd</text><line style="stroke: #A80036; stroke-width: 1.5;" x1="739" x2="954" y1="62" y2="62"/><!--MD5=[8a08cc651ac853c10004ed1c9529a181]
class ExternalAlgoritmConvertCurrencies--><rect fill="#FEFECE" filter="url(#f14k3nysrzv8o7)" height="40" id="ExternalAlgoritmConvertCurrencies" style="stroke: #A80036; stroke-width: 1.5;" width="242" x="354" y="620"/><ellipse cx="369" cy="636" fill="#ADD1B2" rx="11" ry="11" style="stroke: #A80036; stroke-width: 1.0;"/><path d="M371.3438,631.6719 C370.4063,631.2344 369.8125,631.0938 368.9375,631.0938 C366.3125,631.0938 364.3125,633.1719 364.3125,635.8906 L364.3125,637.0156 C364.3125,639.5938 366.4219,641.4844 369.3125,641.4844 C370.5313,641.4844 371.6875,641.1875 372.4375,640.6406 C373.0156,640.2344 373.3438,639.7813 373.3438,639.3906 C373.3438,638.9375 372.9531,638.5469 372.4844,638.5469 C372.2656,638.5469 372.0625,638.625 371.875,638.8125 C371.4219,639.2969 371.4219,639.2969 371.2344,639.3906 C370.8125,639.6563 370.125,639.7813 369.3594,639.7813 C367.3125,639.7813 366.0156,638.6875 366.0156,636.9844 L366.0156,635.8906 C366.0156,634.1094 367.2656,632.7969 369,632.7969 C369.5781,632.7969 370.1875,632.9531 370.6563,633.2031 C371.1406,633.4844 371.3125,633.7031 371.4063,634.1094 C371.4688,634.5156 371.5,634.6406 371.6406,634.7656 C371.7813,634.9063 372.0156,635.0156 372.2344,635.0156 C372.5,635.0156 372.7656,634.875 372.9375,634.6563 C373.0469,634.5 373.0781,634.3125 373.0781,633.8906 L373.0781,632.4688 C373.0781,632.0313 373.0625,631.9063 372.9688,631.75 C372.8125,631.4844 372.5313,631.3438 372.2344,631.3438 C371.9375,631.3438 371.7344,631.4375 371.5156,631.75 L371.3438,631.6719 Z "/><text fill="#000000" font-family="sans-serif" font-size="12" lengthAdjust="spacingAndGlyphs" textLength="210" x="383" y="640.1543">ExternalAlgoritmConvertCurrencies</text><line style="stroke: #A80036; stroke-width: 1.5;" x1="355" x2="595" y1="652" y2="652"/><!--MD5=[7640e466c042ba2d6f9c19c816f7f0fc]
link Platform to Organization--><path d="M86.1781,411 C122.152,411 175.763,411 215.639,411 " fill="none" id="Platform-Organization" style="stroke: #A80036; stroke-width: 1.0;"/><text fill="#000000" font-family="sans-serif" font-size="13" lengthAdjust="spacingAndGlyphs" textLength="54" x="117.5" y="407.0669">contains</text><polygon fill="#000000" points="174.5,401.0664,180.5,404.0664,174.5,407.0664,174.5,401.0664" style="stroke: #000000; stroke-width: 1.0;"/><text fill="#000000" font-family="sans-serif" font-size="13" lengthAdjust="spacingAndGlyphs" textLength="8" x="94.0473" y="424.4147">1</text><text fill="#000000" font-family="sans-serif" font-size="13" lengthAdjust="spacingAndGlyphs" textLength="7" x="200.8639" y="424.1099">*</text><!--MD5=[0f7004bed4496639b3a5258ab2ead378]
link Platform to Administrator--><path d="M79.2256,390.759 C133.677,357.512 248.307,291.585 354,257 C585.732,181.172 878.053,155.62 998.148,147.951 " fill="none" id="Platform-Administrator" style="stroke: #A80036; stroke-width: 1.0;"/><text fill="#000000" font-family="sans-serif" font-size="13" lengthAdjust="spacingAndGlyphs" textLength="54" x="441.5" y="193.0669">contains</text><polygon fill="#000000" points="498.5,187.0664,504.5,190.0664,498.5,193.0664,498.5,187.0664" style="stroke: #000000; stroke-width: 1.0;"/><text fill="#000000" font-family="sans-serif" font-size="13" lengthAdjust="spacingAndGlyphs" textLength="8" x="79.4453" y="380.0424">1</text><text fill="#000000" font-family="sans-serif" font-size="13" lengthAdjust="spacingAndGlyphs" textLength="7" x="983.4795" y="161.3654">*</text><!--MD5=[e2de4d0b468fc0beea58823c242168b2]
link Platform to ExternalAlgorithmGeneratePwd--><path d="M48.996,390.828 C55.2134,332.377 76.2378,164.847 116,130 C294.941,-26.823 601.02,2.584 753.519,29.969 " fill="none" id="Platform-ExternalAlgorithmGeneratePwd" style="stroke: #A80036; stroke-width: 1.0;"/><text fill="#000000" font-family="sans-serif" font-size="13" lengthAdjust="spacingAndGlyphs" textLength="55" x="236" y="25.0669">resort to</text><polygon fill="#000000" points="294,19.0664,300,22.0664,294,25.0664,294,19.0664" style="stroke: #000000; stroke-width: 1.0;"/><text fill="#000000" font-family="sans-serif" font-size="13" lengthAdjust="spacingAndGlyphs" textLength="8" x="40.7011" y="379.7858">1</text><text fill="#000000" font-family="sans-serif" font-size="13" lengthAdjust="spacingAndGlyphs" textLength="8" x="721.8799" y="20.3414">1</text><!--MD5=[ff58d92b17464a9396e74c973f7ffd9d]
link Platform to ExternalAlgoritmConvertCurrencies--><path d="M72.0769,431.223 C122.496,470.928 241.006,559.511 354,609 C363.362,613.1 373.381,616.746 383.491,619.966 " fill="none" id="Platform-ExternalAlgoritmConvertCurrencies" style="stroke: #A80036; stroke-width: 1.0;"/><text fill="#000000" font-family="sans-serif" font-size="13" lengthAdjust="spacingAndGlyphs" textLength="55" x="117" y="461.0669">resort to</text><polygon fill="#000000" points="175,455.0664,181,458.0664,175,461.0664,175,455.0664" style="stroke: #000000; stroke-width: 1.0;"/><text fill="#000000" font-family="sans-serif" font-size="13" lengthAdjust="spacingAndGlyphs" textLength="8" x="70.286" y="451.1057">1</text><text fill="#000000" font-family="sans-serif" font-size="13" lengthAdjust="spacingAndGlyphs" textLength="8" x="347.4352" y="608.9643">1</text><!--MD5=[22697d4d863c2e08ab1d60ca0d61f844]
link Platform to Freelancer--><path d="M49.6157,431.047 C60.6109,505.933 110.129,765 269,765 C269,765 269,765 1198,765 C1338.69,765 1494.51,707.1327 1583.76,668.027 " fill="none" id="Platform-Freelancer" style="stroke: #A80036; stroke-width: 1.0;"/><text fill="#000000" font-family="sans-serif" font-size="13" lengthAdjust="spacingAndGlyphs" textLength="23" x="828.5" y="761.0669">has</text><polygon fill="#000000" points="854.5,755.0664,860.5,758.0664,854.5,761.0664,854.5,755.0664" style="stroke: #000000; stroke-width: 1.0;"/><text fill="#000000" font-family="sans-serif" font-size="13" lengthAdjust="spacingAndGlyphs" textLength="8" x="41.5028" y="451.2253">1</text><text fill="#000000" font-family="sans-serif" font-size="13" lengthAdjust="spacingAndGlyphs" textLength="23" x="1553.0793" y="683.8679">0..*</text><!--MD5=[4f8c7d649f48a003914386008fecf57a]
link ExternalAlgorithmGeneratePwd to User--><path d="M955.186,56.998 C1034.42,63.242 1144.5,74.208 1240,92 C1257.17,95.199 1275.66,99.769 1292.24,104.292 " fill="none" id="ExternalAlgorithmGeneratePwd-User" style="stroke: #A80036; stroke-width: 1.0;"/><text fill="#000000" font-family="sans-serif" font-size="13" lengthAdjust="spacingAndGlyphs" textLength="124" x="986" y="55.0669">generate password</text><polygon fill="#000000" points="1113,49.0664,1119,52.0664,1113,55.0664,1113,49.0664" style="stroke: #000000; stroke-width: 1.0;"/><text fill="#000000" font-family="sans-serif" font-size="13" lengthAdjust="spacingAndGlyphs" textLength="8" x="963.1092" y="70.089">1</text><text fill="#000000" font-family="sans-serif" font-size="13" lengthAdjust="spacingAndGlyphs" textLength="7" x="1277.6129" y="98.2345">*</text><!--MD5=[edc107c0a572352bcd12c9afaba4390b]
link Administrator to User--><path d="M1110.64,130.608 C1124.68,127.517 1139.82,124.678 1154,123 C1200.48,117.502 1253.78,117.165 1292.16,117.964 " fill="none" id="Administrator-User" style="stroke: #A80036; stroke-width: 1.0;"/><text fill="#000000" font-family="sans-serif" font-size="13" lengthAdjust="spacingAndGlyphs" textLength="52" x="1164.5" y="113.0669">acts like</text><polygon fill="#000000" points="1219.5,107.0664,1225.5,110.0664,1219.5,113.0664,1219.5,107.0664" style="stroke: #000000; stroke-width: 1.0;"/><text fill="#000000" font-family="sans-serif" font-size="13" lengthAdjust="spacingAndGlyphs" textLength="7" x="1118.6541" y="141.7577">*</text><text fill="#000000" font-family="sans-serif" font-size="13" lengthAdjust="spacingAndGlyphs" textLength="8" x="1276.4549" y="130.7593">1</text><!--MD5=[fb34b7003b8246e938bec1c43108b6f4]
link Administrator to PaymentTransaction--><path d="M1087.62,165.059 C1133.45,193.995 1214.86,246.645 1240,271 C1272.25,302.234 1301.7,344.353 1321.06,374.783 " fill="none" id="Administrator-PaymentTransaction" style="stroke: #A80036; stroke-width: 1.0;"/><text fill="#000000" font-family="sans-serif" font-size="13" lengthAdjust="spacingAndGlyphs" textLength="71" x="1155" y="204.0669">has access</text><polygon fill="#000000" points="1229,198.0664,1235,201.0664,1229,204.0664,1229,198.0664" style="stroke: #000000; stroke-width: 1.0;"/><text fill="#000000" font-family="sans-serif" font-size="13" lengthAdjust="spacingAndGlyphs" textLength="8" x="1087.81" y="184.8955">1</text><text fill="#000000" font-family="sans-serif" font-size="13" lengthAdjust="spacingAndGlyphs" textLength="7" x="1309.2578" y="363.7962">*</text><!--MD5=[f49dfbf4d95d73a7a47842ec9c9a492e]
link Administrator to Task--><path d="M1088.87,124.877 C1107.57,114.158 1131.58,101.304 1154,92 C1264.54,46.129 1304.94,27.763 1421,57 C1616.2,106.175 1671.44,137.017 1818,275 C1846.9,302.21 1872.2,339.07 1890.18,368.946 " fill="none" id="Administrator-Task" style="stroke: #A80036; stroke-width: 1.0;"/><text fill="#000000" font-family="sans-serif" font-size="13" lengthAdjust="spacingAndGlyphs" textLength="71" x="1452" y="60.0669">has access</text><polygon fill="#000000" points="1526,54.0664,1532,57.0664,1526,60.0664,1526,54.0664" style="stroke: #000000; stroke-width: 1.0;"/><text fill="#000000" font-family="sans-serif" font-size="13" lengthAdjust="spacingAndGlyphs" textLength="8" x="1089.7912" y="113.8491">1</text><text fill="#000000" font-family="sans-serif" font-size="13" lengthAdjust="spacingAndGlyphs" textLength="7" x="1878.7698" y="358.0177">*</text><!--MD5=[6b1b81d556f7888ec3b3fc98f11703a1]
link ExternalAlgoritmConvertCurrencies to PaymentTransaction--><path d="M596.075,636.075 C728.489,628.765 946.321,607.845 1124,548 C1187.47,526.624 1252,484.515 1294.72,453.179 " fill="none" id="ExternalAlgoritmConvertCurrencies-PaymentTransaction" style="stroke: #A80036; stroke-width: 1.0;"/><text fill="#000000" font-family="sans-serif" font-size="13" lengthAdjust="spacingAndGlyphs" textLength="49" x="815.5" y="589.0669">convert</text><polygon fill="#000000" points="867.5,583.0664,873.5,586.0664,867.5,589.0664,867.5,583.0664" style="stroke: #000000; stroke-width: 1.0;"/><text fill="#000000" font-family="sans-serif" font-size="13" lengthAdjust="spacingAndGlyphs" textLength="8" x="604.0876" y="648.3752">1</text><text fill="#000000" font-family="sans-serif" font-size="13" lengthAdjust="spacingAndGlyphs" textLength="7" x="1278.0514" y="473.5355">*</text><!--MD5=[45817597bcd7048073a670d966abfd17]
link Organization to Collaborator--><path d="M324.136,429.522 C333.969,432.412 344.222,435.073 354,437 C592.576,484.014 884.118,494.191 1001.185,496.392 " fill="none" id="Organization-Collaborator" style="stroke: #A80036; stroke-width: 1.0;"/><text fill="#000000" font-family="sans-serif" font-size="13" lengthAdjust="spacingAndGlyphs" textLength="54" x="633.5" y="471.0669">contains</text><polygon fill="#000000" points="690.5,465.0664,696.5,468.0664,690.5,471.0664,690.5,465.0664" style="stroke: #000000; stroke-width: 1.0;"/><text fill="#000000" font-family="sans-serif" font-size="13" lengthAdjust="spacingAndGlyphs" textLength="8" x="331.948" y="445.1208">1</text><text fill="#000000" font-family="sans-serif" font-size="13" lengthAdjust="spacingAndGlyphs" textLength="8" x="985.4833" y="509.4202">1</text><!--MD5=[a2540ef1724c345444e8121bf96e181c]
link Organization to LoadFile--><path d="M324.246,392.993 C334.068,390.051 344.289,387.238 354,385 C450.348,362.792 565.936,348.535 625.735,342.058 " fill="none" id="Organization-LoadFile" style="stroke: #A80036; stroke-width: 1.0;"/><text fill="#000000" font-family="sans-serif" font-size="13" lengthAdjust="spacingAndGlyphs" textLength="32" x="452.5" y="341.0669">input</text><polygon fill="#000000" points="487.5,335.0664,493.5,338.0664,487.5,341.0664,487.5,335.0664" style="stroke: #000000; stroke-width: 1.0;"/><text fill="#000000" font-family="sans-serif" font-size="13" lengthAdjust="spacingAndGlyphs" textLength="8" x="332.0728" y="403.6832">1</text><text fill="#000000" font-family="sans-serif" font-size="13" lengthAdjust="spacingAndGlyphs" textLength="7" x="611.041" y="356.1228">*</text><!--MD5=[bc039f41cf0b27fadee5cae63fc6e1fe]
link Organization to Manager--><path d="M292.271,377.719 C307.04,357.554 328.59,333.242 354,320 C578.129,203.199 897.817,233.569 1011.45,249.372 " fill="none" id="Organization-Manager" style="stroke: #A80036; stroke-width: 1.0;"/><text fill="#000000" font-family="sans-serif" font-size="13" lengthAdjust="spacingAndGlyphs" textLength="54" x="633.5" y="232.0669">contains</text><polygon fill="#000000" points="690.5,226.0664,696.5,229.0664,690.5,232.0664,690.5,226.0664" style="stroke: #000000; stroke-width: 1.0;"/><text fill="#000000" font-family="sans-serif" font-size="13" lengthAdjust="spacingAndGlyphs" textLength="8" x="287.8681" y="366.8087">1</text><text fill="#000000" font-family="sans-serif" font-size="13" lengthAdjust="spacingAndGlyphs" textLength="8" x="995.3574" y="261.6338">1</text><!--MD5=[4078351e3988aa35b1504a42837f2ab1]
link Organization to Task--><path d="M303.914,444.274 C318.202,456.946 335.815,470.393 354,479 C385.061,493.701 1532.8,718.6084 1567,722 C1647.94,730.0272 1679.83,763.1328 1750,722 C1841.83,668.1645 1887.37,543.976 1906.64,473.086 " fill="none" id="Organization-Task" style="stroke: #A80036; stroke-width: 1.0;"/><text fill="#000000" font-family="sans-serif" font-size="13" lengthAdjust="spacingAndGlyphs" textLength="23" x="1179" y="639.0669">has</text><polygon fill="#000000" points="1205,633.0664,1211,636.0664,1205,639.0664,1205,633.0664" style="stroke: #000000; stroke-width: 1.0;"/><text fill="#000000" font-family="sans-serif" font-size="13" lengthAdjust="spacingAndGlyphs" textLength="8" x="301.2424" y="463.6504">1</text><text fill="#000000" font-family="sans-serif" font-size="13" lengthAdjust="spacingAndGlyphs" textLength="7" x="1897.4416" y="493.1671">*</text><!--MD5=[da2d560b3f89d8c66478284968d27dfa]
link Organization to PaymentTransaction--><path d="M324.235,411.149 C500.442,411.641 1065.12,413.219 1269.64,413.791 " fill="none" id="Organization-PaymentTransaction" style="stroke: #A80036; stroke-width: 1.0;"/><text fill="#000000" font-family="sans-serif" font-size="13" lengthAdjust="spacingAndGlyphs" textLength="54" x="813" y="408.0669">contains</text><polygon fill="#000000" points="870,402.0664,876,405.0664,870,408.0664,870,402.0664" style="stroke: #000000; stroke-width: 1.0;"/><text fill="#000000" font-family="sans-serif" font-size="13" lengthAdjust="spacingAndGlyphs" textLength="8" x="332.0603" y="424.2789">1</text><text fill="#000000" font-family="sans-serif" font-size="13" lengthAdjust="spacingAndGlyphs" textLength="7" x="1255.076" y="426.5394">*</text><!--MD5=[29a7dc0ff187d7a2b6433b2f71446a05]
link LoadFile to Manager--><path d="M708.399,333.698 C764.386,327.214 868.452,313.272 955,291 C973.806,286.161 994.099,279.252 1011.35,272.85 " fill="none" id="LoadFile-Manager" style="stroke: #A80036; stroke-width: 1.0;"/><polygon fill="#000000" points="831,281.0664,825,284.0664,831,287.0664,831,281.0664" style="stroke: #000000; stroke-width: 1.0;"/><text fill="#000000" font-family="sans-serif" font-size="13" lengthAdjust="spacingAndGlyphs" textLength="32" x="837" y="287.0669">input</text><text fill="#000000" font-family="sans-serif" font-size="13" lengthAdjust="spacingAndGlyphs" textLength="7" x="716.116" y="346.326">*</text><text fill="#000000" font-family="sans-serif" font-size="13" lengthAdjust="spacingAndGlyphs" textLength="8" x="995.5419" y="288.9932">1</text><!--MD5=[6eb6e197a729f6ec2412743e0bdbca1d]
link Manager to User--><path d="M1092.19,222.693 C1109.87,208 1131.98,191.495 1154,180 C1178.21,167.363 1244.73,147.564 1292.35,134.2 " fill="none" id="Manager-User" style="stroke: #A80036; stroke-width: 1.0;"/><text fill="#000000" font-family="sans-serif" font-size="13" lengthAdjust="spacingAndGlyphs" textLength="52" x="1164.5" y="146.0669">acts like</text><polygon fill="#000000" points="1219.5,140.0664,1225.5,143.0664,1219.5,146.0664,1219.5,140.0664" style="stroke: #000000; stroke-width: 1.0;"/><text fill="#000000" font-family="sans-serif" font-size="13" lengthAdjust="spacingAndGlyphs" textLength="7" x="1091.7075" y="212.031">*</text><text fill="#000000" font-family="sans-serif" font-size="13" lengthAdjust="spacingAndGlyphs" textLength="8" x="1276.6705" y="149.1771">1</text><!--MD5=[07c33ebd6bf1a7067fcb1cdb0e1b530a]
link Manager to PaymentTransaction--><path d="M1080.65,289.054 C1098.85,310.889 1125.23,338.588 1154,356 C1173.89,368.038 1225.47,383.437 1269.94,395.342 " fill="none" id="Manager-PaymentTransaction" style="stroke: #A80036; stroke-width: 1.0;"/><text fill="#000000" font-family="sans-serif" font-size="13" lengthAdjust="spacingAndGlyphs" textLength="71" x="1155" y="352.0669">has access</text><polygon fill="#000000" points="1229,346.0664,1235,349.0664,1229,352.0664,1229,346.0664" style="stroke: #000000; stroke-width: 1.0;"/><text fill="#000000" font-family="sans-serif" font-size="13" lengthAdjust="spacingAndGlyphs" textLength="8" x="1076.7339" y="308.6463">1</text><text fill="#000000" font-family="sans-serif" font-size="13" lengthAdjust="spacingAndGlyphs" textLength="7" x="1254.7869" y="406.2437">*</text><!--MD5=[7567565a4a1c784b2c2ab0921e6ae2a7]
link Manager to Task--><path d="M1097.57,253.405 C1229.01,245.869 1630.32,227.354 1750,274 C1800.1,293.525 1845.31,334.95 1876.25,368.863 " fill="none" id="Manager-Task" style="stroke: #A80036; stroke-width: 1.0;"/><text fill="#000000" font-family="sans-serif" font-size="13" lengthAdjust="spacingAndGlyphs" textLength="71" x="1452" y="239.0669">has access</text><polygon fill="#000000" points="1526,233.0664,1532,236.0664,1526,239.0664,1526,233.0664" style="stroke: #000000; stroke-width: 1.0;"/><text fill="#000000" font-family="sans-serif" font-size="13" lengthAdjust="spacingAndGlyphs" textLength="8" x="1105.366" y="266.3276">1</text><text fill="#000000" font-family="sans-serif" font-size="13" lengthAdjust="spacingAndGlyphs" textLength="7" x="1862.968" y="357.9235">*</text><!--MD5=[c32d3c60a61e5638fef4971a1b3a8306]
link Collaborator to PaymentTransaction--><path d="M1107.7,486.822 C1144.92,479.083 1195.97,467.487 1240,454 C1249.75,451.013 1259.9,447.568 1269.87,443.98 " fill="none" id="Collaborator-PaymentTransaction" style="stroke: #A80036; stroke-width: 1.0;"/><text fill="#000000" font-family="sans-serif" font-size="13" lengthAdjust="spacingAndGlyphs" textLength="43" x="1169" y="450.0669">makes</text><polygon fill="#000000" points="1215,444.0664,1221,447.0664,1215,450.0664,1215,444.0664" style="stroke: #000000; stroke-width: 1.0;"/><text fill="#000000" font-family="sans-serif" font-size="13" lengthAdjust="spacingAndGlyphs" textLength="8" x="1115.3863" y="498.5642">1</text><text fill="#000000" font-family="sans-serif" font-size="13" lengthAdjust="spacingAndGlyphs" textLength="7" x="1255.0806" y="459.7225">*</text><!--MD5=[04ce0ecdab38a3951889ff50c232570f]
link Collaborator to User--><path d="M1068.58,463.797 C1084.18,427.907 1113.35,371.021 1154,335 C1185.41,307.165 1208.74,323.999 1240,296 C1280.24,259.965 1309.53,204.674 1326.7,165.698 " fill="none" id="Collaborator-User" style="stroke: #A80036; stroke-width: 1.0;"/><polygon fill="#000000" points="1186,290,1189,284,1192,290,1186,290" style="stroke: #000000; stroke-width: 1.0;"/><text fill="#000000" font-family="sans-serif" font-size="13" lengthAdjust="spacingAndGlyphs" textLength="52" x="1164.5" y="305.0669">acts like</text><text fill="#000000" font-family="sans-serif" font-size="13" lengthAdjust="spacingAndGlyphs" textLength="7" x="1063.6629" y="452.902">*</text><text fill="#000000" font-family="sans-serif" font-size="13" lengthAdjust="spacingAndGlyphs" textLength="8" x="1315.2088" y="185.9043">1</text><!--MD5=[f919d21ae7a75ef5ececc535e09d5009]
link Collaborator to Task--><path d="M1107.59,493.349 C1144.55,490.753 1195.32,487.179 1240,484 C1320.45,478.277 1340.65,477.922 1421,471 C1573.22,457.887 1751.28,439.172 1847.71,428.755 " fill="none" id="Collaborator-Task" style="stroke: #A80036; stroke-width: 1.0;"/><text fill="#000000" font-family="sans-serif" font-size="13" lengthAdjust="spacingAndGlyphs" textLength="43" x="1466" y="456.0669">Create</text><polygon fill="#000000" points="1512,450.0664,1518,453.0664,1512,456.0664,1512,450.0664" style="stroke: #000000; stroke-width: 1.0;"/><text fill="#000000" font-family="sans-serif" font-size="13" lengthAdjust="spacingAndGlyphs" textLength="8" x="1115.6183" y="488.8846">1</text><text fill="#000000" font-family="sans-serif" font-size="13" lengthAdjust="spacingAndGlyphs" textLength="23" x="1817.0317" y="442.2333">0..*</text><!--MD5=[d2c3650dbd07e79cdad2ffd4a879dec6]
link Collaborator to Freelancer--><path d="M1107.66,518.755 C1122.48,524.489 1138.74,530.363 1154,535 C1303.54,580.445 1484.68,609.638 1583.81,623.504 " fill="none" id="Collaborator-Freelancer" style="stroke: #A80036; stroke-width: 1.0;"/><text fill="#000000" font-family="sans-serif" font-size="13" lengthAdjust="spacingAndGlyphs" textLength="49" x="1314.5" y="563.0669">register</text><polygon fill="#000000" points="1366.5,557.0664,1372.5,560.0664,1366.5,563.0664,1366.5,557.0664" style="stroke: #000000; stroke-width: 1.0;"/><text fill="#000000" font-family="sans-serif" font-size="13" lengthAdjust="spacingAndGlyphs" textLength="8" x="1115.3409" y="534.7882">1</text><text fill="#000000" font-family="sans-serif" font-size="13" lengthAdjust="spacingAndGlyphs" textLength="7" x="1569.1132" y="635.3594">*</text><!--MD5=[f6802b286771c18a16ea4be983074371]
link PaymentTransaction to Freelancer--><path d="M1363.61,453.331 C1380.83,488.503 1410.62,538.996 1451,569 C1472.39,584.894 1533.59,602.847 1583.85,615.685 " fill="none" id="PaymentTransaction-Freelancer" style="stroke: #A80036; stroke-width: 1.0;"/><text fill="#000000" font-family="sans-serif" font-size="13" lengthAdjust="spacingAndGlyphs" textLength="61" x="1457" y="565.0669">regarding</text><polygon fill="#000000" points="1521,559.0664,1527,562.0664,1521,565.0664,1521,559.0664" style="stroke: #000000; stroke-width: 1.0;"/><text fill="#000000" font-family="sans-serif" font-size="13" lengthAdjust="spacingAndGlyphs" textLength="8" x="1358.0352" y="473.4228">1</text><text fill="#000000" font-family="sans-serif" font-size="13" lengthAdjust="spacingAndGlyphs" textLength="8" x="1568.1079" y="610.2942">1</text><!--MD5=[271ce7fefd7250ebaca83b70495774bd]
link PaymentTransaction to Task--><path d="M1421.28,414.915 C1532.27,416.273 1739.13,418.805 1847.75,420.134 " fill="none" id="PaymentTransaction-Task" style="stroke: #A80036; stroke-width: 1.0;"/><text fill="#000000" font-family="sans-serif" font-size="13" lengthAdjust="spacingAndGlyphs" textLength="61" x="1621.5" y="412.0669">regarding</text><polygon fill="#000000" points="1685.5,406.0664,1691.5,409.0664,1685.5,412.0664,1685.5,406.0664" style="stroke: #000000; stroke-width: 1.0;"/><text fill="#000000" font-family="sans-serif" font-size="13" lengthAdjust="spacingAndGlyphs" textLength="8" x="1428.884" y="427.7705">1</text><text fill="#000000" font-family="sans-serif" font-size="13" lengthAdjust="spacingAndGlyphs" textLength="8" x="1831.9383" y="416.3438">1</text><!--MD5=[54cd5b92152f116e1ce633be05b97b77]
link PaymentTransaction to ExecutionTask--><path d="M1421.39,393.773 C1465.15,381.952 1520.69,366.951 1566.91,354.467 " fill="none" id="PaymentTransaction-ExecutionTask" style="stroke: #A80036; stroke-width: 1.0;"/><text fill="#000000" font-family="sans-serif" font-size="13" lengthAdjust="spacingAndGlyphs" textLength="23" x="1476" y="360.0669">has</text><polygon fill="#000000" points="1502,354.0664,1508,357.0664,1502,360.0664,1502,354.0664" style="stroke: #000000; stroke-width: 1.0;"/><text fill="#000000" font-family="sans-serif" font-size="13" lengthAdjust="spacingAndGlyphs" textLength="8" x="1429.0045" y="404.6134">1</text><text fill="#000000" font-family="sans-serif" font-size="13" lengthAdjust="spacingAndGlyphs" textLength="7" x="1552.0354" y="369.1695">*</text><!--MD5=[e7fe6a1136c68b24fb949ad86f020447]
link ExecutionTask to Task--><path d="M1750.09,361.827 C1782.18,373.103 1817.79,385.614 1847.96,396.217 " fill="none" id="ExecutionTask-Task" style="stroke: #A80036; stroke-width: 1.0;"/><text fill="#000000" font-family="sans-serif" font-size="13" lengthAdjust="spacingAndGlyphs" textLength="23" x="1781" y="368.0669">has</text><polygon fill="#000000" points="1807,362.0664,1813,365.0664,1807,368.0664,1807,362.0664" style="stroke: #000000; stroke-width: 1.0;"/><text fill="#000000" font-family="sans-serif" font-size="13" lengthAdjust="spacingAndGlyphs" textLength="8" x="1758.006" y="377.139">1</text><text fill="#000000" font-family="sans-serif" font-size="13" lengthAdjust="spacingAndGlyphs" textLength="8" x="1832.1699" y="389.9603">1</text><!--MD5=[b4b6c1ff9c803d8207b36238c02005ea]
link Freelancer to Task--><path d="M1733.06,603.752 C1761.33,590.452 1792.83,572.962 1818,552 C1844.76,529.712 1868.76,499.072 1886.59,473.028 " fill="none" id="Freelancer-Task" style="stroke: #A80036; stroke-width: 1.0;"/><text fill="#000000" font-family="sans-serif" font-size="13" lengthAdjust="spacingAndGlyphs" textLength="23" x="1781" y="548.0669">has</text><polygon fill="#000000" points="1807,542.0664,1813,545.0664,1807,548.0664,1807,542.0664" style="stroke: #000000; stroke-width: 1.0;"/><text fill="#000000" font-family="sans-serif" font-size="13" lengthAdjust="spacingAndGlyphs" textLength="8" x="1741.1615" y="613.5604">1</text><text fill="#000000" font-family="sans-serif" font-size="13" lengthAdjust="spacingAndGlyphs" textLength="7" x="1874.6974" y="493.1013">*</text><!--MD5=[ecdb333affad2882fd81ee394f623de3]
@startuml
skinparam classAttributeIconSize 0
hide methods
left to right direction


class Platform{

}

class LoadFile{

}

class Organization{
-String name
-String NIF
}

class Administrator{

}

class Collaborator {
 -String name
 -String email
}

class User{
-String name
-String email
-String password
-String role
}

class PaymentTransaction {
-String id
-Float amout
-Boolean payed
}

class Task{
-String id
-String briefDescription
-Integer timeDuration
-Float costPerHour
-String taskCategory
}

class ExecutionTask{
-Date endDate
-Float delay
-String briefDescriptionQuality
}

class Manager{
-String name
-String email
}

class Freelancer{
-String id
-String name
-String levelOfExpertise
-String email
-String NIF
-String IBAN
-String adress
-String country
}

class ExternalAlgorithmGeneratePwd{

}

class ExternalAlgoritmConvertCurrencies{

}

Platform"1" - - "*"Organization : contains >
Platform"1" - - "*"Administrator : contains >
Platform"1" - - "1"ExternalAlgorithmGeneratePwd : resort to >
Platform"1" - - "1"ExternalAlgoritmConvertCurrencies : resort to >
Platform"1" - - "0..*"Freelancer : has >

ExternalAlgorithmGeneratePwd"1" - - "*"User : generate password >

Administrator"*" - - "1" User : acts like >
Administrator"1" - - "*"PaymentTransaction : has access >
Administrator"1" - - "*"Task : has access >

ExternalAlgoritmConvertCurrencies"1" - - "*" PaymentTransaction : convert >

Organization"1" - - "1"Collaborator : contains >
Organization"1" - - "*"LoadFile : input >
Organization"1" - - "1"Manager : contains >
Organization"1" - - "*"Task : has >
Organization"1" - - "*"PaymentTransaction : contains >

LoadFile"*" - - "1"Manager : input <

Manager"*" - - "1" User : acts like >
Manager"1" - - "*"PaymentTransaction : has access >
Manager"1" - - "*"Task : has access >

Collaborator"1" - - "*" PaymentTransaction : makes >
Collaborator"*" - - "1" User : acts like >
Collaborator"1" - - "0..*" Task : Create >
Collaborator"1" - - "*" Freelancer : register >


PaymentTransaction"1" - - "1"Freelancer : regarding >
PaymentTransaction"1" - - "1"Task : regarding >
PaymentTransaction"1" - - "*"ExecutionTask : has > 

ExecutionTask"1" - - "1"Task: has >

Freelancer"1" - - "*"Task : has >
@enduml

PlantUML version 1.2020.11(Sat May 30 10:13:43 UTC 2020)
(GPL source distribution)
Java Runtime: Java(TM) SE Runtime Environment
JVM: Java HotSpot(TM) 64-Bit Server VM
Default Encoding: UTF-8
Language: en
Country: US
--></g></svg>