<?xml version="1.0" encoding="UTF-8" standalone="no"?><svg xmlns="http://www.w3.org/2000/svg" xmlns:xlink="http://www.w3.org/1999/xlink" contentScriptType="application/ecmascript" contentStyleType="text/css" height="1507px" preserveAspectRatio="none" style="width:695px;height:1507px;" version="1.1" viewBox="0 0 695 1507" width="695px" zoomAndPan="magnify"><defs><filter height="300%" id="f1nmlb2hl8f06p" width="300%" x="-1" y="-1"><feGaussianBlur result="blurOut" stdDeviation="2.0"/><feColorMatrix in="blurOut" result="blurOut2" type="matrix" values="0 0 0 0 0 0 0 0 0 0 0 0 0 0 0 0 0 0 .4 0"/><feOffset dx="4.0" dy="4.0" in="blurOut2" result="blurOut3"/><feBlend in="SourceGraphic" in2="blurOut3" mode="normal"/></filter></defs><g><!--MD5=[afa595e9dd3d9bdddc483728263165b0]
cluster Controladores--><polygon fill="#FFFFFF" filter="url(#f1nmlb2hl8f06p)" points="52,116,171,116,178,138.2969,316,138.2969,316,279,52,279,52,116" style="stroke: #000000; stroke-width: 1.5;"/><line style="stroke: #000000; stroke-width: 1.5;" x1="52" x2="178" y1="138.2969" y2="138.2969"/><text fill="#000000" font-family="sans-serif" font-size="14" font-weight="bold" lengthAdjust="spacingAndGlyphs" textLength="113" x="56" y="130.9951">Controladores</text><!--MD5=[746f6c2d331a0a8008673ce2aa14c974]
cluster Domínio--><polygon fill="#FFFFFF" filter="url(#f1nmlb2hl8f06p)" points="126,312,195,312,202,334.2969,673,334.2969,673,1495,126,1495,126,312" style="stroke: #000000; stroke-width: 1.5;"/><line style="stroke: #000000; stroke-width: 1.5;" x1="126" x2="202" y1="334.2969" y2="334.2969"/><text fill="#000000" font-family="sans-serif" font-size="14" font-weight="bold" lengthAdjust="spacingAndGlyphs" textLength="63" x="130" y="326.9951">Domínio</text><!--MD5=[eb1ab569dc5baf9282d4d315063bd4a9]
class MakePaymentTask--><rect fill="#FEFECE" filter="url(#f1nmlb2hl8f06p)" height="112.0234" id="MakePaymentTask" style="stroke: #A80036; stroke-width: 1.5;" width="233" x="67.5" y="151"/><ellipse cx="121.75" cy="167" fill="#ADD1B2" rx="11" ry="11" style="stroke: #A80036; stroke-width: 1.0;"/><path d="M124.7188,172.6406 Q124.1406,172.9375 123.5,173.0781 Q122.8594,173.2344 122.1563,173.2344 Q119.6563,173.2344 118.3281,171.5938 Q117.0156,169.9375 117.0156,166.8125 Q117.0156,163.6875 118.3281,162.0313 Q119.6563,160.375 122.1563,160.375 Q122.8594,160.375 123.5,160.5313 Q124.1563,160.6875 124.7188,160.9844 L124.7188,163.7031 Q124.0938,163.125 123.5,162.8594 Q122.9063,162.5781 122.2813,162.5781 Q120.9375,162.5781 120.25,163.6563 Q119.5625,164.7188 119.5625,166.8125 Q119.5625,168.9063 120.25,169.9844 Q120.9375,171.0469 122.2813,171.0469 Q122.9063,171.0469 123.5,170.7813 Q124.0938,170.5 124.7188,169.9219 L124.7188,172.6406 Z "/><text fill="#000000" font-family="sans-serif" font-size="12" lengthAdjust="spacingAndGlyphs" textLength="116" x="142.25" y="171.1543">MakePaymentTask</text><line style="stroke: #A80036; stroke-width: 1.5;" x1="68.5" x2="299.5" y1="183" y2="183"/><line style="stroke: #A80036; stroke-width: 1.5;" x1="68.5" x2="299.5" y1="191" y2="191"/><text fill="#000000" font-family="sans-serif" font-size="11" lengthAdjust="spacingAndGlyphs" textLength="122" x="73.5" y="205.2104">+MakePaymentTask()</text><text fill="#000000" font-family="sans-serif" font-size="11" lengthAdjust="spacingAndGlyphs" textLength="36" x="73.5" y="218.0151">+run()</text><text fill="#000000" font-family="sans-serif" font-size="11" lengthAdjust="spacingAndGlyphs" textLength="138" x="73.5" y="230.8198">-makePaymentsUnpaid()</text><text fill="#000000" font-family="sans-serif" font-size="11" lengthAdjust="spacingAndGlyphs" textLength="221" x="73.5" y="243.6245">-writeEmail(amount, amountCnv, desc)</text><text fill="#000000" font-family="sans-serif" font-size="11" lengthAdjust="spacingAndGlyphs" textLength="133" x="73.5" y="256.4292">-sendEmail(email, free)</text><!--MD5=[03dcba4cf8fb1a884adf843655d65df1]
class Plataform--><rect fill="#FEFECE" filter="url(#f1nmlb2hl8f06p)" height="86.4141" id="Plataform" style="stroke: #A80036; stroke-width: 1.5;" width="282" x="305" y="347"/><ellipse cx="411.75" cy="363" fill="#ADD1B2" rx="11" ry="11" style="stroke: #A80036; stroke-width: 1.0;"/><path d="M414.7188,368.6406 Q414.1406,368.9375 413.5,369.0781 Q412.8594,369.2344 412.1563,369.2344 Q409.6563,369.2344 408.3281,367.5938 Q407.0156,365.9375 407.0156,362.8125 Q407.0156,359.6875 408.3281,358.0313 Q409.6563,356.375 412.1563,356.375 Q412.8594,356.375 413.5,356.5313 Q414.1563,356.6875 414.7188,356.9844 L414.7188,359.7031 Q414.0938,359.125 413.5,358.8594 Q412.9063,358.5781 412.2813,358.5781 Q410.9375,358.5781 410.25,359.6563 Q409.5625,360.7188 409.5625,362.8125 Q409.5625,364.9063 410.25,365.9844 Q410.9375,367.0469 412.2813,367.0469 Q412.9063,367.0469 413.5,366.7813 Q414.0938,366.5 414.7188,365.9219 L414.7188,368.6406 Z "/><text fill="#000000" font-family="sans-serif" font-size="12" lengthAdjust="spacingAndGlyphs" textLength="60" x="432.25" y="367.1543">Plataform</text><line style="stroke: #A80036; stroke-width: 1.5;" x1="306" x2="586" y1="379" y2="379"/><line style="stroke: #A80036; stroke-width: 1.5;" x1="306" x2="586" y1="387" y2="387"/><text fill="#000000" font-family="sans-serif" font-size="11" lengthAdjust="spacingAndGlyphs" textLength="116" x="311" y="401.2104">+getFreelancerReg()</text><text fill="#000000" font-family="sans-serif" font-size="11" lengthAdjust="spacingAndGlyphs" textLength="270" x="311" y="414.0151">+enterNewPayment(amount, amountCnv, desc)</text><text fill="#000000" font-family="sans-serif" font-size="11" lengthAdjust="spacingAndGlyphs" textLength="133" x="311" y="426.8198">+getAlgorithmConvert()</text><!--MD5=[1f687b5315377fe49fca59b457947463]
class Freelancer--><rect fill="#FEFECE" filter="url(#f1nmlb2hl8f06p)" height="176.0469" id="Freelancer" style="stroke: #A80036; stroke-width: 1.5;" width="146" x="481" y="1088"/><ellipse cx="517.15" cy="1104" fill="#ADD1B2" rx="11" ry="11" style="stroke: #A80036; stroke-width: 1.0;"/><path d="M520.1188,1109.6406 Q519.5406,1109.9375 518.9,1110.0781 Q518.2594,1110.2344 517.5563,1110.2344 Q515.0563,1110.2344 513.7281,1108.5938 Q512.4156,1106.9375 512.4156,1103.8125 Q512.4156,1100.6875 513.7281,1099.0313 Q515.0563,1097.375 517.5563,1097.375 Q518.2594,1097.375 518.9,1097.5313 Q519.5563,1097.6875 520.1188,1097.9844 L520.1188,1100.7031 Q519.4938,1100.125 518.9,1099.8594 Q518.3063,1099.5781 517.6813,1099.5781 Q516.3375,1099.5781 515.65,1100.6563 Q514.9625,1101.7188 514.9625,1103.8125 Q514.9625,1105.9063 515.65,1106.9844 Q516.3375,1108.0469 517.6813,1108.0469 Q518.3063,1108.0469 518.9,1107.7813 Q519.4938,1107.5 520.1188,1106.9219 L520.1188,1109.6406 Z "/><text fill="#000000" font-family="sans-serif" font-size="12" lengthAdjust="spacingAndGlyphs" textLength="67" x="535.85" y="1108.1543">Freelancer</text><line style="stroke: #A80036; stroke-width: 1.5;" x1="482" x2="626" y1="1120" y2="1120"/><text fill="#000000" font-family="sans-serif" font-size="11" lengthAdjust="spacingAndGlyphs" textLength="52" x="487" y="1134.2104">-String id</text><text fill="#000000" font-family="sans-serif" font-size="11" lengthAdjust="spacingAndGlyphs" textLength="74" x="487" y="1147.0151">-String name</text><text fill="#000000" font-family="sans-serif" font-size="11" lengthAdjust="spacingAndGlyphs" textLength="134" x="487" y="1159.8198">-String levelOfExpertise</text><text fill="#000000" font-family="sans-serif" font-size="11" lengthAdjust="spacingAndGlyphs" textLength="59" x="487" y="1172.6245">-String NIF</text><text fill="#000000" font-family="sans-serif" font-size="11" lengthAdjust="spacingAndGlyphs" textLength="68" x="487" y="1185.4292">-String IBAN</text><text fill="#000000" font-family="sans-serif" font-size="11" lengthAdjust="spacingAndGlyphs" textLength="82" x="487" y="1198.2339">-String adress</text><text fill="#000000" font-family="sans-serif" font-size="11" lengthAdjust="spacingAndGlyphs" textLength="84" x="487" y="1211.0386">-String country</text><text fill="#000000" font-family="sans-serif" font-size="11" lengthAdjust="spacingAndGlyphs" textLength="74" x="487" y="1223.8433">-String name</text><line style="stroke: #A80036; stroke-width: 1.5;" x1="482" x2="626" y1="1230.4375" y2="1230.4375"/><text fill="#000000" font-family="sans-serif" font-size="11" lengthAdjust="spacingAndGlyphs" textLength="82" x="487" y="1244.6479">+getTaskList()</text><text fill="#000000" font-family="sans-serif" font-size="11" lengthAdjust="spacingAndGlyphs" textLength="79" x="487" y="1257.4526">+getCountry()</text><!--MD5=[20060696b302850b41b79a5236eadb69]
class OrganizationReg--><rect fill="#FEFECE" filter="url(#f1nmlb2hl8f06p)" height="60.8047" id="OrganizationReg" style="stroke: #A80036; stroke-width: 1.5;" width="194" x="272" y="510"/><ellipse cx="314" cy="526" fill="#ADD1B2" rx="11" ry="11" style="stroke: #A80036; stroke-width: 1.0;"/><path d="M316.9688,531.6406 Q316.3906,531.9375 315.75,532.0781 Q315.1094,532.2344 314.4063,532.2344 Q311.9063,532.2344 310.5781,530.5938 Q309.2656,528.9375 309.2656,525.8125 Q309.2656,522.6875 310.5781,521.0313 Q311.9063,519.375 314.4063,519.375 Q315.1094,519.375 315.75,519.5313 Q316.4063,519.6875 316.9688,519.9844 L316.9688,522.7031 Q316.3438,522.125 315.75,521.8594 Q315.1563,521.5781 314.5313,521.5781 Q313.1875,521.5781 312.5,522.6563 Q311.8125,523.7188 311.8125,525.8125 Q311.8125,527.9063 312.5,528.9844 Q313.1875,530.0469 314.5313,530.0469 Q315.1563,530.0469 315.75,529.7813 Q316.3438,529.5 316.9688,528.9219 L316.9688,531.6406 Z "/><text fill="#000000" font-family="sans-serif" font-size="12" lengthAdjust="spacingAndGlyphs" textLength="102" x="334" y="530.1543">OrganizationReg</text><line style="stroke: #A80036; stroke-width: 1.5;" x1="273" x2="465" y1="542" y2="542"/><line style="stroke: #A80036; stroke-width: 1.5;" x1="273" x2="465" y1="550" y2="550"/><text fill="#000000" font-family="sans-serif" font-size="11" lengthAdjust="spacingAndGlyphs" textLength="182" x="278" y="564.2104">+getOrganizationByEmail(email)</text><!--MD5=[b645a18afb25b7e5623af7186d8eb36f]
class PaymentTransaction--><rect fill="#FEFECE" filter="url(#f1nmlb2hl8f06p)" height="112.0234" id="PaymentTransaction" style="stroke: #A80036; stroke-width: 1.5;" width="160" x="303" y="855"/><ellipse cx="318" cy="871" fill="#ADD1B2" rx="11" ry="11" style="stroke: #A80036; stroke-width: 1.0;"/><path d="M320.9688,876.6406 Q320.3906,876.9375 319.75,877.0781 Q319.1094,877.2344 318.4063,877.2344 Q315.9063,877.2344 314.5781,875.5938 Q313.2656,873.9375 313.2656,870.8125 Q313.2656,867.6875 314.5781,866.0313 Q315.9063,864.375 318.4063,864.375 Q319.1094,864.375 319.75,864.5313 Q320.4063,864.6875 320.9688,864.9844 L320.9688,867.7031 Q320.3438,867.125 319.75,866.8594 Q319.1563,866.5781 318.5313,866.5781 Q317.1875,866.5781 316.5,867.6563 Q315.8125,868.7188 315.8125,870.8125 Q315.8125,872.9063 316.5,873.9844 Q317.1875,875.0469 318.5313,875.0469 Q319.1563,875.0469 319.75,874.7813 Q320.3438,874.5 320.9688,873.9219 L320.9688,876.6406 Z "/><text fill="#000000" font-family="sans-serif" font-size="12" lengthAdjust="spacingAndGlyphs" textLength="128" x="332" y="875.1543">PaymentTransaction</text><line style="stroke: #A80036; stroke-width: 1.5;" x1="304" x2="462" y1="887" y2="887"/><text fill="#000000" font-family="sans-serif" font-size="11" lengthAdjust="spacingAndGlyphs" textLength="52" x="309" y="901.2104">-String id</text><text fill="#000000" font-family="sans-serif" font-size="11" lengthAdjust="spacingAndGlyphs" textLength="78" x="309" y="914.0151">-Float amount</text><text fill="#000000" font-family="sans-serif" font-size="11" lengthAdjust="spacingAndGlyphs" textLength="88" x="309" y="926.8198">-Boolean payed</text><line style="stroke: #A80036; stroke-width: 1.5;" x1="304" x2="462" y1="933.4141" y2="933.4141"/><text fill="#000000" font-family="sans-serif" font-size="11" lengthAdjust="spacingAndGlyphs" textLength="114" x="309" y="947.6245">+getPaymentMade()</text><text fill="#000000" font-family="sans-serif" font-size="11" lengthAdjust="spacingAndGlyphs" textLength="78" x="309" y="960.4292">+getAmount()</text><!--MD5=[8a08cc651ac853c10004ed1c9529a181]
class ExternalAlgoritmConvertCurrencies--><rect fill="#FEFECE" filter="url(#f1nmlb2hl8f06p)" height="60.8047" id="ExternalAlgoritmConvertCurrencies" style="stroke: #A80036; stroke-width: 1.5;" width="249" x="251.5" y="601"/><ellipse cx="266.5" cy="617" fill="#B4A7E5" rx="11" ry="11" style="stroke: #A80036; stroke-width: 1.0;"/><path d="M262.4219,612.7656 L262.4219,610.6094 L269.8125,610.6094 L269.8125,612.7656 L267.3438,612.7656 L267.3438,620.8438 L269.8125,620.8438 L269.8125,623 L262.4219,623 L262.4219,620.8438 L264.8906,620.8438 L264.8906,612.7656 L262.4219,612.7656 Z "/><text fill="#000000" font-family="sans-serif" font-size="12" font-style="italic" lengthAdjust="spacingAndGlyphs" textLength="217" x="280.5" y="621.1543">ExternalAlgoritmConvertCurrencies</text><line style="stroke: #A80036; stroke-width: 1.5;" x1="252.5" x2="499.5" y1="633" y2="633"/><line style="stroke: #A80036; stroke-width: 1.5;" x1="252.5" x2="499.5" y1="641" y2="641"/><text fill="#000000" font-family="sans-serif" font-size="11" lengthAdjust="spacingAndGlyphs" textLength="229" x="257.5" y="655.2104">+getConvertedAmount(amount, country)</text><!--MD5=[b34797a66dc35cbf1d65f7e3ca75530e]
class Task--><rect fill="#FEFECE" filter="url(#f1nmlb2hl8f06p)" height="137.6328" id="Task" style="stroke: #A80036; stroke-width: 1.5;" width="144" x="390" y="1341"/><ellipse cx="443.25" cy="1357" fill="#ADD1B2" rx="11" ry="11" style="stroke: #A80036; stroke-width: 1.0;"/><path d="M446.2188,1362.6406 Q445.6406,1362.9375 445,1363.0781 Q444.3594,1363.2344 443.6563,1363.2344 Q441.1563,1363.2344 439.8281,1361.5938 Q438.5156,1359.9375 438.5156,1356.8125 Q438.5156,1353.6875 439.8281,1352.0313 Q441.1563,1350.375 443.6563,1350.375 Q444.3594,1350.375 445,1350.5313 Q445.6563,1350.6875 446.2188,1350.9844 L446.2188,1353.7031 Q445.5938,1353.125 445,1352.8594 Q444.4063,1352.5781 443.7813,1352.5781 Q442.4375,1352.5781 441.75,1353.6563 Q441.0625,1354.7188 441.0625,1356.8125 Q441.0625,1358.9063 441.75,1359.9844 Q442.4375,1361.0469 443.7813,1361.0469 Q444.4063,1361.0469 445,1360.7813 Q445.5938,1360.5 446.2188,1359.9219 L446.2188,1362.6406 Z "/><text fill="#000000" font-family="sans-serif" font-size="12" lengthAdjust="spacingAndGlyphs" textLength="29" x="463.75" y="1361.1543">Task</text><line style="stroke: #A80036; stroke-width: 1.5;" x1="391" x2="533" y1="1373" y2="1373"/><text fill="#000000" font-family="sans-serif" font-size="11" lengthAdjust="spacingAndGlyphs" textLength="52" x="396" y="1387.2104">-String id</text><text fill="#000000" font-family="sans-serif" font-size="11" lengthAdjust="spacingAndGlyphs" textLength="132" x="396" y="1400.0151">-String briefDescription</text><text fill="#000000" font-family="sans-serif" font-size="11" lengthAdjust="spacingAndGlyphs" textLength="121" x="396" y="1412.8198">-Integer timeDuration</text><text fill="#000000" font-family="sans-serif" font-size="11" lengthAdjust="spacingAndGlyphs" textLength="105" x="396" y="1425.6245">-Float costPerHour</text><line style="stroke: #A80036; stroke-width: 1.5;" x1="391" x2="533" y1="1432.2188" y2="1432.2188"/><text fill="#000000" font-family="sans-serif" font-size="11" lengthAdjust="spacingAndGlyphs" textLength="84" x="396" y="1446.4292">+getPayment()</text><text fill="#000000" font-family="sans-serif" font-size="11" lengthAdjust="spacingAndGlyphs" textLength="126" x="396" y="1459.2339">+getBriefDescription()</text><text fill="#000000" font-family="sans-serif" font-size="11" lengthAdjust="spacingAndGlyphs" textLength="106" x="396" y="1472.0386">+getOrganization()</text><!--MD5=[cf2635f8a68afd84898027166f4516bc]
class TaskList--><rect fill="#FEFECE" filter="url(#f1nmlb2hl8f06p)" height="60.8047" id="TaskList" style="stroke: #A80036; stroke-width: 1.5;" width="94" x="153" y="997"/><ellipse cx="173.4" cy="1013" fill="#ADD1B2" rx="11" ry="11" style="stroke: #A80036; stroke-width: 1.0;"/><path d="M176.3688,1018.6406 Q175.7906,1018.9375 175.15,1019.0781 Q174.5094,1019.2344 173.8063,1019.2344 Q171.3063,1019.2344 169.9781,1017.5938 Q168.6656,1015.9375 168.6656,1012.8125 Q168.6656,1009.6875 169.9781,1008.0313 Q171.3063,1006.375 173.8063,1006.375 Q174.5094,1006.375 175.15,1006.5313 Q175.8063,1006.6875 176.3688,1006.9844 L176.3688,1009.7031 Q175.7438,1009.125 175.15,1008.8594 Q174.5563,1008.5781 173.9313,1008.5781 Q172.5875,1008.5781 171.9,1009.6563 Q171.2125,1010.7188 171.2125,1012.8125 Q171.2125,1014.9063 171.9,1015.9844 Q172.5875,1017.0469 173.9313,1017.0469 Q174.5563,1017.0469 175.15,1016.7813 Q175.7438,1016.5 176.3688,1015.9219 L176.3688,1018.6406 Z "/><text fill="#000000" font-family="sans-serif" font-size="12" lengthAdjust="spacingAndGlyphs" textLength="50" x="188.6" y="1017.1543">TaskList</text><line style="stroke: #A80036; stroke-width: 1.5;" x1="154" x2="246" y1="1029" y2="1029"/><line style="stroke: #A80036; stroke-width: 1.5;" x1="154" x2="246" y1="1037" y2="1037"/><text fill="#000000" font-family="sans-serif" font-size="11" lengthAdjust="spacingAndGlyphs" textLength="82" x="159" y="1051.2104">+getListTask()</text><!--MD5=[86c7c362de55a38b660185a1328fe18d]
class Organization--><rect fill="#FEFECE" filter="url(#f1nmlb2hl8f06p)" height="86.4141" id="Organization" style="stroke: #A80036; stroke-width: 1.5;" width="149" x="141.5" y="692"/><ellipse cx="174.05" cy="708" fill="#ADD1B2" rx="11" ry="11" style="stroke: #A80036; stroke-width: 1.0;"/><path d="M177.0188,713.6406 Q176.4406,713.9375 175.8,714.0781 Q175.1594,714.2344 174.4563,714.2344 Q171.9563,714.2344 170.6281,712.5938 Q169.3156,710.9375 169.3156,707.8125 Q169.3156,704.6875 170.6281,703.0313 Q171.9563,701.375 174.4563,701.375 Q175.1594,701.375 175.8,701.5313 Q176.4563,701.6875 177.0188,701.9844 L177.0188,704.7031 Q176.3938,704.125 175.8,703.8594 Q175.2063,703.5781 174.5813,703.5781 Q173.2375,703.5781 172.55,704.6563 Q171.8625,705.7188 171.8625,707.8125 Q171.8625,709.9063 172.55,710.9844 Q173.2375,712.0469 174.5813,712.0469 Q175.2063,712.0469 175.8,711.7813 Q176.3938,711.5 177.0188,710.9219 L177.0188,713.6406 Z "/><text fill="#000000" font-family="sans-serif" font-size="12" lengthAdjust="spacingAndGlyphs" textLength="78" x="191.95" y="712.1543">Organization</text><line style="stroke: #A80036; stroke-width: 1.5;" x1="142.5" x2="289.5" y1="724" y2="724"/><text fill="#000000" font-family="sans-serif" font-size="11" lengthAdjust="spacingAndGlyphs" textLength="74" x="147.5" y="738.2104">-String name</text><text fill="#000000" font-family="sans-serif" font-size="11" lengthAdjust="spacingAndGlyphs" textLength="52" x="147.5" y="751.0151">-String id</text><line style="stroke: #A80036; stroke-width: 1.5;" x1="142.5" x2="289.5" y1="757.6094" y2="757.6094"/><text fill="#000000" font-family="sans-serif" font-size="11" lengthAdjust="spacingAndGlyphs" textLength="137" x="147.5" y="771.8198">+schedulePayment(day)</text><!--MD5=[52bbee025a435258c6397b17d94a5a49]
class FreelancerRegister--><rect fill="#FEFECE" filter="url(#f1nmlb2hl8f06p)" height="60.8047" id="FreelancerRegister" style="stroke: #A80036; stroke-width: 1.5;" width="151" x="505.5" y="601"/><ellipse cx="520.5" cy="617" fill="#ADD1B2" rx="11" ry="11" style="stroke: #A80036; stroke-width: 1.0;"/><path d="M523.4688,622.6406 Q522.8906,622.9375 522.25,623.0781 Q521.6094,623.2344 520.9063,623.2344 Q518.4063,623.2344 517.0781,621.5938 Q515.7656,619.9375 515.7656,616.8125 Q515.7656,613.6875 517.0781,612.0313 Q518.4063,610.375 520.9063,610.375 Q521.6094,610.375 522.25,610.5313 Q522.9063,610.6875 523.4688,610.9844 L523.4688,613.7031 Q522.8438,613.125 522.25,612.8594 Q521.6563,612.5781 521.0313,612.5781 Q519.6875,612.5781 519,613.6563 Q518.3125,614.7188 518.3125,616.8125 Q518.3125,618.9063 519,619.9844 Q519.6875,621.0469 521.0313,621.0469 Q521.6563,621.0469 522.25,620.7813 Q522.8438,620.5 523.4688,619.9219 L523.4688,622.6406 Z "/><text fill="#000000" font-family="sans-serif" font-size="12" lengthAdjust="spacingAndGlyphs" textLength="119" x="534.5" y="621.1543">FreelancerRegister</text><line style="stroke: #A80036; stroke-width: 1.5;" x1="506.5" x2="655.5" y1="633" y2="633"/><line style="stroke: #A80036; stroke-width: 1.5;" x1="506.5" x2="655.5" y1="641" y2="641"/><text fill="#000000" font-family="sans-serif" font-size="11" lengthAdjust="spacingAndGlyphs" textLength="80" x="511.5" y="655.2104">+getListFree()</text><!--MD5=[74054751ba3b9eca75fda5044dcc84d9]
class TimerTask--><rect fill="#FEFECE" filter="url(#f1nmlb2hl8f06p)" height="60.8047" id="TimerTask" style="stroke: #A80036; stroke-width: 1.5;" width="95" x="136.5" y="8"/><ellipse cx="151.5" cy="24" fill="#A9DCDF" rx="11" ry="11" style="stroke: #A80036; stroke-width: 1.0;"/><path d="M151.6094,19.3438 L150.4531,24.4219 L152.7813,24.4219 L151.6094,19.3438 Z M150.125,17.1094 L153.1094,17.1094 L156.4688,29.5 L154.0156,29.5 L153.25,26.4375 L149.9688,26.4375 L149.2188,29.5 L146.7813,29.5 L150.125,17.1094 Z "/><text fill="#000000" font-family="sans-serif" font-size="12" font-style="italic" lengthAdjust="spacingAndGlyphs" textLength="63" x="165.5" y="28.1543">TimerTask</text><line style="stroke: #A80036; stroke-width: 1.5;" x1="137.5" x2="230.5" y1="40" y2="40"/><line style="stroke: #A80036; stroke-width: 1.5;" x1="137.5" x2="230.5" y1="48" y2="48"/><text fill="#000000" font-family="sans-serif" font-size="11" lengthAdjust="spacingAndGlyphs" textLength="36" x="142.5" y="62.2104">+run()</text><!--MD5=[f7cda923d6fefb8b6d613e97a014bb9e]
reverse link TimerTask to MakePaymentTask--><path d="M184,89.3 C184,108.71 184,131.03 184,150.92 " fill="none" id="TimerTask&lt;-MakePaymentTask" style="stroke: #A80036; stroke-width: 1.0;"/><polygon fill="none" points="177,89.27,184,69.27,191,89.27,177,89.27" style="stroke: #A80036; stroke-width: 1.0;"/><!--MD5=[dfcd1ebd91c1b15ae9e85c323f7cd20a]
link MakePaymentTask to Organization--><path d="M153.85,263.19 C148.123,276.21 142.991,290.3 140,304 C127.562,360.99 138.575,639.448 148,662 C151.875,671.27 157.523,680.06 163.935,688.106 " fill="none" id="MakePaymentTask-&gt;Organization" style="stroke: #A80036; stroke-width: 1.0; stroke-dasharray: 7.0,7.0;"/><polygon fill="#A80036" points="167.139,691.995,164.5019,682.5058,163.9591,688.1365,158.3283,687.5937,167.139,691.995" style="stroke: #A80036; stroke-width: 1.0;"/><!--MD5=[ab7cd9d94e9cc551c4df615294b76bcb]
link MakePaymentTask to FreelancerRegister--><path d="M186.902,263.25 C192.901,354.31 209.998,529.96 254,571 C293.329,607.682 438.981,589.102 500.369,601.016 " fill="none" id="MakePaymentTask-&gt;FreelancerRegister" style="stroke: #A80036; stroke-width: 1.0; stroke-dasharray: 7.0,7.0;"/><polygon fill="#A80036" points="505.343,602.095,497.3954,596.2782,500.4566,601.0352,495.6996,604.0964,505.343,602.095" style="stroke: #A80036; stroke-width: 1.0;"/><!--MD5=[42164ebfd829f0085d7394eceffd7429]
link MakePaymentTask to Task--><path d="M300.641,215.52 C389.094,225.58 510.909,249.08 604,304 C647.648,329.75 680,338.32 680,389 C680,389 680,389 680,1177 C680,1261.874 601.556,1328.404 538.78,1368.058 " fill="none" id="MakePaymentTask-&gt;Task" style="stroke: #A80036; stroke-width: 1.0; stroke-dasharray: 7.0,7.0;"/><polygon fill="#A80036" points="534.288,1370.866,544.04,1369.488,538.528,1368.216,539.8,1362.704,534.288,1370.866" style="stroke: #A80036; stroke-width: 1.0;"/><!--MD5=[5cbf23d4adb94f5478797b2d6200b988]
link MakePaymentTask to PaymentTransaction--><path d="M85.3693,263.16 C44.3008,293.93 6,336.66 6,389 C6,389 6,389 6,736 C6,863.55 186.103,897.905 297.342,906.96 " fill="none" id="MakePaymentTask-&gt;PaymentTransaction" style="stroke: #A80036; stroke-width: 1.0; stroke-dasharray: 7.0,7.0;"/><polygon fill="#A80036" points="302.586,907.372,293.9267,902.6798,297.6013,906.9807,293.3005,910.6553,302.586,907.372" style="stroke: #A80036; stroke-width: 1.0;"/><!--MD5=[ee670da2e5013d0d0dc8afbfd0804b86]
link MakePaymentTask to ExternalAlgoritmConvertCurrencies--><path d="M167.401,263.18 C147.841,340.29 125.838,480.91 193,571 C200.956,581.672 221.69,591.465 246.477,599.893 " fill="none" id="MakePaymentTask-&gt;ExternalAlgoritmConvertCurrencies" style="stroke: #A80036; stroke-width: 1.0; stroke-dasharray: 7.0,7.0;"/><polygon fill="#A80036" points="251.486,601.56,244.211,594.9212,246.7422,599.9801,241.6832,602.5113,251.486,601.56" style="stroke: #A80036; stroke-width: 1.0;"/><!--MD5=[ed1b79e5342db41b43c3bde06ad958e7]
link MakePaymentTask to Plataform--><path d="M263.676,263.04 C301.145,288.93 345.269,319.41 380.724,343.9 " fill="none" id="MakePaymentTask-&gt;Plataform" style="stroke: #A80036; stroke-width: 1.0; stroke-dasharray: 7.0,7.0;"/><polygon fill="#A80036" points="385.003,346.86,379.8705,338.4542,380.8888,344.0186,375.3243,345.0369,385.003,346.86" style="stroke: #A80036; stroke-width: 1.0;"/><!--MD5=[0f4df15e112760e7c08ff9014a9a7622]
link Plataform to OrganizationReg--><path d="M386.71,433.32 C378.298,442.11 370.865,452.08 366,463 C359.565,477.45 359.761,494.99 361.813,509.64 " fill="none" id="Plataform-OrganizationReg" style="stroke: #A80036; stroke-width: 1.0;"/><text fill="#000000" font-family="sans-serif" font-size="13" lengthAdjust="spacingAndGlyphs" textLength="54" x="367" y="476.0669">contains</text><polygon fill="#000000" points="389.5,485.1328,392.5,491.1328,395.5,485.1328,389.5,485.1328" style="stroke: #000000; stroke-width: 1.0;"/><text fill="#000000" font-family="sans-serif" font-size="13" lengthAdjust="spacingAndGlyphs" textLength="8" x="368.6232" y="453.4639">1</text><text fill="#000000" font-family="sans-serif" font-size="13" lengthAdjust="spacingAndGlyphs" textLength="7" x="352.6088" y="498.829">*</text><!--MD5=[2ea96a0fc5d6981d97504bfcedaec87c]
link Plataform to ExternalAlgoritmConvertCurrencies--><path d="M459.762,433.07 C469.783,464.07 481.806,502.14 483,510 C487.071,536.804 496.744,547.631 483,571 C475.834,583.184 465.171,593.053 453.311,600.987 " fill="none" id="Plataform-ExternalAlgoritmConvertCurrencies" style="stroke: #A80036; stroke-width: 1.0;"/><text fill="#000000" font-family="sans-serif" font-size="13" lengthAdjust="spacingAndGlyphs" textLength="55" x="476" y="476.0669">resort to</text><polygon fill="#000000" points="499,485.1328,502,491.1328,505,485.1328,499,485.1328" style="stroke: #000000; stroke-width: 1.0;"/><text fill="#000000" font-family="sans-serif" font-size="13" lengthAdjust="spacingAndGlyphs" textLength="8" x="453.3788" y="453.4893">1</text><text fill="#000000" font-family="sans-serif" font-size="13" lengthAdjust="spacingAndGlyphs" textLength="8" x="461.3478" y="589.7744">1</text><!--MD5=[20084ce5a792597ea88763e4af6e3cfe]
link Plataform to FreelancerRegister--><path d="M521.391,433.03 C531.972,441.73 541.706,451.74 549,463 C576.36,505.24 581.494,565.246 581.856,600.793 " fill="none" id="Plataform-FreelancerRegister" style="stroke: #A80036; stroke-width: 1.0;"/><text fill="#000000" font-family="sans-serif" font-size="13" lengthAdjust="spacingAndGlyphs" textLength="54" x="559" y="476.0669">contains</text><polygon fill="#000000" points="581.5,485.1328,584.5,491.1328,587.5,485.1328,581.5,485.1328" style="stroke: #000000; stroke-width: 1.0;"/><text fill="#000000" font-family="sans-serif" font-size="13" lengthAdjust="spacingAndGlyphs" textLength="8" x="525.2151" y="453.4426">1</text><text fill="#000000" font-family="sans-serif" font-size="13" lengthAdjust="spacingAndGlyphs" textLength="7" x="574.3107" y="590.0135">*</text><!--MD5=[8055e3cecaf06a25120a4c5a72968f1a]
link OrganizationReg to Organization--><path d="M271.77,558.356 C226.045,568.463 178.586,582.886 165,601 C144.746,628.005 160.591,664.024 179.797,691.767 " fill="none" id="OrganizationReg-Organization" style="stroke: #A80036; stroke-width: 1.0;"/><text fill="#000000" font-family="sans-serif" font-size="13" lengthAdjust="spacingAndGlyphs" textLength="54" x="166" y="636.0669">contains</text><polygon fill="#000000" points="188.5,645.1328,191.5,651.1328,194.5,645.1328,188.5,645.1328" style="stroke: #000000; stroke-width: 1.0;"/><text fill="#000000" font-family="sans-serif" font-size="13" lengthAdjust="spacingAndGlyphs" textLength="8" x="256.0196" y="556.2283">1</text><text fill="#000000" font-family="sans-serif" font-size="13" lengthAdjust="spacingAndGlyphs" textLength="7" x="166.7175" y="681.0439">*</text><!--MD5=[a4cb23ae9b63896b4ff4e454c9456065]
link FreelancerRegister to Freelancer--><path d="M579.529,662.052 C575.562,741.762 564.525,963.523 558.341,1087.781 " fill="none" id="FreelancerRegister-Freelancer" style="stroke: #A80036; stroke-width: 1.0;"/><text fill="#000000" font-family="sans-serif" font-size="13" lengthAdjust="spacingAndGlyphs" textLength="54" x="574" y="821.0669">contains</text><polygon fill="#000000" points="596.5,830.1328,599.5,836.1328,602.5,830.1328,596.5,830.1328" style="stroke: #000000; stroke-width: 1.0;"/><text fill="#000000" font-family="sans-serif" font-size="13" lengthAdjust="spacingAndGlyphs" textLength="8" x="570.4006" y="682.001">1</text><text fill="#000000" font-family="sans-serif" font-size="13" lengthAdjust="spacingAndGlyphs" textLength="7" x="551.4106" y="1076.9247">*</text><!--MD5=[6b1b81d556f7888ec3b3fc98f11703a1]
link ExternalAlgoritmConvertCurrencies to PaymentTransaction--><path d="M393.034,662.035 C411.538,695.971 439.935,753.952 451,808 C454.372,824.472 449.187,840.491 440.406,854.768 " fill="none" id="ExternalAlgoritmConvertCurrencies-PaymentTransaction" style="stroke: #A80036; stroke-width: 1.0;"/><text fill="#000000" font-family="sans-serif" font-size="13" lengthAdjust="spacingAndGlyphs" textLength="55" x="444" y="739.5669">converts</text><polygon fill="#000000" points="467,748.6328,470,754.6328,473,748.6328,467,748.6328" style="stroke: #000000; stroke-width: 1.0;"/><text fill="#000000" font-family="sans-serif" font-size="13" lengthAdjust="spacingAndGlyphs" textLength="8" x="387.7223" y="681.9805">1</text><text fill="#000000" font-family="sans-serif" font-size="13" lengthAdjust="spacingAndGlyphs" textLength="7" x="439.9758" y="844.0742">*</text><!--MD5=[da2d560b3f89d8c66478284968d27dfa]
link Organization to PaymentTransaction--><path d="M244.878,778.287 C256.085,793.599 269.47,810.644 283,825 C292.533,835.115 303.201,845.235 313.921,854.785 " fill="none" id="Organization-PaymentTransaction" style="stroke: #A80036; stroke-width: 1.0;"/><text fill="#000000" font-family="sans-serif" font-size="13" lengthAdjust="spacingAndGlyphs" textLength="54" x="284" y="821.0669">contains</text><polygon fill="#000000" points="306.5,830.1328,309.5,836.1328,312.5,830.1328,306.5,830.1328" style="stroke: #000000; stroke-width: 1.0;"/><text fill="#000000" font-family="sans-serif" font-size="13" lengthAdjust="spacingAndGlyphs" textLength="8" x="240.8429" y="798.4257">1</text><text fill="#000000" font-family="sans-serif" font-size="13" lengthAdjust="spacingAndGlyphs" textLength="7" x="298.0754" y="844.0933">*</text><!--MD5=[e9c1a3935b36294c7c554c767b572876]
link PaymentTransaction to Organization--><path d="M377.085,854.75 C373.158,838.367 366.676,821.276 356,808 C339.129,787.021 314.514,771.526 290.613,760.402 " fill="none" id="PaymentTransaction-Organization" style="stroke: #A80036; stroke-width: 1.0;"/><polygon fill="#000000" points="394,819,397,813,400,819,394,819" style="stroke: #000000; stroke-width: 1.0;"/><text fill="#000000" font-family="sans-serif" font-size="13" lengthAdjust="spacingAndGlyphs" textLength="61" x="368" y="834.0669">regarding</text><text fill="#000000" font-family="sans-serif" font-size="13" lengthAdjust="spacingAndGlyphs" textLength="8" x="367.8766" y="844.054">1</text><text fill="#000000" font-family="sans-serif" font-size="13" lengthAdjust="spacingAndGlyphs" textLength="8" x="298.72" y="759.3005">1</text><!--MD5=[522c679f4dd7ba84a6aa9ac03f58229d]
link Organization to TaskList--><path d="M199.469,778.07 C196.371,787.754 193.604,798.115 192,808 C181.146,874.883 189.318,954.726 195.26,996.938 " fill="none" id="Organization-TaskList" style="stroke: #A80036; stroke-width: 1.0;"/><text fill="#000000" font-family="sans-serif" font-size="13" lengthAdjust="spacingAndGlyphs" textLength="54" x="193" y="821.0669">contains</text><polygon fill="#000000" points="215.5,830.1328,218.5,836.1328,221.5,830.1328,215.5,830.1328" style="stroke: #000000; stroke-width: 1.0;"/><text fill="#000000" font-family="sans-serif" font-size="13" lengthAdjust="spacingAndGlyphs" textLength="8" x="188.0686" y="798.4893">1</text><text fill="#000000" font-family="sans-serif" font-size="13" lengthAdjust="spacingAndGlyphs" textLength="8" x="185.3481" y="985.7147">1</text><!--MD5=[271ce7fefd7250ebaca83b70495774bd]
link PaymentTransaction to Task--><path d="M375.859,967.269 C368.546,1037.447 361.495,1161.708 387,1264 C393.582,1290.4 405.775,1317.39 418.444,1340.816 " fill="none" id="PaymentTransaction-Task" style="stroke: #A80036; stroke-width: 1.0;"/><text fill="#000000" font-family="sans-serif" font-size="13" lengthAdjust="spacingAndGlyphs" textLength="61" x="388" y="1180.5669">regarding</text><polygon fill="#000000" points="414,1189.6328,417,1195.6328,420,1189.6328,414,1189.6328" style="stroke: #000000; stroke-width: 1.0;"/><text fill="#000000" font-family="sans-serif" font-size="13" lengthAdjust="spacingAndGlyphs" textLength="8" x="366.5012" y="987.1144">1</text><text fill="#000000" font-family="sans-serif" font-size="13" lengthAdjust="spacingAndGlyphs" textLength="8" x="405.5398" y="1330.0006">1</text><!--MD5=[f6802b286771c18a16ea4be983074371]
link PaymentTransaction to Freelancer--><path d="M418.847,967.133 C441.568,1002.078 471.448,1048.034 497.334,1087.847 " fill="none" id="PaymentTransaction-Freelancer" style="stroke: #A80036; stroke-width: 1.0;"/><text fill="#000000" font-family="sans-serif" font-size="13" lengthAdjust="spacingAndGlyphs" textLength="61" x="475" y="1032.0669">regarding</text><polygon fill="#000000" points="501,1041.1328,504,1047.1328,507,1041.1328,501,1041.1328" style="stroke: #000000; stroke-width: 1.0;"/><text fill="#000000" font-family="sans-serif" font-size="13" lengthAdjust="spacingAndGlyphs" textLength="8" x="414.7284" y="986.9618">1</text><text fill="#000000" font-family="sans-serif" font-size="13" lengthAdjust="spacingAndGlyphs" textLength="8" x="484.3101" y="1076.9962">1</text><!--MD5=[14c738364c5fdafcb97ced6863906d7f]
link TaskList to Task--><path d="M200.823,1058.316 C203.472,1105.793 214.316,1199.758 258,1264 C290.863,1312.328 345.505,1349.899 389.97,1374.676 " fill="none" id="TaskList-Task" style="stroke: #A80036; stroke-width: 1.0;"/><text fill="#000000" font-family="sans-serif" font-size="13" lengthAdjust="spacingAndGlyphs" textLength="54" x="259" y="1180.5669">contains</text><polygon fill="#000000" points="281.5,1189.6328,284.5,1195.6328,287.5,1189.6328,281.5,1189.6328" style="stroke: #000000; stroke-width: 1.0;"/><text fill="#000000" font-family="sans-serif" font-size="13" lengthAdjust="spacingAndGlyphs" textLength="8" x="192.1975" y="1077.9587">1</text><text fill="#000000" font-family="sans-serif" font-size="13" lengthAdjust="spacingAndGlyphs" textLength="7" x="375.181" y="1367.3525">*</text><!--MD5=[b4b6c1ff9c803d8207b36238c02005ea]
link Freelancer to Task--><path d="M519.481,1264.048 C509.436,1289.378 498.612,1316.675 489.094,1340.675 " fill="none" id="Freelancer-Task" style="stroke: #A80036; stroke-width: 1.0;"/><text fill="#000000" font-family="sans-serif" font-size="13" lengthAdjust="spacingAndGlyphs" textLength="23" x="507" y="1307.0669">has</text><polygon fill="#000000" points="514,1316.1328,517,1322.1328,520,1316.1328,514,1316.1328" style="stroke: #000000; stroke-width: 1.0;"/><text fill="#000000" font-family="sans-serif" font-size="13" lengthAdjust="spacingAndGlyphs" textLength="8" x="508.2911" y="1284.031">1</text><text fill="#000000" font-family="sans-serif" font-size="13" lengthAdjust="spacingAndGlyphs" textLength="7" x="484.5271" y="1329.8451">*</text><!--MD5=[ca6e1ae5bba06c0b133da311ed37dc00]
@startuml
skinparam classAttributeIconSize 0
top to bottom direction

package Controladores <<Folder>> {
  class MakePaymentTask
}

package Domínio <<Folder>> {
	class Plataform
    class Freelancer
    class OrganizationReg
    class PaymentTransaction
    class ExternalAlgoritmConvertCurrencies
    class Task
    class TaskList
    class Organization
    class FreelancerRegister
}


class Plataform {
  +getFreelancerReg()
  +enterNewPayment(amount, amountCnv, desc)
  +getAlgorithmConvert()
}

class FreelancerRegister {
	+getListFree()
}

class Freelancer {
-String id
-String name
-String levelOfExpertise
-String NIF
-String IBAN
-String adress
-String country
-String name
+getTaskList()
+getCountry()
}

class OrganizationReg {
  +getOrganizationByEmail(email)
}

class PaymentTransaction {
-String id
-Float amount
-Boolean payed
+getPaymentMade()
+getAmount()
}

interface ExternalAlgoritmConvertCurrencies{
+getConvertedAmount(amount, country)
}

class Task {
-String id
-String briefDescription
-Integer timeDuration
-Float costPerHour
+getPayment()
+getBriefDescription()
+getOrganization()
}

class TaskList {
+getListTask()
}


class Organization {
  -String name
-String id
+schedulePayment(day)
}

abstract TimerTask {
  +run()
}

class MakePaymentTask{
  +MakePaymentTask()
  +run()
  -makePaymentsUnpaid()
  -writeEmail(amount, amountCnv, desc)
  -sendEmail(email, free)
}

TimerTask <|- - MakePaymentTask

MakePaymentTask ..> Organization
MakePaymentTask ..> FreelancerRegister
MakePaymentTask ..> Task
MakePaymentTask ..> PaymentTransaction
MakePaymentTask ..> ExternalAlgoritmConvertCurrencies
MakePaymentTask ..> Plataform

Plataform "1" - - "*" OrganizationReg : contains >
Plataform "1" - - "1" ExternalAlgoritmConvertCurrencies : resort to >
Plataform "1" - - "*" FreelancerRegister : contains >

OrganizationReg "1" - - "*" Organization : contains >

FreelancerRegister "1" - - "*" Freelancer : contains >

ExternalAlgoritmConvertCurrencies "1" - - "*" PaymentTransaction : converts >

Organization "1" - - "*" PaymentTransaction : contains >
Organization "1" - - "1" TaskList : contains >

PaymentTransaction "1" - - "1" Task : regarding >
PaymentTransaction "1" - - "1" Freelancer : regarding >
PaymentTransaction "1" - - "1" Organization : regarding >

TaskList "1" - - "*" Task : contains >

Freelancer "1" - - "*" Task : has >
@enduml

PlantUML version 1.2019.11(Sun Sep 22 12:02:15 CEST 2019)
(GPL source distribution)
Java Runtime: OpenJDK Runtime Environment
JVM: OpenJDK 64-Bit Server VM
Java Version: 1.8.0_242-8u242-b08-0ubuntu3~16.04-b08
Operating System: Linux
Default Encoding: UTF-8
Language: en
Country: US
--></g></svg>