<?xml version="1.0" encoding="UTF-8" standalone="no"?><svg xmlns="http://www.w3.org/2000/svg" xmlns:xlink="http://www.w3.org/1999/xlink" contentScriptType="application/ecmascript" contentStyleType="text/css" height="319px" preserveAspectRatio="none" style="width:1051px;height:319px;" version="1.1" viewBox="0 0 1051 319" width="1051px" zoomAndPan="magnify"><defs><filter height="300%" id="fxltblg3vjsxz" width="300%" x="-1" y="-1"><feGaussianBlur result="blurOut" stdDeviation="2.0"/><feColorMatrix in="blurOut" result="blurOut2" type="matrix" values="0 0 0 0 0 0 0 0 0 0 0 0 0 0 0 0 0 0 .4 0"/><feOffset dx="4.0" dy="4.0" in="blurOut2" result="blurOut3"/><feBlend in="SourceGraphic" in2="blurOut3" mode="normal"/></filter></defs><g><!--MD5=[99b8db98afdc2c8404e39242ef4c1e65]
class Platform--><rect fill="#FEFECE" filter="url(#fxltblg3vjsxz)" height="40" id="Platform" style="stroke: #A80036; stroke-width: 1.5;" width="84" x="6" y="140"/><ellipse cx="21" cy="156" fill="#ADD1B2" rx="11" ry="11" style="stroke: #A80036; stroke-width: 1.0;"/><path d="M23.9688,161.6406 Q23.3906,161.9375 22.75,162.0781 Q22.1094,162.2344 21.4063,162.2344 Q18.9063,162.2344 17.5781,160.5938 Q16.2656,158.9375 16.2656,155.8125 Q16.2656,152.6875 17.5781,151.0313 Q18.9063,149.375 21.4063,149.375 Q22.1094,149.375 22.75,149.5313 Q23.4063,149.6875 23.9688,149.9844 L23.9688,152.7031 Q23.3438,152.125 22.75,151.8594 Q22.1563,151.5781 21.5313,151.5781 Q20.1875,151.5781 19.5,152.6563 Q18.8125,153.7188 18.8125,155.8125 Q18.8125,157.9063 19.5,158.9844 Q20.1875,160.0469 21.5313,160.0469 Q22.1563,160.0469 22.75,159.7813 Q23.3438,159.5 23.9688,158.9219 L23.9688,161.6406 Z "/><text fill="#000000" font-family="sans-serif" font-size="12" lengthAdjust="spacingAndGlyphs" textLength="52" x="35" y="160.1543">Platform</text><line style="stroke: #A80036; stroke-width: 1.5;" x1="7" x2="89" y1="172" y2="172"/><!--MD5=[86c7c362de55a38b660185a1328fe18d]
class Organization--><rect fill="#FEFECE" filter="url(#fxltblg3vjsxz)" height="65.6094" id="Organization" style="stroke: #A80036; stroke-width: 1.5;" width="110" x="289.5" y="127"/><ellipse cx="304.5" cy="143" fill="#ADD1B2" rx="11" ry="11" style="stroke: #A80036; stroke-width: 1.0;"/><path d="M307.4688,148.6406 Q306.8906,148.9375 306.25,149.0781 Q305.6094,149.2344 304.9063,149.2344 Q302.4063,149.2344 301.0781,147.5938 Q299.7656,145.9375 299.7656,142.8125 Q299.7656,139.6875 301.0781,138.0313 Q302.4063,136.375 304.9063,136.375 Q305.6094,136.375 306.25,136.5313 Q306.9063,136.6875 307.4688,136.9844 L307.4688,139.7031 Q306.8438,139.125 306.25,138.8594 Q305.6563,138.5781 305.0313,138.5781 Q303.6875,138.5781 303,139.6563 Q302.3125,140.7188 302.3125,142.8125 Q302.3125,144.9063 303,145.9844 Q303.6875,147.0469 305.0313,147.0469 Q305.6563,147.0469 306.25,146.7813 Q306.8438,146.5 307.4688,145.9219 L307.4688,148.6406 Z "/><text fill="#000000" font-family="sans-serif" font-size="12" lengthAdjust="spacingAndGlyphs" textLength="78" x="318.5" y="147.1543">Organization</text><line style="stroke: #A80036; stroke-width: 1.5;" x1="290.5" x2="398.5" y1="159" y2="159"/><text fill="#000000" font-family="sans-serif" font-size="11" lengthAdjust="spacingAndGlyphs" textLength="74" x="295.5" y="173.2104">-String name</text><text fill="#000000" font-family="sans-serif" font-size="11" lengthAdjust="spacingAndGlyphs" textLength="59" x="295.5" y="186.0151">-String NIF</text><!--MD5=[b645a18afb25b7e5623af7186d8eb36f]
class PaymentTransaction--><rect fill="#FEFECE" filter="url(#fxltblg3vjsxz)" height="78.4141" id="PaymentTransaction" style="stroke: #A80036; stroke-width: 1.5;" width="160" x="598" y="230"/><ellipse cx="613" cy="246" fill="#ADD1B2" rx="11" ry="11" style="stroke: #A80036; stroke-width: 1.0;"/><path d="M615.9688,251.6406 Q615.3906,251.9375 614.75,252.0781 Q614.1094,252.2344 613.4063,252.2344 Q610.9063,252.2344 609.5781,250.5938 Q608.2656,248.9375 608.2656,245.8125 Q608.2656,242.6875 609.5781,241.0313 Q610.9063,239.375 613.4063,239.375 Q614.1094,239.375 614.75,239.5313 Q615.4063,239.6875 615.9688,239.9844 L615.9688,242.7031 Q615.3438,242.125 614.75,241.8594 Q614.1563,241.5781 613.5313,241.5781 Q612.1875,241.5781 611.5,242.6563 Q610.8125,243.7188 610.8125,245.8125 Q610.8125,247.9063 611.5,248.9844 Q612.1875,250.0469 613.5313,250.0469 Q614.1563,250.0469 614.75,249.7813 Q615.3438,249.5 615.9688,248.9219 L615.9688,251.6406 Z "/><text fill="#000000" font-family="sans-serif" font-size="12" lengthAdjust="spacingAndGlyphs" textLength="128" x="627" y="250.1543">PaymentTransaction</text><line style="stroke: #A80036; stroke-width: 1.5;" x1="599" x2="757" y1="262" y2="262"/><text fill="#000000" font-family="sans-serif" font-size="11" lengthAdjust="spacingAndGlyphs" textLength="52" x="604" y="276.2104">-String id</text><text fill="#000000" font-family="sans-serif" font-size="11" lengthAdjust="spacingAndGlyphs" textLength="71" x="604" y="289.0151">-Float amout</text><text fill="#000000" font-family="sans-serif" font-size="11" lengthAdjust="spacingAndGlyphs" textLength="88" x="604" y="301.8198">-Boolean payed</text><!--MD5=[b34797a66dc35cbf1d65f7e3ca75530e]
class Task--><rect fill="#FEFECE" filter="url(#fxltblg3vjsxz)" height="91.2188" id="Task" style="stroke: #A80036; stroke-width: 1.5;" width="144" x="895" y="189.5"/><ellipse cx="948.25" cy="205.5" fill="#ADD1B2" rx="11" ry="11" style="stroke: #A80036; stroke-width: 1.0;"/><path d="M951.2188,211.1406 Q950.6406,211.4375 950,211.5781 Q949.3594,211.7344 948.6563,211.7344 Q946.1563,211.7344 944.8281,210.0938 Q943.5156,208.4375 943.5156,205.3125 Q943.5156,202.1875 944.8281,200.5313 Q946.1563,198.875 948.6563,198.875 Q949.3594,198.875 950,199.0313 Q950.6563,199.1875 951.2188,199.4844 L951.2188,202.2031 Q950.5938,201.625 950,201.3594 Q949.4063,201.0781 948.7813,201.0781 Q947.4375,201.0781 946.75,202.1563 Q946.0625,203.2188 946.0625,205.3125 Q946.0625,207.4063 946.75,208.4844 Q947.4375,209.5469 948.7813,209.5469 Q949.4063,209.5469 950,209.2813 Q950.5938,209 951.2188,208.4219 L951.2188,211.1406 Z "/><text fill="#000000" font-family="sans-serif" font-size="12" lengthAdjust="spacingAndGlyphs" textLength="29" x="968.75" y="209.6543">Task</text><line style="stroke: #A80036; stroke-width: 1.5;" x1="896" x2="1038" y1="221.5" y2="221.5"/><text fill="#000000" font-family="sans-serif" font-size="11" lengthAdjust="spacingAndGlyphs" textLength="52" x="901" y="235.7104">-String id</text><text fill="#000000" font-family="sans-serif" font-size="11" lengthAdjust="spacingAndGlyphs" textLength="132" x="901" y="248.5151">-String briefDescription</text><text fill="#000000" font-family="sans-serif" font-size="11" lengthAdjust="spacingAndGlyphs" textLength="121" x="901" y="261.3198">-Integer timeDuration</text><text fill="#000000" font-family="sans-serif" font-size="11" lengthAdjust="spacingAndGlyphs" textLength="105" x="901" y="274.1245">-Float costPerHour</text><!--MD5=[1f687b5315377fe49fca59b457947463]
class Freelancer--><rect fill="#FEFECE" filter="url(#fxltblg3vjsxz)" height="129.6328" id="Freelancer" style="stroke: #A80036; stroke-width: 1.5;" width="146" x="894" y="8"/><ellipse cx="930.15" cy="24" fill="#ADD1B2" rx="11" ry="11" style="stroke: #A80036; stroke-width: 1.0;"/><path d="M933.1188,29.6406 Q932.5406,29.9375 931.9,30.0781 Q931.2594,30.2344 930.5563,30.2344 Q928.0563,30.2344 926.7281,28.5938 Q925.4156,26.9375 925.4156,23.8125 Q925.4156,20.6875 926.7281,19.0313 Q928.0563,17.375 930.5563,17.375 Q931.2594,17.375 931.9,17.5313 Q932.5563,17.6875 933.1188,17.9844 L933.1188,20.7031 Q932.4938,20.125 931.9,19.8594 Q931.3063,19.5781 930.6813,19.5781 Q929.3375,19.5781 928.65,20.6563 Q927.9625,21.7188 927.9625,23.8125 Q927.9625,25.9063 928.65,26.9844 Q929.3375,28.0469 930.6813,28.0469 Q931.3063,28.0469 931.9,27.7813 Q932.4938,27.5 933.1188,26.9219 L933.1188,29.6406 Z "/><text fill="#000000" font-family="sans-serif" font-size="12" lengthAdjust="spacingAndGlyphs" textLength="67" x="948.85" y="28.1543">Freelancer</text><line style="stroke: #A80036; stroke-width: 1.5;" x1="895" x2="1039" y1="40" y2="40"/><text fill="#000000" font-family="sans-serif" font-size="11" lengthAdjust="spacingAndGlyphs" textLength="52" x="900" y="54.2104">-String id</text><text fill="#000000" font-family="sans-serif" font-size="11" lengthAdjust="spacingAndGlyphs" textLength="74" x="900" y="67.0151">-String name</text><text fill="#000000" font-family="sans-serif" font-size="11" lengthAdjust="spacingAndGlyphs" textLength="134" x="900" y="79.8198">-String levelOfExpertise</text><text fill="#000000" font-family="sans-serif" font-size="11" lengthAdjust="spacingAndGlyphs" textLength="59" x="900" y="92.6245">-String NIF</text><text fill="#000000" font-family="sans-serif" font-size="11" lengthAdjust="spacingAndGlyphs" textLength="68" x="900" y="105.4292">-String IBAN</text><text fill="#000000" font-family="sans-serif" font-size="11" lengthAdjust="spacingAndGlyphs" textLength="82" x="900" y="118.2339">-String adress</text><text fill="#000000" font-family="sans-serif" font-size="11" lengthAdjust="spacingAndGlyphs" textLength="84" x="900" y="131.0386">-String country</text><!--MD5=[8a08cc651ac853c10004ed1c9529a181]
class ExternalAlgoritmConvertCurrencies--><rect fill="#FEFECE" filter="url(#fxltblg3vjsxz)" height="40" id="ExternalAlgoritmConvertCurrencies" style="stroke: #A80036; stroke-width: 1.5;" width="249" x="220" y="242"/><ellipse cx="235" cy="258" fill="#ADD1B2" rx="11" ry="11" style="stroke: #A80036; stroke-width: 1.0;"/><path d="M237.9688,263.6406 Q237.3906,263.9375 236.75,264.0781 Q236.1094,264.2344 235.4063,264.2344 Q232.9063,264.2344 231.5781,262.5938 Q230.2656,260.9375 230.2656,257.8125 Q230.2656,254.6875 231.5781,253.0313 Q232.9063,251.375 235.4063,251.375 Q236.1094,251.375 236.75,251.5313 Q237.4063,251.6875 237.9688,251.9844 L237.9688,254.7031 Q237.3438,254.125 236.75,253.8594 Q236.1563,253.5781 235.5313,253.5781 Q234.1875,253.5781 233.5,254.6563 Q232.8125,255.7188 232.8125,257.8125 Q232.8125,259.9063 233.5,260.9844 Q234.1875,262.0469 235.5313,262.0469 Q236.1563,262.0469 236.75,261.7813 Q237.3438,261.5 237.9688,260.9219 L237.9688,263.6406 Z "/><text fill="#000000" font-family="sans-serif" font-size="12" lengthAdjust="spacingAndGlyphs" textLength="217" x="249" y="262.1543">ExternalAlgoritmConvertCurrencies</text><line style="stroke: #A80036; stroke-width: 1.5;" x1="221" x2="468" y1="274" y2="274"/><!--MD5=[7640e466c042ba2d6f9c19c816f7f0fc]
link Platform to Organization--><path d="M90.2591,160 C142.261,160 231.781,160 289.269,160 " fill="none" id="Platform-Organization" style="stroke: #A80036; stroke-width: 1.0;"/><text fill="#000000" font-family="sans-serif" font-size="13" lengthAdjust="spacingAndGlyphs" textLength="54" x="121.5" y="156.0669">contains</text><polygon fill="#000000" points="178.5,150.0664,184.5,153.0664,178.5,156.0664,178.5,150.0664" style="stroke: #000000; stroke-width: 1.0;"/><text fill="#000000" font-family="sans-serif" font-size="13" lengthAdjust="spacingAndGlyphs" textLength="8" x="97.9208" y="173.3201">1</text><text fill="#000000" font-family="sans-serif" font-size="13" lengthAdjust="spacingAndGlyphs" textLength="7" x="274.377" y="173.1099">*</text><!--MD5=[ff58d92b17464a9396e74c973f7ffd9d]
link Platform to ExternalAlgoritmConvertCurrencies--><path d="M90.2815,174.589 C100.0226,178.017 110.374,181.647 120,185 C175.809,204.439 239.55,226.3725 284.641,241.8434 " fill="none" id="Platform-ExternalAlgoritmConvertCurrencies" style="stroke: #A80036; stroke-width: 1.0;"/><text fill="#000000" font-family="sans-serif" font-size="13" lengthAdjust="spacingAndGlyphs" textLength="55" x="121" y="181.0669">resort to</text><polygon fill="#000000" points="179,175.0664,185,178.0664,179,181.0664,179,175.0664" style="stroke: #000000; stroke-width: 1.0;"/><text fill="#000000" font-family="sans-serif" font-size="13" lengthAdjust="spacingAndGlyphs" textLength="8" x="97.9469" y="190.3254">1</text><text fill="#000000" font-family="sans-serif" font-size="13" lengthAdjust="spacingAndGlyphs" textLength="8" x="257.8824" y="230.8057">1</text><!--MD5=[22697d4d863c2e08ab1d60ca0d61f844]
link Platform to Freelancer--><path d="M90.0836,144.801 C99.8329,141.398 110.238,137.932 120,135 C163.876,121.822 174.953,118.339 220,110 C469.347,63.843 534.473,61.335 788,56 C821.77,55.289 830.337,53.214 864,56 C873.661,56.8 883.785,58.018 893.747,59.444 " fill="none" id="Platform-Freelancer" style="stroke: #A80036; stroke-width: 1.0;"/><text fill="#000000" font-family="sans-serif" font-size="13" lengthAdjust="spacingAndGlyphs" textLength="23" x="515.5" y="60.0669">has</text><polygon fill="#000000" points="541.5,54.0664,547.5,57.0664,541.5,60.0664,541.5,54.0664" style="stroke: #000000; stroke-width: 1.0;"/><text fill="#000000" font-family="sans-serif" font-size="13" lengthAdjust="spacingAndGlyphs" textLength="8" x="98.0042" y="155.556">1</text><text fill="#000000" font-family="sans-serif" font-size="13" lengthAdjust="spacingAndGlyphs" textLength="23" x="862.9338" y="70.9757">0..*</text><!--MD5=[6b1b81d556f7888ec3b3fc98f11703a1]
link ExternalAlgoritmConvertCurrencies to PaymentTransaction--><path d="M469.41,264.6165 C512.443,265.5252 559.502,266.5189 597.918,267.3301 " fill="none" id="ExternalAlgoritmConvertCurrencies-PaymentTransaction" style="stroke: #A80036; stroke-width: 1.0;"/><text fill="#000000" font-family="sans-serif" font-size="13" lengthAdjust="spacingAndGlyphs" textLength="59" x="504" y="261.0669">convert&gt;</text><text fill="#000000" font-family="sans-serif" font-size="13" lengthAdjust="spacingAndGlyphs" textLength="8" x="476.8626" y="277.2721">1</text><text fill="#000000" font-family="sans-serif" font-size="13" lengthAdjust="spacingAndGlyphs" textLength="7" x="582.9516" y="279.9393">*</text><!--MD5=[da2d560b3f89d8c66478284968d27dfa]
link Organization to PaymentTransaction--><path d="M399.869,177.877 C453.688,195.573 536.667,222.8573 597.806,242.9602 " fill="none" id="Organization-PaymentTransaction" style="stroke: #A80036; stroke-width: 1.0;"/><text fill="#000000" font-family="sans-serif" font-size="13" lengthAdjust="spacingAndGlyphs" textLength="54" x="500" y="207.0669">contains</text><polygon fill="#000000" points="557,201.0664,563,204.0664,557,207.0664,557,201.0664" style="stroke: #000000; stroke-width: 1.0;"/><text fill="#000000" font-family="sans-serif" font-size="13" lengthAdjust="spacingAndGlyphs" textLength="8" x="407.4757" y="193.2289">1</text><text fill="#000000" font-family="sans-serif" font-size="13" lengthAdjust="spacingAndGlyphs" textLength="7" x="583.0905" y="253.305">*</text><!--MD5=[4078351e3988aa35b1504a42837f2ab1]
link Organization to Task--><path d="M399.648,154.709 C495.267,147.025 699.473,138.09 864,182 C874.316,184.753 884.774,188.67 894.866,193.145 " fill="none" id="Organization-Task" style="stroke: #A80036; stroke-width: 1.0;"/><text fill="#000000" font-family="sans-serif" font-size="13" lengthAdjust="spacingAndGlyphs" textLength="34" x="661" y="144.0669">has&gt;</text><text fill="#000000" font-family="sans-serif" font-size="13" lengthAdjust="spacingAndGlyphs" textLength="8" x="407.596" y="167.1079">1</text><text fill="#000000" font-family="sans-serif" font-size="13" lengthAdjust="spacingAndGlyphs" textLength="7" x="880.0662" y="201.6646">*</text><!--MD5=[142d85ac31bb17fefc2b3c5256981e63]
link Organization to Freelancer--><path d="M399.812,144.611 C429.005,136.833 465.739,127.833 499,122 C637.711,97.673 801.87,83.865 893.969,77.458 " fill="none" id="Organization-Freelancer" style="stroke: #A80036; stroke-width: 1.0;"/><text fill="#000000" font-family="sans-serif" font-size="13" lengthAdjust="spacingAndGlyphs" textLength="31" x="656" y="85.0669">hires</text><polygon fill="#000000" points="690,79.0664,696,82.0664,690,85.0664,690,79.0664" style="stroke: #000000; stroke-width: 1.0;"/><text fill="#000000" font-family="sans-serif" font-size="13" lengthAdjust="spacingAndGlyphs" textLength="8" x="407.4114" y="155.7006">1</text><text fill="#000000" font-family="sans-serif" font-size="13" lengthAdjust="spacingAndGlyphs" textLength="7" x="879.0767" y="90.7838">*</text><!--MD5=[f6802b286771c18a16ea4be983074371]
link PaymentTransaction to Freelancer--><path d="M736.389,229.8075 C781.701,198.863 845.191,155.504 893.927,122.221 " fill="none" id="PaymentTransaction-Freelancer" style="stroke: #A80036; stroke-width: 1.0;"/><text fill="#000000" font-family="sans-serif" font-size="13" lengthAdjust="spacingAndGlyphs" textLength="61" x="789" y="143.0669">regarding</text><polygon fill="#000000" points="853,137.0664,859,140.0664,853,143.0664,853,137.0664" style="stroke: #000000; stroke-width: 1.0;"/><text fill="#000000" font-family="sans-serif" font-size="13" lengthAdjust="spacingAndGlyphs" textLength="8" x="737.7371" y="218.825">1</text><text fill="#000000" font-family="sans-serif" font-size="13" lengthAdjust="spacingAndGlyphs" textLength="8" x="877.9788" y="140.163">1</text><!--MD5=[271ce7fefd7250ebaca83b70495774bd]
link PaymentTransaction to Task--><path d="M758.141,270.5146 C791.042,270.0885 829.526,268.2161 864,263 C874.077,261.4753 884.579,259.2957 894.848,256.8168 " fill="none" id="PaymentTransaction-Task" style="stroke: #A80036; stroke-width: 1.0;"/><text fill="#000000" font-family="sans-serif" font-size="13" lengthAdjust="spacingAndGlyphs" textLength="61" x="789" y="259.0669">regarding</text><polygon fill="#000000" points="853,253.0664,859,256.0664,853,259.0664,853,253.0664" style="stroke: #000000; stroke-width: 1.0;"/><text fill="#000000" font-family="sans-serif" font-size="13" lengthAdjust="spacingAndGlyphs" textLength="8" x="765.8977" y="283.3996">1</text><text fill="#000000" font-family="sans-serif" font-size="13" lengthAdjust="spacingAndGlyphs" textLength="8" x="878.9948" y="271.9026">1</text><!--MD5=[b4b6c1ff9c803d8207b36238c02005ea]
link Freelancer to Task--><path d="M967,138.16 C967,155.352 967,173.533 967,189.443 " fill="none" id="Freelancer-Task" style="stroke: #A80036; stroke-width: 1.0;"/><text fill="#000000" font-family="sans-serif" font-size="13" lengthAdjust="spacingAndGlyphs" textLength="23" x="937.5" y="168.3169">has</text><polygon fill="#000000" points="944.5,177.3828,947.5,183.3828,950.5,177.3828,944.5,177.3828" style="stroke: #000000; stroke-width: 1.0;"/><text fill="#000000" font-family="sans-serif" font-size="13" lengthAdjust="spacingAndGlyphs" textLength="8" x="958.5875" y="157.7457">1</text><text fill="#000000" font-family="sans-serif" font-size="13" lengthAdjust="spacingAndGlyphs" textLength="7" x="959.4641" y="178.379">*</text><!--MD5=[ed27c3b6a9970599f42cbece286df409]
@startuml
skinparam classAttributeIconSize 0
hide methods
left to right direction


class Platform{

}


class Organization{
-String name
-String NIF
}


class PaymentTransaction {
-String id
-Float amout
-Boolean payed
}

class Task{
-String id
-String briefDescription
-Integer timeDuration
-Float costPerHour
}


class Freelancer{
-String id
-String name
-String levelOfExpertise
-String NIF
-String IBAN
-String adress
-String country
}


class ExternalAlgoritmConvertCurrencies{

}

Platform"1" - - "*"Organization : contains >
Platform"1" - - "1"ExternalAlgoritmConvertCurrencies : resort to >
Platform"1" - - "0..*"Freelancer : has >

ExternalAlgoritmConvertCurrencies"1" - - "*" PaymentTransaction : convert>

Organization "1" - - "*" PaymentTransaction : contains >
Organization"1" - - "*"Task : has>
Organization "1" - - "*" Freelancer : hires >

PaymentTransaction"1" - - "1"Freelancer : regarding >
PaymentTransaction"1" - - "1"Task : regarding >

Freelancer "1" - "*" Task : has >
@enduml

PlantUML version 1.2019.11(Sun Sep 22 12:02:15 CEST 2019)
(GPL source distribution)
Java Runtime: OpenJDK Runtime Environment
JVM: OpenJDK 64-Bit Server VM
Java Version: 1.8.0_242-8u242-b08-0ubuntu3~16.04-b08
Operating System: Linux
Default Encoding: UTF-8
Language: en
Country: US
--></g></svg>