<?xml version="1.0" encoding="UTF-8" standalone="no"?><svg xmlns="http://www.w3.org/2000/svg" xmlns:xlink="http://www.w3.org/1999/xlink" contentScriptType="application/ecmascript" contentStyleType="text/css" height="303px" preserveAspectRatio="none" style="width:289px;height:303px;" version="1.1" viewBox="0 0 289 303" width="289px" zoomAndPan="magnify"><defs><filter height="300%" id="f7kszj0884mi9" width="300%" x="-1" y="-1"><feGaussianBlur result="blurOut" stdDeviation="2.0"/><feColorMatrix in="blurOut" result="blurOut2" type="matrix" values="0 0 0 0 0 0 0 0 0 0 0 0 0 0 0 0 0 0 .4 0"/><feOffset dx="4.0" dy="4.0" in="blurOut2" result="blurOut3"/><feBlend in="SourceGraphic" in2="blurOut3" mode="normal"/></filter></defs><g><!--MD5=[d2893ab0b245814eb19299eeec071ce5]
class ExternalAlgorithmGeneratePwd--><rect fill="#FEFECE" filter="url(#f7kszj0884mi9)" height="58.7422" id="ExternalAlgorithmGeneratePwd" style="stroke: #A80036; stroke-width: 1.5;" width="221" x="31.5" y="8"/><ellipse cx="46.5" cy="26.9688" fill="#B4A7E5" rx="11" ry="11" style="stroke: #A80036; stroke-width: 1.0;"/><path d="M47.4531,23.75 L49.1719,23.75 C49.5625,23.75 49.75,23.7188 49.875,23.6406 C50.1406,23.4844 50.2813,23.2031 50.2813,22.9063 C50.2813,22.6406 50.1719,22.375 49.9375,22.2031 C49.7656,22.0938 49.625,22.0625 49.1719,22.0625 L44.0313,22.0625 C43.5938,22.0625 43.4688,22.0781 43.3125,22.1719 C43.0625,22.3281 42.9063,22.625 42.9063,22.9063 C42.9063,23.1875 43.0469,23.4375 43.2656,23.6094 C43.4219,23.7188 43.6094,23.75 44.0313,23.75 L45.75,23.75 L45.75,30.2656 L44.0313,30.2656 C43.5938,30.2656 43.4688,30.2813 43.3125,30.3906 C43.0625,30.5469 42.9063,30.8281 42.9063,31.125 C42.9063,31.375 43.0469,31.6406 43.2656,31.7969 C43.4219,31.9219 43.625,31.9688 44.0313,31.9688 L49.1719,31.9688 C49.9219,31.9688 50.2813,31.6875 50.2813,31.125 C50.2813,30.8438 50.1719,30.5938 49.9375,30.4219 C49.7656,30.2969 49.625,30.2656 49.1719,30.2656 L47.4531,30.2656 L47.4531,23.75 Z "/><text fill="#000000" font-family="sans-serif" font-size="12" font-style="italic" lengthAdjust="spacingAndGlyphs" textLength="67" x="121.5" y="24.1387">«interface»</text><text fill="#000000" font-family="sans-serif" font-size="12" font-style="italic" lengthAdjust="spacingAndGlyphs" textLength="189" x="60.5" y="38.1074">ExternalAlgorithmGeneratePwd</text><line style="stroke: #A80036; stroke-width: 1.5;" x1="32.5" x2="251.5" y1="45.9375" y2="45.9375"/><text fill="#000000" font-family="sans-serif" font-size="11" lengthAdjust="spacingAndGlyphs" textLength="159" x="37.5" y="60.1479">+String generatePassword()</text><!--MD5=[02b8ae63dd4e11b2f8c0f4ee8962d569]
class ExternalAlgorithmGeneratePwdAdapter1--><rect fill="#FEFECE" filter="url(#f7kszj0884mi9)" height="52.8047" id="ExternalAlgorithmGeneratePwdAdapter1" style="stroke: #A80036; stroke-width: 1.5;" width="272" x="6" y="127"/><ellipse cx="21" cy="143" fill="#ADD1B2" rx="11" ry="11" style="stroke: #A80036; stroke-width: 1.0;"/><path d="M23.3438,138.6719 C22.4063,138.2344 21.8125,138.0938 20.9375,138.0938 C18.3125,138.0938 16.3125,140.1719 16.3125,142.8906 L16.3125,144.0156 C16.3125,146.5938 18.4219,148.4844 21.3125,148.4844 C22.5313,148.4844 23.6875,148.1875 24.4375,147.6406 C25.0156,147.2344 25.3438,146.7813 25.3438,146.3906 C25.3438,145.9375 24.9531,145.5469 24.4844,145.5469 C24.2656,145.5469 24.0625,145.625 23.875,145.8125 C23.4219,146.2969 23.4219,146.2969 23.2344,146.3906 C22.8125,146.6563 22.125,146.7813 21.3594,146.7813 C19.3125,146.7813 18.0156,145.6875 18.0156,143.9844 L18.0156,142.8906 C18.0156,141.1094 19.2656,139.7969 21,139.7969 C21.5781,139.7969 22.1875,139.9531 22.6563,140.2031 C23.1406,140.4844 23.3125,140.7031 23.4063,141.1094 C23.4688,141.5156 23.5,141.6406 23.6406,141.7656 C23.7813,141.9063 24.0156,142.0156 24.2344,142.0156 C24.5,142.0156 24.7656,141.875 24.9375,141.6563 C25.0469,141.5 25.0781,141.3125 25.0781,140.8906 L25.0781,139.4688 C25.0781,139.0313 25.0625,138.9063 24.9688,138.75 C24.8125,138.4844 24.5313,138.3438 24.2344,138.3438 C23.9375,138.3438 23.7344,138.4375 23.5156,138.75 L23.3438,138.6719 Z "/><text fill="#000000" font-family="sans-serif" font-size="12" lengthAdjust="spacingAndGlyphs" textLength="240" x="35" y="147.1543">ExternalAlgorithmGeneratePwdAdapter1</text><line style="stroke: #A80036; stroke-width: 1.5;" x1="7" x2="277" y1="159" y2="159"/><text fill="#000000" font-family="sans-serif" font-size="11" lengthAdjust="spacingAndGlyphs" textLength="159" x="12" y="173.2104">+String generatePassword()</text><!--MD5=[bb987c0f6ffa3511f0db88bacabb8391]
class ExternalAlgorithmGeneratePwdApi1--><rect fill="#FEFECE" filter="url(#f7kszj0884mi9)" height="52.8047" id="ExternalAlgorithmGeneratePwdApi1" style="stroke: #A80036; stroke-width: 1.5;" width="243" x="20.5" y="240"/><ellipse cx="35.5" cy="256" fill="#ADD1B2" rx="11" ry="11" style="stroke: #A80036; stroke-width: 1.0;"/><path d="M37.8438,251.6719 C36.9063,251.2344 36.3125,251.0938 35.4375,251.0938 C32.8125,251.0938 30.8125,253.1719 30.8125,255.8906 L30.8125,257.0156 C30.8125,259.5938 32.9219,261.4844 35.8125,261.4844 C37.0313,261.4844 38.1875,261.1875 38.9375,260.6406 C39.5156,260.2344 39.8438,259.7813 39.8438,259.3906 C39.8438,258.9375 39.4531,258.5469 38.9844,258.5469 C38.7656,258.5469 38.5625,258.625 38.375,258.8125 C37.9219,259.2969 37.9219,259.2969 37.7344,259.3906 C37.3125,259.6563 36.625,259.7813 35.8594,259.7813 C33.8125,259.7813 32.5156,258.6875 32.5156,256.9844 L32.5156,255.8906 C32.5156,254.1094 33.7656,252.7969 35.5,252.7969 C36.0781,252.7969 36.6875,252.9531 37.1563,253.2031 C37.6406,253.4844 37.8125,253.7031 37.9063,254.1094 C37.9688,254.5156 38,254.6406 38.1406,254.7656 C38.2813,254.9063 38.5156,255.0156 38.7344,255.0156 C39,255.0156 39.2656,254.875 39.4375,254.6563 C39.5469,254.5 39.5781,254.3125 39.5781,253.8906 L39.5781,252.4688 C39.5781,252.0313 39.5625,251.9063 39.4688,251.75 C39.3125,251.4844 39.0313,251.3438 38.7344,251.3438 C38.4375,251.3438 38.2344,251.4375 38.0156,251.75 L37.8438,251.6719 Z "/><text fill="#000000" font-family="sans-serif" font-size="12" lengthAdjust="spacingAndGlyphs" textLength="211" x="49.5" y="260.1543">ExternalAlgorithmGeneratePwdApi1</text><line style="stroke: #A80036; stroke-width: 1.5;" x1="21.5" x2="262.5" y1="272" y2="272"/><text fill="#000000" font-family="sans-serif" font-size="11" lengthAdjust="spacingAndGlyphs" textLength="159" x="26.5" y="286.2104">+String generatePassword()</text><!--MD5=[2dd80a35fdc6dab00f1527115faeaaea]
reverse link ExternalAlgorithmGeneratePwd to ExternalAlgorithmGeneratePwdAdapter1--><path d="M142,87.576 C142,101.104 142,115.24 142,126.854 " fill="none" id="ExternalAlgorithmGeneratePwd&lt;-ExternalAlgorithmGeneratePwdAdapter1" style="stroke: #A80036; stroke-width: 1.0; stroke-dasharray: 7.0,7.0;"/><polygon fill="none" points="135,87.267,142,67.267,149,87.267,135,87.267" style="stroke: #A80036; stroke-width: 1.0;"/><!--MD5=[35c86fd984b45a7ca4f4186fe8757c4f]
link ExternalAlgorithmGeneratePwdAdapter1 to ExternalAlgorithmGeneratePwdApi1--><path d="M142,180.245 C142,196.4958 142,217.5795 142,234.7139 " fill="none" id="ExternalAlgorithmGeneratePwdAdapter1-&gt;ExternalAlgorithmGeneratePwdApi1" style="stroke: #A80036; stroke-width: 1.0;"/><polygon fill="#A80036" points="142,239.895,146,230.895,142,234.895,138,230.895,142,239.895" style="stroke: #A80036; stroke-width: 1.0;"/><!--MD5=[66b94d8ea3ed63e77b5b25539bac5b25]
@startuml
skinparam classAttributeIconSize 0
hide attributes


interface ExternalAlgorithmGeneratePwd << interface >>
{
 +String generatePassword()
}


class ExternalAlgorithmGeneratePwdAdapter1
{
+String generatePassword()
}

class ExternalAlgorithmGeneratePwdApi1
{
    +String generatePassword()

}

ExternalAlgorithmGeneratePwd <|.. ExternalAlgorithmGeneratePwdAdapter1
ExternalAlgorithmGeneratePwdAdapter1 -d->  ExternalAlgorithmGeneratePwdApi1
@enduml

PlantUML version 1.2020.11(Sat May 30 10:13:43 UTC 2020)
(GPL source distribution)
Java Runtime: Java(TM) SE Runtime Environment
JVM: Java HotSpot(TM) 64-Bit Server VM
Default Encoding: UTF-8
Language: en
Country: US
--></g></svg>