<?xml version="1.0" encoding="UTF-8" standalone="no"?><svg xmlns="http://www.w3.org/2000/svg" xmlns:xlink="http://www.w3.org/1999/xlink" contentScriptType="application/ecmascript" contentStyleType="text/css" height="258px" preserveAspectRatio="none" style="width:984px;height:258px;" version="1.1" viewBox="0 0 984 258" width="984px" zoomAndPan="magnify"><defs><filter height="300%" id="f1v4vj8vgj3e81" width="300%" x="-1" y="-1"><feGaussianBlur result="blurOut" stdDeviation="2.0"/><feColorMatrix in="blurOut" result="blurOut2" type="matrix" values="0 0 0 0 0 0 0 0 0 0 0 0 0 0 0 0 0 0 .4 0"/><feOffset dx="4.0" dy="4.0" in="blurOut2" result="blurOut3"/><feBlend in="SourceGraphic" in2="blurOut3" mode="normal"/></filter></defs><g><!--MD5=[99b8db98afdc2c8404e39242ef4c1e65]
class Platform--><rect fill="#FEFECE" filter="url(#f1v4vj8vgj3e81)" height="40" id="Platform" style="stroke: #A80036; stroke-width: 1.5;" width="80" x="6" y="168"/><ellipse cx="21" cy="184" fill="#ADD1B2" rx="11" ry="11" style="stroke: #A80036; stroke-width: 1.0;"/><path d="M23.3438,179.6719 C22.4063,179.2344 21.8125,179.0938 20.9375,179.0938 C18.3125,179.0938 16.3125,181.1719 16.3125,183.8906 L16.3125,185.0156 C16.3125,187.5938 18.4219,189.4844 21.3125,189.4844 C22.5313,189.4844 23.6875,189.1875 24.4375,188.6406 C25.0156,188.2344 25.3438,187.7813 25.3438,187.3906 C25.3438,186.9375 24.9531,186.5469 24.4844,186.5469 C24.2656,186.5469 24.0625,186.625 23.875,186.8125 C23.4219,187.2969 23.4219,187.2969 23.2344,187.3906 C22.8125,187.6563 22.125,187.7813 21.3594,187.7813 C19.3125,187.7813 18.0156,186.6875 18.0156,184.9844 L18.0156,183.8906 C18.0156,182.1094 19.2656,180.7969 21,180.7969 C21.5781,180.7969 22.1875,180.9531 22.6563,181.2031 C23.1406,181.4844 23.3125,181.7031 23.4063,182.1094 C23.4688,182.5156 23.5,182.6406 23.6406,182.7656 C23.7813,182.9063 24.0156,183.0156 24.2344,183.0156 C24.5,183.0156 24.7656,182.875 24.9375,182.6563 C25.0469,182.5 25.0781,182.3125 25.0781,181.8906 L25.0781,180.4688 C25.0781,180.0313 25.0625,179.9063 24.9688,179.75 C24.8125,179.4844 24.5313,179.3438 24.2344,179.3438 C23.9375,179.3438 23.7344,179.4375 23.5156,179.75 L23.3438,179.6719 Z "/><text fill="#000000" font-family="sans-serif" font-size="12" lengthAdjust="spacingAndGlyphs" textLength="48" x="35" y="188.1543">Platform</text><line style="stroke: #A80036; stroke-width: 1.5;" x1="7" x2="85" y1="200" y2="200"/><!--MD5=[86c7c362de55a38b660185a1328fe18d]
class Organization--><rect fill="#FEFECE" filter="url(#f1v4vj8vgj3e81)" height="91.2188" id="Organization" style="stroke: #A80036; stroke-width: 1.5;" width="108" x="216" y="82.5"/><ellipse cx="231" cy="98.5" fill="#ADD1B2" rx="11" ry="11" style="stroke: #A80036; stroke-width: 1.0;"/><path d="M233.3438,94.1719 C232.4063,93.7344 231.8125,93.5938 230.9375,93.5938 C228.3125,93.5938 226.3125,95.6719 226.3125,98.3906 L226.3125,99.5156 C226.3125,102.0938 228.4219,103.9844 231.3125,103.9844 C232.5313,103.9844 233.6875,103.6875 234.4375,103.1406 C235.0156,102.7344 235.3438,102.2813 235.3438,101.8906 C235.3438,101.4375 234.9531,101.0469 234.4844,101.0469 C234.2656,101.0469 234.0625,101.125 233.875,101.3125 C233.4219,101.7969 233.4219,101.7969 233.2344,101.8906 C232.8125,102.1563 232.125,102.2813 231.3594,102.2813 C229.3125,102.2813 228.0156,101.1875 228.0156,99.4844 L228.0156,98.3906 C228.0156,96.6094 229.2656,95.2969 231,95.2969 C231.5781,95.2969 232.1875,95.4531 232.6563,95.7031 C233.1406,95.9844 233.3125,96.2031 233.4063,96.6094 C233.4688,97.0156 233.5,97.1406 233.6406,97.2656 C233.7813,97.4063 234.0156,97.5156 234.2344,97.5156 C234.5,97.5156 234.7656,97.375 234.9375,97.1563 C235.0469,97 235.0781,96.8125 235.0781,96.3906 L235.0781,94.9688 C235.0781,94.5313 235.0625,94.4063 234.9688,94.25 C234.8125,93.9844 234.5313,93.8438 234.2344,93.8438 C233.9375,93.8438 233.7344,93.9375 233.5156,94.25 L233.3438,94.1719 Z "/><text fill="#000000" font-family="sans-serif" font-size="12" lengthAdjust="spacingAndGlyphs" textLength="76" x="245" y="102.6543">Organization</text><line style="stroke: #A80036; stroke-width: 1.5;" x1="217" x2="323" y1="114.5" y2="114.5"/><text fill="#000000" font-family="sans-serif" font-size="11" lengthAdjust="spacingAndGlyphs" textLength="74" x="222" y="128.7104">-String name</text><text fill="#000000" font-family="sans-serif" font-size="11" lengthAdjust="spacingAndGlyphs" textLength="58" x="222" y="141.5151">-String NIF</text><text fill="#000000" font-family="sans-serif" font-size="11" lengthAdjust="spacingAndGlyphs" textLength="67" x="222" y="154.3198">-Long delay</text><text fill="#000000" font-family="sans-serif" font-size="11" lengthAdjust="spacingAndGlyphs" textLength="71" x="222" y="167.1245">-Long period</text><!--MD5=[f483d6e5de34a60207b28a5563be5e8b]
class Collaborator--><rect fill="#FEFECE" filter="url(#f1v4vj8vgj3e81)" height="65.6094" id="Collaborator" style="stroke: #A80036; stroke-width: 1.5;" width="106" x="617.5" y="8"/><ellipse cx="632.5" cy="24" fill="#ADD1B2" rx="11" ry="11" style="stroke: #A80036; stroke-width: 1.0;"/><path d="M634.8438,19.6719 C633.9063,19.2344 633.3125,19.0938 632.4375,19.0938 C629.8125,19.0938 627.8125,21.1719 627.8125,23.8906 L627.8125,25.0156 C627.8125,27.5938 629.9219,29.4844 632.8125,29.4844 C634.0313,29.4844 635.1875,29.1875 635.9375,28.6406 C636.5156,28.2344 636.8438,27.7813 636.8438,27.3906 C636.8438,26.9375 636.4531,26.5469 635.9844,26.5469 C635.7656,26.5469 635.5625,26.625 635.375,26.8125 C634.9219,27.2969 634.9219,27.2969 634.7344,27.3906 C634.3125,27.6563 633.625,27.7813 632.8594,27.7813 C630.8125,27.7813 629.5156,26.6875 629.5156,24.9844 L629.5156,23.8906 C629.5156,22.1094 630.7656,20.7969 632.5,20.7969 C633.0781,20.7969 633.6875,20.9531 634.1563,21.2031 C634.6406,21.4844 634.8125,21.7031 634.9063,22.1094 C634.9688,22.5156 635,22.6406 635.1406,22.7656 C635.2813,22.9063 635.5156,23.0156 635.7344,23.0156 C636,23.0156 636.2656,22.875 636.4375,22.6563 C636.5469,22.5 636.5781,22.3125 636.5781,21.8906 L636.5781,20.4688 C636.5781,20.0313 636.5625,19.9063 636.4688,19.75 C636.3125,19.4844 636.0313,19.3438 635.7344,19.3438 C635.4375,19.3438 635.2344,19.4375 635.0156,19.75 L634.8438,19.6719 Z "/><text fill="#000000" font-family="sans-serif" font-size="12" lengthAdjust="spacingAndGlyphs" textLength="74" x="646.5" y="28.1543">Collaborator</text><line style="stroke: #A80036; stroke-width: 1.5;" x1="618.5" x2="722.5" y1="40" y2="40"/><text fill="#000000" font-family="sans-serif" font-size="11" lengthAdjust="spacingAndGlyphs" textLength="74" x="623.5" y="54.2104">-String name</text><text fill="#000000" font-family="sans-serif" font-size="11" lengthAdjust="spacingAndGlyphs" textLength="73" x="623.5" y="67.0151">-String email</text><!--MD5=[3fd616f346a44cd59a91eb10b19e157c]
class User--><rect fill="#FEFECE" filter="url(#f1v4vj8vgj3e81)" height="91.2188" id="User" style="stroke: #A80036; stroke-width: 1.5;" width="106" x="867" y="96.5"/><ellipse cx="902.25" cy="112.5" fill="#ADD1B2" rx="11" ry="11" style="stroke: #A80036; stroke-width: 1.0;"/><path d="M904.5938,108.1719 C903.6563,107.7344 903.0625,107.5938 902.1875,107.5938 C899.5625,107.5938 897.5625,109.6719 897.5625,112.3906 L897.5625,113.5156 C897.5625,116.0938 899.6719,117.9844 902.5625,117.9844 C903.7813,117.9844 904.9375,117.6875 905.6875,117.1406 C906.2656,116.7344 906.5938,116.2813 906.5938,115.8906 C906.5938,115.4375 906.2031,115.0469 905.7344,115.0469 C905.5156,115.0469 905.3125,115.125 905.125,115.3125 C904.6719,115.7969 904.6719,115.7969 904.4844,115.8906 C904.0625,116.1563 903.375,116.2813 902.6094,116.2813 C900.5625,116.2813 899.2656,115.1875 899.2656,113.4844 L899.2656,112.3906 C899.2656,110.6094 900.5156,109.2969 902.25,109.2969 C902.8281,109.2969 903.4375,109.4531 903.9063,109.7031 C904.3906,109.9844 904.5625,110.2031 904.6563,110.6094 C904.7188,111.0156 904.75,111.1406 904.8906,111.2656 C905.0313,111.4063 905.2656,111.5156 905.4844,111.5156 C905.75,111.5156 906.0156,111.375 906.1875,111.1563 C906.2969,111 906.3281,110.8125 906.3281,110.3906 L906.3281,108.9688 C906.3281,108.5313 906.3125,108.4063 906.2188,108.25 C906.0625,107.9844 905.7813,107.8438 905.4844,107.8438 C905.1875,107.8438 904.9844,107.9375 904.7656,108.25 L904.5938,108.1719 Z "/><text fill="#000000" font-family="sans-serif" font-size="12" lengthAdjust="spacingAndGlyphs" textLength="29" x="920.75" y="116.6543">User</text><line style="stroke: #A80036; stroke-width: 1.5;" x1="868" x2="972" y1="128.5" y2="128.5"/><text fill="#000000" font-family="sans-serif" font-size="11" lengthAdjust="spacingAndGlyphs" textLength="74" x="873" y="142.7104">-String name</text><text fill="#000000" font-family="sans-serif" font-size="11" lengthAdjust="spacingAndGlyphs" textLength="73" x="873" y="155.5151">-String email</text><text fill="#000000" font-family="sans-serif" font-size="11" lengthAdjust="spacingAndGlyphs" textLength="94" x="873" y="168.3198">-String password</text><text fill="#000000" font-family="sans-serif" font-size="11" lengthAdjust="spacingAndGlyphs" textLength="63" x="873" y="181.1245">-String role</text><!--MD5=[b24ed8d4ae84bae9290d9aab401637c7]
class Manager--><rect fill="#FEFECE" filter="url(#f1v4vj8vgj3e81)" height="65.6094" id="Manager" style="stroke: #A80036; stroke-width: 1.5;" width="86" x="627.5" y="109"/><ellipse cx="643.4" cy="125" fill="#ADD1B2" rx="11" ry="11" style="stroke: #A80036; stroke-width: 1.0;"/><path d="M645.7438,120.6719 C644.8063,120.2344 644.2125,120.0938 643.3375,120.0938 C640.7125,120.0938 638.7125,122.1719 638.7125,124.8906 L638.7125,126.0156 C638.7125,128.5938 640.8219,130.4844 643.7125,130.4844 C644.9313,130.4844 646.0875,130.1875 646.8375,129.6406 C647.4156,129.2344 647.7438,128.7813 647.7438,128.3906 C647.7438,127.9375 647.3531,127.5469 646.8844,127.5469 C646.6656,127.5469 646.4625,127.625 646.275,127.8125 C645.8219,128.2969 645.8219,128.2969 645.6344,128.3906 C645.2125,128.6563 644.525,128.7813 643.7594,128.7813 C641.7125,128.7813 640.4156,127.6875 640.4156,125.9844 L640.4156,124.8906 C640.4156,123.1094 641.6656,121.7969 643.4,121.7969 C643.9781,121.7969 644.5875,121.9531 645.0563,122.2031 C645.5406,122.4844 645.7125,122.7031 645.8063,123.1094 C645.8688,123.5156 645.9,123.6406 646.0406,123.7656 C646.1813,123.9063 646.4156,124.0156 646.6344,124.0156 C646.9,124.0156 647.1656,123.875 647.3375,123.6563 C647.4469,123.5 647.4781,123.3125 647.4781,122.8906 L647.4781,121.4688 C647.4781,121.0313 647.4625,120.9063 647.3688,120.75 C647.2125,120.4844 646.9313,120.3438 646.6344,120.3438 C646.3375,120.3438 646.1344,120.4375 645.9156,120.75 L645.7438,120.6719 Z "/><text fill="#000000" font-family="sans-serif" font-size="12" lengthAdjust="spacingAndGlyphs" textLength="52" x="657.6" y="129.1543">Manager</text><line style="stroke: #A80036; stroke-width: 1.5;" x1="628.5" x2="712.5" y1="141" y2="141"/><text fill="#000000" font-family="sans-serif" font-size="11" lengthAdjust="spacingAndGlyphs" textLength="74" x="633.5" y="155.2104">-String name</text><text fill="#000000" font-family="sans-serif" font-size="11" lengthAdjust="spacingAndGlyphs" textLength="73" x="633.5" y="168.0151">-String email</text><!--MD5=[d2893ab0b245814eb19299eeec071ce5]
class ExternalAlgorithmGeneratePwd--><rect fill="#FEFECE" filter="url(#f1v4vj8vgj3e81)" height="40" id="ExternalAlgorithmGeneratePwd" style="stroke: #A80036; stroke-width: 1.5;" width="217" x="354" y="207"/><ellipse cx="369" cy="223" fill="#ADD1B2" rx="11" ry="11" style="stroke: #A80036; stroke-width: 1.0;"/><path d="M371.3438,218.6719 C370.4063,218.2344 369.8125,218.0938 368.9375,218.0938 C366.3125,218.0938 364.3125,220.1719 364.3125,222.8906 L364.3125,224.0156 C364.3125,226.5938 366.4219,228.4844 369.3125,228.4844 C370.5313,228.4844 371.6875,228.1875 372.4375,227.6406 C373.0156,227.2344 373.3438,226.7813 373.3438,226.3906 C373.3438,225.9375 372.9531,225.5469 372.4844,225.5469 C372.2656,225.5469 372.0625,225.625 371.875,225.8125 C371.4219,226.2969 371.4219,226.2969 371.2344,226.3906 C370.8125,226.6563 370.125,226.7813 369.3594,226.7813 C367.3125,226.7813 366.0156,225.6875 366.0156,223.9844 L366.0156,222.8906 C366.0156,221.1094 367.2656,219.7969 369,219.7969 C369.5781,219.7969 370.1875,219.9531 370.6563,220.2031 C371.1406,220.4844 371.3125,220.7031 371.4063,221.1094 C371.4688,221.5156 371.5,221.6406 371.6406,221.7656 C371.7813,221.9063 372.0156,222.0156 372.2344,222.0156 C372.5,222.0156 372.7656,221.875 372.9375,221.6563 C373.0469,221.5 373.0781,221.3125 373.0781,220.8906 L373.0781,219.4688 C373.0781,219.0313 373.0625,218.9063 372.9688,218.75 C372.8125,218.4844 372.5313,218.3438 372.2344,218.3438 C371.9375,218.3438 371.7344,218.4375 371.5156,218.75 L371.3438,218.6719 Z "/><text fill="#000000" font-family="sans-serif" font-size="12" lengthAdjust="spacingAndGlyphs" textLength="185" x="383" y="227.1543">ExternalAlgorithmGeneratePwd</text><line style="stroke: #A80036; stroke-width: 1.5;" x1="355" x2="570" y1="239" y2="239"/><!--MD5=[7640e466c042ba2d6f9c19c816f7f0fc]
link Platform to Organization--><path d="M86.1781,177.4113 C122.152,167.6887 175.763,153.1992 215.639,142.422 " fill="none" id="Platform-Organization" style="stroke: #A80036; stroke-width: 1.0;"/><text fill="#000000" font-family="sans-serif" font-size="13" lengthAdjust="spacingAndGlyphs" textLength="54" x="117.5" y="146.0669">contains</text><polygon fill="#000000" points="174.5,140.0664,180.5,143.0664,174.5,146.0664,174.5,140.0664" style="stroke: #000000; stroke-width: 1.0;"/><text fill="#000000" font-family="sans-serif" font-size="13" lengthAdjust="spacingAndGlyphs" textLength="8" x="94.0473" y="171.268">1</text><text fill="#000000" font-family="sans-serif" font-size="13" lengthAdjust="spacingAndGlyphs" textLength="7" x="200.8639" y="157.4289">*</text><!--MD5=[e2de4d0b468fc0beea58823c242168b2]
link Platform to ExternalAlgorithmGeneratePwd--><path d="M86.3688,191.7042 C147.196,197.4273 266.155,208.6201 353.872,216.8734 " fill="none" id="Platform-ExternalAlgorithmGeneratePwd" style="stroke: #A80036; stroke-width: 1.0;"/><text fill="#000000" font-family="sans-serif" font-size="13" lengthAdjust="spacingAndGlyphs" textLength="55" x="117" y="191.0669">resort to</text><polygon fill="#000000" points="175,185.0664,181,188.0664,175,191.0664,175,185.0664" style="stroke: #000000; stroke-width: 1.0;"/><text fill="#000000" font-family="sans-serif" font-size="13" lengthAdjust="spacingAndGlyphs" textLength="8" x="93.9947" y="205.7082">1</text><text fill="#000000" font-family="sans-serif" font-size="13" lengthAdjust="spacingAndGlyphs" textLength="8" x="337.9528" y="228.7603">1</text><!--MD5=[4f8c7d649f48a003914386008fecf57a]
link ExternalAlgorithmGeneratePwd to User--><path d="M571.207,227.8805 C622.777,226.4026 685.11,221.8273 740,210 C784.034,200.5119 831.602,182.0173 866.626,166.7085 " fill="none" id="ExternalAlgorithmGeneratePwd-User" style="stroke: #A80036; stroke-width: 1.0;"/><text fill="#000000" font-family="sans-serif" font-size="13" lengthAdjust="spacingAndGlyphs" textLength="124" x="602" y="206.0669">generate password</text><polygon fill="#000000" points="729,200.0664,735,203.0664,729,206.0664,729,200.0664" style="stroke: #000000; stroke-width: 1.0;"/><text fill="#000000" font-family="sans-serif" font-size="13" lengthAdjust="spacingAndGlyphs" textLength="8" x="579.1317" y="240.5413">1</text><text fill="#000000" font-family="sans-serif" font-size="13" lengthAdjust="spacingAndGlyphs" textLength="7" x="851.9836" y="183.0976">*</text><!--MD5=[45817597bcd7048073a670d966abfd17]
link Organization to Collaborator--><path d="M324.023,113.473 C333.959,110.885 344.278,108.288 354,106 C446.271,84.284 554.667,62.83 617.384,50.81 " fill="none" id="Organization-Collaborator" style="stroke: #A80036; stroke-width: 1.0;"/><text fill="#000000" font-family="sans-serif" font-size="13" lengthAdjust="spacingAndGlyphs" textLength="54" x="429" y="58.0669">contains</text><polygon fill="#000000" points="486,52.0664,492,55.0664,486,58.0664,486,52.0664" style="stroke: #000000; stroke-width: 1.0;"/><text fill="#000000" font-family="sans-serif" font-size="13" lengthAdjust="spacingAndGlyphs" textLength="8" x="331.8198" y="124.5899">1</text><text fill="#000000" font-family="sans-serif" font-size="13" lengthAdjust="spacingAndGlyphs" textLength="8" x="601.3521" y="65.3479">1</text><!--MD5=[bc039f41cf0b27fadee5cae63fc6e1fe]
link Organization to Manager--><path d="M324.33,129.874 C404.498,132.69 554.431,137.957 627.42,140.522 " fill="none" id="Organization-Manager" style="stroke: #A80036; stroke-width: 1.0;"/><text fill="#000000" font-family="sans-serif" font-size="13" lengthAdjust="spacingAndGlyphs" textLength="54" x="429" y="127.0669">contains</text><polygon fill="#000000" points="486,121.0664,492,124.0664,486,127.0664,486,121.0664" style="stroke: #000000; stroke-width: 1.0;"/><text fill="#000000" font-family="sans-serif" font-size="13" lengthAdjust="spacingAndGlyphs" textLength="8" x="332.1681" y="143.1948">1</text><text fill="#000000" font-family="sans-serif" font-size="13" lengthAdjust="spacingAndGlyphs" textLength="8" x="611.6224" y="153.6296">1</text><!--MD5=[6eb6e197a729f6ec2412743e0bdbca1d]
link Manager to User--><path d="M713.766,142 C756.013,142 821.07,142 866.581,142 " fill="none" id="Manager-User" style="stroke: #A80036; stroke-width: 1.0;"/><text fill="#000000" font-family="sans-serif" font-size="13" lengthAdjust="spacingAndGlyphs" textLength="52" x="771" y="138.0669">acts like</text><polygon fill="#000000" points="826,132.0664,832,135.0664,826,138.0664,826,132.0664" style="stroke: #000000; stroke-width: 1.0;"/><text fill="#000000" font-family="sans-serif" font-size="13" lengthAdjust="spacingAndGlyphs" textLength="8" x="721.5944" y="155.3524">1</text><text fill="#000000" font-family="sans-serif" font-size="13" lengthAdjust="spacingAndGlyphs" textLength="8" x="850.8653" y="155.0689">1</text><!--MD5=[04ce0ecdab38a3951889ff50c232570f]
link Collaborator to User--><path d="M723.686,62.296 C765.808,79.485 824.783,103.552 866.885,120.733 " fill="none" id="Collaborator-User" style="stroke: #A80036; stroke-width: 1.0;"/><text fill="#000000" font-family="sans-serif" font-size="13" lengthAdjust="spacingAndGlyphs" textLength="52" x="771" y="79.0669">acts like</text><polygon fill="#000000" points="826,73.0664,832,76.0664,826,79.0664,826,73.0664" style="stroke: #000000; stroke-width: 1.0;"/><text fill="#000000" font-family="sans-serif" font-size="13" lengthAdjust="spacingAndGlyphs" textLength="7" x="731.6575" y="78.4491">*</text><text fill="#000000" font-family="sans-serif" font-size="13" lengthAdjust="spacingAndGlyphs" textLength="8" x="850.8532" y="130.8579">1</text><!--MD5=[3dd206df6b6331a0aa045dc4d2f2561d]
@startuml
skinparam classAttributeIconSize 0
hide methods
left to right direction


class Platform{

}


class Organization{
-String name
-String NIF
-Long delay
-Long period
}


class Collaborator {
 -String name
 -String email
}

class User{
-String name
-String email
-String password
-String role
}



class Manager{
-String name
-String email
}



class ExternalAlgorithmGeneratePwd{

}



Platform"1" - - "*"Organization : contains >
Platform"1" - - "1"ExternalAlgorithmGeneratePwd : resort to >

ExternalAlgorithmGeneratePwd"1" - - "*"User : generate password >



Organization"1" - - "1"Collaborator : contains >
Organization"1" - - "1"Manager : contains >

Manager"1" - - "1" User : acts like >

Collaborator"*" - - "1" User : acts like >
@enduml

PlantUML version 1.2020.11(Sat May 30 10:13:43 UTC 2020)
(GPL source distribution)
Java Runtime: Java(TM) SE Runtime Environment
JVM: Java HotSpot(TM) 64-Bit Server VM
Default Encoding: UTF-8
Language: en
Country: US
--></g></svg>