<?xml version="1.0" encoding="UTF-8" standalone="no"?><svg xmlns="http://www.w3.org/2000/svg" xmlns:xlink="http://www.w3.org/1999/xlink" contentScriptType="application/ecmascript" contentStyleType="text/css" height="779px" preserveAspectRatio="none" style="width:1359px;height:779px;" version="1.1" viewBox="0 0 1359 779" width="1359px" zoomAndPan="magnify"><defs><filter height="300%" id="fq3f87vochiqb" width="300%" x="-1" y="-1"><feGaussianBlur result="blurOut" stdDeviation="2.0"/><feColorMatrix in="blurOut" result="blurOut2" type="matrix" values="0 0 0 0 0 0 0 0 0 0 0 0 0 0 0 0 0 0 .4 0"/><feOffset dx="4.0" dy="4.0" in="blurOut2" result="blurOut3"/><feBlend in="SourceGraphic" in2="blurOut3" mode="normal"/></filter></defs><g><!--MD5=[f483d6e5de34a60207b28a5563be5e8b]
class Collaborator--><rect fill="#FEFECE" filter="url(#fq3f87vochiqb)" height="112.0234" id="Collaborator" style="stroke: #A80036; stroke-width: 1.5;" width="169" x="241.065" y="656"/><ellipse cx="284.415" cy="672" fill="#ADD1B2" rx="11" ry="11" style="stroke: #A80036; stroke-width: 1.0;"/><path d="M286.7588,667.6719 C285.8213,667.2344 285.2275,667.0938 284.3525,667.0938 C281.7275,667.0938 279.7275,669.1719 279.7275,671.8906 L279.7275,673.0156 C279.7275,675.5938 281.8369,677.4844 284.7275,677.4844 C285.9463,677.4844 287.1025,677.1875 287.8525,676.6406 C288.4306,676.2344 288.7588,675.7813 288.7588,675.3906 C288.7588,674.9375 288.3681,674.5469 287.8994,674.5469 C287.6806,674.5469 287.4775,674.625 287.29,674.8125 C286.8369,675.2969 286.8369,675.2969 286.6494,675.3906 C286.2275,675.6563 285.54,675.7813 284.7744,675.7813 C282.7275,675.7813 281.4306,674.6875 281.4306,672.9844 L281.4306,671.8906 C281.4306,670.1094 282.6806,668.7969 284.415,668.7969 C284.9931,668.7969 285.6025,668.9531 286.0713,669.2031 C286.5556,669.4844 286.7275,669.7031 286.8213,670.1094 C286.8838,670.5156 286.915,670.6406 287.0556,670.7656 C287.1963,670.9063 287.4306,671.0156 287.6494,671.0156 C287.915,671.0156 288.1806,670.875 288.3525,670.6563 C288.4619,670.5 288.4931,670.3125 288.4931,669.8906 L288.4931,668.4688 C288.4931,668.0313 288.4775,667.9063 288.3838,667.75 C288.2275,667.4844 287.9463,667.3438 287.6494,667.3438 C287.3525,667.3438 287.1494,667.4375 286.9306,667.75 L286.7588,667.6719 Z "/><text fill="#000000" font-family="sans-serif" font-size="12" lengthAdjust="spacingAndGlyphs" textLength="74" x="304.715" y="676.1543">Collaborator</text><line style="stroke: #A80036; stroke-width: 1.5;" x1="242.065" x2="409.065" y1="688" y2="688"/><text fill="#000000" font-family="sans-serif" font-size="11" lengthAdjust="spacingAndGlyphs" textLength="74" x="247.065" y="702.2104">-String name</text><text fill="#000000" font-family="sans-serif" font-size="11" lengthAdjust="spacingAndGlyphs" textLength="73" x="247.065" y="715.0151">-String email</text><line style="stroke: #A80036; stroke-width: 1.5;" x1="242.065" x2="409.065" y1="721.6094" y2="721.6094"/><text fill="#000000" font-family="sans-serif" font-size="11" lengthAdjust="spacingAndGlyphs" textLength="157" x="247.065" y="735.8198">+Collaborator(name, email)</text><text fill="#000000" font-family="sans-serif" font-size="11" lengthAdjust="spacingAndGlyphs" textLength="107" x="247.065" y="748.6245">+String getName()</text><text fill="#000000" font-family="sans-serif" font-size="11" lengthAdjust="spacingAndGlyphs" textLength="104" x="247.065" y="761.4292">+String getEmail()</text><!--MD5=[b24ed8d4ae84bae9290d9aab401637c7]
class Manager--><rect fill="#FEFECE" filter="url(#fq3f87vochiqb)" height="112.0234" id="Manager" style="stroke: #A80036; stroke-width: 1.5;" width="146" x="779.565" y="656"/><ellipse cx="822.465" cy="672" fill="#ADD1B2" rx="11" ry="11" style="stroke: #A80036; stroke-width: 1.0;"/><path d="M824.8088,667.6719 C823.8713,667.2344 823.2775,667.0938 822.4025,667.0938 C819.7775,667.0938 817.7775,669.1719 817.7775,671.8906 L817.7775,673.0156 C817.7775,675.5938 819.8869,677.4844 822.7775,677.4844 C823.9963,677.4844 825.1525,677.1875 825.9025,676.6406 C826.4806,676.2344 826.8088,675.7813 826.8088,675.3906 C826.8088,674.9375 826.4181,674.5469 825.9494,674.5469 C825.7306,674.5469 825.5275,674.625 825.34,674.8125 C824.8869,675.2969 824.8869,675.2969 824.6994,675.3906 C824.2775,675.6563 823.59,675.7813 822.8244,675.7813 C820.7775,675.7813 819.4806,674.6875 819.4806,672.9844 L819.4806,671.8906 C819.4806,670.1094 820.7306,668.7969 822.465,668.7969 C823.0431,668.7969 823.6525,668.9531 824.1213,669.2031 C824.6056,669.4844 824.7775,669.7031 824.8713,670.1094 C824.9338,670.5156 824.965,670.6406 825.1056,670.7656 C825.2463,670.9063 825.4806,671.0156 825.6994,671.0156 C825.965,671.0156 826.2306,670.875 826.4025,670.6563 C826.5119,670.5 826.5431,670.3125 826.5431,669.8906 L826.5431,668.4688 C826.5431,668.0313 826.5275,667.9063 826.4338,667.75 C826.2775,667.4844 825.9963,667.3438 825.6994,667.3438 C825.4025,667.3438 825.1994,667.4375 824.9806,667.75 L824.8088,667.6719 Z "/><text fill="#000000" font-family="sans-serif" font-size="12" lengthAdjust="spacingAndGlyphs" textLength="52" x="842.665" y="676.1543">Manager</text><line style="stroke: #A80036; stroke-width: 1.5;" x1="780.565" x2="924.565" y1="688" y2="688"/><text fill="#000000" font-family="sans-serif" font-size="11" lengthAdjust="spacingAndGlyphs" textLength="74" x="785.565" y="702.2104">-String name</text><text fill="#000000" font-family="sans-serif" font-size="11" lengthAdjust="spacingAndGlyphs" textLength="73" x="785.565" y="715.0151">-String email</text><line style="stroke: #A80036; stroke-width: 1.5;" x1="780.565" x2="924.565" y1="721.6094" y2="721.6094"/><text fill="#000000" font-family="sans-serif" font-size="11" lengthAdjust="spacingAndGlyphs" textLength="134" x="785.565" y="735.8198">+Manager(name,email)</text><text fill="#000000" font-family="sans-serif" font-size="11" lengthAdjust="spacingAndGlyphs" textLength="107" x="785.565" y="748.6245">+String getName()</text><text fill="#000000" font-family="sans-serif" font-size="11" lengthAdjust="spacingAndGlyphs" textLength="104" x="785.565" y="761.4292">+String getEmail()</text><!--MD5=[86c7c362de55a38b660185a1328fe18d]
class Organization--><rect fill="#FEFECE" filter="url(#fq3f87vochiqb)" height="112.0234" id="Organization" style="stroke: #A80036; stroke-width: 1.5;" width="262" x="625.565" y="467"/><ellipse cx="714.315" cy="483" fill="#ADD1B2" rx="11" ry="11" style="stroke: #A80036; stroke-width: 1.0;"/><path d="M716.6588,478.6719 C715.7213,478.2344 715.1275,478.0938 714.2525,478.0938 C711.6275,478.0938 709.6275,480.1719 709.6275,482.8906 L709.6275,484.0156 C709.6275,486.5938 711.7369,488.4844 714.6275,488.4844 C715.8463,488.4844 717.0025,488.1875 717.7525,487.6406 C718.3306,487.2344 718.6588,486.7813 718.6588,486.3906 C718.6588,485.9375 718.2681,485.5469 717.7994,485.5469 C717.5806,485.5469 717.3775,485.625 717.19,485.8125 C716.7369,486.2969 716.7369,486.2969 716.5494,486.3906 C716.1275,486.6563 715.44,486.7813 714.6744,486.7813 C712.6275,486.7813 711.3306,485.6875 711.3306,483.9844 L711.3306,482.8906 C711.3306,481.1094 712.5806,479.7969 714.315,479.7969 C714.8931,479.7969 715.5025,479.9531 715.9713,480.2031 C716.4556,480.4844 716.6275,480.7031 716.7213,481.1094 C716.7838,481.5156 716.815,481.6406 716.9556,481.7656 C717.0963,481.9063 717.3306,482.0156 717.5494,482.0156 C717.815,482.0156 718.0806,481.875 718.2525,481.6563 C718.3619,481.5 718.3931,481.3125 718.3931,480.8906 L718.3931,479.4688 C718.3931,479.0313 718.3775,478.9063 718.2838,478.75 C718.1275,478.4844 717.8463,478.3438 717.5494,478.3438 C717.2525,478.3438 717.0494,478.4375 716.8306,478.75 L716.6588,478.6719 Z "/><text fill="#000000" font-family="sans-serif" font-size="12" lengthAdjust="spacingAndGlyphs" textLength="76" x="734.815" y="487.1543">Organization</text><line style="stroke: #A80036; stroke-width: 1.5;" x1="626.565" x2="886.565" y1="499" y2="499"/><text fill="#000000" font-family="sans-serif" font-size="11" lengthAdjust="spacingAndGlyphs" textLength="74" x="631.565" y="513.2104">-String name</text><text fill="#000000" font-family="sans-serif" font-size="11" lengthAdjust="spacingAndGlyphs" textLength="58" x="631.565" y="526.0151">-String NIF</text><line style="stroke: #A80036; stroke-width: 1.5;" x1="626.565" x2="886.565" y1="532.6094" y2="532.6094"/><text fill="#000000" font-family="sans-serif" font-size="11" lengthAdjust="spacingAndGlyphs" textLength="245" x="631.565" y="546.8198">+Organization(name,Collaborator,Manager)</text><text fill="#000000" font-family="sans-serif" font-size="11" lengthAdjust="spacingAndGlyphs" text-decoration="underline" textLength="250" x="631.565" y="559.6245">+Collaborator newColaborator(name, email)</text><text fill="#000000" font-family="sans-serif" font-size="11" lengthAdjust="spacingAndGlyphs" text-decoration="underline" textLength="215" x="631.565" y="572.4292">+Manager newManager(name, email)</text><!--MD5=[99b8db98afdc2c8404e39242ef4c1e65]
class Platform--><rect fill="#FEFECE" filter="url(#fq3f87vochiqb)" height="86.4141" id="Platform" style="stroke: #A80036; stroke-width: 1.5;" width="314" x="1034.56" y="278"/><ellipse cx="1163.31" cy="294" fill="#ADD1B2" rx="11" ry="11" style="stroke: #A80036; stroke-width: 1.0;"/><path d="M1165.6538,289.6719 C1164.7163,289.2344 1164.1225,289.0938 1163.2475,289.0938 C1160.6225,289.0938 1158.6225,291.1719 1158.6225,293.8906 L1158.6225,295.0156 C1158.6225,297.5938 1160.7319,299.4844 1163.6225,299.4844 C1164.8413,299.4844 1165.9975,299.1875 1166.7475,298.6406 C1167.3256,298.2344 1167.6538,297.7813 1167.6538,297.3906 C1167.6538,296.9375 1167.2631,296.5469 1166.7944,296.5469 C1166.5756,296.5469 1166.3725,296.625 1166.185,296.8125 C1165.7319,297.2969 1165.7319,297.2969 1165.5444,297.3906 C1165.1225,297.6563 1164.435,297.7813 1163.6694,297.7813 C1161.6225,297.7813 1160.3256,296.6875 1160.3256,294.9844 L1160.3256,293.8906 C1160.3256,292.1094 1161.5756,290.7969 1163.31,290.7969 C1163.8881,290.7969 1164.4975,290.9531 1164.9663,291.2031 C1165.4506,291.4844 1165.6225,291.7031 1165.7163,292.1094 C1165.7788,292.5156 1165.81,292.6406 1165.9506,292.7656 C1166.0913,292.9063 1166.3256,293.0156 1166.5444,293.0156 C1166.81,293.0156 1167.0756,292.875 1167.2475,292.6563 C1167.3569,292.5 1167.3881,292.3125 1167.3881,291.8906 L1167.3881,290.4688 C1167.3881,290.0313 1167.3725,289.9063 1167.2788,289.75 C1167.1225,289.4844 1166.8413,289.3438 1166.5444,289.3438 C1166.2475,289.3438 1166.0444,289.4375 1165.8256,289.75 L1165.6538,289.6719 Z "/><text fill="#000000" font-family="sans-serif" font-size="12" lengthAdjust="spacingAndGlyphs" textLength="48" x="1183.81" y="298.1543">Platform</text><line style="stroke: #A80036; stroke-width: 1.5;" x1="1035.56" x2="1347.56" y1="310" y2="310"/><line style="stroke: #A80036; stroke-width: 1.5;" x1="1035.56" x2="1347.56" y1="318" y2="318"/><text fill="#000000" font-family="sans-serif" font-size="11" lengthAdjust="spacingAndGlyphs" textLength="278" x="1040.56" y="332.2104">+RegisterOrganization getRegisterOrganization()</text><text fill="#000000" font-family="sans-serif" font-size="11" lengthAdjust="spacingAndGlyphs" textLength="258" x="1040.56" y="345.0151">+AutorizationFacade getAutorizationFacade()</text><text fill="#000000" font-family="sans-serif" font-size="11" lengthAdjust="spacingAndGlyphs" textLength="302" x="1040.56" y="357.8198">+AlgorithmGeneratePwd getAlgorithmGeneratePwd()</text><!--MD5=[bf6f636222406559e0ae8c46c1f32994]
class RegisterOrganization--><rect fill="#FEFECE" filter="url(#fq3f87vochiqb)" height="137.6328" id="RegisterOrganization" style="stroke: #A80036; stroke-width: 1.5;" width="430" x="312.565" y="252"/><ellipse cx="460.315" cy="268" fill="#ADD1B2" rx="11" ry="11" style="stroke: #A80036; stroke-width: 1.0;"/><path d="M462.6588,263.6719 C461.7213,263.2344 461.1275,263.0938 460.2525,263.0938 C457.6275,263.0938 455.6275,265.1719 455.6275,267.8906 L455.6275,269.0156 C455.6275,271.5938 457.7369,273.4844 460.6275,273.4844 C461.8463,273.4844 463.0025,273.1875 463.7525,272.6406 C464.3306,272.2344 464.6588,271.7813 464.6588,271.3906 C464.6588,270.9375 464.2681,270.5469 463.7994,270.5469 C463.5806,270.5469 463.3775,270.625 463.19,270.8125 C462.7369,271.2969 462.7369,271.2969 462.5494,271.3906 C462.1275,271.6563 461.44,271.7813 460.6744,271.7813 C458.6275,271.7813 457.3306,270.6875 457.3306,268.9844 L457.3306,267.8906 C457.3306,266.1094 458.5806,264.7969 460.315,264.7969 C460.8931,264.7969 461.5025,264.9531 461.9713,265.2031 C462.4556,265.4844 462.6275,265.7031 462.7213,266.1094 C462.7838,266.5156 462.815,266.6406 462.9556,266.7656 C463.0963,266.9063 463.3306,267.0156 463.5494,267.0156 C463.815,267.0156 464.0806,266.875 464.2525,266.6563 C464.3619,266.5 464.3931,266.3125 464.3931,265.8906 L464.3931,264.4688 C464.3931,264.0313 464.3775,263.9063 464.2838,263.75 C464.1275,263.4844 463.8463,263.3438 463.5494,263.3438 C463.2525,263.3438 463.0494,263.4375 462.8306,263.75 L462.6588,263.6719 Z "/><text fill="#000000" font-family="sans-serif" font-size="12" lengthAdjust="spacingAndGlyphs" textLength="126" x="480.815" y="272.1543">RegisterOrganization</text><line style="stroke: #A80036; stroke-width: 1.5;" x1="313.565" x2="741.565" y1="284" y2="284"/><line style="stroke: #A80036; stroke-width: 1.5;" x1="313.565" x2="741.565" y1="292" y2="292"/><text fill="#000000" font-family="sans-serif" font-size="11" lengthAdjust="spacingAndGlyphs" textLength="418" x="318.565" y="306.2104">+Organization newOrganization(name,NIF,nameC,emailC,nameM,emailM)</text><text fill="#000000" font-family="sans-serif" font-size="11" lengthAdjust="spacingAndGlyphs" textLength="229" x="318.565" y="319.0151">+validateOrganization(Organization org)</text><text fill="#000000" font-family="sans-serif" font-size="11" lengthAdjust="spacingAndGlyphs" textLength="227" x="318.565" y="331.8198">+registerOrganization(Organization org)</text><text fill="#000000" font-family="sans-serif" font-size="11" lengthAdjust="spacingAndGlyphs" textLength="199" x="318.565" y="344.6245">-addOrganization(Organization org)</text><text fill="#000000" font-family="sans-serif" font-size="11" lengthAdjust="spacingAndGlyphs" textLength="266" x="318.565" y="357.4292">-registerCollaboratorAsUser(Collaborator colab)</text><text fill="#000000" font-family="sans-serif" font-size="11" lengthAdjust="spacingAndGlyphs" textLength="223" x="318.565" y="370.2339">-registerManagerAsUser(Manager man)</text><text fill="#000000" font-family="sans-serif" font-size="11" lengthAdjust="spacingAndGlyphs" textLength="198" x="318.565" y="383.0386">-sendPwd(String email, String pwd)</text><!--MD5=[5525872b9ab577162d0febf32a3c6eec]
class AutorizationFacade--><rect fill="#FEFECE" filter="url(#fq3f87vochiqb)" height="60.8047" id="AutorizationFacade" style="stroke: #A80036; stroke-width: 1.5;" width="193" x="45.0646" y="492.5"/><ellipse cx="80.7646" cy="508.5" fill="#ADD1B2" rx="11" ry="11" style="stroke: #A80036; stroke-width: 1.0;"/><path d="M83.1084,504.1719 C82.1709,503.7344 81.5771,503.5938 80.7021,503.5938 C78.0771,503.5938 76.0771,505.6719 76.0771,508.3906 L76.0771,509.5156 C76.0771,512.0938 78.1865,513.9844 81.0771,513.9844 C82.2959,513.9844 83.4521,513.6875 84.2021,513.1406 C84.7802,512.7344 85.1084,512.2813 85.1084,511.8906 C85.1084,511.4375 84.7177,511.0469 84.249,511.0469 C84.0302,511.0469 83.8271,511.125 83.6396,511.3125 C83.1865,511.7969 83.1865,511.7969 82.999,511.8906 C82.5771,512.1563 81.8896,512.2813 81.124,512.2813 C79.0771,512.2813 77.7802,511.1875 77.7802,509.4844 L77.7802,508.3906 C77.7802,506.6094 79.0302,505.2969 80.7646,505.2969 C81.3427,505.2969 81.9521,505.4531 82.4209,505.7031 C82.9052,505.9844 83.0771,506.2031 83.1709,506.6094 C83.2334,507.0156 83.2646,507.1406 83.4052,507.2656 C83.5459,507.4063 83.7802,507.5156 83.999,507.5156 C84.2646,507.5156 84.5302,507.375 84.7021,507.1563 C84.8115,507 84.8427,506.8125 84.8427,506.3906 L84.8427,504.9688 C84.8427,504.5313 84.8271,504.4063 84.7334,504.25 C84.5771,503.9844 84.2959,503.8438 83.999,503.8438 C83.7021,503.8438 83.499,503.9375 83.2802,504.25 L83.1084,504.1719 Z "/><text fill="#000000" font-family="sans-serif" font-size="12" lengthAdjust="spacingAndGlyphs" textLength="115" x="99.3646" y="512.6543">AutorizationFacade</text><line style="stroke: #A80036; stroke-width: 1.5;" x1="46.0646" x2="237.0646" y1="524.5" y2="524.5"/><line style="stroke: #A80036; stroke-width: 1.5;" x1="46.0646" x2="237.0646" y1="532.5" y2="532.5"/><text fill="#000000" font-family="sans-serif" font-size="11" lengthAdjust="spacingAndGlyphs" textLength="181" x="51.0646" y="546.7104">+registerUser(name,email,pwd)</text><!--MD5=[1b195f4f66719582b6e5ff8bbad55a8d]
class AlgorithmGeneratePwd--><rect fill="#FEFECE" filter="url(#fq3f87vochiqb)" height="66.7422" id="AlgorithmGeneratePwd" style="stroke: #A80036; stroke-width: 1.5;" width="317" x="273.065" y="489.5"/><ellipse cx="357.815" cy="508.4688" fill="#B4A7E5" rx="11" ry="11" style="stroke: #A80036; stroke-width: 1.0;"/><path d="M358.7681,505.25 L360.4869,505.25 C360.8775,505.25 361.065,505.2188 361.19,505.1406 C361.4556,504.9844 361.5963,504.7031 361.5963,504.4063 C361.5963,504.1406 361.4869,503.875 361.2525,503.7031 C361.0806,503.5938 360.94,503.5625 360.4869,503.5625 L355.3463,503.5625 C354.9088,503.5625 354.7838,503.5781 354.6275,503.6719 C354.3775,503.8281 354.2213,504.125 354.2213,504.4063 C354.2213,504.6875 354.3619,504.9375 354.5806,505.1094 C354.7369,505.2188 354.9244,505.25 355.3463,505.25 L357.065,505.25 L357.065,511.7656 L355.3463,511.7656 C354.9088,511.7656 354.7838,511.7813 354.6275,511.8906 C354.3775,512.0469 354.2213,512.3281 354.2213,512.625 C354.2213,512.875 354.3619,513.1406 354.5806,513.2969 C354.7369,513.4219 354.94,513.4688 355.3463,513.4688 L360.4869,513.4688 C361.2369,513.4688 361.5963,513.1875 361.5963,512.625 C361.5963,512.3438 361.4869,512.0938 361.2525,511.9219 C361.0806,511.7969 360.94,511.7656 360.4869,511.7656 L358.7681,511.7656 L358.7681,505.25 Z "/><text fill="#000000" font-family="sans-serif" font-size="12" font-style="italic" lengthAdjust="spacingAndGlyphs" textLength="67" x="414.315" y="505.6387">«interface»</text><text fill="#000000" font-family="sans-serif" font-size="12" font-style="italic" lengthAdjust="spacingAndGlyphs" textLength="139" x="378.315" y="519.6074">AlgorithmGeneratePwd</text><line style="stroke: #A80036; stroke-width: 1.5;" x1="274.065" x2="589.065" y1="527.4375" y2="527.4375"/><line style="stroke: #A80036; stroke-width: 1.5;" x1="274.065" x2="589.065" y1="535.4375" y2="535.4375"/><text fill="#000000" font-family="sans-serif" font-size="11" lengthAdjust="spacingAndGlyphs" textLength="305" x="279.065" y="549.6479">+String generatePassword(String name, String email)</text><!--MD5=[4f951974ade12dc82702c8e5d25dd0a5]
class RegisterOrganizationController--><rect fill="#FEFECE" filter="url(#fq3f87vochiqb)" height="73.6094" id="RegisterOrganizationController" style="stroke: #A80036; stroke-width: 1.5;" width="334" x="814.565" y="117"/><ellipse cx="884.815" cy="133" fill="#ADD1B2" rx="11" ry="11" style="stroke: #A80036; stroke-width: 1.0;"/><path d="M887.1588,128.6719 C886.2213,128.2344 885.6275,128.0938 884.7525,128.0938 C882.1275,128.0938 880.1275,130.1719 880.1275,132.8906 L880.1275,134.0156 C880.1275,136.5938 882.2369,138.4844 885.1275,138.4844 C886.3463,138.4844 887.5025,138.1875 888.2525,137.6406 C888.8306,137.2344 889.1588,136.7813 889.1588,136.3906 C889.1588,135.9375 888.7681,135.5469 888.2994,135.5469 C888.0806,135.5469 887.8775,135.625 887.69,135.8125 C887.2369,136.2969 887.2369,136.2969 887.0494,136.3906 C886.6275,136.6563 885.94,136.7813 885.1744,136.7813 C883.1275,136.7813 881.8306,135.6875 881.8306,133.9844 L881.8306,132.8906 C881.8306,131.1094 883.0806,129.7969 884.815,129.7969 C885.3931,129.7969 886.0025,129.9531 886.4713,130.2031 C886.9556,130.4844 887.1275,130.7031 887.2213,131.1094 C887.2838,131.5156 887.315,131.6406 887.4556,131.7656 C887.5963,131.9063 887.8306,132.0156 888.0494,132.0156 C888.315,132.0156 888.5806,131.875 888.7525,131.6563 C888.8619,131.5 888.8931,131.3125 888.8931,130.8906 L888.8931,129.4688 C888.8931,129.0313 888.8775,128.9063 888.7838,128.75 C888.6275,128.4844 888.3463,128.3438 888.0494,128.3438 C887.7525,128.3438 887.5494,128.4375 887.3306,128.75 L887.1588,128.6719 Z "/><text fill="#000000" font-family="sans-serif" font-size="12" lengthAdjust="spacingAndGlyphs" textLength="185" x="905.315" y="137.1543">RegisterOrganizationController</text><line style="stroke: #A80036; stroke-width: 1.5;" x1="815.565" x2="1147.565" y1="149" y2="149"/><line style="stroke: #A80036; stroke-width: 1.5;" x1="815.565" x2="1147.565" y1="157" y2="157"/><text fill="#000000" font-family="sans-serif" font-size="11" lengthAdjust="spacingAndGlyphs" textLength="322" x="820.565" y="171.2104">+newOrganization(name,nameC,emailC,nameM,emailM)</text><text fill="#000000" font-family="sans-serif" font-size="11" lengthAdjust="spacingAndGlyphs" textLength="133" x="820.565" y="184.0151">+registerOrganization()</text><!--MD5=[690c9444a84a9a133b26ae44540ba6a6]
class RegisterOrganizationUI--><rect fill="#FEFECE" filter="url(#fq3f87vochiqb)" height="48" id="RegisterOrganizationUI" style="stroke: #A80036; stroke-width: 1.5;" width="170" x="896.565" y="8"/><ellipse cx="911.565" cy="24" fill="#ADD1B2" rx="11" ry="11" style="stroke: #A80036; stroke-width: 1.0;"/><path d="M913.9088,19.6719 C912.9713,19.2344 912.3775,19.0938 911.5025,19.0938 C908.8775,19.0938 906.8775,21.1719 906.8775,23.8906 L906.8775,25.0156 C906.8775,27.5938 908.9869,29.4844 911.8775,29.4844 C913.0963,29.4844 914.2525,29.1875 915.0025,28.6406 C915.5806,28.2344 915.9088,27.7813 915.9088,27.3906 C915.9088,26.9375 915.5181,26.5469 915.0494,26.5469 C914.8306,26.5469 914.6275,26.625 914.44,26.8125 C913.9869,27.2969 913.9869,27.2969 913.7994,27.3906 C913.3775,27.6563 912.69,27.7813 911.9244,27.7813 C909.8775,27.7813 908.5806,26.6875 908.5806,24.9844 L908.5806,23.8906 C908.5806,22.1094 909.8306,20.7969 911.565,20.7969 C912.1431,20.7969 912.7525,20.9531 913.2213,21.2031 C913.7056,21.4844 913.8775,21.7031 913.9713,22.1094 C914.0338,22.5156 914.065,22.6406 914.2056,22.7656 C914.3463,22.9063 914.5806,23.0156 914.7994,23.0156 C915.065,23.0156 915.3306,22.875 915.5025,22.6563 C915.6119,22.5 915.6431,22.3125 915.6431,21.8906 L915.6431,20.4688 C915.6431,20.0313 915.6275,19.9063 915.5338,19.75 C915.3775,19.4844 915.0963,19.3438 914.7994,19.3438 C914.5025,19.3438 914.2994,19.4375 914.0806,19.75 L913.9088,19.6719 Z "/><text fill="#000000" font-family="sans-serif" font-size="12" lengthAdjust="spacingAndGlyphs" textLength="138" x="925.565" y="28.1543">RegisterOrganizationUI</text><line style="stroke: #A80036; stroke-width: 1.5;" x1="897.565" x2="1065.565" y1="40" y2="40"/><line style="stroke: #A80036; stroke-width: 1.5;" x1="897.565" x2="1065.565" y1="48" y2="48"/><!--MD5=[f62aaae6a33751a54124a969b3e6d0f7]
link RegisterOrganizationUI to RegisterOrganizationController--><path d="M981.565,56.137 C981.565,71.825 981.565,93.003 981.565,111.555 " fill="none" id="RegisterOrganizationUI-&gt;RegisterOrganizationController" style="stroke: #A80036; stroke-width: 1.0; stroke-dasharray: 7.0,7.0;"/><polygon fill="#A80036" points="981.565,116.711,985.565,107.711,981.565,111.711,977.565,107.711,981.565,116.711" style="stroke: #A80036; stroke-width: 1.0;"/><!--MD5=[6b34e12a50a29485e6b670a597970921]
link RegisterOrganizationController to Platform--><path d="M1027.39,191.006 C1058.7,215.608 1100.44,248.401 1133.99,274.765 " fill="none" id="RegisterOrganizationController-&gt;Platform" style="stroke: #A80036; stroke-width: 1.0; stroke-dasharray: 7.0,7.0;"/><polygon fill="#A80036" points="1138.04,277.947,1133.4299,269.2437,1134.1068,274.8599,1128.4906,275.5368,1138.04,277.947" style="stroke: #A80036; stroke-width: 1.0;"/><!--MD5=[e1d7c73f5420ffe76554d4e820cf269f]
link RegisterOrganizationController to RegisterOrganization--><path d="M882.493,191.006 C834.657,208.391 775.567,229.867 719.418,250.274 " fill="none" id="RegisterOrganizationController-&gt;RegisterOrganization" style="stroke: #A80036; stroke-width: 1.0; stroke-dasharray: 7.0,7.0;"/><polygon fill="#A80036" points="714.689,251.992,724.5139,252.6791,719.3886,250.285,721.7827,245.1597,714.689,251.992" style="stroke: #A80036; stroke-width: 1.0;"/><!--MD5=[9fa3a86e20649d9ff786ad172f815d6a]
link RegisterOrganizationController to Organization--><path d="M959.375,191.194 C920.623,254.403 840.259,385.485 793.161,462.308 " fill="none" id="RegisterOrganizationController-&gt;Organization" style="stroke: #A80036; stroke-width: 1.0; stroke-dasharray: 7.0,7.0;"/><polygon fill="#A80036" points="790.386,466.833,798.5004,461.2512,792.9995,462.5704,791.6803,457.0696,790.386,466.833" style="stroke: #A80036; stroke-width: 1.0;"/><!--MD5=[f099c38114634f7b0b0cd46ad2e921be]
link RegisterOrganization to Organization--><path d="M605.733,390.269 C633.026,414.106 663.391,440.625 689.681,463.586 " fill="none" id="RegisterOrganization-&gt;Organization" style="stroke: #A80036; stroke-width: 1.0;"/><polygon fill="#A80036" points="693.529,466.947,689.3812,458.0142,689.7629,463.6581,684.119,464.0399,693.529,466.947" style="stroke: #A80036; stroke-width: 1.0;"/><text fill="#000000" font-family="sans-serif" font-size="13" lengthAdjust="spacingAndGlyphs" textLength="23" x="657.565" y="433.0669">has</text><text fill="#000000" font-family="sans-serif" font-size="13" lengthAdjust="spacingAndGlyphs" textLength="8" x="604.8021" y="409.6768">1</text><text fill="#000000" font-family="sans-serif" font-size="13" lengthAdjust="spacingAndGlyphs" textLength="7" x="678.0041" y="455.8782">*</text><!--MD5=[9ab745a68437b671d9799a0d8a108649]
link RegisterOrganization to Collaborator--><path d="M312.463,357.955 C193.713,382.667 63.189,419.577 27.5646,467 C-2.3326,506.799 0.414,537.279 27.5646,579 C73.3018,649.283 165.947,682.4284 235.865,697.8809 " fill="none" id="RegisterOrganization-&gt;Collaborator" style="stroke: #A80036; stroke-width: 1.0; stroke-dasharray: 7.0,7.0;"/><polygon fill="#A80036" points="240.859,698.9632,232.9099,693.1484,235.9723,697.9046,231.2162,700.9671,240.859,698.9632" style="stroke: #A80036; stroke-width: 1.0;"/><!--MD5=[71035276af37f8c32098ea94dcb63a91]
link RegisterOrganization to Manager--><path d="M742.594,356.755 C805.209,377.959 866.849,412.085 904.565,467 C942.172,521.758 916.054,598.483 889.068,651.199 " fill="none" id="RegisterOrganization-&gt;Manager" style="stroke: #A80036; stroke-width: 1.0; stroke-dasharray: 7.0,7.0;"/><polygon fill="#A80036" points="886.624,655.905,894.3209,649.7603,888.9278,651.4674,887.2207,646.0742,886.624,655.905" style="stroke: #A80036; stroke-width: 1.0;"/><!--MD5=[3c09197ded3d299a3ef22503ec3d39d2]
link RegisterOrganization to AutorizationFacade--><path d="M396.075,390.13 C330.754,423.974 254.936,463.258 203.154,490.089 " fill="none" id="RegisterOrganization-&gt;AutorizationFacade" style="stroke: #A80036; stroke-width: 1.0; stroke-dasharray: 7.0,7.0;"/><polygon fill="#A80036" points="198.532,492.483,208.3633,491.895,202.9717,490.1832,204.6836,484.7916,198.532,492.483" style="stroke: #A80036; stroke-width: 1.0;"/><!--MD5=[cbdba96ed9e74fc345e79cabf1d8732b]
link RegisterOrganization to AlgorithmGeneratePwd--><path d="M494.795,390.269 C479.659,421.802 462.27,458.031 449.562,484.504 " fill="none" id="RegisterOrganization-&gt;AlgorithmGeneratePwd" style="stroke: #A80036; stroke-width: 1.0; stroke-dasharray: 7.0,7.0;"/><polygon fill="#A80036" points="447.246,489.331,454.746,482.9474,449.4092,484.8232,447.5335,479.4863,447.246,489.331" style="stroke: #A80036; stroke-width: 1.0;"/><!--MD5=[45817597bcd7048073a670d966abfd17]
link Organization to Collaborator--><path d="M629.582,579.095 C560.61,609.02 476.997,645.297 414.928,672.2273 " fill="none" id="Organization-&gt;Collaborator" style="stroke: #A80036; stroke-width: 1.0;"/><polygon fill="#A80036" points="410.122,674.3128,419.9705,674.4003,414.7089,672.3228,416.7864,667.0612,410.122,674.3128" style="stroke: #A80036; stroke-width: 1.0;"/><text fill="#000000" font-family="sans-serif" font-size="13" lengthAdjust="spacingAndGlyphs" textLength="23" x="555.565" y="622.0669">has</text><text fill="#000000" font-family="sans-serif" font-size="13" lengthAdjust="spacingAndGlyphs" textLength="8" x="609.507" y="597.0296">1</text><text fill="#000000" font-family="sans-serif" font-size="13" lengthAdjust="spacingAndGlyphs" textLength="23" x="418.0767" y="667.6424">1..*</text><!--MD5=[bc039f41cf0b27fadee5cae63fc6e1fe]
link Organization to Manager--><path d="M784.849,579.095 C796.515,601.82 810.062,628.209 821.96,651.386 " fill="none" id="Organization-&gt;Manager" style="stroke: #A80036; stroke-width: 1.0;"/><polygon fill="#A80036" points="824.317,655.976,823.7654,646.1426,822.0336,651.5278,816.6484,649.796,824.317,655.976" style="stroke: #A80036; stroke-width: 1.0;"/><text fill="#000000" font-family="sans-serif" font-size="13" lengthAdjust="spacingAndGlyphs" textLength="23" x="808.565" y="622.0669">has</text><text fill="#000000" font-family="sans-serif" font-size="13" lengthAdjust="spacingAndGlyphs" textLength="8" x="779.8086" y="598.9192">1</text><text fill="#000000" font-family="sans-serif" font-size="13" lengthAdjust="spacingAndGlyphs" textLength="8" x="812.1852" y="644.9109">1</text><!--MD5=[62d467c82661cb2bd3ee8371855d9d07]
@startuml
skinparam classAttributeIconSize 0

class Collaborator {
  -String name
  -String email
  +Collaborator(name, email)
  +String getName()
  +String getEmail()
}

class Manager {
  -String name
  -String email
  +Manager(name,email)
  +String getName()
  +String getEmail()
}


class Organization {
  -String name
  -String NIF
  +Organization(name,Collaborator,Manager)
  +{static} Collaborator newColaborator(name, email)
  +{static} Manager newManager(name, email)
}

class Platform {
  + RegisterOrganization getRegisterOrganization()
  + AutorizationFacade getAutorizationFacade()
  + AlgorithmGeneratePwd getAlgorithmGeneratePwd()
}

class RegisterOrganization {
  +Organization newOrganization(name,NIF,nameC,emailC,nameM,emailM)
  +validateOrganization(Organization org)
  +registerOrganization(Organization org)
  -addOrganization(Organization org)
  -registerCollaboratorAsUser(Collaborator colab)
  -registerManagerAsUser(Manager man)
  -sendPwd(String email, String pwd)
}

class AutorizationFacade {
   +registerUser(name,email,pwd)
}

interface AlgorithmGeneratePwd <<interface>>{
   +String generatePassword(String name, String email)
}

class RegisterOrganizationController {
    +newOrganization(name,nameC,emailC,nameM,emailM)
    +registerOrganization()
}

class RegisterOrganizationUI {
}

RegisterOrganizationUI ..> RegisterOrganizationController
RegisterOrganizationController ..> Platform
RegisterOrganizationController ..> RegisterOrganization
RegisterOrganizationController ..> Organization

RegisterOrganization "1" - -> "*" Organization : has
RegisterOrganization ..> Collaborator
RegisterOrganization ..> Manager
RegisterOrganization ..> AutorizationFacade
RegisterOrganization ..> AlgorithmGeneratePwd
Organization "1" - -> "1..*" Collaborator: has
Organization "1" - -> "1" Manager: has
@enduml

PlantUML version 1.2020.11(Sat May 30 10:13:43 UTC 2020)
(GPL source distribution)
Java Runtime: Java(TM) SE Runtime Environment
JVM: Java HotSpot(TM) 64-Bit Server VM
Default Encoding: UTF-8
Language: en
Country: US
--></g></svg>