<?xml version="1.0" encoding="UTF-8" standalone="no"?><svg xmlns="http://www.w3.org/2000/svg" xmlns:xlink="http://www.w3.org/1999/xlink" contentScriptType="application/ecmascript" contentStyleType="text/css" height="564px" preserveAspectRatio="none" style="width:1407px;height:564px;" version="1.1" viewBox="0 0 1407 564" width="1407px" zoomAndPan="magnify"><defs><filter height="300%" id="f56jmw41vjwkd" width="300%" x="-1" y="-1"><feGaussianBlur result="blurOut" stdDeviation="2.0"/><feColorMatrix in="blurOut" result="blurOut2" type="matrix" values="0 0 0 0 0 0 0 0 0 0 0 0 0 0 0 0 0 0 .4 0"/><feOffset dx="4.0" dy="4.0" in="blurOut2" result="blurOut3"/><feBlend in="SourceGraphic" in2="blurOut3" mode="normal"/></filter></defs><g><!--MD5=[99b8db98afdc2c8404e39242ef4c1e65]
class Platform--><rect fill="#FEFECE" filter="url(#f56jmw41vjwkd)" height="40" id="Platform" style="stroke: #A80036; stroke-width: 1.5;" width="80" x="6" y="429.5659"/><ellipse cx="21" cy="445.5659" fill="#ADD1B2" rx="11" ry="11" style="stroke: #A80036; stroke-width: 1.0;"/><path d="M23.3438,441.2378 C22.4063,440.8003 21.8125,440.6597 20.9375,440.6597 C18.3125,440.6597 16.3125,442.7378 16.3125,445.4565 L16.3125,446.5815 C16.3125,449.1597 18.4219,451.0503 21.3125,451.0503 C22.5313,451.0503 23.6875,450.7534 24.4375,450.2065 C25.0156,449.8003 25.3438,449.3472 25.3438,448.9565 C25.3438,448.5034 24.9531,448.1128 24.4844,448.1128 C24.2656,448.1128 24.0625,448.1909 23.875,448.3784 C23.4219,448.8628 23.4219,448.8628 23.2344,448.9565 C22.8125,449.2222 22.125,449.3472 21.3594,449.3472 C19.3125,449.3472 18.0156,448.2534 18.0156,446.5503 L18.0156,445.4565 C18.0156,443.6753 19.2656,442.3628 21,442.3628 C21.5781,442.3628 22.1875,442.519 22.6563,442.769 C23.1406,443.0503 23.3125,443.269 23.4063,443.6753 C23.4688,444.0815 23.5,444.2065 23.6406,444.3315 C23.7813,444.4722 24.0156,444.5815 24.2344,444.5815 C24.5,444.5815 24.7656,444.4409 24.9375,444.2222 C25.0469,444.0659 25.0781,443.8784 25.0781,443.4565 L25.0781,442.0347 C25.0781,441.5972 25.0625,441.4722 24.9688,441.3159 C24.8125,441.0503 24.5313,440.9097 24.2344,440.9097 C23.9375,440.9097 23.7344,441.0034 23.5156,441.3159 L23.3438,441.2378 Z "/><text fill="#000000" font-family="sans-serif" font-size="12" lengthAdjust="spacingAndGlyphs" textLength="48" x="35" y="449.7202">Platform</text><line style="stroke: #A80036; stroke-width: 1.5;" x1="7" x2="85" y1="461.5659" y2="461.5659"/><!--MD5=[86c7c362de55a38b660185a1328fe18d]
class Organization--><rect fill="#FEFECE" filter="url(#f56jmw41vjwkd)" height="65.6094" id="Organization" style="stroke: #A80036; stroke-width: 1.5;" width="108" x="215" y="166.5659"/><ellipse cx="230" cy="182.5659" fill="#ADD1B2" rx="11" ry="11" style="stroke: #A80036; stroke-width: 1.0;"/><path d="M232.3438,178.2378 C231.4063,177.8003 230.8125,177.6597 229.9375,177.6597 C227.3125,177.6597 225.3125,179.7378 225.3125,182.4565 L225.3125,183.5815 C225.3125,186.1597 227.4219,188.0503 230.3125,188.0503 C231.5313,188.0503 232.6875,187.7534 233.4375,187.2065 C234.0156,186.8003 234.3438,186.3472 234.3438,185.9565 C234.3438,185.5034 233.9531,185.1128 233.4844,185.1128 C233.2656,185.1128 233.0625,185.1909 232.875,185.3784 C232.4219,185.8628 232.4219,185.8628 232.2344,185.9565 C231.8125,186.2222 231.125,186.3472 230.3594,186.3472 C228.3125,186.3472 227.0156,185.2534 227.0156,183.5503 L227.0156,182.4565 C227.0156,180.6753 228.2656,179.3628 230,179.3628 C230.5781,179.3628 231.1875,179.519 231.6563,179.769 C232.1406,180.0503 232.3125,180.269 232.4063,180.6753 C232.4688,181.0815 232.5,181.2065 232.6406,181.3315 C232.7813,181.4722 233.0156,181.5815 233.2344,181.5815 C233.5,181.5815 233.7656,181.4409 233.9375,181.2222 C234.0469,181.0659 234.0781,180.8784 234.0781,180.4565 L234.0781,179.0347 C234.0781,178.5972 234.0625,178.4722 233.9688,178.3159 C233.8125,178.0503 233.5313,177.9097 233.2344,177.9097 C232.9375,177.9097 232.7344,178.0034 232.5156,178.3159 L232.3438,178.2378 Z "/><text fill="#000000" font-family="sans-serif" font-size="12" lengthAdjust="spacingAndGlyphs" textLength="76" x="244" y="186.7202">Organization</text><line style="stroke: #A80036; stroke-width: 1.5;" x1="216" x2="322" y1="198.5659" y2="198.5659"/><text fill="#000000" font-family="sans-serif" font-size="11" lengthAdjust="spacingAndGlyphs" textLength="74" x="221" y="212.7764">-String name</text><text fill="#000000" font-family="sans-serif" font-size="11" lengthAdjust="spacingAndGlyphs" textLength="58" x="221" y="225.5811">-String NIF</text><!--MD5=[f483d6e5de34a60207b28a5563be5e8b]
class Collaborator--><rect fill="#FEFECE" filter="url(#f56jmw41vjwkd)" height="65.6094" id="Collaborator" style="stroke: #A80036; stroke-width: 1.5;" width="106" x="452" y="252.5659"/><ellipse cx="467" cy="268.5659" fill="#ADD1B2" rx="11" ry="11" style="stroke: #A80036; stroke-width: 1.0;"/><path d="M469.3438,264.2378 C468.4063,263.8003 467.8125,263.6597 466.9375,263.6597 C464.3125,263.6597 462.3125,265.7378 462.3125,268.4565 L462.3125,269.5815 C462.3125,272.1597 464.4219,274.0503 467.3125,274.0503 C468.5313,274.0503 469.6875,273.7534 470.4375,273.2065 C471.0156,272.8003 471.3438,272.3472 471.3438,271.9565 C471.3438,271.5034 470.9531,271.1128 470.4844,271.1128 C470.2656,271.1128 470.0625,271.1909 469.875,271.3784 C469.4219,271.8628 469.4219,271.8628 469.2344,271.9565 C468.8125,272.2222 468.125,272.3472 467.3594,272.3472 C465.3125,272.3472 464.0156,271.2534 464.0156,269.5503 L464.0156,268.4565 C464.0156,266.6753 465.2656,265.3628 467,265.3628 C467.5781,265.3628 468.1875,265.519 468.6563,265.769 C469.1406,266.0503 469.3125,266.269 469.4063,266.6753 C469.4688,267.0815 469.5,267.2065 469.6406,267.3315 C469.7813,267.4722 470.0156,267.5815 470.2344,267.5815 C470.5,267.5815 470.7656,267.4409 470.9375,267.2222 C471.0469,267.0659 471.0781,266.8784 471.0781,266.4565 L471.0781,265.0347 C471.0781,264.5972 471.0625,264.4722 470.9688,264.3159 C470.8125,264.0503 470.5313,263.9097 470.2344,263.9097 C469.9375,263.9097 469.7344,264.0034 469.5156,264.3159 L469.3438,264.2378 Z "/><text fill="#000000" font-family="sans-serif" font-size="12" lengthAdjust="spacingAndGlyphs" textLength="74" x="481" y="272.7202">Collaborator</text><line style="stroke: #A80036; stroke-width: 1.5;" x1="453" x2="557" y1="284.5659" y2="284.5659"/><text fill="#000000" font-family="sans-serif" font-size="11" lengthAdjust="spacingAndGlyphs" textLength="74" x="458" y="298.7764">-String name</text><text fill="#000000" font-family="sans-serif" font-size="11" lengthAdjust="spacingAndGlyphs" textLength="73" x="458" y="311.5811">-String email</text><!--MD5=[3fd616f346a44cd59a91eb10b19e157c]
class User--><rect fill="#FEFECE" filter="url(#f56jmw41vjwkd)" height="91.2188" id="User" style="stroke: #A80036; stroke-width: 1.5;" width="106" x="707.5" y="240.0659"/><ellipse cx="742.75" cy="256.0659" fill="#ADD1B2" rx="11" ry="11" style="stroke: #A80036; stroke-width: 1.0;"/><path d="M745.0938,251.7378 C744.1563,251.3003 743.5625,251.1597 742.6875,251.1597 C740.0625,251.1597 738.0625,253.2378 738.0625,255.9565 L738.0625,257.0815 C738.0625,259.6597 740.1719,261.5503 743.0625,261.5503 C744.2813,261.5503 745.4375,261.2534 746.1875,260.7065 C746.7656,260.3003 747.0938,259.8472 747.0938,259.4565 C747.0938,259.0034 746.7031,258.6128 746.2344,258.6128 C746.0156,258.6128 745.8125,258.6909 745.625,258.8784 C745.1719,259.3628 745.1719,259.3628 744.9844,259.4565 C744.5625,259.7222 743.875,259.8472 743.1094,259.8472 C741.0625,259.8472 739.7656,258.7534 739.7656,257.0503 L739.7656,255.9565 C739.7656,254.1753 741.0156,252.8628 742.75,252.8628 C743.3281,252.8628 743.9375,253.019 744.4063,253.269 C744.8906,253.5503 745.0625,253.769 745.1563,254.1753 C745.2188,254.5815 745.25,254.7065 745.3906,254.8315 C745.5313,254.9722 745.7656,255.0815 745.9844,255.0815 C746.25,255.0815 746.5156,254.9409 746.6875,254.7222 C746.7969,254.5659 746.8281,254.3784 746.8281,253.9565 L746.8281,252.5347 C746.8281,252.0972 746.8125,251.9722 746.7188,251.8159 C746.5625,251.5503 746.2813,251.4097 745.9844,251.4097 C745.6875,251.4097 745.4844,251.5034 745.2656,251.8159 L745.0938,251.7378 Z "/><text fill="#000000" font-family="sans-serif" font-size="12" lengthAdjust="spacingAndGlyphs" textLength="29" x="761.25" y="260.2202">User</text><line style="stroke: #A80036; stroke-width: 1.5;" x1="708.5" x2="812.5" y1="272.0659" y2="272.0659"/><text fill="#000000" font-family="sans-serif" font-size="11" lengthAdjust="spacingAndGlyphs" textLength="74" x="713.5" y="286.2764">-String name</text><text fill="#000000" font-family="sans-serif" font-size="11" lengthAdjust="spacingAndGlyphs" textLength="73" x="713.5" y="299.0811">-String email</text><text fill="#000000" font-family="sans-serif" font-size="11" lengthAdjust="spacingAndGlyphs" textLength="94" x="713.5" y="311.8857">-String password</text><text fill="#000000" font-family="sans-serif" font-size="11" lengthAdjust="spacingAndGlyphs" textLength="63" x="713.5" y="324.6904">-String role</text><!--MD5=[b645a18afb25b7e5623af7186d8eb36f]
class PaymentTransaction--><rect fill="#FEFECE" filter="url(#f56jmw41vjwkd)" height="78.4141" id="PaymentTransaction" style="stroke: #A80036; stroke-width: 1.5;" width="151" x="685" y="126.5659"/><ellipse cx="700" cy="142.5659" fill="#ADD1B2" rx="11" ry="11" style="stroke: #A80036; stroke-width: 1.0;"/><path d="M702.3438,138.2378 C701.4063,137.8003 700.8125,137.6597 699.9375,137.6597 C697.3125,137.6597 695.3125,139.7378 695.3125,142.4565 L695.3125,143.5815 C695.3125,146.1597 697.4219,148.0503 700.3125,148.0503 C701.5313,148.0503 702.6875,147.7534 703.4375,147.2065 C704.0156,146.8003 704.3438,146.3472 704.3438,145.9565 C704.3438,145.5034 703.9531,145.1128 703.4844,145.1128 C703.2656,145.1128 703.0625,145.1909 702.875,145.3784 C702.4219,145.8628 702.4219,145.8628 702.2344,145.9565 C701.8125,146.2222 701.125,146.3472 700.3594,146.3472 C698.3125,146.3472 697.0156,145.2534 697.0156,143.5503 L697.0156,142.4565 C697.0156,140.6753 698.2656,139.3628 700,139.3628 C700.5781,139.3628 701.1875,139.519 701.6563,139.769 C702.1406,140.0503 702.3125,140.269 702.4063,140.6753 C702.4688,141.0815 702.5,141.2065 702.6406,141.3315 C702.7813,141.4722 703.0156,141.5815 703.2344,141.5815 C703.5,141.5815 703.7656,141.4409 703.9375,141.2222 C704.0469,141.0659 704.0781,140.8784 704.0781,140.4565 L704.0781,139.0347 C704.0781,138.5972 704.0625,138.4722 703.9688,138.3159 C703.8125,138.0503 703.5313,137.9097 703.2344,137.9097 C702.9375,137.9097 702.7344,138.0034 702.5156,138.3159 L702.3438,138.2378 Z "/><text fill="#000000" font-family="sans-serif" font-size="12" lengthAdjust="spacingAndGlyphs" textLength="119" x="714" y="146.7202">PaymentTransaction</text><line style="stroke: #A80036; stroke-width: 1.5;" x1="686" x2="835" y1="158.5659" y2="158.5659"/><text fill="#000000" font-family="sans-serif" font-size="11" lengthAdjust="spacingAndGlyphs" textLength="51" x="691" y="172.7764">-String id</text><text fill="#000000" font-family="sans-serif" font-size="11" lengthAdjust="spacingAndGlyphs" textLength="71" x="691" y="185.5811">-Float amout</text><text fill="#000000" font-family="sans-serif" font-size="11" lengthAdjust="spacingAndGlyphs" textLength="91" x="691" y="198.3857">-Boolean payed</text><!--MD5=[b34797a66dc35cbf1d65f7e3ca75530e]
class Task--><rect fill="#FEFECE" filter="url(#f56jmw41vjwkd)" height="104.0234" id="Task" style="stroke: #A80036; stroke-width: 1.5;" width="143" x="1253" y="150.5659"/><ellipse cx="1306.25" cy="166.5659" fill="#ADD1B2" rx="11" ry="11" style="stroke: #A80036; stroke-width: 1.0;"/><path d="M1308.5938,162.2378 C1307.6563,161.8003 1307.0625,161.6597 1306.1875,161.6597 C1303.5625,161.6597 1301.5625,163.7378 1301.5625,166.4565 L1301.5625,167.5815 C1301.5625,170.1597 1303.6719,172.0503 1306.5625,172.0503 C1307.7813,172.0503 1308.9375,171.7534 1309.6875,171.2065 C1310.2656,170.8003 1310.5938,170.3472 1310.5938,169.9565 C1310.5938,169.5034 1310.2031,169.1128 1309.7344,169.1128 C1309.5156,169.1128 1309.3125,169.1909 1309.125,169.3784 C1308.6719,169.8628 1308.6719,169.8628 1308.4844,169.9565 C1308.0625,170.2222 1307.375,170.3472 1306.6094,170.3472 C1304.5625,170.3472 1303.2656,169.2534 1303.2656,167.5503 L1303.2656,166.4565 C1303.2656,164.6753 1304.5156,163.3628 1306.25,163.3628 C1306.8281,163.3628 1307.4375,163.519 1307.9063,163.769 C1308.3906,164.0503 1308.5625,164.269 1308.6563,164.6753 C1308.7188,165.0815 1308.75,165.2065 1308.8906,165.3315 C1309.0313,165.4722 1309.2656,165.5815 1309.4844,165.5815 C1309.75,165.5815 1310.0156,165.4409 1310.1875,165.2222 C1310.2969,165.0659 1310.3281,164.8784 1310.3281,164.4565 L1310.3281,163.0347 C1310.3281,162.5972 1310.3125,162.4722 1310.2188,162.3159 C1310.0625,162.0503 1309.7813,161.9097 1309.4844,161.9097 C1309.1875,161.9097 1308.9844,162.0034 1308.7656,162.3159 L1308.5938,162.2378 Z "/><text fill="#000000" font-family="sans-serif" font-size="12" lengthAdjust="spacingAndGlyphs" textLength="28" x="1326.75" y="170.7202">Task</text><line style="stroke: #A80036; stroke-width: 1.5;" x1="1254" x2="1395" y1="182.5659" y2="182.5659"/><text fill="#000000" font-family="sans-serif" font-size="11" lengthAdjust="spacingAndGlyphs" textLength="51" x="1259" y="196.7764">-String id</text><text fill="#000000" font-family="sans-serif" font-size="11" lengthAdjust="spacingAndGlyphs" textLength="131" x="1259" y="209.5811">-String briefDescription</text><text fill="#000000" font-family="sans-serif" font-size="11" lengthAdjust="spacingAndGlyphs" textLength="123" x="1259" y="222.3857">-Integer timeDuration</text><text fill="#000000" font-family="sans-serif" font-size="11" lengthAdjust="spacingAndGlyphs" textLength="102" x="1259" y="235.1904">-Float costPerHour</text><text fill="#000000" font-family="sans-serif" font-size="11" lengthAdjust="spacingAndGlyphs" textLength="116" x="1259" y="247.9951">-String taskCategory</text><!--MD5=[feb7363c14fdfe20e6ad09f57508482a]
class ExecutionTask--><rect fill="#FEFECE" filter="url(#f56jmw41vjwkd)" height="78.4141" id="ExecutionTask" style="stroke: #A80036; stroke-width: 1.5;" width="183" x="972" y="163.5659"/><ellipse cx="1016.25" cy="179.5659" fill="#ADD1B2" rx="11" ry="11" style="stroke: #A80036; stroke-width: 1.0;"/><path d="M1018.5938,175.2378 C1017.6563,174.8003 1017.0625,174.6597 1016.1875,174.6597 C1013.5625,174.6597 1011.5625,176.7378 1011.5625,179.4565 L1011.5625,180.5815 C1011.5625,183.1597 1013.6719,185.0503 1016.5625,185.0503 C1017.7813,185.0503 1018.9375,184.7534 1019.6875,184.2065 C1020.2656,183.8003 1020.5938,183.3472 1020.5938,182.9565 C1020.5938,182.5034 1020.2031,182.1128 1019.7344,182.1128 C1019.5156,182.1128 1019.3125,182.1909 1019.125,182.3784 C1018.6719,182.8628 1018.6719,182.8628 1018.4844,182.9565 C1018.0625,183.2222 1017.375,183.3472 1016.6094,183.3472 C1014.5625,183.3472 1013.2656,182.2534 1013.2656,180.5503 L1013.2656,179.4565 C1013.2656,177.6753 1014.5156,176.3628 1016.25,176.3628 C1016.8281,176.3628 1017.4375,176.519 1017.9063,176.769 C1018.3906,177.0503 1018.5625,177.269 1018.6563,177.6753 C1018.7188,178.0815 1018.75,178.2065 1018.8906,178.3315 C1019.0313,178.4722 1019.2656,178.5815 1019.4844,178.5815 C1019.75,178.5815 1020.0156,178.4409 1020.1875,178.2222 C1020.2969,178.0659 1020.3281,177.8784 1020.3281,177.4565 L1020.3281,176.0347 C1020.3281,175.5972 1020.3125,175.4722 1020.2188,175.3159 C1020.0625,175.0503 1019.7813,174.9097 1019.4844,174.9097 C1019.1875,174.9097 1018.9844,175.0034 1018.7656,175.3159 L1018.5938,175.2378 Z "/><text fill="#000000" font-family="sans-serif" font-size="12" lengthAdjust="spacingAndGlyphs" textLength="86" x="1036.75" y="183.7202">ExecutionTask</text><line style="stroke: #A80036; stroke-width: 1.5;" x1="973" x2="1154" y1="195.5659" y2="195.5659"/><text fill="#000000" font-family="sans-serif" font-size="11" lengthAdjust="spacingAndGlyphs" textLength="91" x="978" y="209.7764">-String endDate</text><text fill="#000000" font-family="sans-serif" font-size="11" lengthAdjust="spacingAndGlyphs" textLength="67" x="978" y="222.5811">-Float delay</text><text fill="#000000" font-family="sans-serif" font-size="11" lengthAdjust="spacingAndGlyphs" textLength="171" x="978" y="235.3857">-String briefDescriptionQuality</text><!--MD5=[1f687b5315377fe49fca59b457947463]
class Freelancer--><rect fill="#FEFECE" filter="url(#f56jmw41vjwkd)" height="142.4375" id="Freelancer" style="stroke: #A80036; stroke-width: 1.5;" width="149" x="989" y="276.5659"/><ellipse cx="1027.4" cy="292.5659" fill="#ADD1B2" rx="11" ry="11" style="stroke: #A80036; stroke-width: 1.0;"/><path d="M1029.7438,288.2378 C1028.8063,287.8003 1028.2125,287.6597 1027.3375,287.6597 C1024.7125,287.6597 1022.7125,289.7378 1022.7125,292.4565 L1022.7125,293.5815 C1022.7125,296.1597 1024.8219,298.0503 1027.7125,298.0503 C1028.9313,298.0503 1030.0875,297.7534 1030.8375,297.2065 C1031.4156,296.8003 1031.7438,296.3472 1031.7438,295.9565 C1031.7438,295.5034 1031.3531,295.1128 1030.8844,295.1128 C1030.6656,295.1128 1030.4625,295.1909 1030.275,295.3784 C1029.8219,295.8628 1029.8219,295.8628 1029.6344,295.9565 C1029.2125,296.2222 1028.525,296.3472 1027.7594,296.3472 C1025.7125,296.3472 1024.4156,295.2534 1024.4156,293.5503 L1024.4156,292.4565 C1024.4156,290.6753 1025.6656,289.3628 1027.4,289.3628 C1027.9781,289.3628 1028.5875,289.519 1029.0563,289.769 C1029.5406,290.0503 1029.7125,290.269 1029.8063,290.6753 C1029.8688,291.0815 1029.9,291.2065 1030.0406,291.3315 C1030.1813,291.4722 1030.4156,291.5815 1030.6344,291.5815 C1030.9,291.5815 1031.1656,291.4409 1031.3375,291.2222 C1031.4469,291.0659 1031.4781,290.8784 1031.4781,290.4565 L1031.4781,289.0347 C1031.4781,288.5972 1031.4625,288.4722 1031.3688,288.3159 C1031.2125,288.0503 1030.9313,287.9097 1030.6344,287.9097 C1030.3375,287.9097 1030.1344,288.0034 1029.9156,288.3159 L1029.7438,288.2378 Z "/><text fill="#000000" font-family="sans-serif" font-size="12" lengthAdjust="spacingAndGlyphs" textLength="65" x="1046.6" y="296.7202">Freelancer</text><line style="stroke: #A80036; stroke-width: 1.5;" x1="990" x2="1137" y1="308.5659" y2="308.5659"/><text fill="#000000" font-family="sans-serif" font-size="11" lengthAdjust="spacingAndGlyphs" textLength="51" x="995" y="322.7764">-String id</text><text fill="#000000" font-family="sans-serif" font-size="11" lengthAdjust="spacingAndGlyphs" textLength="74" x="995" y="335.5811">-String name</text><text fill="#000000" font-family="sans-serif" font-size="11" lengthAdjust="spacingAndGlyphs" textLength="137" x="995" y="348.3857">-String levelOfExpertise</text><text fill="#000000" font-family="sans-serif" font-size="11" lengthAdjust="spacingAndGlyphs" textLength="73" x="995" y="361.1904">-String email</text><text fill="#000000" font-family="sans-serif" font-size="11" lengthAdjust="spacingAndGlyphs" textLength="58" x="995" y="373.9951">-String NIF</text><text fill="#000000" font-family="sans-serif" font-size="11" lengthAdjust="spacingAndGlyphs" textLength="68" x="995" y="386.7998">-String IBAN</text><text fill="#000000" font-family="sans-serif" font-size="11" lengthAdjust="spacingAndGlyphs" textLength="79" x="995" y="399.6045">-String adress</text><text fill="#000000" font-family="sans-serif" font-size="11" lengthAdjust="spacingAndGlyphs" textLength="83" x="995" y="412.4092">-String country</text><!--MD5=[7640e466c042ba2d6f9c19c816f7f0fc]
link Platform to Organization--><path d="M64.7118,429.5299 C102.6097,386.6589 191.897,285.6549 238.508,232.9279 " fill="none" id="Platform-Organization" style="stroke: #A80036; stroke-width: 1.0;"/><polygon fill="#000000" points="139.5,288.5659,142.5,282.5659,145.5,288.5659,139.5,288.5659" style="stroke: #000000; stroke-width: 1.0;"/><text fill="#000000" font-family="sans-serif" font-size="13" lengthAdjust="spacingAndGlyphs" textLength="54" x="117" y="303.6328">contains</text><text fill="#000000" font-family="sans-serif" font-size="13" lengthAdjust="spacingAndGlyphs" textLength="8" x="61.0334" y="418.5276">1</text><text fill="#000000" font-family="sans-serif" font-size="13" lengthAdjust="spacingAndGlyphs" textLength="7" x="225.4532" y="252.32">*</text><!--MD5=[22697d4d863c2e08ab1d60ca0d61f844]
link Platform to Freelancer--><path d="M74.7305,469.7455 C115.128,497.0975 193.488,542.5659 268,542.5659 C268,542.5659 268,542.5659 761.5,542.5659 C843.573,542.5659 872.591,547.3666 942,503.5659 C975.138,482.654 1002.738,449.2412 1023.13,418.6929 " fill="none" id="Platform-Freelancer" style="stroke: #A80036; stroke-width: 1.0;"/><text fill="#000000" font-family="sans-serif" font-size="13" lengthAdjust="spacingAndGlyphs" textLength="23" x="487" y="538.6328">has</text><polygon fill="#000000" points="513,532.6323,519,535.6323,513,538.6323,513,532.6323" style="stroke: #000000; stroke-width: 1.0;"/><text fill="#000000" font-family="sans-serif" font-size="13" lengthAdjust="spacingAndGlyphs" textLength="8" x="73.686" y="489.616">1</text><text fill="#000000" font-family="sans-serif" font-size="13" lengthAdjust="spacingAndGlyphs" textLength="23" x="994.7765" y="438.8525">0..*</text><!--MD5=[45817597bcd7048073a670d966abfd17]
link Organization to Collaborator--><path d="M323.098,219.0809 C361.663,233.2539 413.59,252.3379 451.918,266.4249 " fill="none" id="Organization-Collaborator" style="stroke: #A80036; stroke-width: 1.0;"/><text fill="#000000" font-family="sans-serif" font-size="13" lengthAdjust="spacingAndGlyphs" textLength="54" x="354" y="227.6328">contains</text><polygon fill="#000000" points="411,221.6323,417,224.6323,411,227.6323,411,221.6323" style="stroke: #000000; stroke-width: 1.0;"/><text fill="#000000" font-family="sans-serif" font-size="13" lengthAdjust="spacingAndGlyphs" textLength="8" x="330.9049" y="234.8131">1</text><text fill="#000000" font-family="sans-serif" font-size="13" lengthAdjust="spacingAndGlyphs" textLength="8" x="435.8908" y="276.8916">1</text><!--MD5=[4078351e3988aa35b1504a42837f2ab1]
link Organization to Task--><path d="M292.313,166.4619 C329.634,115.4789 409.958,23.5659 504,23.5659 C504,23.5659 504,23.5659 1064.5,23.5659 C1154.41,23.5659 1235.72,97.4759 1282.35,150.3109 " fill="none" id="Organization-Task" style="stroke: #A80036; stroke-width: 1.0;"/><text fill="#000000" font-family="sans-serif" font-size="13" lengthAdjust="spacingAndGlyphs" textLength="23" x="742.5" y="19.6328">has</text><polygon fill="#000000" points="768.5,13.6323,774.5,16.6323,768.5,19.6323,768.5,13.6323" style="stroke: #000000; stroke-width: 1.0;"/><text fill="#000000" font-family="sans-serif" font-size="13" lengthAdjust="spacingAndGlyphs" textLength="8" x="288.1152" y="155.5864">1</text><text fill="#000000" font-family="sans-serif" font-size="13" lengthAdjust="spacingAndGlyphs" textLength="7" x="1269.2158" y="139.3556">*</text><!--MD5=[da2d560b3f89d8c66478284968d27dfa]
link Organization to PaymentTransaction--><path d="M323.317,195.8629 C410.786,189.7869 584.981,177.6879 684.737,170.7589 " fill="none" id="Organization-PaymentTransaction" style="stroke: #A80036; stroke-width: 1.0;"/><text fill="#000000" font-family="sans-serif" font-size="13" lengthAdjust="spacingAndGlyphs" textLength="54" x="471.5" y="175.6328">contains</text><polygon fill="#000000" points="528.5,169.6323,534.5,172.6323,528.5,175.6323,528.5,169.6323" style="stroke: #000000; stroke-width: 1.0;"/><text fill="#000000" font-family="sans-serif" font-size="13" lengthAdjust="spacingAndGlyphs" textLength="8" x="331.1533" y="208.4752">1</text><text fill="#000000" font-family="sans-serif" font-size="13" lengthAdjust="spacingAndGlyphs" textLength="7" x="669.9345" y="184.0614">*</text><!--MD5=[c32d3c60a61e5638fef4971a1b3a8306]
link Collaborator to PaymentTransaction--><path d="M558.183,261.7159 C586.831,248.5429 622.948,231.8069 655,216.5659 C664.663,211.9709 674.804,207.0929 684.81,202.2459 " fill="none" id="Collaborator-PaymentTransaction" style="stroke: #A80036; stroke-width: 1.0;"/><text fill="#000000" font-family="sans-serif" font-size="13" lengthAdjust="spacingAndGlyphs" textLength="43" x="593.5" y="212.6328">makes</text><polygon fill="#000000" points="639.5,206.6323,645.5,209.6323,639.5,212.6323,639.5,206.6323" style="stroke: #000000; stroke-width: 1.0;"/><text fill="#000000" font-family="sans-serif" font-size="13" lengthAdjust="spacingAndGlyphs" textLength="8" x="565.867" y="271.6209">1</text><text fill="#000000" font-family="sans-serif" font-size="13" lengthAdjust="spacingAndGlyphs" textLength="7" x="670.0147" y="218.6479">*</text><!--MD5=[04ce0ecdab38a3951889ff50c232570f]
link Collaborator to User--><path d="M558.218,285.5659 C601.845,285.5659 663.742,285.5659 707.35,285.5659 " fill="none" id="Collaborator-User" style="stroke: #A80036; stroke-width: 1.0;"/><text fill="#000000" font-family="sans-serif" font-size="13" lengthAdjust="spacingAndGlyphs" textLength="52" x="589" y="281.6328">acts like</text><polygon fill="#000000" points="644,275.6323,650,278.6323,644,281.6323,644,275.6323" style="stroke: #000000; stroke-width: 1.0;"/><text fill="#000000" font-family="sans-serif" font-size="13" lengthAdjust="spacingAndGlyphs" textLength="7" x="565.8395" y="298.6758">*</text><text fill="#000000" font-family="sans-serif" font-size="13" lengthAdjust="spacingAndGlyphs" textLength="8" x="691.6705" y="298.6349">1</text><!--MD5=[f919d21ae7a75ef5ececc535e09d5009]
link Collaborator to Task--><path d="M532.344,318.5989 C547.042,334.8519 566.665,353.3209 588,364.5659 C812.722,483.0053 928.908,552.3697 1155,436.5659 C1229.08,398.6239 1278,311.2759 1303.2,254.6919 " fill="none" id="Collaborator-Task" style="stroke: #A80036; stroke-width: 1.0;"/><text fill="#000000" font-family="sans-serif" font-size="13" lengthAdjust="spacingAndGlyphs" textLength="43" x="876" y="483.6328">Create</text><polygon fill="#000000" points="922,477.6323,928,480.6323,922,483.6323,922,477.6323" style="stroke: #000000; stroke-width: 1.0;"/><text fill="#000000" font-family="sans-serif" font-size="13" lengthAdjust="spacingAndGlyphs" textLength="8" x="528.6481" y="338.1873">1</text><text fill="#000000" font-family="sans-serif" font-size="13" lengthAdjust="spacingAndGlyphs" textLength="23" x="1275.7925" y="274.7784">0..*</text><!--MD5=[d2c3650dbd07e79cdad2ffd4a879dec6]
link Collaborator to Freelancer--><path d="M558.045,315.8629 C592.738,334.2569 640.059,355.9799 685,365.5659 C788.794,387.7049 912.13,374.6819 988.878,362.0909 " fill="none" id="Collaborator-Freelancer" style="stroke: #A80036; stroke-width: 1.0;"/><text fill="#000000" font-family="sans-serif" font-size="13" lengthAdjust="spacingAndGlyphs" textLength="49" x="729.5" y="361.6328">register</text><polygon fill="#000000" points="781.5,355.6323,787.5,358.6323,781.5,361.6323,781.5,355.6323" style="stroke: #000000; stroke-width: 1.0;"/><text fill="#000000" font-family="sans-serif" font-size="13" lengthAdjust="spacingAndGlyphs" textLength="8" x="566.067" y="333.2818">1</text><text fill="#000000" font-family="sans-serif" font-size="13" lengthAdjust="spacingAndGlyphs" textLength="7" x="973.8217" y="376.4134">*</text><!--MD5=[f6802b286771c18a16ea4be983074371]
link PaymentTransaction to Freelancer--><path d="M826.072,204.6099 C873.835,233.4899 938.963,272.8689 988.77,302.9849 " fill="none" id="PaymentTransaction-Freelancer" style="stroke: #A80036; stroke-width: 1.0;"/><text fill="#000000" font-family="sans-serif" font-size="13" lengthAdjust="spacingAndGlyphs" textLength="61" x="867" y="225.6328">regarding</text><polygon fill="#000000" points="931,219.6323,937,222.6323,931,225.6323,931,219.6323" style="stroke: #000000; stroke-width: 1.0;"/><text fill="#000000" font-family="sans-serif" font-size="13" lengthAdjust="spacingAndGlyphs" textLength="8" x="829.0395" y="224.9424">1</text><text fill="#000000" font-family="sans-serif" font-size="13" lengthAdjust="spacingAndGlyphs" textLength="8" x="973.02" y="311.3867">1</text><!--MD5=[271ce7fefd7250ebaca83b70495774bd]
link PaymentTransaction to Task--><path d="M836.357,152.7619 C915.907,141.2909 1045.12,128.7839 1155,146.5659 C1187.87,151.8839 1222.99,162.6819 1252.62,173.3889 " fill="none" id="PaymentTransaction-Task" style="stroke: #A80036; stroke-width: 1.0;"/><text fill="#000000" font-family="sans-serif" font-size="13" lengthAdjust="spacingAndGlyphs" textLength="61" x="1026.5" y="133.6328">regarding</text><polygon fill="#000000" points="1090.5,127.6323,1096.5,130.6323,1090.5,133.6323,1090.5,127.6323" style="stroke: #000000; stroke-width: 1.0;"/><text fill="#000000" font-family="sans-serif" font-size="13" lengthAdjust="spacingAndGlyphs" textLength="8" x="843.9684" y="164.3099">1</text><text fill="#000000" font-family="sans-serif" font-size="13" lengthAdjust="spacingAndGlyphs" textLength="8" x="1236.7949" y="183.226">1</text><!--MD5=[54cd5b92152f116e1ce633be05b97b77]
link PaymentTransaction to ExecutionTask--><path d="M836.291,174.7599 C877.382,179.8109 928.653,186.1129 971.989,191.4399 " fill="none" id="PaymentTransaction-ExecutionTask" style="stroke: #A80036; stroke-width: 1.0;"/><text fill="#000000" font-family="sans-serif" font-size="13" lengthAdjust="spacingAndGlyphs" textLength="23" x="886" y="174.6328">has</text><polygon fill="#000000" points="912,168.6323,918,171.6323,912,174.6323,912,168.6323" style="stroke: #000000; stroke-width: 1.0;"/><text fill="#000000" font-family="sans-serif" font-size="13" lengthAdjust="spacingAndGlyphs" textLength="8" x="843.8961" y="188.4046">1</text><text fill="#000000" font-family="sans-serif" font-size="13" lengthAdjust="spacingAndGlyphs" textLength="7" x="957.1209" y="203.1949">*</text><!--MD5=[e7fe6a1136c68b24fb949ad86f020447]
link ExecutionTask to Task--><path d="M1155.09,202.5659 C1187.18,202.5659 1222.79,202.5659 1252.96,202.5659 " fill="none" id="ExecutionTask-Task" style="stroke: #A80036; stroke-width: 1.0;"/><text fill="#000000" font-family="sans-serif" font-size="13" lengthAdjust="spacingAndGlyphs" textLength="23" x="1186" y="198.6328">has</text><polygon fill="#000000" points="1212,192.6323,1218,195.6323,1212,198.6323,1212,192.6323" style="stroke: #000000; stroke-width: 1.0;"/><text fill="#000000" font-family="sans-serif" font-size="13" lengthAdjust="spacingAndGlyphs" textLength="8" x="1163.006" y="215.2423">1</text><text fill="#000000" font-family="sans-serif" font-size="13" lengthAdjust="spacingAndGlyphs" textLength="8" x="1237.1699" y="215.4119">1</text><!--MD5=[b4b6c1ff9c803d8207b36238c02005ea]
link Freelancer to Task--><path d="M1138.03,306.4029 C1174.07,286.2239 1217.27,262.0359 1252.91,242.0829 " fill="none" id="Freelancer-Task" style="stroke: #A80036; stroke-width: 1.0;"/><text fill="#000000" font-family="sans-serif" font-size="13" lengthAdjust="spacingAndGlyphs" textLength="23" x="1186" y="257.6328">has</text><polygon fill="#000000" points="1212,251.6323,1218,254.6323,1212,257.6323,1212,251.6323" style="stroke: #000000; stroke-width: 1.0;"/><text fill="#000000" font-family="sans-serif" font-size="13" lengthAdjust="spacingAndGlyphs" textLength="8" x="1146.1284" y="314.9826">1</text><text fill="#000000" font-family="sans-serif" font-size="13" lengthAdjust="spacingAndGlyphs" textLength="7" x="1238.1663" y="259.0041">*</text><!--MD5=[1e58c27dcc8e7887461949f938f0272b]
@startuml
skinparam classAttributeIconSize 0
hide methods
left to right direction


class Platform{

}

class Organization{
-String name
-String NIF
}

class Collaborator {
 -String name
 -String email
}

class User{
-String name
-String email
-String password
-String role
}

class PaymentTransaction {
-String id
-Float amout
-Boolean payed
}

class Task{
-String id
-String briefDescription
-Integer timeDuration
-Float costPerHour
-String taskCategory
}

class ExecutionTask{
-String endDate
-Float delay
-String briefDescriptionQuality
}

class Freelancer{
-String id
-String name
-String levelOfExpertise
-String email
-String NIF
-String IBAN
-String adress
-String country
}

Platform"1" - - "*"Organization : contains >
Platform"1" - - "0..*"Freelancer : has >

Organization"1" - - "1"Collaborator : contains >
Organization"1" - - "*"Task : has >
Organization"1" - - "*"PaymentTransaction : contains >

Collaborator"1" - - "*" PaymentTransaction : makes >
Collaborator"*" - - "1" User : acts like >
Collaborator"1" - - "0..*" Task : Create >
Collaborator"1" - - "*" Freelancer : register >

PaymentTransaction"1" - - "1"Freelancer : regarding >
PaymentTransaction"1" - - "1"Task : regarding >
PaymentTransaction"1" - - "*"ExecutionTask : has >

ExecutionTask"1" - - "1"Task: has >

Freelancer"1" - - "*"Task : has >
@enduml

PlantUML version 1.2020.12(Sat Jun 06 10:54:15 UTC 2020)
(GPL source distribution)
Java Runtime: Java(TM) SE Runtime Environment
JVM: Java HotSpot(TM) 64-Bit Server VM
Default Encoding: UTF-8
Language: en
Country: US
--></g></svg>