<?xml version="1.0" encoding="UTF-8" standalone="no"?><svg xmlns="http://www.w3.org/2000/svg" xmlns:xlink="http://www.w3.org/1999/xlink" contentScriptType="application/ecmascript" contentStyleType="text/css" height="794px" preserveAspectRatio="none" style="width:3719px;height:794px;" version="1.1" viewBox="0 0 3719 794" width="3719px" zoomAndPan="magnify"><defs><filter height="300%" id="fzdhv9rjdk157" width="300%" x="-1" y="-1"><feGaussianBlur result="blurOut" stdDeviation="2.0"/><feColorMatrix in="blurOut" result="blurOut2" type="matrix" values="0 0 0 0 0 0 0 0 0 0 0 0 0 0 0 0 0 0 .4 0"/><feOffset dx="4.0" dy="4.0" in="blurOut2" result="blurOut3"/><feBlend in="SourceGraphic" in2="blurOut3" mode="normal"/></filter></defs><g><!--MD5=[9681dc6e01e10c6b4fe06895ae94f592]
cluster UI--><polygon fill="#FFFFFF" filter="url(#fzdhv9rjdk157)" points="16,42,38,42,45,64.2969,251,64.2969,251,133,16,133,16,42" style="stroke: #000000; stroke-width: 1.5;"/><line style="stroke: #000000; stroke-width: 1.5;" x1="16" x2="45" y1="64.2969" y2="64.2969"/><text fill="#000000" font-family="sans-serif" font-size="14" font-weight="bold" lengthAdjust="spacingAndGlyphs" textLength="16" x="20" y="56.9951">UI</text><!--MD5=[ed1d20ea533a2a0e7df5ba3c35e56ced]
cluster Controllers--><polygon fill="#FFFFFF" filter="url(#fzdhv9rjdk157)" points="284,6,380,6,387,28.2969,1034,28.2969,1034,169,284,169,284,6" style="stroke: #000000; stroke-width: 1.5;"/><line style="stroke: #000000; stroke-width: 1.5;" x1="284" x2="387" y1="28.2969" y2="28.2969"/><text fill="#000000" font-family="sans-serif" font-size="14" font-weight="bold" lengthAdjust="spacingAndGlyphs" textLength="90" x="288" y="20.9951">Controllers</text><!--MD5=[466a1ffe7f126f15fe473baf5e9e885f]
cluster Autorization--><polygon fill="#FFFFFF" filter="url(#fzdhv9rjdk157)" points="886.5,193,995.5,193,1002.5,215.2969,1027.5,215.2969,1027.5,306,886.5,306,886.5,193" style="stroke: #000000; stroke-width: 1.5;"/><line style="stroke: #000000; stroke-width: 1.5;" x1="886.5" x2="1002.5" y1="215.2969" y2="215.2969"/><text fill="#000000" font-family="sans-serif" font-size="14" font-weight="bold" lengthAdjust="spacingAndGlyphs" textLength="103" x="890.5" y="207.9951">Autorization</text><!--MD5=[121a8bf1197281ab89ed693fab589f94]
cluster Domain--><polygon fill="#FFFFFF" filter="url(#fzdhv9rjdk157)" points="901,330,968,330,975,352.2969,3697,352.2969,3697,782,901,782,901,330" style="stroke: #000000; stroke-width: 1.5;"/><line style="stroke: #000000; stroke-width: 1.5;" x1="901" x2="975" y1="352.2969" y2="352.2969"/><text fill="#000000" font-family="sans-serif" font-size="14" font-weight="bold" lengthAdjust="spacingAndGlyphs" textLength="61" x="905" y="344.9951">Domain</text><!--MD5=[e472615a113cc15971a8fcaedb5e2163]
class CreatePaymentTransactionUI--><rect fill="#FEFECE" filter="url(#fzdhv9rjdk157)" height="40" id="CreatePaymentTransactionUI" style="stroke: #A80036; stroke-width: 1.5;" width="203" x="32" y="77"/><ellipse cx="47" cy="93" fill="#ADD1B2" rx="11" ry="11" style="stroke: #A80036; stroke-width: 1.0;"/><path d="M49.3438,88.6719 C48.4063,88.2344 47.8125,88.0938 46.9375,88.0938 C44.3125,88.0938 42.3125,90.1719 42.3125,92.8906 L42.3125,94.0156 C42.3125,96.5938 44.4219,98.4844 47.3125,98.4844 C48.5313,98.4844 49.6875,98.1875 50.4375,97.6406 C51.0156,97.2344 51.3438,96.7813 51.3438,96.3906 C51.3438,95.9375 50.9531,95.5469 50.4844,95.5469 C50.2656,95.5469 50.0625,95.625 49.875,95.8125 C49.4219,96.2969 49.4219,96.2969 49.2344,96.3906 C48.8125,96.6563 48.125,96.7813 47.3594,96.7813 C45.3125,96.7813 44.0156,95.6875 44.0156,93.9844 L44.0156,92.8906 C44.0156,91.1094 45.2656,89.7969 47,89.7969 C47.5781,89.7969 48.1875,89.9531 48.6563,90.2031 C49.1406,90.4844 49.3125,90.7031 49.4063,91.1094 C49.4688,91.5156 49.5,91.6406 49.6406,91.7656 C49.7813,91.9063 50.0156,92.0156 50.2344,92.0156 C50.5,92.0156 50.7656,91.875 50.9375,91.6563 C51.0469,91.5 51.0781,91.3125 51.0781,90.8906 L51.0781,89.4688 C51.0781,89.0313 51.0625,88.9063 50.9688,88.75 C50.8125,88.4844 50.5313,88.3438 50.2344,88.3438 C49.9375,88.3438 49.7344,88.4375 49.5156,88.75 L49.3438,88.6719 Z "/><text fill="#000000" font-family="sans-serif" font-size="12" lengthAdjust="spacingAndGlyphs" textLength="171" x="61" y="97.1543">CreatePaymentTransactionUI</text><line style="stroke: #A80036; stroke-width: 1.5;" x1="33" x2="234" y1="109" y2="109"/><!--MD5=[9ab0068e71df7f673644752c40fe3ac4]
class CreatePaymentTransactionController--><rect fill="#FEFECE" filter="url(#fzdhv9rjdk157)" height="112.0234" id="CreatePaymentTransactionController" style="stroke: #A80036; stroke-width: 1.5;" width="535" x="300" y="41"/><ellipse cx="454.25" cy="57" fill="#ADD1B2" rx="11" ry="11" style="stroke: #A80036; stroke-width: 1.0;"/><path d="M456.5938,52.6719 C455.6563,52.2344 455.0625,52.0938 454.1875,52.0938 C451.5625,52.0938 449.5625,54.1719 449.5625,56.8906 L449.5625,58.0156 C449.5625,60.5938 451.6719,62.4844 454.5625,62.4844 C455.7813,62.4844 456.9375,62.1875 457.6875,61.6406 C458.2656,61.2344 458.5938,60.7813 458.5938,60.3906 C458.5938,59.9375 458.2031,59.5469 457.7344,59.5469 C457.5156,59.5469 457.3125,59.625 457.125,59.8125 C456.6719,60.2969 456.6719,60.2969 456.4844,60.3906 C456.0625,60.6563 455.375,60.7813 454.6094,60.7813 C452.5625,60.7813 451.2656,59.6875 451.2656,57.9844 L451.2656,56.8906 C451.2656,55.1094 452.5156,53.7969 454.25,53.7969 C454.8281,53.7969 455.4375,53.9531 455.9063,54.2031 C456.3906,54.4844 456.5625,54.7031 456.6563,55.1094 C456.7188,55.5156 456.75,55.6406 456.8906,55.7656 C457.0313,55.9063 457.2656,56.0156 457.4844,56.0156 C457.75,56.0156 458.0156,55.875 458.1875,55.6563 C458.2969,55.5 458.3281,55.3125 458.3281,54.8906 L458.3281,53.4688 C458.3281,53.0313 458.3125,52.9063 458.2188,52.75 C458.0625,52.4844 457.7813,52.3438 457.4844,52.3438 C457.1875,52.3438 456.9844,52.4375 456.7656,52.75 L456.5938,52.6719 Z "/><text fill="#000000" font-family="sans-serif" font-size="12" lengthAdjust="spacingAndGlyphs" textLength="218" x="474.75" y="61.1543">CreatePaymentTransactionController</text><line style="stroke: #A80036; stroke-width: 1.5;" x1="301" x2="834" y1="73" y2="73"/><line style="stroke: #A80036; stroke-width: 1.0;" x1="301" x2="834" y1="81" y2="81"/><text fill="#000000" font-family="sans-serif" font-size="11" lengthAdjust="spacingAndGlyphs" textLength="81" x="306" y="95.2104">+getTaskList()</text><text fill="#000000" font-family="sans-serif" font-size="11" lengthAdjust="spacingAndGlyphs" textLength="116" x="306" y="108.0151">+getFreelancerList()</text><text fill="#000000" font-family="sans-serif" font-size="11" lengthAdjust="spacingAndGlyphs" textLength="523" x="306" y="120.8198">+newPaymentTransaction(task, freelancer, transid, endDate, delay, briefDescriptionQuality)</text><text fill="#000000" font-family="sans-serif" font-size="11" lengthAdjust="spacingAndGlyphs" textLength="172" x="306" y="133.6245">+calculatePayment(free, task)</text><text fill="#000000" font-family="sans-serif" font-size="11" lengthAdjust="spacingAndGlyphs" textLength="176" x="306" y="146.4292">+registerPaymentTransaction()</text><!--MD5=[8c32a229fce8023c0a6f77068d24861d]
class AplicationPOT--><rect fill="#FEFECE" filter="url(#fzdhv9rjdk157)" height="73.6094" id="AplicationPOT" style="stroke: #A80036; stroke-width: 1.5;" width="122" x="896" y="60"/><ellipse cx="915.05" cy="76" fill="#ADD1B2" rx="11" ry="11" style="stroke: #A80036; stroke-width: 1.0;"/><path d="M917.3938,71.6719 C916.4563,71.2344 915.8625,71.0938 914.9875,71.0938 C912.3625,71.0938 910.3625,73.1719 910.3625,75.8906 L910.3625,77.0156 C910.3625,79.5938 912.4719,81.4844 915.3625,81.4844 C916.5813,81.4844 917.7375,81.1875 918.4875,80.6406 C919.0656,80.2344 919.3938,79.7813 919.3938,79.3906 C919.3938,78.9375 919.0031,78.5469 918.5344,78.5469 C918.3156,78.5469 918.1125,78.625 917.925,78.8125 C917.4719,79.2969 917.4719,79.2969 917.2844,79.3906 C916.8625,79.6563 916.175,79.7813 915.4094,79.7813 C913.3625,79.7813 912.0656,78.6875 912.0656,76.9844 L912.0656,75.8906 C912.0656,74.1094 913.3156,72.7969 915.05,72.7969 C915.6281,72.7969 916.2375,72.9531 916.7063,73.2031 C917.1906,73.4844 917.3625,73.7031 917.4563,74.1094 C917.5188,74.5156 917.55,74.6406 917.6906,74.7656 C917.8313,74.9063 918.0656,75.0156 918.2844,75.0156 C918.55,75.0156 918.8156,74.875 918.9875,74.6563 C919.0969,74.5 919.1281,74.3125 919.1281,73.8906 L919.1281,72.4688 C919.1281,72.0313 919.1125,71.9063 919.0188,71.75 C918.8625,71.4844 918.5813,71.3438 918.2844,71.3438 C917.9875,71.3438 917.7844,71.4375 917.5656,71.75 L917.3938,71.6719 Z "/><text fill="#000000" font-family="sans-serif" font-size="12" lengthAdjust="spacingAndGlyphs" textLength="81" x="929.95" y="80.1543">AplicationPOT</text><line style="stroke: #A80036; stroke-width: 1.5;" x1="897" x2="1017" y1="92" y2="92"/><line style="stroke: #A80036; stroke-width: 1.0;" x1="897" x2="1017" y1="100" y2="100"/><text fill="#000000" font-family="sans-serif" font-size="11" lengthAdjust="spacingAndGlyphs" text-decoration="underline" textLength="84" x="902" y="114.2104">+getInstance()</text><text fill="#000000" font-family="sans-serif" font-size="11" lengthAdjust="spacingAndGlyphs" textLength="110" x="902" y="127.0151">+geAtualrSession()</text><!--MD5=[c5b08e60048ef1bcd788d24cf324082e]
class UserSession--><rect fill="#FEFECE" filter="url(#fzdhv9rjdk157)" height="60.8047" id="UserSession" style="stroke: #A80036; stroke-width: 1.5;" width="109" x="902.5" y="228.5"/><ellipse cx="917.5" cy="244.5" fill="#ADD1B2" rx="11" ry="11" style="stroke: #A80036; stroke-width: 1.0;"/><path d="M919.8438,240.1719 C918.9063,239.7344 918.3125,239.5938 917.4375,239.5938 C914.8125,239.5938 912.8125,241.6719 912.8125,244.3906 L912.8125,245.5156 C912.8125,248.0938 914.9219,249.9844 917.8125,249.9844 C919.0313,249.9844 920.1875,249.6875 920.9375,249.1406 C921.5156,248.7344 921.8438,248.2813 921.8438,247.8906 C921.8438,247.4375 921.4531,247.0469 920.9844,247.0469 C920.7656,247.0469 920.5625,247.125 920.375,247.3125 C919.9219,247.7969 919.9219,247.7969 919.7344,247.8906 C919.3125,248.1563 918.625,248.2813 917.8594,248.2813 C915.8125,248.2813 914.5156,247.1875 914.5156,245.4844 L914.5156,244.3906 C914.5156,242.6094 915.7656,241.2969 917.5,241.2969 C918.0781,241.2969 918.6875,241.4531 919.1563,241.7031 C919.6406,241.9844 919.8125,242.2031 919.9063,242.6094 C919.9688,243.0156 920,243.1406 920.1406,243.2656 C920.2813,243.4063 920.5156,243.5156 920.7344,243.5156 C921,243.5156 921.2656,243.375 921.4375,243.1563 C921.5469,243 921.5781,242.8125 921.5781,242.3906 L921.5781,240.9688 C921.5781,240.5313 921.5625,240.4063 921.4688,240.25 C921.3125,239.9844 921.0313,239.8438 920.7344,239.8438 C920.4375,239.8438 920.2344,239.9375 920.0156,240.25 L919.8438,240.1719 Z "/><text fill="#000000" font-family="sans-serif" font-size="12" lengthAdjust="spacingAndGlyphs" textLength="77" x="931.5" y="248.6543">UserSession</text><line style="stroke: #A80036; stroke-width: 1.5;" x1="903.5" x2="1010.5" y1="260.5" y2="260.5"/><line style="stroke: #A80036; stroke-width: 1.0;" x1="903.5" x2="1010.5" y1="268.5" y2="268.5"/><text fill="#000000" font-family="sans-serif" font-size="11" lengthAdjust="spacingAndGlyphs" textLength="93" x="908.5" y="282.7104">+getUserEmail()</text><!--MD5=[99b8db98afdc2c8404e39242ef4c1e65]
class Platform--><rect fill="#FEFECE" filter="url(#fzdhv9rjdk157)" height="40" id="Platform" style="stroke: #A80036; stroke-width: 1.5;" width="80" x="917" y="365"/><ellipse cx="932" cy="381" fill="#ADD1B2" rx="11" ry="11" style="stroke: #A80036; stroke-width: 1.0;"/><path d="M934.3438,376.6719 C933.4063,376.2344 932.8125,376.0938 931.9375,376.0938 C929.3125,376.0938 927.3125,378.1719 927.3125,380.8906 L927.3125,382.0156 C927.3125,384.5938 929.4219,386.4844 932.3125,386.4844 C933.5313,386.4844 934.6875,386.1875 935.4375,385.6406 C936.0156,385.2344 936.3438,384.7813 936.3438,384.3906 C936.3438,383.9375 935.9531,383.5469 935.4844,383.5469 C935.2656,383.5469 935.0625,383.625 934.875,383.8125 C934.4219,384.2969 934.4219,384.2969 934.2344,384.3906 C933.8125,384.6563 933.125,384.7813 932.3594,384.7813 C930.3125,384.7813 929.0156,383.6875 929.0156,381.9844 L929.0156,380.8906 C929.0156,379.1094 930.2656,377.7969 932,377.7969 C932.5781,377.7969 933.1875,377.9531 933.6563,378.2031 C934.1406,378.4844 934.3125,378.7031 934.4063,379.1094 C934.4688,379.5156 934.5,379.6406 934.6406,379.7656 C934.7813,379.9063 935.0156,380.0156 935.2344,380.0156 C935.5,380.0156 935.7656,379.875 935.9375,379.6563 C936.0469,379.5 936.0781,379.3125 936.0781,378.8906 L936.0781,377.4688 C936.0781,377.0313 936.0625,376.9063 935.9688,376.75 C935.8125,376.4844 935.5313,376.3438 935.2344,376.3438 C934.9375,376.3438 934.7344,376.4375 934.5156,376.75 L934.3438,376.6719 Z "/><text fill="#000000" font-family="sans-serif" font-size="12" lengthAdjust="spacingAndGlyphs" textLength="48" x="946" y="385.1543">Platform</text><line style="stroke: #A80036; stroke-width: 1.5;" x1="918" x2="996" y1="397" y2="397"/><!--MD5=[3c7078c4e591ec9aa01f69813acd29ab]
class OrganizationRegister--><rect fill="#FEFECE" filter="url(#fzdhv9rjdk157)" height="60.8047" id="OrganizationRegister" style="stroke: #A80036; stroke-width: 1.5;" width="198" x="1081" y="421.5"/><ellipse cx="1114" cy="437.5" fill="#ADD1B2" rx="11" ry="11" style="stroke: #A80036; stroke-width: 1.0;"/><path d="M1116.3438,433.1719 C1115.4063,432.7344 1114.8125,432.5938 1113.9375,432.5938 C1111.3125,432.5938 1109.3125,434.6719 1109.3125,437.3906 L1109.3125,438.5156 C1109.3125,441.0938 1111.4219,442.9844 1114.3125,442.9844 C1115.5313,442.9844 1116.6875,442.6875 1117.4375,442.1406 C1118.0156,441.7344 1118.3438,441.2813 1118.3438,440.8906 C1118.3438,440.4375 1117.9531,440.0469 1117.4844,440.0469 C1117.2656,440.0469 1117.0625,440.125 1116.875,440.3125 C1116.4219,440.7969 1116.4219,440.7969 1116.2344,440.8906 C1115.8125,441.1563 1115.125,441.2813 1114.3594,441.2813 C1112.3125,441.2813 1111.0156,440.1875 1111.0156,438.4844 L1111.0156,437.3906 C1111.0156,435.6094 1112.2656,434.2969 1114,434.2969 C1114.5781,434.2969 1115.1875,434.4531 1115.6563,434.7031 C1116.1406,434.9844 1116.3125,435.2031 1116.4063,435.6094 C1116.4688,436.0156 1116.5,436.1406 1116.6406,436.2656 C1116.7813,436.4063 1117.0156,436.5156 1117.2344,436.5156 C1117.5,436.5156 1117.7656,436.375 1117.9375,436.1563 C1118.0469,436 1118.0781,435.8125 1118.0781,435.3906 L1118.0781,433.9688 C1118.0781,433.5313 1118.0625,433.4063 1117.9688,433.25 C1117.8125,432.9844 1117.5313,432.8438 1117.2344,432.8438 C1116.9375,432.8438 1116.7344,432.9375 1116.5156,433.25 L1116.3438,433.1719 Z "/><text fill="#000000" font-family="sans-serif" font-size="12" lengthAdjust="spacingAndGlyphs" textLength="126" x="1132" y="441.6543">OrganizationRegister</text><line style="stroke: #A80036; stroke-width: 1.5;" x1="1082" x2="1278" y1="453.5" y2="453.5"/><line style="stroke: #A80036; stroke-width: 1.0;" x1="1082" x2="1278" y1="461.5" y2="461.5"/><text fill="#000000" font-family="sans-serif" font-size="11" lengthAdjust="spacingAndGlyphs" textLength="186" x="1087" y="475.7104">+getOrganizationByEmail(email)</text><!--MD5=[86c7c362de55a38b660185a1328fe18d]
class Organization--><rect fill="#FEFECE" filter="url(#fzdhv9rjdk157)" height="99.2188" id="Organization" style="stroke: #A80036; stroke-width: 1.5;" width="182" x="1486" y="566.5"/><ellipse cx="1534.75" cy="582.5" fill="#ADD1B2" rx="11" ry="11" style="stroke: #A80036; stroke-width: 1.0;"/><path d="M1537.0938,578.1719 C1536.1563,577.7344 1535.5625,577.5938 1534.6875,577.5938 C1532.0625,577.5938 1530.0625,579.6719 1530.0625,582.3906 L1530.0625,583.5156 C1530.0625,586.0938 1532.1719,587.9844 1535.0625,587.9844 C1536.2813,587.9844 1537.4375,587.6875 1538.1875,587.1406 C1538.7656,586.7344 1539.0938,586.2813 1539.0938,585.8906 C1539.0938,585.4375 1538.7031,585.0469 1538.2344,585.0469 C1538.0156,585.0469 1537.8125,585.125 1537.625,585.3125 C1537.1719,585.7969 1537.1719,585.7969 1536.9844,585.8906 C1536.5625,586.1563 1535.875,586.2813 1535.1094,586.2813 C1533.0625,586.2813 1531.7656,585.1875 1531.7656,583.4844 L1531.7656,582.3906 C1531.7656,580.6094 1533.0156,579.2969 1534.75,579.2969 C1535.3281,579.2969 1535.9375,579.4531 1536.4063,579.7031 C1536.8906,579.9844 1537.0625,580.2031 1537.1563,580.6094 C1537.2188,581.0156 1537.25,581.1406 1537.3906,581.2656 C1537.5313,581.4063 1537.7656,581.5156 1537.9844,581.5156 C1538.25,581.5156 1538.5156,581.375 1538.6875,581.1563 C1538.7969,581 1538.8281,580.8125 1538.8281,580.3906 L1538.8281,578.9688 C1538.8281,578.5313 1538.8125,578.4063 1538.7188,578.25 C1538.5625,577.9844 1538.2813,577.8438 1537.9844,577.8438 C1537.6875,577.8438 1537.4844,577.9375 1537.2656,578.25 L1537.0938,578.1719 Z "/><text fill="#000000" font-family="sans-serif" font-size="12" lengthAdjust="spacingAndGlyphs" textLength="76" x="1555.25" y="586.6543">Organization</text><line style="stroke: #A80036; stroke-width: 1.5;" x1="1487" x2="1667" y1="598.5" y2="598.5"/><text fill="#000000" font-family="sans-serif" font-size="11" lengthAdjust="spacingAndGlyphs" textLength="74" x="1492" y="612.7104">-String name</text><text fill="#000000" font-family="sans-serif" font-size="11" lengthAdjust="spacingAndGlyphs" textLength="58" x="1492" y="625.5151">-String NIF</text><line style="stroke: #A80036; stroke-width: 1.0;" x1="1487" x2="1667" y1="632.1094" y2="632.1094"/><text fill="#000000" font-family="sans-serif" font-size="11" lengthAdjust="spacingAndGlyphs" textLength="81" x="1492" y="646.3198">+getTaskList()</text><text fill="#000000" font-family="sans-serif" font-size="11" lengthAdjust="spacingAndGlyphs" textLength="170" x="1492" y="659.1245">+getPaymentTransactionList()</text><!--MD5=[cf2635f8a68afd84898027166f4516bc]
class TaskList--><rect fill="#FEFECE" filter="url(#fzdhv9rjdk157)" height="60.8047" id="TaskList" style="stroke: #A80036; stroke-width: 1.5;" width="132" x="2294" y="683.5"/><ellipse cx="2332.4" cy="699.5" fill="#ADD1B2" rx="11" ry="11" style="stroke: #A80036; stroke-width: 1.0;"/><path d="M2334.7438,695.1719 C2333.8063,694.7344 2333.2125,694.5938 2332.3375,694.5938 C2329.7125,694.5938 2327.7125,696.6719 2327.7125,699.3906 L2327.7125,700.5156 C2327.7125,703.0938 2329.8219,704.9844 2332.7125,704.9844 C2333.9313,704.9844 2335.0875,704.6875 2335.8375,704.1406 C2336.4156,703.7344 2336.7438,703.2813 2336.7438,702.8906 C2336.7438,702.4375 2336.3531,702.0469 2335.8844,702.0469 C2335.6656,702.0469 2335.4625,702.125 2335.275,702.3125 C2334.8219,702.7969 2334.8219,702.7969 2334.6344,702.8906 C2334.2125,703.1563 2333.525,703.2813 2332.7594,703.2813 C2330.7125,703.2813 2329.4156,702.1875 2329.4156,700.4844 L2329.4156,699.3906 C2329.4156,697.6094 2330.6656,696.2969 2332.4,696.2969 C2332.9781,696.2969 2333.5875,696.4531 2334.0563,696.7031 C2334.5406,696.9844 2334.7125,697.2031 2334.8063,697.6094 C2334.8688,698.0156 2334.9,698.1406 2335.0406,698.2656 C2335.1813,698.4063 2335.4156,698.5156 2335.6344,698.5156 C2335.9,698.5156 2336.1656,698.375 2336.3375,698.1563 C2336.4469,698 2336.4781,697.8125 2336.4781,697.3906 L2336.4781,695.9688 C2336.4781,695.5313 2336.4625,695.4063 2336.3688,695.25 C2336.2125,694.9844 2335.9313,694.8438 2335.6344,694.8438 C2335.3375,694.8438 2335.1344,694.9375 2334.9156,695.25 L2334.7438,695.1719 Z "/><text fill="#000000" font-family="sans-serif" font-size="12" lengthAdjust="spacingAndGlyphs" textLength="48" x="2351.6" y="703.6543">TaskList</text><line style="stroke: #A80036; stroke-width: 1.5;" x1="2295" x2="2425" y1="715.5" y2="715.5"/><line style="stroke: #A80036; stroke-width: 1.0;" x1="2295" x2="2425" y1="723.5" y2="723.5"/><text fill="#000000" font-family="sans-serif" font-size="11" lengthAdjust="spacingAndGlyphs" textLength="120" x="2300" y="737.7104">+getTaskById(taskId)</text><!--MD5=[52bbee025a435258c6397b17d94a5a49]
class FreelancerRegister--><rect fill="#FEFECE" filter="url(#fzdhv9rjdk157)" height="40" id="FreelancerRegister" style="stroke: #A80036; stroke-width: 1.5;" width="147" x="1309" y="476"/><ellipse cx="1324" cy="492" fill="#ADD1B2" rx="11" ry="11" style="stroke: #A80036; stroke-width: 1.0;"/><path d="M1326.3438,487.6719 C1325.4063,487.2344 1324.8125,487.0938 1323.9375,487.0938 C1321.3125,487.0938 1319.3125,489.1719 1319.3125,491.8906 L1319.3125,493.0156 C1319.3125,495.5938 1321.4219,497.4844 1324.3125,497.4844 C1325.5313,497.4844 1326.6875,497.1875 1327.4375,496.6406 C1328.0156,496.2344 1328.3438,495.7813 1328.3438,495.3906 C1328.3438,494.9375 1327.9531,494.5469 1327.4844,494.5469 C1327.2656,494.5469 1327.0625,494.625 1326.875,494.8125 C1326.4219,495.2969 1326.4219,495.2969 1326.2344,495.3906 C1325.8125,495.6563 1325.125,495.7813 1324.3594,495.7813 C1322.3125,495.7813 1321.0156,494.6875 1321.0156,492.9844 L1321.0156,491.8906 C1321.0156,490.1094 1322.2656,488.7969 1324,488.7969 C1324.5781,488.7969 1325.1875,488.9531 1325.6563,489.2031 C1326.1406,489.4844 1326.3125,489.7031 1326.4063,490.1094 C1326.4688,490.5156 1326.5,490.6406 1326.6406,490.7656 C1326.7813,490.9063 1327.0156,491.0156 1327.2344,491.0156 C1327.5,491.0156 1327.7656,490.875 1327.9375,490.6563 C1328.0469,490.5 1328.0781,490.3125 1328.0781,489.8906 L1328.0781,488.4688 C1328.0781,488.0313 1328.0625,487.9063 1327.9688,487.75 C1327.8125,487.4844 1327.5313,487.3438 1327.2344,487.3438 C1326.9375,487.3438 1326.7344,487.4375 1326.5156,487.75 L1326.3438,487.6719 Z "/><text fill="#000000" font-family="sans-serif" font-size="12" lengthAdjust="spacingAndGlyphs" textLength="115" x="1338" y="496.1543">FreelancerRegister</text><line style="stroke: #A80036; stroke-width: 1.5;" x1="1310" x2="1455" y1="508" y2="508"/><!--MD5=[ba54b1997298830925be59f10364c919]
class PaymentTransactionList--><rect fill="#FEFECE" filter="url(#fzdhv9rjdk157)" height="99.2188" id="PaymentTransactionList" style="stroke: #A80036; stroke-width: 1.5;" width="535" x="1729" y="566.5"/><ellipse cx="1922.75" cy="582.5" fill="#ADD1B2" rx="11" ry="11" style="stroke: #A80036; stroke-width: 1.0;"/><path d="M1925.0938,578.1719 C1924.1563,577.7344 1923.5625,577.5938 1922.6875,577.5938 C1920.0625,577.5938 1918.0625,579.6719 1918.0625,582.3906 L1918.0625,583.5156 C1918.0625,586.0938 1920.1719,587.9844 1923.0625,587.9844 C1924.2813,587.9844 1925.4375,587.6875 1926.1875,587.1406 C1926.7656,586.7344 1927.0938,586.2813 1927.0938,585.8906 C1927.0938,585.4375 1926.7031,585.0469 1926.2344,585.0469 C1926.0156,585.0469 1925.8125,585.125 1925.625,585.3125 C1925.1719,585.7969 1925.1719,585.7969 1924.9844,585.8906 C1924.5625,586.1563 1923.875,586.2813 1923.1094,586.2813 C1921.0625,586.2813 1919.7656,585.1875 1919.7656,583.4844 L1919.7656,582.3906 C1919.7656,580.6094 1921.0156,579.2969 1922.75,579.2969 C1923.3281,579.2969 1923.9375,579.4531 1924.4063,579.7031 C1924.8906,579.9844 1925.0625,580.2031 1925.1563,580.6094 C1925.2188,581.0156 1925.25,581.1406 1925.3906,581.2656 C1925.5313,581.4063 1925.7656,581.5156 1925.9844,581.5156 C1926.25,581.5156 1926.5156,581.375 1926.6875,581.1563 C1926.7969,581 1926.8281,580.8125 1926.8281,580.3906 L1926.8281,578.9688 C1926.8281,578.5313 1926.8125,578.4063 1926.7188,578.25 C1926.5625,577.9844 1926.2813,577.8438 1925.9844,577.8438 C1925.6875,577.8438 1925.4844,577.9375 1925.2656,578.25 L1925.0938,578.1719 Z "/><text fill="#000000" font-family="sans-serif" font-size="12" lengthAdjust="spacingAndGlyphs" textLength="139" x="1943.25" y="586.6543">PaymentTransactionList</text><line style="stroke: #A80036; stroke-width: 1.5;" x1="1730" x2="2263" y1="598.5" y2="598.5"/><line style="stroke: #A80036; stroke-width: 1.0;" x1="1730" x2="2263" y1="606.5" y2="606.5"/><text fill="#000000" font-family="sans-serif" font-size="11" lengthAdjust="spacingAndGlyphs" textLength="523" x="1735" y="620.7104">+newPaymentTransaction(task, freelancer, transId, endDate, delay, briefDescriptionQuality)</text><text fill="#000000" font-family="sans-serif" font-size="11" lengthAdjust="spacingAndGlyphs" textLength="189" x="1735" y="633.5151">+validatePaymentTransaction(pt)</text><text fill="#000000" font-family="sans-serif" font-size="11" lengthAdjust="spacingAndGlyphs" textLength="164" x="1735" y="646.3198">+addPaymentTransaction(pt)</text><text fill="#000000" font-family="sans-serif" font-size="11" lengthAdjust="spacingAndGlyphs" textLength="187" x="1735" y="659.1245">+registerPaymentTransaction(pt)</text><!--MD5=[b645a18afb25b7e5623af7186d8eb36f]
class PaymentTransaction--><rect fill="#FEFECE" filter="url(#fzdhv9rjdk157)" height="112.0234" id="PaymentTransaction" style="stroke: #A80036; stroke-width: 1.5;" width="511" x="2456" y="546"/><ellipse cx="2647.75" cy="562" fill="#ADD1B2" rx="11" ry="11" style="stroke: #A80036; stroke-width: 1.0;"/><path d="M2650.0938,557.6719 C2649.1563,557.2344 2648.5625,557.0938 2647.6875,557.0938 C2645.0625,557.0938 2643.0625,559.1719 2643.0625,561.8906 L2643.0625,563.0156 C2643.0625,565.5938 2645.1719,567.4844 2648.0625,567.4844 C2649.2813,567.4844 2650.4375,567.1875 2651.1875,566.6406 C2651.7656,566.2344 2652.0938,565.7813 2652.0938,565.3906 C2652.0938,564.9375 2651.7031,564.5469 2651.2344,564.5469 C2651.0156,564.5469 2650.8125,564.625 2650.625,564.8125 C2650.1719,565.2969 2650.1719,565.2969 2649.9844,565.3906 C2649.5625,565.6563 2648.875,565.7813 2648.1094,565.7813 C2646.0625,565.7813 2644.7656,564.6875 2644.7656,562.9844 L2644.7656,561.8906 C2644.7656,560.1094 2646.0156,558.7969 2647.75,558.7969 C2648.3281,558.7969 2648.9375,558.9531 2649.4063,559.2031 C2649.8906,559.4844 2650.0625,559.7031 2650.1563,560.1094 C2650.2188,560.5156 2650.25,560.6406 2650.3906,560.7656 C2650.5313,560.9063 2650.7656,561.0156 2650.9844,561.0156 C2651.25,561.0156 2651.5156,560.875 2651.6875,560.6563 C2651.7969,560.5 2651.8281,560.3125 2651.8281,559.8906 L2651.8281,558.4688 C2651.8281,558.0313 2651.8125,557.9063 2651.7188,557.75 C2651.5625,557.4844 2651.2813,557.3438 2650.9844,557.3438 C2650.6875,557.3438 2650.4844,557.4375 2650.2656,557.75 L2650.0938,557.6719 Z "/><text fill="#000000" font-family="sans-serif" font-size="12" lengthAdjust="spacingAndGlyphs" textLength="119" x="2668.25" y="566.1543">PaymentTransaction</text><line style="stroke: #A80036; stroke-width: 1.5;" x1="2457" x2="2966" y1="578" y2="578"/><text fill="#000000" font-family="sans-serif" font-size="11" lengthAdjust="spacingAndGlyphs" textLength="51" x="2462" y="592.2104">-String id</text><text fill="#000000" font-family="sans-serif" font-size="11" lengthAdjust="spacingAndGlyphs" textLength="71" x="2462" y="605.0151">-Float amout</text><text fill="#000000" font-family="sans-serif" font-size="11" lengthAdjust="spacingAndGlyphs" textLength="91" x="2462" y="617.8198">-Boolean payed</text><line style="stroke: #A80036; stroke-width: 1.0;" x1="2457" x2="2966" y1="624.4141" y2="624.4141"/><text fill="#000000" font-family="sans-serif" font-size="11" lengthAdjust="spacingAndGlyphs" textLength="499" x="2462" y="638.6245">+PaymentTransaction(task, freelancer, transId, endDate, delay, briefDescriptionQuality)</text><text fill="#000000" font-family="sans-serif" font-size="11" lengthAdjust="spacingAndGlyphs" textLength="172" x="2462" y="651.4292">+calculatePayment(free, task)</text><!--MD5=[feb7363c14fdfe20e6ad09f57508482a]
class ExecutionTask--><rect fill="#FEFECE" filter="url(#fzdhv9rjdk157)" height="99.2188" id="ExecutionTask" style="stroke: #A80036; stroke-width: 1.5;" width="337" x="3103" y="365.5"/><ellipse cx="3224.25" cy="381.5" fill="#ADD1B2" rx="11" ry="11" style="stroke: #A80036; stroke-width: 1.0;"/><path d="M3226.5938,377.1719 C3225.6563,376.7344 3225.0625,376.5938 3224.1875,376.5938 C3221.5625,376.5938 3219.5625,378.6719 3219.5625,381.3906 L3219.5625,382.5156 C3219.5625,385.0938 3221.6719,386.9844 3224.5625,386.9844 C3225.7813,386.9844 3226.9375,386.6875 3227.6875,386.1406 C3228.2656,385.7344 3228.5938,385.2813 3228.5938,384.8906 C3228.5938,384.4375 3228.2031,384.0469 3227.7344,384.0469 C3227.5156,384.0469 3227.3125,384.125 3227.125,384.3125 C3226.6719,384.7969 3226.6719,384.7969 3226.4844,384.8906 C3226.0625,385.1563 3225.375,385.2813 3224.6094,385.2813 C3222.5625,385.2813 3221.2656,384.1875 3221.2656,382.4844 L3221.2656,381.3906 C3221.2656,379.6094 3222.5156,378.2969 3224.25,378.2969 C3224.8281,378.2969 3225.4375,378.4531 3225.9063,378.7031 C3226.3906,378.9844 3226.5625,379.2031 3226.6563,379.6094 C3226.7188,380.0156 3226.75,380.1406 3226.8906,380.2656 C3227.0313,380.4063 3227.2656,380.5156 3227.4844,380.5156 C3227.75,380.5156 3228.0156,380.375 3228.1875,380.1563 C3228.2969,380 3228.3281,379.8125 3228.3281,379.3906 L3228.3281,377.9688 C3228.3281,377.5313 3228.3125,377.4063 3228.2188,377.25 C3228.0625,376.9844 3227.7813,376.8438 3227.4844,376.8438 C3227.1875,376.8438 3226.9844,376.9375 3226.7656,377.25 L3226.5938,377.1719 Z "/><text fill="#000000" font-family="sans-serif" font-size="12" lengthAdjust="spacingAndGlyphs" textLength="86" x="3244.75" y="385.6543">ExecutionTask</text><line style="stroke: #A80036; stroke-width: 1.5;" x1="3104" x2="3439" y1="397.5" y2="397.5"/><text fill="#000000" font-family="sans-serif" font-size="11" lengthAdjust="spacingAndGlyphs" textLength="91" x="3109" y="411.7104">-String endDate</text><text fill="#000000" font-family="sans-serif" font-size="11" lengthAdjust="spacingAndGlyphs" textLength="67" x="3109" y="424.5151">-Float delay</text><text fill="#000000" font-family="sans-serif" font-size="11" lengthAdjust="spacingAndGlyphs" textLength="171" x="3109" y="437.3198">-String briefDescriptionQuality</text><line style="stroke: #A80036; stroke-width: 1.0;" x1="3104" x2="3439" y1="443.9141" y2="443.9141"/><text fill="#000000" font-family="sans-serif" font-size="11" lengthAdjust="spacingAndGlyphs" textLength="325" x="3109" y="458.1245">+ExecutionTask(endDate, delay, briefDescriptionQuality)</text><!--MD5=[b34797a66dc35cbf1d65f7e3ca75530e]
class Task--><rect fill="#FEFECE" filter="url(#fzdhv9rjdk157)" height="104.0234" id="Task" style="stroke: #A80036; stroke-width: 1.5;" width="143" x="3538" y="601"/><ellipse cx="3591.25" cy="617" fill="#ADD1B2" rx="11" ry="11" style="stroke: #A80036; stroke-width: 1.0;"/><path d="M3593.5938,612.6719 C3592.6563,612.2344 3592.0625,612.0938 3591.1875,612.0938 C3588.5625,612.0938 3586.5625,614.1719 3586.5625,616.8906 L3586.5625,618.0156 C3586.5625,620.5938 3588.6719,622.4844 3591.5625,622.4844 C3592.7813,622.4844 3593.9375,622.1875 3594.6875,621.6406 C3595.2656,621.2344 3595.5938,620.7813 3595.5938,620.3906 C3595.5938,619.9375 3595.2031,619.5469 3594.7344,619.5469 C3594.5156,619.5469 3594.3125,619.625 3594.125,619.8125 C3593.6719,620.2969 3593.6719,620.2969 3593.4844,620.3906 C3593.0625,620.6563 3592.375,620.7813 3591.6094,620.7813 C3589.5625,620.7813 3588.2656,619.6875 3588.2656,617.9844 L3588.2656,616.8906 C3588.2656,615.1094 3589.5156,613.7969 3591.25,613.7969 C3591.8281,613.7969 3592.4375,613.9531 3592.9063,614.2031 C3593.3906,614.4844 3593.5625,614.7031 3593.6563,615.1094 C3593.7188,615.5156 3593.75,615.6406 3593.8906,615.7656 C3594.0313,615.9063 3594.2656,616.0156 3594.4844,616.0156 C3594.75,616.0156 3595.0156,615.875 3595.1875,615.6563 C3595.2969,615.5 3595.3281,615.3125 3595.3281,614.8906 L3595.3281,613.4688 C3595.3281,613.0313 3595.3125,612.9063 3595.2188,612.75 C3595.0625,612.4844 3594.7813,612.3438 3594.4844,612.3438 C3594.1875,612.3438 3593.9844,612.4375 3593.7656,612.75 L3593.5938,612.6719 Z "/><text fill="#000000" font-family="sans-serif" font-size="12" lengthAdjust="spacingAndGlyphs" textLength="28" x="3611.75" y="621.1543">Task</text><line style="stroke: #A80036; stroke-width: 1.5;" x1="3539" x2="3680" y1="633" y2="633"/><text fill="#000000" font-family="sans-serif" font-size="11" lengthAdjust="spacingAndGlyphs" textLength="51" x="3544" y="647.2104">-String id</text><text fill="#000000" font-family="sans-serif" font-size="11" lengthAdjust="spacingAndGlyphs" textLength="131" x="3544" y="660.0151">-String briefDescription</text><text fill="#000000" font-family="sans-serif" font-size="11" lengthAdjust="spacingAndGlyphs" textLength="123" x="3544" y="672.8198">-Integer timeDuration</text><text fill="#000000" font-family="sans-serif" font-size="11" lengthAdjust="spacingAndGlyphs" textLength="102" x="3544" y="685.6245">-Float costPerHour</text><text fill="#000000" font-family="sans-serif" font-size="11" lengthAdjust="spacingAndGlyphs" textLength="116" x="3544" y="698.4292">-String taskCategory</text><!--MD5=[1f687b5315377fe49fca59b457947463]
class Freelancer--><rect fill="#FEFECE" filter="url(#fzdhv9rjdk157)" height="142.4375" id="Freelancer" style="stroke: #A80036; stroke-width: 1.5;" width="149" x="3197" y="500"/><ellipse cx="3235.4" cy="516" fill="#ADD1B2" rx="11" ry="11" style="stroke: #A80036; stroke-width: 1.0;"/><path d="M3237.7438,511.6719 C3236.8063,511.2344 3236.2125,511.0938 3235.3375,511.0938 C3232.7125,511.0938 3230.7125,513.1719 3230.7125,515.8906 L3230.7125,517.0156 C3230.7125,519.5938 3232.8219,521.4844 3235.7125,521.4844 C3236.9313,521.4844 3238.0875,521.1875 3238.8375,520.6406 C3239.4156,520.2344 3239.7438,519.7813 3239.7438,519.3906 C3239.7438,518.9375 3239.3531,518.5469 3238.8844,518.5469 C3238.6656,518.5469 3238.4625,518.625 3238.275,518.8125 C3237.8219,519.2969 3237.8219,519.2969 3237.6344,519.3906 C3237.2125,519.6563 3236.525,519.7813 3235.7594,519.7813 C3233.7125,519.7813 3232.4156,518.6875 3232.4156,516.9844 L3232.4156,515.8906 C3232.4156,514.1094 3233.6656,512.7969 3235.4,512.7969 C3235.9781,512.7969 3236.5875,512.9531 3237.0563,513.2031 C3237.5406,513.4844 3237.7125,513.7031 3237.8063,514.1094 C3237.8688,514.5156 3237.9,514.6406 3238.0406,514.7656 C3238.1813,514.9063 3238.4156,515.0156 3238.6344,515.0156 C3238.9,515.0156 3239.1656,514.875 3239.3375,514.6563 C3239.4469,514.5 3239.4781,514.3125 3239.4781,513.8906 L3239.4781,512.4688 C3239.4781,512.0313 3239.4625,511.9063 3239.3688,511.75 C3239.2125,511.4844 3238.9313,511.3438 3238.6344,511.3438 C3238.3375,511.3438 3238.1344,511.4375 3237.9156,511.75 L3237.7438,511.6719 Z "/><text fill="#000000" font-family="sans-serif" font-size="12" lengthAdjust="spacingAndGlyphs" textLength="65" x="3254.6" y="520.1543">Freelancer</text><line style="stroke: #A80036; stroke-width: 1.5;" x1="3198" x2="3345" y1="532" y2="532"/><text fill="#000000" font-family="sans-serif" font-size="11" lengthAdjust="spacingAndGlyphs" textLength="51" x="3203" y="546.2104">-String id</text><text fill="#000000" font-family="sans-serif" font-size="11" lengthAdjust="spacingAndGlyphs" textLength="74" x="3203" y="559.0151">-String name</text><text fill="#000000" font-family="sans-serif" font-size="11" lengthAdjust="spacingAndGlyphs" textLength="137" x="3203" y="571.8198">-String levelOfExpertise</text><text fill="#000000" font-family="sans-serif" font-size="11" lengthAdjust="spacingAndGlyphs" textLength="73" x="3203" y="584.6245">-String email</text><text fill="#000000" font-family="sans-serif" font-size="11" lengthAdjust="spacingAndGlyphs" textLength="58" x="3203" y="597.4292">-String NIF</text><text fill="#000000" font-family="sans-serif" font-size="11" lengthAdjust="spacingAndGlyphs" textLength="68" x="3203" y="610.2339">-String IBAN</text><text fill="#000000" font-family="sans-serif" font-size="11" lengthAdjust="spacingAndGlyphs" textLength="79" x="3203" y="623.0386">-String adress</text><text fill="#000000" font-family="sans-serif" font-size="11" lengthAdjust="spacingAndGlyphs" textLength="83" x="3203" y="635.8433">-String country</text><!--MD5=[d75f8faab7003fe4f7fadde3e00b3cf7]
link CreatePaymentTransactionUI to CreatePaymentTransactionController--><path d="M235.24,97 C255.31,97 277.258,97 299.997,97 " fill="none" id="CreatePaymentTransactionUI-CreatePaymentTransactionController" style="stroke: #A80036; stroke-width: 1.0; stroke-dasharray: 7.0,7.0;"/><!--MD5=[c21c0329c000ce3a64d50b793859385d]
link CreatePaymentTransactionController to Platform--><path d="M644.134,153.213 C731.354,218.037 870.216,321.243 928.66,364.68 " fill="none" id="CreatePaymentTransactionController-Platform" style="stroke: #A80036; stroke-width: 1.0; stroke-dasharray: 7.0,7.0;"/><!--MD5=[13aba00634a7bef9c089ba75c09fcd93]
link CreatePaymentTransactionController to OrganizationRegister--><path d="M602.915,153.032 C653.039,229.038 753.876,362.28 878.5,423 C941.166,453.533 1019.83,460.168 1080.95,459.495 " fill="none" id="CreatePaymentTransactionController-OrganizationRegister" style="stroke: #A80036; stroke-width: 1.0; stroke-dasharray: 7.0,7.0;"/><!--MD5=[40601998eb9b384584e87eb59da2f8be]
link CreatePaymentTransactionController to FreelancerRegister--><path d="M598.287,153.075 C645.66,236.237 746.472,390.544 878.5,466 C1014.26,543.592 1205.67,527.454 1308.82,510.649 " fill="none" id="CreatePaymentTransactionController-FreelancerRegister" style="stroke: #A80036; stroke-width: 1.0; stroke-dasharray: 7.0,7.0;"/><!--MD5=[e86456071e82e45208e05fe4bf1178a7]
link CreatePaymentTransactionController to AplicationPOT--><path d="M835.252,97 C857.448,97 878.147,97 895.919,97 " fill="none" id="CreatePaymentTransactionController-AplicationPOT" style="stroke: #A80036; stroke-width: 1.0; stroke-dasharray: 7.0,7.0;"/><!--MD5=[044b46cd6ff48909710cb1d203e462f9]
link CreatePaymentTransactionController to UserSession--><path d="M702.67,153.092 C771.334,181.798 851.058,215.128 902.451,236.613 " fill="none" id="CreatePaymentTransactionController-UserSession" style="stroke: #A80036; stroke-width: 1.0; stroke-dasharray: 7.0,7.0;"/><!--MD5=[b3c7789b3537f3946cf11afbc11942c3]
link Platform to OrganizationRegister--><path d="M997.002,396.824 C1020.3,403.887 1051.02,413.202 1080.58,422.163 " fill="none" id="Platform-OrganizationRegister" style="stroke: #A80036; stroke-width: 1.0; stroke-dasharray: 7.0,7.0;"/><!--MD5=[31b160c41b40f1f198969df3eb5fcc67]
link Platform to FreelancerRegister--><path d="M997.141,379.307 C1059.51,371.955 1184.07,364.39 1279,404 C1315.85,419.377 1348.24,453.843 1366.31,475.949 " fill="none" id="Platform-FreelancerRegister" style="stroke: #A80036; stroke-width: 1.0; stroke-dasharray: 7.0,7.0;"/><!--MD5=[61c512daf028c4abaff9775e1f675fa3]
link OrganizationRegister to Organization--><path d="M1212.64,482.655 C1237.1,504.729 1272.8,533.578 1309,551 C1364.78,577.845 1432.6,594.175 1485.93,603.753 " fill="none" id="OrganizationRegister-Organization" style="stroke: #A80036; stroke-width: 1.0;"/><text fill="#000000" font-family="sans-serif" font-size="13" lengthAdjust="spacingAndGlyphs" textLength="54" x="1349" y="547.0669">contains</text><polygon fill="#000000" points="1406,541.0664,1412,544.0664,1406,547.0664,1406,541.0664" style="stroke: #000000; stroke-width: 1.0;"/><text fill="#000000" font-family="sans-serif" font-size="13" lengthAdjust="spacingAndGlyphs" textLength="8" x="1210.2785" y="502.266">1</text><text fill="#000000" font-family="sans-serif" font-size="13" lengthAdjust="spacingAndGlyphs" textLength="7" x="1471.0984" y="615.4232">*</text><!--MD5=[a4cb23ae9b63896b4ff4e454c9456065]
link FreelancerRegister to Freelancer--><path d="M1456.27,496 C1520.01,496 1615.14,496 1698,496 C1698,496 1698,496 2712.5,496 C2872.74,496 2915.27,472.748 3073,501 C3115.07,508.537 3160.13,523.901 3196.57,538.321 " fill="none" id="FreelancerRegister-Freelancer" style="stroke: #A80036; stroke-width: 1.0;"/><text fill="#000000" font-family="sans-serif" font-size="13" lengthAdjust="spacingAndGlyphs" textLength="23" x="1978.5" y="492.0669">has</text><polygon fill="#000000" points="2004.5,486.0664,2010.5,489.0664,2004.5,492.0664,2004.5,486.0664" style="stroke: #000000; stroke-width: 1.0;"/><text fill="#000000" font-family="sans-serif" font-size="13" lengthAdjust="spacingAndGlyphs" textLength="8" x="1463.9255" y="508.8117">1</text><text fill="#000000" font-family="sans-serif" font-size="13" lengthAdjust="spacingAndGlyphs" textLength="23" x="3165.8723" y="548.1318">0..*</text><!--MD5=[522c679f4dd7ba84a6aa9ac03f58229d]
link Organization to TaskList--><path d="M1668.35,662.51 C1687.89,670.732 1708.77,678.191 1729,683 C1930.62,730.9301 2178.44,724.9364 2293.96,718.5521 " fill="none" id="Organization-TaskList" style="stroke: #A80036; stroke-width: 1.0; stroke-dasharray: 7.0,7.0;"/><!--MD5=[322d55b5ad1658b7791494cedb432ac7]
link Organization to PaymentTransactionList--><path d="M1668.08,616 C1686.77,616 1707.37,616 1728.86,616 " fill="none" id="Organization-PaymentTransactionList" style="stroke: #A80036; stroke-width: 1.0; stroke-dasharray: 7.0,7.0;"/><!--MD5=[ad9e6b825fedf9daad488846d3a92887]
link PaymentTransactionList to PaymentTransaction--><path d="M2264.01,610.767 C2326.8,609.534 2393.58,608.223 2455.83,607 " fill="none" id="PaymentTransactionList-PaymentTransaction" style="stroke: #A80036; stroke-width: 1.0;"/><text fill="#000000" font-family="sans-serif" font-size="13" lengthAdjust="spacingAndGlyphs" textLength="54" x="2326.5" y="603.0669">contains</text><polygon fill="#000000" points="2383.5,597.0664,2389.5,600.0664,2383.5,603.0664,2383.5,597.0664" style="stroke: #000000; stroke-width: 1.0;"/><text fill="#000000" font-family="sans-serif" font-size="13" lengthAdjust="spacingAndGlyphs" textLength="8" x="2272.0705" y="622.8999">1</text><text fill="#000000" font-family="sans-serif" font-size="13" lengthAdjust="spacingAndGlyphs" textLength="7" x="2441.1359" y="619.4396">*</text><!--MD5=[14c738364c5fdafcb97ced6863906d7f]
link TaskList to Task--><path d="M2426.27,716.3267 C2594.64,721.5624 3057.24,731.0912 3440,694 C3472.66,690.835 3508.06,682.932 3537.94,674.9 " fill="none" id="TaskList-Task" style="stroke: #A80036; stroke-width: 1.0;"/><text fill="#000000" font-family="sans-serif" font-size="13" lengthAdjust="spacingAndGlyphs" textLength="23" x="3017" y="712.0669">has</text><polygon fill="#000000" points="3043,706.0664,3049,709.0664,3043,712.0664,3043,706.0664" style="stroke: #000000; stroke-width: 1.0;"/><text fill="#000000" font-family="sans-serif" font-size="13" lengthAdjust="spacingAndGlyphs" textLength="8" x="2433.9558" y="729.4863">1</text><text fill="#000000" font-family="sans-serif" font-size="13" lengthAdjust="spacingAndGlyphs" textLength="7" x="3523.1994" y="690.0044">*</text><!--MD5=[f6802b286771c18a16ea4be983074371]
link PaymentTransaction to Freelancer--><path d="M2967.1,590.747 C3002.67,588.955 3038.76,587.021 3073,585 C3114.01,582.58 3159.76,579.369 3196.9,576.632 " fill="none" id="PaymentTransaction-Freelancer" style="stroke: #A80036; stroke-width: 1.0;"/><text fill="#000000" font-family="sans-serif" font-size="13" lengthAdjust="spacingAndGlyphs" textLength="61" x="2998" y="581.0669">regarding</text><polygon fill="#000000" points="3062,575.0664,3068,578.0664,3062,581.0664,3062,575.0664" style="stroke: #000000; stroke-width: 1.0;"/><text fill="#000000" font-family="sans-serif" font-size="13" lengthAdjust="spacingAndGlyphs" textLength="8" x="2974.8069" y="602.7041">1</text><text fill="#000000" font-family="sans-serif" font-size="13" lengthAdjust="spacingAndGlyphs" textLength="8" x="3180.7944" y="590.0374">1</text><!--MD5=[271ce7fefd7250ebaca83b70495774bd]
link PaymentTransaction to Task--><path d="M2966.71,658.035 C3011.89,665.928 3058.67,672.782 3103,677 C3252.1,691.189 3290.6,687.587 3440,677 C3472.27,674.713 3507.77,669.992 3537.82,665.337 " fill="none" id="PaymentTransaction-Task" style="stroke: #A80036; stroke-width: 1.0;"/><text fill="#000000" font-family="sans-serif" font-size="13" lengthAdjust="spacingAndGlyphs" textLength="61" x="3234.5" y="673.0669">regarding</text><polygon fill="#000000" points="3298.5,667.0664,3304.5,670.0664,3298.5,673.0664,3298.5,667.0664" style="stroke: #000000; stroke-width: 1.0;"/><text fill="#000000" font-family="sans-serif" font-size="13" lengthAdjust="spacingAndGlyphs" textLength="8" x="2974.8031" y="674.1756">1</text><text fill="#000000" font-family="sans-serif" font-size="13" lengthAdjust="spacingAndGlyphs" textLength="8" x="3522.0155" y="662.9083">1</text><!--MD5=[54cd5b92152f116e1ce633be05b97b77]
link PaymentTransaction to ExecutionTask--><path d="M2879.92,545.894 C2957.12,520.02 3047.98,489.573 3122.62,464.557 " fill="none" id="PaymentTransaction-ExecutionTask" style="stroke: #A80036; stroke-width: 1.0;"/><text fill="#000000" font-family="sans-serif" font-size="13" lengthAdjust="spacingAndGlyphs" textLength="23" x="3017" y="482.0669">has</text><polygon fill="#000000" points="3043,476.0664,3049,479.0664,3043,482.0664,3043,476.0664" style="stroke: #000000; stroke-width: 1.0;"/><text fill="#000000" font-family="sans-serif" font-size="13" lengthAdjust="spacingAndGlyphs" textLength="8" x="2892.9863" y="534.8184">1</text><text fill="#000000" font-family="sans-serif" font-size="13" lengthAdjust="spacingAndGlyphs" textLength="7" x="3094.1916" y="484.6415">*</text><!--MD5=[e7fe6a1136c68b24fb949ad86f020447]
link ExecutionTask to Task--><path d="M3408.43,464.564 C3419.41,470.239 3430.07,476.387 3440,483 C3488.93,515.604 3535.25,564.103 3566.9,600.964 " fill="none" id="ExecutionTask-Task" style="stroke: #A80036; stroke-width: 1.0;"/><text fill="#000000" font-family="sans-serif" font-size="13" lengthAdjust="spacingAndGlyphs" textLength="23" x="3471" y="502.0669">has</text><polygon fill="#000000" points="3497,496.0664,3503,499.0664,3497,502.0664,3497,496.0664" style="stroke: #000000; stroke-width: 1.0;"/><text fill="#000000" font-family="sans-serif" font-size="13" lengthAdjust="spacingAndGlyphs" textLength="8" x="3419.1233" y="484.6495">1</text><text fill="#000000" font-family="sans-serif" font-size="13" lengthAdjust="spacingAndGlyphs" textLength="8" x="3552.6381" y="590.0381">1</text><!--MD5=[b4b6c1ff9c803d8207b36238c02005ea]
link Freelancer to Task--><path d="M3346.24,588.995 C3403.22,602.903 3481.61,622.032 3537.81,635.749 " fill="none" id="Freelancer-Task" style="stroke: #A80036; stroke-width: 1.0;"/><text fill="#000000" font-family="sans-serif" font-size="13" lengthAdjust="spacingAndGlyphs" textLength="23" x="3471" y="615.0669">has</text><polygon fill="#000000" points="3497,609.0664,3503,612.0664,3497,615.0664,3497,609.0664" style="stroke: #000000; stroke-width: 1.0;"/><text fill="#000000" font-family="sans-serif" font-size="13" lengthAdjust="spacingAndGlyphs" textLength="8" x="3353.991" y="603.5566">1</text><text fill="#000000" font-family="sans-serif" font-size="13" lengthAdjust="spacingAndGlyphs" textLength="7" x="3523.056" y="646.816">*</text><!--MD5=[b08a231a8431d10a8d435fe18e7e28f0]
@startuml
skinparam classAttributeIconSize 0
hide methods
left to right direction

package UI <<Folder>> {
  class CreatePaymentTransactionUI
}

package Controllers <<Folder>> {
  class CreatePaymentTransactionController
  class AplicationPOT
}

package Autorization <<Folder>>{
class UserSession
}


package Domain <<Folder>> {
class Platform
class OrganizationRegister
class Organization
class TaskList
class FreelancerRegister
class PaymentTransactionList
class PaymentTransaction
class ExecutionTask
class Task
class Freelancer
}


class CreatePaymentTransactionUI{

}

class CreatePaymentTransactionController{
- -
+getTaskList()
+getFreelancerList()
+newPaymentTransaction(task, freelancer, transid, endDate, delay, briefDescriptionQuality)
+calculatePayment(free, task)
+registerPaymentTransaction()
}

class AplicationPOT{
- -
+{static} getInstance()
+geAtualrSession()
}

class UserSession{
- -
+getUserEmail()
}

class Platform{
+getOrganizationRegister()
+getFreelancerRegister()
}

class OrganizationRegister{
- -
+getOrganizationByEmail(email)
}

class Organization{
-String name
-String NIF
- -
+getTaskList()
+getPaymentTransactionList()
}

class TaskList{
- -
+getTaskById(taskId)
}

class FreelancerRegister{
+getFreelancerList()
}

class PaymentTransactionList{
- -
+newPaymentTransaction(task, freelancer, transId, endDate, delay, briefDescriptionQuality)
+validatePaymentTransaction(pt)
+addPaymentTransaction(pt)
+registerPaymentTransaction(pt)
}

class PaymentTransaction {
-String id
-Float amout
-Boolean payed
- -
+PaymentTransaction(task, freelancer, transId, endDate, delay, briefDescriptionQuality)
+calculatePayment(free, task)
}

class Task{
-String id
-String briefDescription
-Integer timeDuration
-Float costPerHour
-String taskCategory
}

class ExecutionTask{
-String endDate
-Float delay
-String briefDescriptionQuality
- -
+ExecutionTask(endDate, delay, briefDescriptionQuality)
}

class Freelancer{
-String id
-String name
-String levelOfExpertise
-String email
-String NIF
-String IBAN
-String adress
-String country
}

CreatePaymentTransactionUI .. CreatePaymentTransactionController

CreatePaymentTransactionController .. Platform
CreatePaymentTransactionController .. OrganizationRegister
CreatePaymentTransactionController .. FreelancerRegister
CreatePaymentTransactionController .. AplicationPOT
CreatePaymentTransactionController .. UserSession

Platform .. OrganizationRegister
Platform .. FreelancerRegister

OrganizationRegister"1" - - "*"Organization : contains >
FreelancerRegister"1" - - "0..*"Freelancer : has >

Organization .. TaskList
Organization .. PaymentTransactionList

PaymentTransactionList"1" - - "*"PaymentTransaction : contains >

TaskList"1" - - "*"Task : has >




PaymentTransaction"1" - - "1"Freelancer : regarding >
PaymentTransaction"1" - - "1"Task : regarding >
PaymentTransaction"1" - - "*"ExecutionTask : has >

ExecutionTask"1" - - "1"Task: has >

Freelancer"1" - - "*"Task : has >
@enduml

PlantUML version 1.2020.12(Sat Jun 06 10:54:15 UTC 2020)
(GPL source distribution)
Java Runtime: Java(TM) SE Runtime Environment
JVM: Java HotSpot(TM) 64-Bit Server VM
Default Encoding: UTF-8
Language: en
Country: US
--></g></svg>