<?xml version="1.0" encoding="UTF-8" standalone="no"?><svg xmlns="http://www.w3.org/2000/svg" xmlns:xlink="http://www.w3.org/1999/xlink" contentScriptType="application/ecmascript" contentStyleType="text/css" height="1341px" preserveAspectRatio="none" style="width:578px;height:1341px;" version="1.1" viewBox="0 0 578 1341" width="578px" zoomAndPan="magnify"><defs><filter height="300%" id="f1ouv0a6kk20i6" width="300%" x="-1" y="-1"><feGaussianBlur result="blurOut" stdDeviation="2.0"/><feColorMatrix in="blurOut" result="blurOut2" type="matrix" values="0 0 0 0 0 0 0 0 0 0 0 0 0 0 0 0 0 0 .4 0"/><feOffset dx="4.0" dy="4.0" in="blurOut2" result="blurOut3"/><feBlend in="SourceGraphic" in2="blurOut3" mode="normal"/></filter></defs><g><!--MD5=[95603cbb417b44846bed096d68a20dc6]
class ShowGeneralStatisticsUI--><rect fill="#FEFECE" filter="url(#f1ouv0a6kk20i6)" height="48" id="ShowGeneralStatisticsUI" style="stroke: #A80036; stroke-width: 1.5;" width="184" x="160.9779" y="8"/><ellipse cx="175.9779" cy="24" fill="#ADD1B2" rx="11" ry="11" style="stroke: #A80036; stroke-width: 1.0;"/><path d="M178.9467,29.6406 Q178.3685,29.9375 177.7279,30.0859 Q177.0873,30.2344 176.3842,30.2344 Q173.8842,30.2344 172.5638,28.5859 Q171.2435,26.9375 171.2435,23.8125 Q171.2435,20.6875 172.5638,19.0313 Q173.8842,17.375 176.3842,17.375 Q177.0873,17.375 177.7357,17.5313 Q178.3842,17.6875 178.9467,17.9844 L178.9467,20.7031 Q178.3217,20.125 177.7279,19.8516 Q177.1342,19.5781 176.5092,19.5781 Q175.1654,19.5781 174.4779,20.6484 Q173.7904,21.7188 173.7904,23.8125 Q173.7904,25.9063 174.4779,26.9766 Q175.1654,28.0469 176.5092,28.0469 Q177.1342,28.0469 177.7279,27.7734 Q178.3217,27.5 178.9467,26.9219 L178.9467,29.6406 Z "/><text fill="#000000" font-family="sans-serif" font-size="12" lengthAdjust="spacingAndGlyphs" textLength="152" x="189.9779" y="28.1543">ShowGeneralStatisticsUI</text><line style="stroke: #A80036; stroke-width: 1.5;" x1="161.9779" x2="343.9779" y1="40" y2="40"/><line style="stroke: #A80036; stroke-width: 1.5;" x1="161.9779" x2="343.9779" y1="48" y2="48"/><!--MD5=[943a38bbc2e85e26b530925bd6268e1f]
class ShowGeneralStatisticsController--><rect fill="#FEFECE" filter="url(#f1ouv0a6kk20i6)" height="86.4141" id="ShowGeneralStatisticsController" style="stroke: #A80036; stroke-width: 1.5;" width="233" x="136.4779" y="117"/><ellipse cx="151.4779" cy="133" fill="#ADD1B2" rx="11" ry="11" style="stroke: #A80036; stroke-width: 1.0;"/><path d="M154.4467,138.6406 Q153.8685,138.9375 153.2279,139.0859 Q152.5873,139.2344 151.8842,139.2344 Q149.3842,139.2344 148.0638,137.5859 Q146.7435,135.9375 146.7435,132.8125 Q146.7435,129.6875 148.0638,128.0313 Q149.3842,126.375 151.8842,126.375 Q152.5873,126.375 153.2357,126.5313 Q153.8842,126.6875 154.4467,126.9844 L154.4467,129.7031 Q153.8217,129.125 153.2279,128.8516 Q152.6342,128.5781 152.0092,128.5781 Q150.6654,128.5781 149.9779,129.6484 Q149.2904,130.7188 149.2904,132.8125 Q149.2904,134.9063 149.9779,135.9766 Q150.6654,137.0469 152.0092,137.0469 Q152.6342,137.0469 153.2279,136.7734 Q153.8217,136.5 154.4467,135.9219 L154.4467,138.6406 Z "/><text fill="#000000" font-family="sans-serif" font-size="12" lengthAdjust="spacingAndGlyphs" textLength="201" x="165.4779" y="137.1543">ShowGeneralStatisticsController</text><line style="stroke: #A80036; stroke-width: 1.5;" x1="137.4779" x2="368.4779" y1="149" y2="149"/><text fill="#000000" font-family="sans-serif" font-size="11" lengthAdjust="spacingAndGlyphs" textLength="105" x="142.4779" y="163.2104">+showHistograms</text><line style="stroke: #A80036; stroke-width: 1.5;" x1="137.4779" x2="368.4779" y1="169.8047" y2="169.8047"/><text fill="#000000" font-family="sans-serif" font-size="11" lengthAdjust="spacingAndGlyphs" textLength="138" x="142.4779" y="184.0151">+getStatisticsEachOne()</text><text fill="#000000" font-family="sans-serif" font-size="11" lengthAdjust="spacingAndGlyphs" textLength="101" x="142.4779" y="196.8198">+getStatisticsAll()</text><!--MD5=[99b8db98afdc2c8404e39242ef4c1e65]
class Platform--><rect fill="#FEFECE" filter="url(#f1ouv0a6kk20i6)" height="60.8047" id="Platform" style="stroke: #A80036; stroke-width: 1.5;" width="154" x="175.9779" y="264"/><ellipse cx="222.7279" cy="280" fill="#ADD1B2" rx="11" ry="11" style="stroke: #A80036; stroke-width: 1.0;"/><path d="M225.6967,285.6406 Q225.1185,285.9375 224.4779,286.0859 Q223.8373,286.2344 223.1342,286.2344 Q220.6342,286.2344 219.3138,284.5859 Q217.9935,282.9375 217.9935,279.8125 Q217.9935,276.6875 219.3138,275.0313 Q220.6342,273.375 223.1342,273.375 Q223.8373,273.375 224.4857,273.5313 Q225.1342,273.6875 225.6967,273.9844 L225.6967,276.7031 Q225.0717,276.125 224.4779,275.8516 Q223.8842,275.5781 223.2592,275.5781 Q221.9154,275.5781 221.2279,276.6484 Q220.5404,277.7188 220.5404,279.8125 Q220.5404,281.9063 221.2279,282.9766 Q221.9154,284.0469 223.2592,284.0469 Q223.8842,284.0469 224.4779,283.7734 Q225.0717,283.5 225.6967,282.9219 L225.6967,285.6406 Z "/><text fill="#000000" font-family="sans-serif" font-size="12" lengthAdjust="spacingAndGlyphs" textLength="52" x="243.2279" y="284.1543">Platform</text><line style="stroke: #A80036; stroke-width: 1.5;" x1="176.9779" x2="328.9779" y1="296" y2="296"/><line style="stroke: #A80036; stroke-width: 1.5;" x1="176.9779" x2="328.9779" y1="304" y2="304"/><text fill="#000000" font-family="sans-serif" font-size="11" lengthAdjust="spacingAndGlyphs" textLength="142" x="181.9779" y="318.2104">+getFreelancerRegister()</text><!--MD5=[52bbee025a435258c6397b17d94a5a49]
class FreelancerRegister--><rect fill="#FEFECE" filter="url(#f1ouv0a6kk20i6)" height="60.8047" id="FreelancerRegister" style="stroke: #A80036; stroke-width: 1.5;" width="151" x="177.4779" y="402"/><ellipse cx="192.4779" cy="418" fill="#ADD1B2" rx="11" ry="11" style="stroke: #A80036; stroke-width: 1.0;"/><path d="M195.4467,423.6406 Q194.8685,423.9375 194.2279,424.0859 Q193.5873,424.2344 192.8842,424.2344 Q190.3842,424.2344 189.0638,422.5859 Q187.7435,420.9375 187.7435,417.8125 Q187.7435,414.6875 189.0638,413.0313 Q190.3842,411.375 192.8842,411.375 Q193.5873,411.375 194.2357,411.5313 Q194.8842,411.6875 195.4467,411.9844 L195.4467,414.7031 Q194.8217,414.125 194.2279,413.8516 Q193.6342,413.5781 193.0092,413.5781 Q191.6654,413.5781 190.9779,414.6484 Q190.2904,415.7188 190.2904,417.8125 Q190.2904,419.9063 190.9779,420.9766 Q191.6654,422.0469 193.0092,422.0469 Q193.6342,422.0469 194.2279,421.7734 Q194.8217,421.5 195.4467,420.9219 L195.4467,423.6406 Z "/><text fill="#000000" font-family="sans-serif" font-size="12" lengthAdjust="spacingAndGlyphs" textLength="119" x="206.4779" y="422.1543">FreelancerRegister</text><line style="stroke: #A80036; stroke-width: 1.5;" x1="178.4779" x2="327.4779" y1="434" y2="434"/><line style="stroke: #A80036; stroke-width: 1.5;" x1="178.4779" x2="327.4779" y1="442" y2="442"/><text fill="#000000" font-family="sans-serif" font-size="11" lengthAdjust="spacingAndGlyphs" textLength="122" x="183.4779" y="456.2104">+getFreelancersList()</text><!--MD5=[1f687b5315377fe49fca59b457947463]
class Freelancer--><rect fill="#FEFECE" filter="url(#f1ouv0a6kk20i6)" height="163.2422" id="Freelancer" style="stroke: #A80036; stroke-width: 1.5;" width="146" x="179.9779" y="540"/><ellipse cx="216.1279" cy="556" fill="#ADD1B2" rx="11" ry="11" style="stroke: #A80036; stroke-width: 1.0;"/><path d="M219.0967,561.6406 Q218.5185,561.9375 217.8779,562.0859 Q217.2373,562.2344 216.5342,562.2344 Q214.0342,562.2344 212.7138,560.5859 Q211.3935,558.9375 211.3935,555.8125 Q211.3935,552.6875 212.7138,551.0313 Q214.0342,549.375 216.5342,549.375 Q217.2373,549.375 217.8857,549.5313 Q218.5342,549.6875 219.0967,549.9844 L219.0967,552.7031 Q218.4717,552.125 217.8779,551.8516 Q217.2842,551.5781 216.6592,551.5781 Q215.3154,551.5781 214.6279,552.6484 Q213.9404,553.7188 213.9404,555.8125 Q213.9404,557.9063 214.6279,558.9766 Q215.3154,560.0469 216.6592,560.0469 Q217.2842,560.0469 217.8779,559.7734 Q218.4717,559.5 219.0967,558.9219 L219.0967,561.6406 Z "/><text fill="#000000" font-family="sans-serif" font-size="12" lengthAdjust="spacingAndGlyphs" textLength="67" x="234.8279" y="560.1543">Freelancer</text><line style="stroke: #A80036; stroke-width: 1.5;" x1="180.9779" x2="324.9779" y1="572" y2="572"/><text fill="#000000" font-family="sans-serif" font-size="11" lengthAdjust="spacingAndGlyphs" textLength="52" x="185.9779" y="586.2104">-String id</text><text fill="#000000" font-family="sans-serif" font-size="11" lengthAdjust="spacingAndGlyphs" textLength="74" x="185.9779" y="599.0151">-String name</text><text fill="#000000" font-family="sans-serif" font-size="11" lengthAdjust="spacingAndGlyphs" textLength="134" x="185.9779" y="611.8198">-String levelOfExpertise</text><text fill="#000000" font-family="sans-serif" font-size="11" lengthAdjust="spacingAndGlyphs" textLength="59" x="185.9779" y="624.6245">-String NIF</text><text fill="#000000" font-family="sans-serif" font-size="11" lengthAdjust="spacingAndGlyphs" textLength="68" x="185.9779" y="637.4292">-String IBAN</text><text fill="#000000" font-family="sans-serif" font-size="11" lengthAdjust="spacingAndGlyphs" textLength="82" x="185.9779" y="650.2339">-String adress</text><text fill="#000000" font-family="sans-serif" font-size="11" lengthAdjust="spacingAndGlyphs" textLength="84" x="185.9779" y="663.0386">-String country</text><line style="stroke: #A80036; stroke-width: 1.5;" x1="180.9779" x2="324.9779" y1="669.6328" y2="669.6328"/><text fill="#000000" font-family="sans-serif" font-size="11" lengthAdjust="spacingAndGlyphs" textLength="82" x="185.9779" y="683.8433">+getTaskList()</text><text fill="#000000" font-family="sans-serif" font-size="11" lengthAdjust="spacingAndGlyphs" textLength="68" x="185.9779" y="696.6479">+getName()</text><!--MD5=[b34797a66dc35cbf1d65f7e3ca75530e]
class Task--><rect fill="#FEFECE" filter="url(#f1ouv0a6kk20i6)" height="163.2422" id="Task" style="stroke: #A80036; stroke-width: 1.5;" width="183" x="161.4779" y="1007"/><ellipse cx="234.2279" cy="1023" fill="#ADD1B2" rx="11" ry="11" style="stroke: #A80036; stroke-width: 1.0;"/><path d="M237.1967,1028.6406 Q236.6185,1028.9375 235.9779,1029.0859 Q235.3373,1029.2344 234.6342,1029.2344 Q232.1342,1029.2344 230.8138,1027.5859 Q229.4935,1025.9375 229.4935,1022.8125 Q229.4935,1019.6875 230.8138,1018.0313 Q232.1342,1016.375 234.6342,1016.375 Q235.3373,1016.375 235.9857,1016.5313 Q236.6342,1016.6875 237.1967,1016.9844 L237.1967,1019.7031 Q236.5717,1019.125 235.9779,1018.8516 Q235.3842,1018.5781 234.7592,1018.5781 Q233.4154,1018.5781 232.7279,1019.6484 Q232.0404,1020.7188 232.0404,1022.8125 Q232.0404,1024.9063 232.7279,1025.9766 Q233.4154,1027.0469 234.7592,1027.0469 Q235.3842,1027.0469 235.9779,1026.7734 Q236.5717,1026.5 237.1967,1025.9219 L237.1967,1028.6406 Z "/><text fill="#000000" font-family="sans-serif" font-size="12" lengthAdjust="spacingAndGlyphs" textLength="29" x="254.7279" y="1027.1543">Task</text><line style="stroke: #A80036; stroke-width: 1.5;" x1="162.4779" x2="343.4779" y1="1039" y2="1039"/><text fill="#000000" font-family="sans-serif" font-size="11" lengthAdjust="spacingAndGlyphs" textLength="52" x="167.4779" y="1053.2104">-String id</text><text fill="#000000" font-family="sans-serif" font-size="11" lengthAdjust="spacingAndGlyphs" textLength="132" x="167.4779" y="1066.0151">-String briefDescription</text><text fill="#000000" font-family="sans-serif" font-size="11" lengthAdjust="spacingAndGlyphs" textLength="121" x="167.4779" y="1078.8198">-Integer timeDuration</text><text fill="#000000" font-family="sans-serif" font-size="11" lengthAdjust="spacingAndGlyphs" textLength="105" x="167.4779" y="1091.6245">-Float costPerHour</text><text fill="#000000" font-family="sans-serif" font-size="11" lengthAdjust="spacingAndGlyphs" textLength="117" x="167.4779" y="1104.4292">-String taskCategory</text><text fill="#000000" font-family="sans-serif" font-size="11" lengthAdjust="spacingAndGlyphs" textLength="81" x="167.4779" y="1117.2339">-Date endDate</text><text fill="#000000" font-family="sans-serif" font-size="11" lengthAdjust="spacingAndGlyphs" textLength="65" x="167.4779" y="1130.0386">-Float delay</text><text fill="#000000" font-family="sans-serif" font-size="11" lengthAdjust="spacingAndGlyphs" textLength="171" x="167.4779" y="1142.8433">-String briefDescriptionQuality</text><line style="stroke: #A80036; stroke-width: 1.5;" x1="162.4779" x2="343.4779" y1="1149.4375" y2="1149.4375"/><text fill="#000000" font-family="sans-serif" font-size="11" lengthAdjust="spacingAndGlyphs" textLength="151" x="167.4779" y="1163.6479">+getPaymentTransaction()</text><!--MD5=[b645a18afb25b7e5623af7186d8eb36f]
class PaymentTransaction--><rect fill="#FEFECE" filter="url(#f1ouv0a6kk20i6)" height="112.0234" id="PaymentTransaction" style="stroke: #A80036; stroke-width: 1.5;" width="160" x="395.9779" y="1032.5"/><ellipse cx="410.9779" cy="1048.5" fill="#ADD1B2" rx="11" ry="11" style="stroke: #A80036; stroke-width: 1.0;"/><path d="M413.9467,1054.1406 Q413.3685,1054.4375 412.7279,1054.5859 Q412.0873,1054.7344 411.3842,1054.7344 Q408.8842,1054.7344 407.5638,1053.0859 Q406.2435,1051.4375 406.2435,1048.3125 Q406.2435,1045.1875 407.5638,1043.5313 Q408.8842,1041.875 411.3842,1041.875 Q412.0873,1041.875 412.7357,1042.0313 Q413.3842,1042.1875 413.9467,1042.4844 L413.9467,1045.2031 Q413.3217,1044.625 412.7279,1044.3516 Q412.1342,1044.0781 411.5092,1044.0781 Q410.1654,1044.0781 409.4779,1045.1484 Q408.7904,1046.2188 408.7904,1048.3125 Q408.7904,1050.4063 409.4779,1051.4766 Q410.1654,1052.5469 411.5092,1052.5469 Q412.1342,1052.5469 412.7279,1052.2734 Q413.3217,1052 413.9467,1051.4219 L413.9467,1054.1406 Z "/><text fill="#000000" font-family="sans-serif" font-size="12" lengthAdjust="spacingAndGlyphs" textLength="128" x="424.9779" y="1052.6543">PaymentTransaction</text><line style="stroke: #A80036; stroke-width: 1.5;" x1="396.9779" x2="554.9779" y1="1064.5" y2="1064.5"/><text fill="#000000" font-family="sans-serif" font-size="11" lengthAdjust="spacingAndGlyphs" textLength="52" x="401.9779" y="1078.7104">-String id</text><text fill="#000000" font-family="sans-serif" font-size="11" lengthAdjust="spacingAndGlyphs" textLength="71" x="401.9779" y="1091.5151">-Float amout</text><text fill="#000000" font-family="sans-serif" font-size="11" lengthAdjust="spacingAndGlyphs" textLength="88" x="401.9779" y="1104.3198">-Boolean payed</text><line style="stroke: #A80036; stroke-width: 1.5;" x1="396.9779" x2="554.9779" y1="1110.9141" y2="1110.9141"/><text fill="#000000" font-family="sans-serif" font-size="11" lengthAdjust="spacingAndGlyphs" textLength="116" x="401.9779" y="1125.1245">+getExecutionTask()</text><text fill="#000000" font-family="sans-serif" font-size="11" lengthAdjust="spacingAndGlyphs" textLength="78" x="401.9779" y="1137.9292">+getAmount()</text><!--MD5=[feb7363c14fdfe20e6ad09f57508482a]
class ExecutionTask--><rect fill="#FEFECE" filter="url(#f1ouv0a6kk20i6)" height="99.2188" id="ExecutionTask" style="stroke: #A80036; stroke-width: 1.5;" width="183" x="384.4779" y="1231"/><ellipse cx="426.9279" cy="1247" fill="#ADD1B2" rx="11" ry="11" style="stroke: #A80036; stroke-width: 1.0;"/><path d="M429.8966,1252.6406 Q429.3185,1252.9375 428.6779,1253.0859 Q428.0373,1253.2344 427.3341,1253.2344 Q424.8341,1253.2344 423.5138,1251.5859 Q422.1935,1249.9375 422.1935,1246.8125 Q422.1935,1243.6875 423.5138,1242.0313 Q424.8341,1240.375 427.3341,1240.375 Q428.0373,1240.375 428.6857,1240.5313 Q429.3341,1240.6875 429.8966,1240.9844 L429.8966,1243.7031 Q429.2716,1243.125 428.6779,1242.8516 Q428.0841,1242.5781 427.4591,1242.5781 Q426.1154,1242.5781 425.4279,1243.6484 Q424.7404,1244.7188 424.7404,1246.8125 Q424.7404,1248.9063 425.4279,1249.9766 Q426.1154,1251.0469 427.4591,1251.0469 Q428.0841,1251.0469 428.6779,1250.7734 Q429.2716,1250.5 429.8966,1249.9219 L429.8966,1252.6406 Z "/><text fill="#000000" font-family="sans-serif" font-size="12" lengthAdjust="spacingAndGlyphs" textLength="90" x="447.0279" y="1251.1543">ExecutionTask</text><line style="stroke: #A80036; stroke-width: 1.5;" x1="385.4779" x2="566.4779" y1="1263" y2="1263"/><text fill="#000000" font-family="sans-serif" font-size="11" lengthAdjust="spacingAndGlyphs" textLength="81" x="390.4779" y="1277.2104">-Date endDate</text><text fill="#000000" font-family="sans-serif" font-size="11" lengthAdjust="spacingAndGlyphs" textLength="65" x="390.4779" y="1290.0151">-Float delay</text><text fill="#000000" font-family="sans-serif" font-size="11" lengthAdjust="spacingAndGlyphs" textLength="171" x="390.4779" y="1302.8198">-String briefDescriptionQuality</text><line style="stroke: #A80036; stroke-width: 1.5;" x1="385.4779" x2="566.4779" y1="1309.4141" y2="1309.4141"/><text fill="#000000" font-family="sans-serif" font-size="11" lengthAdjust="spacingAndGlyphs" textLength="66" x="390.4779" y="1323.6245">+getDelay()</text><!--MD5=[6d64456c0a9e8fa0af7ec97958b3811c]
class CalculateStatistics--><rect fill="#FEFECE" filter="url(#f1ouv0a6kk20i6)" height="150.4375" id="CalculateStatistics" style="stroke: #A80036; stroke-width: 1.5;" width="338" x="83.9779" y="780"/><ellipse cx="190.7279" cy="796" fill="#ADD1B2" rx="11" ry="11" style="stroke: #A80036; stroke-width: 1.0;"/><path d="M193.6967,801.6406 Q193.1185,801.9375 192.4779,802.0859 Q191.8373,802.2344 191.1342,802.2344 Q188.6342,802.2344 187.3138,800.5859 Q185.9935,798.9375 185.9935,795.8125 Q185.9935,792.6875 187.3138,791.0313 Q188.6342,789.375 191.1342,789.375 Q191.8373,789.375 192.4857,789.5313 Q193.1342,789.6875 193.6967,789.9844 L193.6967,792.7031 Q193.0717,792.125 192.4779,791.8516 Q191.8842,791.5781 191.2592,791.5781 Q189.9154,791.5781 189.2279,792.6484 Q188.5404,793.7188 188.5404,795.8125 Q188.5404,797.9063 189.2279,798.9766 Q189.9154,800.0469 191.2592,800.0469 Q191.8842,800.0469 192.4779,799.7734 Q193.0717,799.5 193.6967,798.9219 L193.6967,801.6406 Z "/><text fill="#000000" font-family="sans-serif" font-size="12" lengthAdjust="spacingAndGlyphs" textLength="116" x="211.2279" y="800.1543">CalculateStatistics</text><line style="stroke: #A80036; stroke-width: 1.5;" x1="84.9779" x2="420.9779" y1="812" y2="812"/><line style="stroke: #A80036; stroke-width: 1.5;" x1="84.9779" x2="420.9779" y1="820" y2="820"/><text fill="#000000" font-family="sans-serif" font-size="11" lengthAdjust="spacingAndGlyphs" textLength="211" x="89.9779" y="834.2104">+calculateMeanDelayFreelancer(free)</text><text fill="#000000" font-family="sans-serif" font-size="11" lengthAdjust="spacingAndGlyphs" textLength="308" x="89.9779" y="847.0151">+calculateStandartDeviationDelayFreelancer(free, md)</text><text fill="#000000" font-family="sans-serif" font-size="11" lengthAdjust="spacingAndGlyphs" textLength="229" x="89.9779" y="859.8198">+calculateMeanPaymentFreelancer(free)</text><text fill="#000000" font-family="sans-serif" font-size="11" lengthAdjust="spacingAndGlyphs" textLength="326" x="89.9779" y="872.6245">+calculateStandartDeviationPaymentFreelancer(free, mp)</text><text fill="#000000" font-family="sans-serif" font-size="11" lengthAdjust="spacingAndGlyphs" textLength="141" x="89.9779" y="885.4292">+calculateMeanDelayAll()</text><text fill="#000000" font-family="sans-serif" font-size="11" lengthAdjust="spacingAndGlyphs" textLength="237" x="89.9779" y="898.2339">+calculateStandartDeviationDelayAll(mda)</text><text fill="#000000" font-family="sans-serif" font-size="11" lengthAdjust="spacingAndGlyphs" textLength="159" x="89.9779" y="911.0386">+calculateMeanPaymentAll()</text><text fill="#000000" font-family="sans-serif" font-size="11" lengthAdjust="spacingAndGlyphs" textLength="255" x="89.9779" y="923.8433">+calculateStandartDeviationPaymentAll(mpa)</text><!--MD5=[d2885d266d9234a1b3ecec8aeeb89095]
link ShowGeneralStatisticsUI to ShowGeneralStatisticsController--><path d="M252.9779,56.0758 C252.9779,71.6979 252.9779,92.6042 252.9779,111.5687 " fill="none" id="ShowGeneralStatisticsUI-&gt;ShowGeneralStatisticsController" style="stroke: #A80036; stroke-width: 1.0; stroke-dasharray: 7.0,7.0;"/><polygon fill="#A80036" points="252.9779,116.8602,256.9779,107.8602,252.9779,111.8602,248.9779,107.8602,252.9779,116.8602" style="stroke: #A80036; stroke-width: 1.0;"/><!--MD5=[975c35bc04fd29fc0af81ae20161d078]
link ShowGeneralStatisticsController to Platform--><path d="M252.9779,203.297 C252.9779,221.1132 252.9779,241.5095 252.9779,258.4896 " fill="none" id="ShowGeneralStatisticsController-&gt;Platform" style="stroke: #A80036; stroke-width: 1.0; stroke-dasharray: 7.0,7.0;"/><polygon fill="#A80036" points="252.9779,263.643,256.9779,254.643,252.9779,258.643,248.9779,254.643,252.9779,263.643" style="stroke: #A80036; stroke-width: 1.0;"/><!--MD5=[31b160c41b40f1f198969df3eb5fcc67]
link Platform to FreelancerRegister--><path d="M252.9779,325.1267 C252.9779,346.2983 252.9779,374.5374 252.9779,396.7418 " fill="none" id="Platform-&gt;FreelancerRegister" style="stroke: #A80036; stroke-width: 1.0;"/><polygon fill="#A80036" points="252.9779,401.9589,256.9779,392.9589,252.9779,396.9589,248.9779,392.9589,252.9779,401.9589" style="stroke: #A80036; stroke-width: 1.0;"/><text fill="#000000" font-family="sans-serif" font-size="13" lengthAdjust="spacingAndGlyphs" textLength="54" x="253.9779" y="368.0669">contains</text><polygon fill="#000000" points="276.4779,377.1328,279.4779,383.1328,282.4779,377.1328,276.4779,377.1328" style="stroke: #000000; stroke-width: 1.0;"/><text fill="#000000" font-family="sans-serif" font-size="13" lengthAdjust="spacingAndGlyphs" textLength="8" x="244.1529" y="345.0911">1</text><text fill="#000000" font-family="sans-serif" font-size="13" lengthAdjust="spacingAndGlyphs" textLength="8" x="244.1029" y="390.7402">1</text><!--MD5=[a4cb23ae9b63896b4ff4e454c9456065]
link FreelancerRegister to Freelancer--><path d="M252.9779,463.2868 C252.9779,482.8013 252.9779,509.1008 252.9779,534.6497 " fill="none" id="FreelancerRegister-&gt;Freelancer" style="stroke: #A80036; stroke-width: 1.0;"/><polygon fill="#A80036" points="252.9779,539.7472,256.9779,530.7472,252.9779,534.7472,248.9779,530.7472,252.9779,539.7472" style="stroke: #A80036; stroke-width: 1.0;"/><text fill="#000000" font-family="sans-serif" font-size="13" lengthAdjust="spacingAndGlyphs" textLength="54" x="253.9779" y="506.0669">contains</text><polygon fill="#000000" points="276.4779,515.1328,279.4779,521.1328,282.4779,515.1328,276.4779,515.1328" style="stroke: #000000; stroke-width: 1.0;"/><text fill="#000000" font-family="sans-serif" font-size="13" lengthAdjust="spacingAndGlyphs" textLength="8" x="244.1904" y="482.9237">1</text><text fill="#000000" font-family="sans-serif" font-size="13" lengthAdjust="spacingAndGlyphs" textLength="23" x="228.9537" y="528.8601">0..*</text><!--MD5=[c1fdc01b57d68b12a388c9339bb68097]
link Freelancer to PaymentTransaction--><path d="M326.261,664.5324 C366.4511,692.2069 413.2144,731.9544 438.9779,780 C480.655,857.7224 484.1898,961.9956 481.3021,1027.2076 " fill="none" id="Freelancer-&gt;PaymentTransaction" style="stroke: #A80036; stroke-width: 1.0;"/><polygon fill="#A80036" points="481.0639,1032.2236,485.4865,1023.4236,481.3012,1027.2292,477.4955,1023.0439,481.0639,1032.2236" style="stroke: #A80036; stroke-width: 1.0;"/><text fill="#000000" font-family="sans-serif" font-size="13" lengthAdjust="spacingAndGlyphs" textLength="77" x="479.9779" y="859.5669">regarded by</text><polygon fill="#000000" points="513.9779,868.6328,516.9779,874.6328,519.9779,868.6328,513.9779,868.6328" style="stroke: #000000; stroke-width: 1.0;"/><text fill="#000000" font-family="sans-serif" font-size="13" lengthAdjust="spacingAndGlyphs" textLength="8" x="333.8686" y="665.0916">1</text><text fill="#000000" font-family="sans-serif" font-size="13" lengthAdjust="spacingAndGlyphs" textLength="8" x="473.1963" y="1021.5244">1</text><!--MD5=[b4b6c1ff9c803d8207b36238c02005ea]
link Freelancer to Task--><path d="M179.9715,650.982 C127.4384,676.5375 60.5042,719.0719 28.9779,780 C-1.6593,839.2098 -1.6593,870.7902 28.9779,930 C56.0195,982.2609 109.1118,1020.989 156.8217,1047.0772 " fill="none" id="Freelancer-&gt;Task" style="stroke: #A80036; stroke-width: 1.0;"/><polygon fill="#A80036" points="161.421,1049.5624,155.4047,1041.7647,157.0221,1047.1854,151.6015,1048.8029,161.421,1049.5624" style="stroke: #A80036; stroke-width: 1.0;"/><text fill="#000000" font-family="sans-serif" font-size="13" lengthAdjust="spacingAndGlyphs" textLength="23" x="29.9779" y="859.5669">has</text><polygon fill="#000000" points="36.9779,868.6328,39.9779,874.6328,42.9779,868.6328,36.9779,868.6328" style="stroke: #000000; stroke-width: 1.0;"/><text fill="#000000" font-family="sans-serif" font-size="13" lengthAdjust="spacingAndGlyphs" textLength="8" x="164.0302" y="650.3101">1</text><text fill="#000000" font-family="sans-serif" font-size="13" lengthAdjust="spacingAndGlyphs" textLength="7" x="146.5491" y="1042.7792">*</text><!--MD5=[f32cf5e096025663d3dcabe4297757c8]
link Freelancer to CalculateStatistics--><path d="M252.9779,703.167 C252.9779,726.2752 252.9779,751.405 252.9779,774.4471 " fill="none" id="Freelancer-&gt;CalculateStatistics" style="stroke: #A80036; stroke-width: 1.0;"/><polygon fill="#A80036" points="252.9779,779.6376,256.9779,770.6376,252.9779,774.6376,248.9779,770.6376,252.9779,779.6376" style="stroke: #A80036; stroke-width: 1.0;"/><text fill="#000000" font-family="sans-serif" font-size="13" lengthAdjust="spacingAndGlyphs" textLength="23" x="253.9779" y="746.0669">use</text><polygon fill="#000000" points="260.9779,755.1328,263.9779,761.1328,266.9779,755.1328,260.9779,755.1328" style="stroke: #000000; stroke-width: 1.0;"/><text fill="#000000" font-family="sans-serif" font-size="13" lengthAdjust="spacingAndGlyphs" textLength="23" x="228.9537" y="723.1705">1..*</text><text fill="#000000" font-family="sans-serif" font-size="13" lengthAdjust="spacingAndGlyphs" textLength="8" x="244.6092" y="769.0516">1</text><!--MD5=[42b156ad5e7de89367c31db08d42ca6a]
link CalculateStatistics to Task--><path d="M252.9779,930.1662 C252.9779,952.8481 252.9779,977.9389 252.9779,1001.333 " fill="none" id="CalculateStatistics-&gt;Task" style="stroke: #A80036; stroke-width: 1.0;"/><polygon fill="#A80036" points="252.9779,1006.6101,256.9779,997.6101,252.9779,1001.6101,248.9779,997.6101,252.9779,1006.6101" style="stroke: #A80036; stroke-width: 1.0;"/><text fill="#000000" font-family="sans-serif" font-size="13" lengthAdjust="spacingAndGlyphs" textLength="15" x="253.9779" y="973.0669">as</text><polygon fill="#000000" points="256.9779,982.1328,259.9779,988.1328,262.9779,982.1328,256.9779,982.1328" style="stroke: #000000; stroke-width: 1.0;"/><text fill="#000000" font-family="sans-serif" font-size="13" lengthAdjust="spacingAndGlyphs" textLength="8" x="244.5654" y="950.7423">1</text><text fill="#000000" font-family="sans-serif" font-size="13" lengthAdjust="spacingAndGlyphs" textLength="23" x="228.9896" y="995.9904">1..*</text><!--MD5=[f24cbd698439a42b2d62cde440643418]
link Task to PaymentTransaction--><path d="M344.8783,1088.5 C360.1382,1088.5 375.3981,1088.5 390.6579,1088.5 " fill="none" id="Task-&gt;PaymentTransaction" style="stroke: #A80036; stroke-width: 1.0;"/><polygon fill="#A80036" points="395.833,1088.5,386.833,1084.5,390.833,1088.5,386.833,1092.5,395.833,1088.5" style="stroke: #A80036; stroke-width: 1.0;"/><!--MD5=[54cd5b92152f116e1ce633be05b97b77]
link PaymentTransaction to ExecutionTask--><path d="M475.9779,1144.5505 C475.9779,1170.1813 475.9779,1200.4363 475.9779,1225.8899 " fill="none" id="PaymentTransaction-&gt;ExecutionTask" style="stroke: #A80036; stroke-width: 1.0;"/><polygon fill="#A80036" points="475.9779,1230.9138,479.9779,1221.9138,475.9779,1225.9138,471.9779,1221.9138,475.9779,1230.9138" style="stroke: #A80036; stroke-width: 1.0;"/><!--MD5=[953b16130bee43c5259bf35589211b62]
@startuml
skinparam classAttributeIconSize 0

class ShowGeneralStatisticsUI {
  }

class ShowGeneralStatisticsController {
  +getStatisticsEachOne()
  +getStatisticsAll()
  +showHistograms
  }

class Platform {
  +getFreelancerRegister()
  }

class FreelancerRegister{
  +getFreelancersList()
  }

class Freelancer {
  -String id
  -String name
  -String levelOfExpertise
  -String NIF
  -String IBAN
  -String adress
  -String country
  +getTaskList()
  +getName()
  }


class Task {
  -String id
  -String briefDescription
  -Integer timeDuration
  -Float costPerHour
  -String taskCategory
  -Date endDate
  -Float delay
  -String briefDescriptionQuality
  +getPaymentTransaction()
  }

class PaymentTransaction{
  -String id
  -Float amout
  -Boolean payed
  +getExecutionTask()
  +getAmount()
  }

class ExecutionTask {
  -Date endDate
  -Float delay
  -String briefDescriptionQuality
  +getDelay()
  }

class CalculateStatistics {
  +calculateMeanDelayFreelancer(free)
  +calculateStandartDeviationDelayFreelancer(free, md)
  +calculateMeanPaymentFreelancer(free)
  + calculateStandartDeviationPaymentFreelancer(free, mp)
  +calculateMeanDelayAll()
  +calculateStandartDeviationDelayAll(mda)
  +calculateMeanPaymentAll()
  +calculateStandartDeviationPaymentAll(mpa)
  }

ShowGeneralStatisticsUI ..> ShowGeneralStatisticsController
ShowGeneralStatisticsController ..> Platform

Platform "1" - -> "1" FreelancerRegister : contains >

FreelancerRegister "1" - -> "0..*" Freelancer : contains >


Freelancer "1" - -> "1" PaymentTransaction : regarded by >
Freelancer "1" - -> "*" Task : has >
Freelancer "1..*" - -> "1" CalculateStatistics : use >

CalculateStatistics "1"- ->"1..*" Task : as >

Task -> PaymentTransaction

PaymentTransaction - -> ExecutionTask
@enduml

PlantUML version 1.2019.12(Sun Nov 03 10:24:54 UTC 2019)
(GPL source distribution)
Java Runtime: OpenJDK Runtime Environment
JVM: OpenJDK 64-Bit Server VM
Java Version: 1.8.0_232-heroku-b09
Operating System: Linux
Default Encoding: UTF-8
Language: en
Country: US
--></g></svg>