<?xml version="1.0" encoding="UTF-8" standalone="no"?><svg xmlns="http://www.w3.org/2000/svg" xmlns:xlink="http://www.w3.org/1999/xlink" contentScriptType="application/ecmascript" contentStyleType="text/css" height="349px" preserveAspectRatio="none" style="width:1252px;height:349px;" version="1.1" viewBox="0 0 1252 349" width="1252px" zoomAndPan="magnify"><defs><filter height="300%" id="fctypqjpqynu9" width="300%" x="-1" y="-1"><feGaussianBlur result="blurOut" stdDeviation="2.0"/><feColorMatrix in="blurOut" result="blurOut2" type="matrix" values="0 0 0 0 0 0 0 0 0 0 0 0 0 0 0 0 0 0 .4 0"/><feOffset dx="4.0" dy="4.0" in="blurOut2" result="blurOut3"/><feBlend in="SourceGraphic" in2="blurOut3" mode="normal"/></filter></defs><g><!--MD5=[99b8db98afdc2c8404e39242ef4c1e65]
class Platform--><rect fill="#FEFECE" filter="url(#fctypqjpqynu9)" height="40" id="Platform" style="stroke: #A80036; stroke-width: 1.5;" width="84" x="6" y="170"/><ellipse cx="21" cy="186" fill="#ADD1B2" rx="11" ry="11" style="stroke: #A80036; stroke-width: 1.0;"/><path d="M23.9688,191.6406 Q23.3906,191.9375 22.75,192.0859 Q22.1094,192.2344 21.4063,192.2344 Q18.9063,192.2344 17.5859,190.5859 Q16.2656,188.9375 16.2656,185.8125 Q16.2656,182.6875 17.5859,181.0313 Q18.9063,179.375 21.4063,179.375 Q22.1094,179.375 22.7578,179.5313 Q23.4063,179.6875 23.9688,179.9844 L23.9688,182.7031 Q23.3438,182.125 22.75,181.8516 Q22.1563,181.5781 21.5313,181.5781 Q20.1875,181.5781 19.5,182.6484 Q18.8125,183.7188 18.8125,185.8125 Q18.8125,187.9063 19.5,188.9766 Q20.1875,190.0469 21.5313,190.0469 Q22.1563,190.0469 22.75,189.7734 Q23.3438,189.5 23.9688,188.9219 L23.9688,191.6406 Z "/><text fill="#000000" font-family="sans-serif" font-size="12" lengthAdjust="spacingAndGlyphs" textLength="52" x="35" y="190.1543">Platform</text><line style="stroke: #A80036; stroke-width: 1.5;" x1="7" x2="89" y1="202" y2="202"/><!--MD5=[1f687b5315377fe49fca59b457947463]
class Freelancer--><rect fill="#FEFECE" filter="url(#fctypqjpqynu9)" height="129.6328" id="Freelancer" style="stroke: #A80036; stroke-width: 1.5;" width="146" x="795.5" y="8"/><ellipse cx="831.65" cy="24" fill="#ADD1B2" rx="11" ry="11" style="stroke: #A80036; stroke-width: 1.0;"/><path d="M834.6188,29.6406 Q834.0406,29.9375 833.4,30.0859 Q832.7594,30.2344 832.0563,30.2344 Q829.5563,30.2344 828.2359,28.5859 Q826.9156,26.9375 826.9156,23.8125 Q826.9156,20.6875 828.2359,19.0313 Q829.5563,17.375 832.0563,17.375 Q832.7594,17.375 833.4078,17.5313 Q834.0563,17.6875 834.6188,17.9844 L834.6188,20.7031 Q833.9938,20.125 833.4,19.8516 Q832.8063,19.5781 832.1813,19.5781 Q830.8375,19.5781 830.15,20.6484 Q829.4625,21.7188 829.4625,23.8125 Q829.4625,25.9063 830.15,26.9766 Q830.8375,28.0469 832.1813,28.0469 Q832.8063,28.0469 833.4,27.7734 Q833.9938,27.5 834.6188,26.9219 L834.6188,29.6406 Z "/><text fill="#000000" font-family="sans-serif" font-size="12" lengthAdjust="spacingAndGlyphs" textLength="67" x="850.35" y="28.1543">Freelancer</text><line style="stroke: #A80036; stroke-width: 1.5;" x1="796.5" x2="940.5" y1="40" y2="40"/><text fill="#000000" font-family="sans-serif" font-size="11" lengthAdjust="spacingAndGlyphs" textLength="52" x="801.5" y="54.2104">-String id</text><text fill="#000000" font-family="sans-serif" font-size="11" lengthAdjust="spacingAndGlyphs" textLength="74" x="801.5" y="67.0151">-String name</text><text fill="#000000" font-family="sans-serif" font-size="11" lengthAdjust="spacingAndGlyphs" textLength="134" x="801.5" y="79.8198">-String levelOfExpertise</text><text fill="#000000" font-family="sans-serif" font-size="11" lengthAdjust="spacingAndGlyphs" textLength="59" x="801.5" y="92.6245">-String NIF</text><text fill="#000000" font-family="sans-serif" font-size="11" lengthAdjust="spacingAndGlyphs" textLength="68" x="801.5" y="105.4292">-String IBAN</text><text fill="#000000" font-family="sans-serif" font-size="11" lengthAdjust="spacingAndGlyphs" textLength="82" x="801.5" y="118.2339">-String adress</text><text fill="#000000" font-family="sans-serif" font-size="11" lengthAdjust="spacingAndGlyphs" textLength="84" x="801.5" y="131.0386">-String country</text><!--MD5=[b34797a66dc35cbf1d65f7e3ca75530e]
class Task--><rect fill="#FEFECE" filter="url(#fctypqjpqynu9)" height="142.4375" id="Task" style="stroke: #A80036; stroke-width: 1.5;" width="183" x="1058" y="119"/><ellipse cx="1130.75" cy="135" fill="#ADD1B2" rx="11" ry="11" style="stroke: #A80036; stroke-width: 1.0;"/><path d="M1133.7188,140.6406 Q1133.1406,140.9375 1132.5,141.0859 Q1131.8594,141.2344 1131.1563,141.2344 Q1128.6563,141.2344 1127.3359,139.5859 Q1126.0156,137.9375 1126.0156,134.8125 Q1126.0156,131.6875 1127.3359,130.0313 Q1128.6563,128.375 1131.1563,128.375 Q1131.8594,128.375 1132.5078,128.5313 Q1133.1563,128.6875 1133.7188,128.9844 L1133.7188,131.7031 Q1133.0938,131.125 1132.5,130.8516 Q1131.9063,130.5781 1131.2813,130.5781 Q1129.9375,130.5781 1129.25,131.6484 Q1128.5625,132.7188 1128.5625,134.8125 Q1128.5625,136.9063 1129.25,137.9766 Q1129.9375,139.0469 1131.2813,139.0469 Q1131.9063,139.0469 1132.5,138.7734 Q1133.0938,138.5 1133.7188,137.9219 L1133.7188,140.6406 Z "/><text fill="#000000" font-family="sans-serif" font-size="12" lengthAdjust="spacingAndGlyphs" textLength="29" x="1151.25" y="139.1543">Task</text><line style="stroke: #A80036; stroke-width: 1.5;" x1="1059" x2="1240" y1="151" y2="151"/><text fill="#000000" font-family="sans-serif" font-size="11" lengthAdjust="spacingAndGlyphs" textLength="52" x="1064" y="165.2104">-String id</text><text fill="#000000" font-family="sans-serif" font-size="11" lengthAdjust="spacingAndGlyphs" textLength="132" x="1064" y="178.0151">-String briefDescription</text><text fill="#000000" font-family="sans-serif" font-size="11" lengthAdjust="spacingAndGlyphs" textLength="121" x="1064" y="190.8198">-Integer timeDuration</text><text fill="#000000" font-family="sans-serif" font-size="11" lengthAdjust="spacingAndGlyphs" textLength="105" x="1064" y="203.6245">-Float costPerHour</text><text fill="#000000" font-family="sans-serif" font-size="11" lengthAdjust="spacingAndGlyphs" textLength="117" x="1064" y="216.4292">-String taskCategory</text><text fill="#000000" font-family="sans-serif" font-size="11" lengthAdjust="spacingAndGlyphs" textLength="81" x="1064" y="229.2339">-Date endDate</text><text fill="#000000" font-family="sans-serif" font-size="11" lengthAdjust="spacingAndGlyphs" textLength="78" x="1064" y="242.0386">-Integer delay</text><text fill="#000000" font-family="sans-serif" font-size="11" lengthAdjust="spacingAndGlyphs" textLength="171" x="1064" y="254.8433">-String briefDescriptionQuality</text><!--MD5=[b645a18afb25b7e5623af7186d8eb36f]
class PaymentTransaction--><rect fill="#FEFECE" filter="url(#fctypqjpqynu9)" height="78.4141" id="PaymentTransaction" style="stroke: #A80036; stroke-width: 1.5;" width="160" x="481" y="151"/><ellipse cx="496" cy="167" fill="#ADD1B2" rx="11" ry="11" style="stroke: #A80036; stroke-width: 1.0;"/><path d="M498.9688,172.6406 Q498.3906,172.9375 497.75,173.0859 Q497.1094,173.2344 496.4063,173.2344 Q493.9063,173.2344 492.5859,171.5859 Q491.2656,169.9375 491.2656,166.8125 Q491.2656,163.6875 492.5859,162.0313 Q493.9063,160.375 496.4063,160.375 Q497.1094,160.375 497.7578,160.5313 Q498.4063,160.6875 498.9688,160.9844 L498.9688,163.7031 Q498.3438,163.125 497.75,162.8516 Q497.1563,162.5781 496.5313,162.5781 Q495.1875,162.5781 494.5,163.6484 Q493.8125,164.7188 493.8125,166.8125 Q493.8125,168.9063 494.5,169.9766 Q495.1875,171.0469 496.5313,171.0469 Q497.1563,171.0469 497.75,170.7734 Q498.3438,170.5 498.9688,169.9219 L498.9688,172.6406 Z "/><text fill="#000000" font-family="sans-serif" font-size="12" lengthAdjust="spacingAndGlyphs" textLength="128" x="510" y="171.1543">PaymentTransaction</text><line style="stroke: #A80036; stroke-width: 1.5;" x1="482" x2="640" y1="183" y2="183"/><text fill="#000000" font-family="sans-serif" font-size="11" lengthAdjust="spacingAndGlyphs" textLength="52" x="487" y="197.2104">-String id</text><text fill="#000000" font-family="sans-serif" font-size="11" lengthAdjust="spacingAndGlyphs" textLength="71" x="487" y="210.0151">-Float amout</text><text fill="#000000" font-family="sans-serif" font-size="11" lengthAdjust="spacingAndGlyphs" textLength="88" x="487" y="222.8198">-Boolean payed</text><!--MD5=[feb7363c14fdfe20e6ad09f57508482a]
class ExecutionTask--><rect fill="#FEFECE" filter="url(#fctypqjpqynu9)" height="78.4141" id="ExecutionTask" style="stroke: #A80036; stroke-width: 1.5;" width="183" x="777" y="260"/><ellipse cx="819.45" cy="276" fill="#ADD1B2" rx="11" ry="11" style="stroke: #A80036; stroke-width: 1.0;"/><path d="M822.4188,281.6406 Q821.8406,281.9375 821.2,282.0859 Q820.5594,282.2344 819.8563,282.2344 Q817.3563,282.2344 816.0359,280.5859 Q814.7156,278.9375 814.7156,275.8125 Q814.7156,272.6875 816.0359,271.0313 Q817.3563,269.375 819.8563,269.375 Q820.5594,269.375 821.2078,269.5313 Q821.8563,269.6875 822.4188,269.9844 L822.4188,272.7031 Q821.7938,272.125 821.2,271.8516 Q820.6063,271.5781 819.9813,271.5781 Q818.6375,271.5781 817.95,272.6484 Q817.2625,273.7188 817.2625,275.8125 Q817.2625,277.9063 817.95,278.9766 Q818.6375,280.0469 819.9813,280.0469 Q820.6063,280.0469 821.2,279.7734 Q821.7938,279.5 822.4188,278.9219 L822.4188,281.6406 Z "/><text fill="#000000" font-family="sans-serif" font-size="12" lengthAdjust="spacingAndGlyphs" textLength="90" x="839.55" y="280.1543">ExecutionTask</text><line style="stroke: #A80036; stroke-width: 1.5;" x1="778" x2="959" y1="292" y2="292"/><text fill="#000000" font-family="sans-serif" font-size="11" lengthAdjust="spacingAndGlyphs" textLength="81" x="783" y="306.2104">-Date endDate</text><text fill="#000000" font-family="sans-serif" font-size="11" lengthAdjust="spacingAndGlyphs" textLength="65" x="783" y="319.0151">-Float delay</text><text fill="#000000" font-family="sans-serif" font-size="11" lengthAdjust="spacingAndGlyphs" textLength="171" x="783" y="331.8198">-String briefDescriptionQuality</text><!--MD5=[da547346deef918ea16944ba046651ef]
class Administrator--><rect fill="#FEFECE" filter="url(#fctypqjpqynu9)" height="40" id="Administrator" style="stroke: #A80036; stroke-width: 1.5;" width="116" x="219" y="170"/><ellipse cx="234" cy="186" fill="#ADD1B2" rx="11" ry="11" style="stroke: #A80036; stroke-width: 1.0;"/><path d="M236.9688,191.6406 Q236.3906,191.9375 235.75,192.0859 Q235.1094,192.2344 234.4063,192.2344 Q231.9063,192.2344 230.5859,190.5859 Q229.2656,188.9375 229.2656,185.8125 Q229.2656,182.6875 230.5859,181.0313 Q231.9063,179.375 234.4063,179.375 Q235.1094,179.375 235.7578,179.5313 Q236.4063,179.6875 236.9688,179.9844 L236.9688,182.7031 Q236.3438,182.125 235.75,181.8516 Q235.1563,181.5781 234.5313,181.5781 Q233.1875,181.5781 232.5,182.6484 Q231.8125,183.7188 231.8125,185.8125 Q231.8125,187.9063 232.5,188.9766 Q233.1875,190.0469 234.5313,190.0469 Q235.1563,190.0469 235.75,189.7734 Q236.3438,189.5 236.9688,188.9219 L236.9688,191.6406 Z "/><text fill="#000000" font-family="sans-serif" font-size="12" lengthAdjust="spacingAndGlyphs" textLength="84" x="248" y="190.1543">Administrator</text><line style="stroke: #A80036; stroke-width: 1.5;" x1="220" x2="334" y1="202" y2="202"/><!--MD5=[0f7004bed4496639b3a5258ab2ead378]
link Platform to Administrator--><path d="M90.0021,190 C126.1562,190 178.6927,190 218.8806,190 " fill="none" id="Platform-Administrator" style="stroke: #A80036; stroke-width: 1.0;"/><text fill="#000000" font-family="sans-serif" font-size="13" lengthAdjust="spacingAndGlyphs" textLength="54" x="121" y="186.0669">contains</text><polygon fill="#000000" points="178,180.0664,184,183.0664,178,186.0664,178,180.0664" style="stroke: #000000; stroke-width: 1.0;"/><text fill="#000000" font-family="sans-serif" font-size="13" lengthAdjust="spacingAndGlyphs" textLength="8" x="97.9087" y="203.3674">1</text><text fill="#000000" font-family="sans-serif" font-size="13" lengthAdjust="spacingAndGlyphs" textLength="7" x="203.9856" y="203.0363">*</text><!--MD5=[fb34b7003b8246e938bec1c43108b6f4]
link Administrator to PaymentTransaction--><path d="M335.157,190 C377.1878,190 434.487,190 480.8519,190 " fill="none" id="Administrator-PaymentTransaction" style="stroke: #A80036; stroke-width: 1.0;"/><text fill="#000000" font-family="sans-serif" font-size="13" lengthAdjust="spacingAndGlyphs" textLength="71" x="366" y="186.0669">has access</text><polygon fill="#000000" points="440,180.0664,446,183.0664,440,186.0664,440,180.0664" style="stroke: #000000; stroke-width: 1.0;"/><text fill="#000000" font-family="sans-serif" font-size="13" lengthAdjust="spacingAndGlyphs" textLength="8" x="343.1209" y="203.0363">1</text><text fill="#000000" font-family="sans-serif" font-size="13" lengthAdjust="spacingAndGlyphs" textLength="7" x="465.8792" y="202.7683">*</text><!--MD5=[b4b6c1ff9c803d8207b36238c02005ea]
link Freelancer to Task--><path d="M941.5959,103.4349 C977.1273,118.2292 1020.1961,136.1617 1057.8979,151.8596 " fill="none" id="Freelancer-Task" style="stroke: #A80036; stroke-width: 1.0;"/><text fill="#000000" font-family="sans-serif" font-size="13" lengthAdjust="spacingAndGlyphs" textLength="23" x="991" y="121.0669">has</text><polygon fill="#000000" points="1017,115.0664,1023,118.0664,1017,121.0664,1017,115.0664" style="stroke: #000000; stroke-width: 1.0;"/><text fill="#000000" font-family="sans-serif" font-size="13" lengthAdjust="spacingAndGlyphs" textLength="8" x="949.5464" y="119.4396">1</text><text fill="#000000" font-family="sans-serif" font-size="13" lengthAdjust="spacingAndGlyphs" textLength="7" x="1043.0223" y="161.3765">*</text><!--MD5=[f6802b286771c18a16ea4be983074371]
link PaymentTransaction to Freelancer--><path d="M641.3904,159.4125 C689.0805,141.2669 749.07,118.4416 795.4166,100.8073 " fill="none" id="PaymentTransaction-Freelancer" style="stroke: #A80036; stroke-width: 1.0;"/><text fill="#000000" font-family="sans-serif" font-size="13" lengthAdjust="spacingAndGlyphs" textLength="61" x="672" y="118.0669">regarding</text><polygon fill="#000000" points="736,112.0664,742,115.0664,736,118.0664,736,112.0664" style="stroke: #000000; stroke-width: 1.0;"/><text fill="#000000" font-family="sans-serif" font-size="13" lengthAdjust="spacingAndGlyphs" textLength="8" x="648.9064" y="169.4106">1</text><text fill="#000000" font-family="sans-serif" font-size="13" lengthAdjust="spacingAndGlyphs" textLength="8" x="779.4674" y="116.541">1</text><!--MD5=[271ce7fefd7250ebaca83b70495774bd]
link PaymentTransaction to Task--><path d="M641.2871,190 C749.9586,190 943.3866,190 1057.698,190 " fill="none" id="PaymentTransaction-Task" style="stroke: #A80036; stroke-width: 1.0;"/><text fill="#000000" font-family="sans-serif" font-size="13" lengthAdjust="spacingAndGlyphs" textLength="61" x="831.5" y="186.0669">regarding</text><polygon fill="#000000" points="895.5,180.0664,901.5,183.0664,895.5,186.0664,895.5,180.0664" style="stroke: #000000; stroke-width: 1.0;"/><text fill="#000000" font-family="sans-serif" font-size="13" lengthAdjust="spacingAndGlyphs" textLength="8" x="649.0573" y="202.7453">1</text><text fill="#000000" font-family="sans-serif" font-size="13" lengthAdjust="spacingAndGlyphs" textLength="8" x="1042.0638" y="202.6524">1</text><!--MD5=[54cd5b92152f116e1ce633be05b97b77]
link PaymentTransaction to ExecutionTask--><path d="M641.027,221.822 C651.0894,225.6641 661.2644,229.4729 671,233 C705.3301,245.4373 743.3135,258.334 776.7238,269.3917 " fill="none" id="PaymentTransaction-ExecutionTask" style="stroke: #A80036; stroke-width: 1.0;"/><text fill="#000000" font-family="sans-serif" font-size="13" lengthAdjust="spacingAndGlyphs" textLength="23" x="691" y="229.0669">has</text><polygon fill="#000000" points="717,223.0664,723,226.0664,717,229.0664,717,223.0664" style="stroke: #000000; stroke-width: 1.0;"/><text fill="#000000" font-family="sans-serif" font-size="13" lengthAdjust="spacingAndGlyphs" textLength="8" x="649.0358" y="237.6234">1</text><text fill="#000000" font-family="sans-serif" font-size="13" lengthAdjust="spacingAndGlyphs" textLength="7" x="762.1315" y="279.6856">*</text><!--MD5=[e7fe6a1136c68b24fb949ad86f020447]
link ExecutionTask to Task--><path d="M960.1211,263.4601 C991.352,251.3456 1026.2639,237.8033 1057.5228,225.678 " fill="none" id="ExecutionTask-Task" style="stroke: #A80036; stroke-width: 1.0;"/><text fill="#000000" font-family="sans-serif" font-size="13" lengthAdjust="spacingAndGlyphs" textLength="23" x="991" y="234.0669">has</text><polygon fill="#000000" points="1017,228.0664,1023,231.0664,1017,234.0664,1017,228.0664" style="stroke: #000000; stroke-width: 1.0;"/><text fill="#000000" font-family="sans-serif" font-size="13" lengthAdjust="spacingAndGlyphs" textLength="8" x="968.0397" y="273.1933">1</text><text fill="#000000" font-family="sans-serif" font-size="13" lengthAdjust="spacingAndGlyphs" textLength="8" x="1041.8746" y="241.1735">1</text><!--MD5=[b3e8a2e7c6b422aae7f47be1f9ed0109]
@startuml
hide methods
left to right direction
skinparam classAttributeIconSize 0


class Platform {
}

class Freelancer {
  -String id
  -String name
  -String levelOfExpertise
  -String NIF
  -String IBAN
  -String adress
  -String country
}

class Task{
  -String id
  -String briefDescription
  -Integer timeDuration
  -Float costPerHour
  -String taskCategory
  -Date endDate
  -Integer delay
  -String briefDescriptionQuality
  }

class PaymentTransaction {
  -String id
  -Float amout
  -Boolean payed
  }

class ExecutionTask {
  -Date endDate
  -Float delay
  -String briefDescriptionQuality
  }

class Administrator {
  }


Platform "1" - - "*" Administrator : contains >
Administrator "1" - - "*" PaymentTransaction: has access >
Freelancer "1" - - "*" Task: has >
PaymentTransaction "1" - - "1" Freelancer: regarding >
PaymentTransaction "1" - - "1" Task: regarding >
PaymentTransaction "1" - - "*" ExecutionTask: has >
ExecutionTask "1" - - "1" Task: has >
@enduml

PlantUML version 1.2019.12(Sun Nov 03 10:24:54 UTC 2019)
(GPL source distribution)
Java Runtime: OpenJDK Runtime Environment
JVM: OpenJDK 64-Bit Server VM
Java Version: 1.8.0_232-heroku-b09
Operating System: Linux
Default Encoding: UTF-8
Language: en
Country: US
--></g></svg>