<?xml version="1.0" encoding="UTF-8" standalone="no"?><svg xmlns="http://www.w3.org/2000/svg" xmlns:xlink="http://www.w3.org/1999/xlink" contentScriptType="application/ecmascript" contentStyleType="text/css" height="475px" preserveAspectRatio="none" style="width:1209px;height:475px;" version="1.1" viewBox="0 0 1209 475" width="1209px" zoomAndPan="magnify"><defs><filter height="300%" id="f1o4ijnnldxf6n" width="300%" x="-1" y="-1"><feGaussianBlur result="blurOut" stdDeviation="2.0"/><feColorMatrix in="blurOut" result="blurOut2" type="matrix" values="0 0 0 0 0 0 0 0 0 0 0 0 0 0 0 0 0 0 .4 0"/><feOffset dx="4.0" dy="4.0" in="blurOut2" result="blurOut3"/><feBlend in="SourceGraphic" in2="blurOut3" mode="normal"/></filter></defs><g><!--MD5=[99b8db98afdc2c8404e39242ef4c1e65]
class Platform--><rect fill="#FEFECE" filter="url(#f1o4ijnnldxf6n)" height="40" id="Platform" style="stroke: #A80036; stroke-width: 1.5;" width="80" x="6" y="186.5"/><ellipse cx="21" cy="202.5" fill="#ADD1B2" rx="11" ry="11" style="stroke: #A80036; stroke-width: 1.0;"/><path d="M23.3438,198.1719 C22.4063,197.7344 21.8125,197.5938 20.9375,197.5938 C18.3125,197.5938 16.3125,199.6719 16.3125,202.3906 L16.3125,203.5156 C16.3125,206.0938 18.4219,207.9844 21.3125,207.9844 C22.5313,207.9844 23.6875,207.6875 24.4375,207.1406 C25.0156,206.7344 25.3438,206.2813 25.3438,205.8906 C25.3438,205.4375 24.9531,205.0469 24.4844,205.0469 C24.2656,205.0469 24.0625,205.125 23.875,205.3125 C23.4219,205.7969 23.4219,205.7969 23.2344,205.8906 C22.8125,206.1563 22.125,206.2813 21.3594,206.2813 C19.3125,206.2813 18.0156,205.1875 18.0156,203.4844 L18.0156,202.3906 C18.0156,200.6094 19.2656,199.2969 21,199.2969 C21.5781,199.2969 22.1875,199.4531 22.6563,199.7031 C23.1406,199.9844 23.3125,200.2031 23.4063,200.6094 C23.4688,201.0156 23.5,201.1406 23.6406,201.2656 C23.7813,201.4063 24.0156,201.5156 24.2344,201.5156 C24.5,201.5156 24.7656,201.375 24.9375,201.1563 C25.0469,201 25.0781,200.8125 25.0781,200.3906 L25.0781,198.9688 C25.0781,198.5313 25.0625,198.4063 24.9688,198.25 C24.8125,197.9844 24.5313,197.8438 24.2344,197.8438 C23.9375,197.8438 23.7344,197.9375 23.5156,198.25 L23.3438,198.1719 Z "/><text fill="#000000" font-family="sans-serif" font-size="12" lengthAdjust="spacingAndGlyphs" textLength="48" x="35" y="206.6543">Platform</text><line style="stroke: #A80036; stroke-width: 1.5;" x1="7" x2="85" y1="218.5" y2="218.5"/><!--MD5=[86c7c362de55a38b660185a1328fe18d]
class Organization--><rect fill="#FEFECE" filter="url(#f1o4ijnnldxf6n)" height="65.6094" id="Organization" style="stroke: #A80036; stroke-width: 1.5;" width="108" x="215" y="173.5"/><ellipse cx="230" cy="189.5" fill="#ADD1B2" rx="11" ry="11" style="stroke: #A80036; stroke-width: 1.0;"/><path d="M232.3438,185.1719 C231.4063,184.7344 230.8125,184.5938 229.9375,184.5938 C227.3125,184.5938 225.3125,186.6719 225.3125,189.3906 L225.3125,190.5156 C225.3125,193.0938 227.4219,194.9844 230.3125,194.9844 C231.5313,194.9844 232.6875,194.6875 233.4375,194.1406 C234.0156,193.7344 234.3438,193.2813 234.3438,192.8906 C234.3438,192.4375 233.9531,192.0469 233.4844,192.0469 C233.2656,192.0469 233.0625,192.125 232.875,192.3125 C232.4219,192.7969 232.4219,192.7969 232.2344,192.8906 C231.8125,193.1563 231.125,193.2813 230.3594,193.2813 C228.3125,193.2813 227.0156,192.1875 227.0156,190.4844 L227.0156,189.3906 C227.0156,187.6094 228.2656,186.2969 230,186.2969 C230.5781,186.2969 231.1875,186.4531 231.6563,186.7031 C232.1406,186.9844 232.3125,187.2031 232.4063,187.6094 C232.4688,188.0156 232.5,188.1406 232.6406,188.2656 C232.7813,188.4063 233.0156,188.5156 233.2344,188.5156 C233.5,188.5156 233.7656,188.375 233.9375,188.1563 C234.0469,188 234.0781,187.8125 234.0781,187.3906 L234.0781,185.9688 C234.0781,185.5313 234.0625,185.4063 233.9688,185.25 C233.8125,184.9844 233.5313,184.8438 233.2344,184.8438 C232.9375,184.8438 232.7344,184.9375 232.5156,185.25 L232.3438,185.1719 Z "/><text fill="#000000" font-family="sans-serif" font-size="12" lengthAdjust="spacingAndGlyphs" textLength="76" x="244" y="193.6543">Organization</text><line style="stroke: #A80036; stroke-width: 1.5;" x1="216" x2="322" y1="205.5" y2="205.5"/><text fill="#000000" font-family="sans-serif" font-size="11" lengthAdjust="spacingAndGlyphs" textLength="74" x="221" y="219.7104">-String name</text><text fill="#000000" font-family="sans-serif" font-size="11" lengthAdjust="spacingAndGlyphs" textLength="58" x="221" y="232.5151">-String NIF</text><!--MD5=[da547346deef918ea16944ba046651ef]
class Administrator--><rect fill="#FEFECE" filter="url(#f1o4ijnnldxf6n)" height="40" id="Administrator" style="stroke: #A80036; stroke-width: 1.5;" width="112" x="353" y="62.5"/><ellipse cx="368" cy="78.5" fill="#ADD1B2" rx="11" ry="11" style="stroke: #A80036; stroke-width: 1.0;"/><path d="M370.3438,74.1719 C369.4063,73.7344 368.8125,73.5938 367.9375,73.5938 C365.3125,73.5938 363.3125,75.6719 363.3125,78.3906 L363.3125,79.5156 C363.3125,82.0938 365.4219,83.9844 368.3125,83.9844 C369.5313,83.9844 370.6875,83.6875 371.4375,83.1406 C372.0156,82.7344 372.3438,82.2813 372.3438,81.8906 C372.3438,81.4375 371.9531,81.0469 371.4844,81.0469 C371.2656,81.0469 371.0625,81.125 370.875,81.3125 C370.4219,81.7969 370.4219,81.7969 370.2344,81.8906 C369.8125,82.1563 369.125,82.2813 368.3594,82.2813 C366.3125,82.2813 365.0156,81.1875 365.0156,79.4844 L365.0156,78.3906 C365.0156,76.6094 366.2656,75.2969 368,75.2969 C368.5781,75.2969 369.1875,75.4531 369.6563,75.7031 C370.1406,75.9844 370.3125,76.2031 370.4063,76.6094 C370.4688,77.0156 370.5,77.1406 370.6406,77.2656 C370.7813,77.4063 371.0156,77.5156 371.2344,77.5156 C371.5,77.5156 371.7656,77.375 371.9375,77.1563 C372.0469,77 372.0781,76.8125 372.0781,76.3906 L372.0781,74.9688 C372.0781,74.5313 372.0625,74.4063 371.9688,74.25 C371.8125,73.9844 371.5313,73.8438 371.2344,73.8438 C370.9375,73.8438 370.7344,73.9375 370.5156,74.25 L370.3438,74.1719 Z "/><text fill="#000000" font-family="sans-serif" font-size="12" lengthAdjust="spacingAndGlyphs" textLength="80" x="382" y="82.6543">Administrator</text><line style="stroke: #A80036; stroke-width: 1.5;" x1="354" x2="464" y1="94.5" y2="94.5"/><!--MD5=[f483d6e5de34a60207b28a5563be5e8b]
class Collaborator--><rect fill="#FEFECE" filter="url(#f1o4ijnnldxf6n)" height="65.6094" id="Collaborator" style="stroke: #A80036; stroke-width: 1.5;" width="106" x="495" y="222.5"/><ellipse cx="510" cy="238.5" fill="#ADD1B2" rx="11" ry="11" style="stroke: #A80036; stroke-width: 1.0;"/><path d="M512.3438,234.1719 C511.4063,233.7344 510.8125,233.5938 509.9375,233.5938 C507.3125,233.5938 505.3125,235.6719 505.3125,238.3906 L505.3125,239.5156 C505.3125,242.0938 507.4219,243.9844 510.3125,243.9844 C511.5313,243.9844 512.6875,243.6875 513.4375,243.1406 C514.0156,242.7344 514.3438,242.2813 514.3438,241.8906 C514.3438,241.4375 513.9531,241.0469 513.4844,241.0469 C513.2656,241.0469 513.0625,241.125 512.875,241.3125 C512.4219,241.7969 512.4219,241.7969 512.2344,241.8906 C511.8125,242.1563 511.125,242.2813 510.3594,242.2813 C508.3125,242.2813 507.0156,241.1875 507.0156,239.4844 L507.0156,238.3906 C507.0156,236.6094 508.2656,235.2969 510,235.2969 C510.5781,235.2969 511.1875,235.4531 511.6563,235.7031 C512.1406,235.9844 512.3125,236.2031 512.4063,236.6094 C512.4688,237.0156 512.5,237.1406 512.6406,237.2656 C512.7813,237.4063 513.0156,237.5156 513.2344,237.5156 C513.5,237.5156 513.7656,237.375 513.9375,237.1563 C514.0469,237 514.0781,236.8125 514.0781,236.3906 L514.0781,234.9688 C514.0781,234.5313 514.0625,234.4063 513.9688,234.25 C513.8125,233.9844 513.5313,233.8438 513.2344,233.8438 C512.9375,233.8438 512.7344,233.9375 512.5156,234.25 L512.3438,234.1719 Z "/><text fill="#000000" font-family="sans-serif" font-size="12" lengthAdjust="spacingAndGlyphs" textLength="74" x="524" y="242.6543">Collaborator</text><line style="stroke: #A80036; stroke-width: 1.5;" x1="496" x2="600" y1="254.5" y2="254.5"/><text fill="#000000" font-family="sans-serif" font-size="11" lengthAdjust="spacingAndGlyphs" textLength="74" x="501" y="268.7104">-String name</text><text fill="#000000" font-family="sans-serif" font-size="11" lengthAdjust="spacingAndGlyphs" textLength="73" x="501" y="281.5151">-String email</text><!--MD5=[3fd616f346a44cd59a91eb10b19e157c]
class User--><rect fill="#FEFECE" filter="url(#f1o4ijnnldxf6n)" height="91.2188" id="User" style="stroke: #A80036; stroke-width: 1.5;" width="106" x="750.5" y="6"/><ellipse cx="785.75" cy="22" fill="#ADD1B2" rx="11" ry="11" style="stroke: #A80036; stroke-width: 1.0;"/><path d="M788.0938,17.6719 C787.1563,17.2344 786.5625,17.0938 785.6875,17.0938 C783.0625,17.0938 781.0625,19.1719 781.0625,21.8906 L781.0625,23.0156 C781.0625,25.5938 783.1719,27.4844 786.0625,27.4844 C787.2813,27.4844 788.4375,27.1875 789.1875,26.6406 C789.7656,26.2344 790.0938,25.7813 790.0938,25.3906 C790.0938,24.9375 789.7031,24.5469 789.2344,24.5469 C789.0156,24.5469 788.8125,24.625 788.625,24.8125 C788.1719,25.2969 788.1719,25.2969 787.9844,25.3906 C787.5625,25.6563 786.875,25.7813 786.1094,25.7813 C784.0625,25.7813 782.7656,24.6875 782.7656,22.9844 L782.7656,21.8906 C782.7656,20.1094 784.0156,18.7969 785.75,18.7969 C786.3281,18.7969 786.9375,18.9531 787.4063,19.2031 C787.8906,19.4844 788.0625,19.7031 788.1563,20.1094 C788.2188,20.5156 788.25,20.6406 788.3906,20.7656 C788.5313,20.9063 788.7656,21.0156 788.9844,21.0156 C789.25,21.0156 789.5156,20.875 789.6875,20.6563 C789.7969,20.5 789.8281,20.3125 789.8281,19.8906 L789.8281,18.4688 C789.8281,18.0313 789.8125,17.9063 789.7188,17.75 C789.5625,17.4844 789.2813,17.3438 788.9844,17.3438 C788.6875,17.3438 788.4844,17.4375 788.2656,17.75 L788.0938,17.6719 Z "/><text fill="#000000" font-family="sans-serif" font-size="12" lengthAdjust="spacingAndGlyphs" textLength="29" x="804.25" y="26.1543">User</text><line style="stroke: #A80036; stroke-width: 1.5;" x1="751.5" x2="855.5" y1="38" y2="38"/><text fill="#000000" font-family="sans-serif" font-size="11" lengthAdjust="spacingAndGlyphs" textLength="74" x="756.5" y="52.2104">-String name</text><text fill="#000000" font-family="sans-serif" font-size="11" lengthAdjust="spacingAndGlyphs" textLength="73" x="756.5" y="65.0151">-String email</text><text fill="#000000" font-family="sans-serif" font-size="11" lengthAdjust="spacingAndGlyphs" textLength="94" x="756.5" y="77.8198">-String password</text><text fill="#000000" font-family="sans-serif" font-size="11" lengthAdjust="spacingAndGlyphs" textLength="63" x="756.5" y="90.6245">-String role</text><!--MD5=[b645a18afb25b7e5623af7186d8eb36f]
class PaymentTransaction--><rect fill="#FEFECE" filter="url(#f1o4ijnnldxf6n)" height="78.4141" id="PaymentTransaction" style="stroke: #A80036; stroke-width: 1.5;" width="151" x="728" y="132.5"/><ellipse cx="743" cy="148.5" fill="#ADD1B2" rx="11" ry="11" style="stroke: #A80036; stroke-width: 1.0;"/><path d="M745.3438,144.1719 C744.4063,143.7344 743.8125,143.5938 742.9375,143.5938 C740.3125,143.5938 738.3125,145.6719 738.3125,148.3906 L738.3125,149.5156 C738.3125,152.0938 740.4219,153.9844 743.3125,153.9844 C744.5313,153.9844 745.6875,153.6875 746.4375,153.1406 C747.0156,152.7344 747.3438,152.2813 747.3438,151.8906 C747.3438,151.4375 746.9531,151.0469 746.4844,151.0469 C746.2656,151.0469 746.0625,151.125 745.875,151.3125 C745.4219,151.7969 745.4219,151.7969 745.2344,151.8906 C744.8125,152.1563 744.125,152.2813 743.3594,152.2813 C741.3125,152.2813 740.0156,151.1875 740.0156,149.4844 L740.0156,148.3906 C740.0156,146.6094 741.2656,145.2969 743,145.2969 C743.5781,145.2969 744.1875,145.4531 744.6563,145.7031 C745.1406,145.9844 745.3125,146.2031 745.4063,146.6094 C745.4688,147.0156 745.5,147.1406 745.6406,147.2656 C745.7813,147.4063 746.0156,147.5156 746.2344,147.5156 C746.5,147.5156 746.7656,147.375 746.9375,147.1563 C747.0469,147 747.0781,146.8125 747.0781,146.3906 L747.0781,144.9688 C747.0781,144.5313 747.0625,144.4063 746.9688,144.25 C746.8125,143.9844 746.5313,143.8438 746.2344,143.8438 C745.9375,143.8438 745.7344,143.9375 745.5156,144.25 L745.3438,144.1719 Z "/><text fill="#000000" font-family="sans-serif" font-size="12" lengthAdjust="spacingAndGlyphs" textLength="119" x="757" y="152.6543">PaymentTransaction</text><line style="stroke: #A80036; stroke-width: 1.5;" x1="729" x2="878" y1="164.5" y2="164.5"/><text fill="#000000" font-family="sans-serif" font-size="11" lengthAdjust="spacingAndGlyphs" textLength="51" x="734" y="178.7104">-String id</text><text fill="#000000" font-family="sans-serif" font-size="11" lengthAdjust="spacingAndGlyphs" textLength="71" x="734" y="191.5151">-Float amout</text><text fill="#000000" font-family="sans-serif" font-size="11" lengthAdjust="spacingAndGlyphs" textLength="91" x="734" y="204.3198">-Boolean payed</text><!--MD5=[b34797a66dc35cbf1d65f7e3ca75530e]
class Task--><rect fill="#FEFECE" filter="url(#f1o4ijnnldxf6n)" height="104.0234" id="Task" style="stroke: #A80036; stroke-width: 1.5;" width="143" x="1035" y="264.5"/><ellipse cx="1088.25" cy="280.5" fill="#ADD1B2" rx="11" ry="11" style="stroke: #A80036; stroke-width: 1.0;"/><path d="M1090.5938,276.1719 C1089.6563,275.7344 1089.0625,275.5938 1088.1875,275.5938 C1085.5625,275.5938 1083.5625,277.6719 1083.5625,280.3906 L1083.5625,281.5156 C1083.5625,284.0938 1085.6719,285.9844 1088.5625,285.9844 C1089.7813,285.9844 1090.9375,285.6875 1091.6875,285.1406 C1092.2656,284.7344 1092.5938,284.2813 1092.5938,283.8906 C1092.5938,283.4375 1092.2031,283.0469 1091.7344,283.0469 C1091.5156,283.0469 1091.3125,283.125 1091.125,283.3125 C1090.6719,283.7969 1090.6719,283.7969 1090.4844,283.8906 C1090.0625,284.1563 1089.375,284.2813 1088.6094,284.2813 C1086.5625,284.2813 1085.2656,283.1875 1085.2656,281.4844 L1085.2656,280.3906 C1085.2656,278.6094 1086.5156,277.2969 1088.25,277.2969 C1088.8281,277.2969 1089.4375,277.4531 1089.9063,277.7031 C1090.3906,277.9844 1090.5625,278.2031 1090.6563,278.6094 C1090.7188,279.0156 1090.75,279.1406 1090.8906,279.2656 C1091.0313,279.4063 1091.2656,279.5156 1091.4844,279.5156 C1091.75,279.5156 1092.0156,279.375 1092.1875,279.1563 C1092.2969,279 1092.3281,278.8125 1092.3281,278.3906 L1092.3281,276.9688 C1092.3281,276.5313 1092.3125,276.4063 1092.2188,276.25 C1092.0625,275.9844 1091.7813,275.8438 1091.4844,275.8438 C1091.1875,275.8438 1090.9844,275.9375 1090.7656,276.25 L1090.5938,276.1719 Z "/><text fill="#000000" font-family="sans-serif" font-size="12" lengthAdjust="spacingAndGlyphs" textLength="28" x="1108.75" y="284.6543">Task</text><line style="stroke: #A80036; stroke-width: 1.5;" x1="1036" x2="1177" y1="296.5" y2="296.5"/><text fill="#000000" font-family="sans-serif" font-size="11" lengthAdjust="spacingAndGlyphs" textLength="51" x="1041" y="310.7104">-String id</text><text fill="#000000" font-family="sans-serif" font-size="11" lengthAdjust="spacingAndGlyphs" textLength="131" x="1041" y="323.5151">-String briefDescription</text><text fill="#000000" font-family="sans-serif" font-size="11" lengthAdjust="spacingAndGlyphs" textLength="123" x="1041" y="336.3198">-Integer timeDuration</text><text fill="#000000" font-family="sans-serif" font-size="11" lengthAdjust="spacingAndGlyphs" textLength="102" x="1041" y="349.1245">-Float costPerHour</text><text fill="#000000" font-family="sans-serif" font-size="11" lengthAdjust="spacingAndGlyphs" textLength="116" x="1041" y="361.9292">-String taskCategory</text><!--MD5=[feb7363c14fdfe20e6ad09f57508482a]
class ExecutionTask--><rect fill="#FEFECE" filter="url(#f1o4ijnnldxf6n)" height="78.4141" id="ExecutionTask" style="stroke: #A80036; stroke-width: 1.5;" width="183" x="1015" y="132.5"/><ellipse cx="1059.25" cy="148.5" fill="#ADD1B2" rx="11" ry="11" style="stroke: #A80036; stroke-width: 1.0;"/><path d="M1061.5938,144.1719 C1060.6563,143.7344 1060.0625,143.5938 1059.1875,143.5938 C1056.5625,143.5938 1054.5625,145.6719 1054.5625,148.3906 L1054.5625,149.5156 C1054.5625,152.0938 1056.6719,153.9844 1059.5625,153.9844 C1060.7813,153.9844 1061.9375,153.6875 1062.6875,153.1406 C1063.2656,152.7344 1063.5938,152.2813 1063.5938,151.8906 C1063.5938,151.4375 1063.2031,151.0469 1062.7344,151.0469 C1062.5156,151.0469 1062.3125,151.125 1062.125,151.3125 C1061.6719,151.7969 1061.6719,151.7969 1061.4844,151.8906 C1061.0625,152.1563 1060.375,152.2813 1059.6094,152.2813 C1057.5625,152.2813 1056.2656,151.1875 1056.2656,149.4844 L1056.2656,148.3906 C1056.2656,146.6094 1057.5156,145.2969 1059.25,145.2969 C1059.8281,145.2969 1060.4375,145.4531 1060.9063,145.7031 C1061.3906,145.9844 1061.5625,146.2031 1061.6563,146.6094 C1061.7188,147.0156 1061.75,147.1406 1061.8906,147.2656 C1062.0313,147.4063 1062.2656,147.5156 1062.4844,147.5156 C1062.75,147.5156 1063.0156,147.375 1063.1875,147.1563 C1063.2969,147 1063.3281,146.8125 1063.3281,146.3906 L1063.3281,144.9688 C1063.3281,144.5313 1063.3125,144.4063 1063.2188,144.25 C1063.0625,143.9844 1062.7813,143.8438 1062.4844,143.8438 C1062.1875,143.8438 1061.9844,143.9375 1061.7656,144.25 L1061.5938,144.1719 Z "/><text fill="#000000" font-family="sans-serif" font-size="12" lengthAdjust="spacingAndGlyphs" textLength="86" x="1079.75" y="152.6543">ExecutionTask</text><line style="stroke: #A80036; stroke-width: 1.5;" x1="1016" x2="1197" y1="164.5" y2="164.5"/><text fill="#000000" font-family="sans-serif" font-size="11" lengthAdjust="spacingAndGlyphs" textLength="86" x="1021" y="178.7104">-Date endDate</text><text fill="#000000" font-family="sans-serif" font-size="11" lengthAdjust="spacingAndGlyphs" textLength="67" x="1021" y="191.5151">-Float delay</text><text fill="#000000" font-family="sans-serif" font-size="11" lengthAdjust="spacingAndGlyphs" textLength="171" x="1021" y="204.3198">-String briefDescriptionQuality</text><!--MD5=[b24ed8d4ae84bae9290d9aab401637c7]
class Manager--><rect fill="#FEFECE" filter="url(#f1o4ijnnldxf6n)" height="65.6094" id="Manager" style="stroke: #A80036; stroke-width: 1.5;" width="86" x="505" y="121.5"/><ellipse cx="520.9" cy="137.5" fill="#ADD1B2" rx="11" ry="11" style="stroke: #A80036; stroke-width: 1.0;"/><path d="M523.2438,133.1719 C522.3063,132.7344 521.7125,132.5938 520.8375,132.5938 C518.2125,132.5938 516.2125,134.6719 516.2125,137.3906 L516.2125,138.5156 C516.2125,141.0938 518.3219,142.9844 521.2125,142.9844 C522.4313,142.9844 523.5875,142.6875 524.3375,142.1406 C524.9156,141.7344 525.2438,141.2813 525.2438,140.8906 C525.2438,140.4375 524.8531,140.0469 524.3844,140.0469 C524.1656,140.0469 523.9625,140.125 523.775,140.3125 C523.3219,140.7969 523.3219,140.7969 523.1344,140.8906 C522.7125,141.1563 522.025,141.2813 521.2594,141.2813 C519.2125,141.2813 517.9156,140.1875 517.9156,138.4844 L517.9156,137.3906 C517.9156,135.6094 519.1656,134.2969 520.9,134.2969 C521.4781,134.2969 522.0875,134.4531 522.5563,134.7031 C523.0406,134.9844 523.2125,135.2031 523.3063,135.6094 C523.3688,136.0156 523.4,136.1406 523.5406,136.2656 C523.6813,136.4063 523.9156,136.5156 524.1344,136.5156 C524.4,136.5156 524.6656,136.375 524.8375,136.1563 C524.9469,136 524.9781,135.8125 524.9781,135.3906 L524.9781,133.9688 C524.9781,133.5313 524.9625,133.4063 524.8688,133.25 C524.7125,132.9844 524.4313,132.8438 524.1344,132.8438 C523.8375,132.8438 523.6344,132.9375 523.4156,133.25 L523.2438,133.1719 Z "/><text fill="#000000" font-family="sans-serif" font-size="12" lengthAdjust="spacingAndGlyphs" textLength="52" x="535.1" y="141.6543">Manager</text><line style="stroke: #A80036; stroke-width: 1.5;" x1="506" x2="590" y1="153.5" y2="153.5"/><text fill="#000000" font-family="sans-serif" font-size="11" lengthAdjust="spacingAndGlyphs" textLength="74" x="511" y="167.7104">-String name</text><text fill="#000000" font-family="sans-serif" font-size="11" lengthAdjust="spacingAndGlyphs" textLength="73" x="511" y="180.5151">-String email</text><!--MD5=[1f687b5315377fe49fca59b457947463]
class Freelancer--><rect fill="#FEFECE" filter="url(#f1o4ijnnldxf6n)" height="142.4375" id="Freelancer" style="stroke: #A80036; stroke-width: 1.5;" width="149" x="729" y="245.5"/><ellipse cx="767.4" cy="261.5" fill="#ADD1B2" rx="11" ry="11" style="stroke: #A80036; stroke-width: 1.0;"/><path d="M769.7438,257.1719 C768.8063,256.7344 768.2125,256.5938 767.3375,256.5938 C764.7125,256.5938 762.7125,258.6719 762.7125,261.3906 L762.7125,262.5156 C762.7125,265.0938 764.8219,266.9844 767.7125,266.9844 C768.9313,266.9844 770.0875,266.6875 770.8375,266.1406 C771.4156,265.7344 771.7438,265.2813 771.7438,264.8906 C771.7438,264.4375 771.3531,264.0469 770.8844,264.0469 C770.6656,264.0469 770.4625,264.125 770.275,264.3125 C769.8219,264.7969 769.8219,264.7969 769.6344,264.8906 C769.2125,265.1563 768.525,265.2813 767.7594,265.2813 C765.7125,265.2813 764.4156,264.1875 764.4156,262.4844 L764.4156,261.3906 C764.4156,259.6094 765.6656,258.2969 767.4,258.2969 C767.9781,258.2969 768.5875,258.4531 769.0563,258.7031 C769.5406,258.9844 769.7125,259.2031 769.8063,259.6094 C769.8688,260.0156 769.9,260.1406 770.0406,260.2656 C770.1813,260.4063 770.4156,260.5156 770.6344,260.5156 C770.9,260.5156 771.1656,260.375 771.3375,260.1563 C771.4469,260 771.4781,259.8125 771.4781,259.3906 L771.4781,257.9688 C771.4781,257.5313 771.4625,257.4063 771.3688,257.25 C771.2125,256.9844 770.9313,256.8438 770.6344,256.8438 C770.3375,256.8438 770.1344,256.9375 769.9156,257.25 L769.7438,257.1719 Z "/><text fill="#000000" font-family="sans-serif" font-size="12" lengthAdjust="spacingAndGlyphs" textLength="65" x="786.6" y="265.6543">Freelancer</text><line style="stroke: #A80036; stroke-width: 1.5;" x1="730" x2="877" y1="277.5" y2="277.5"/><text fill="#000000" font-family="sans-serif" font-size="11" lengthAdjust="spacingAndGlyphs" textLength="51" x="735" y="291.7104">-String id</text><text fill="#000000" font-family="sans-serif" font-size="11" lengthAdjust="spacingAndGlyphs" textLength="74" x="735" y="304.5151">-String name</text><text fill="#000000" font-family="sans-serif" font-size="11" lengthAdjust="spacingAndGlyphs" textLength="137" x="735" y="317.3198">-String levelOfExpertise</text><text fill="#000000" font-family="sans-serif" font-size="11" lengthAdjust="spacingAndGlyphs" textLength="73" x="735" y="330.1245">-String email</text><text fill="#000000" font-family="sans-serif" font-size="11" lengthAdjust="spacingAndGlyphs" textLength="58" x="735" y="342.9292">-String NIF</text><text fill="#000000" font-family="sans-serif" font-size="11" lengthAdjust="spacingAndGlyphs" textLength="68" x="735" y="355.7339">-String IBAN</text><text fill="#000000" font-family="sans-serif" font-size="11" lengthAdjust="spacingAndGlyphs" textLength="79" x="735" y="368.5386">-String adress</text><text fill="#000000" font-family="sans-serif" font-size="11" lengthAdjust="spacingAndGlyphs" textLength="83" x="735" y="381.3433">-String country</text><!--MD5=[7640e466c042ba2d6f9c19c816f7f0fc]
link Platform to Organization--><path d="M86.0016,206.5 C121.813,206.5 175.183,206.5 214.879,206.5 " fill="none" id="Platform-Organization" style="stroke: #A80036; stroke-width: 1.0;"/><text fill="#000000" font-family="sans-serif" font-size="13" lengthAdjust="spacingAndGlyphs" textLength="54" x="117" y="202.5669">contains</text><polygon fill="#000000" points="174,196.5664,180,199.5664,174,202.5664,174,196.5664" style="stroke: #000000; stroke-width: 1.0;"/><text fill="#000000" font-family="sans-serif" font-size="13" lengthAdjust="spacingAndGlyphs" textLength="8" x="94.1144" y="206.6377">1</text><text fill="#000000" font-family="sans-serif" font-size="13" lengthAdjust="spacingAndGlyphs" textLength="7" x="200.1362" y="219.6099">*</text><!--MD5=[0f7004bed4496639b3a5258ab2ead378]
link Platform to Administrator--><path d="M86.3574,192.081 C96.0359,188.579 106.381,184.873 116,181.5 C198.337,152.63 294.203,120.388 352.989,100.773 " fill="none" id="Platform-Administrator" style="stroke: #A80036; stroke-width: 1.0;"/><text fill="#000000" font-family="sans-serif" font-size="13" lengthAdjust="spacingAndGlyphs" textLength="54" x="117" y="153.5669">contains</text><polygon fill="#000000" points="174,147.5664,180,150.5664,174,153.5664,174,147.5664" style="stroke: #000000; stroke-width: 1.0;"/><text fill="#000000" font-family="sans-serif" font-size="13" lengthAdjust="spacingAndGlyphs" textLength="8" x="93.9813" y="185.392">1</text><text fill="#000000" font-family="sans-serif" font-size="13" lengthAdjust="spacingAndGlyphs" textLength="7" x="337.9922" y="116.3121">*</text><!--MD5=[22697d4d863c2e08ab1d60ca0d61f844]
link Platform to Freelancer--><path d="M86.0073,219.815 C119.823,231.002 170.228,246.829 215,257.5 C337.893,286.792 369.332,293.526 495,306.5 C574.697,314.728 666.571,316.747 728.99,317.009 " fill="none" id="Platform-Freelancer" style="stroke: #A80036; stroke-width: 1.0;"/><text fill="#000000" font-family="sans-serif" font-size="13" lengthAdjust="spacingAndGlyphs" textLength="23" x="391" y="283.5669">has</text><polygon fill="#000000" points="417,277.5664,423,280.5664,417,283.5664,417,277.5664" style="stroke: #000000; stroke-width: 1.0;"/><text fill="#000000" font-family="sans-serif" font-size="13" lengthAdjust="spacingAndGlyphs" textLength="8" x="94.1211" y="235.7319">1</text><text fill="#000000" font-family="sans-serif" font-size="13" lengthAdjust="spacingAndGlyphs" textLength="23" x="698.061" y="329.8002">0..*</text><!--MD5=[edc107c0a572352bcd12c9afaba4390b]
link Administrator to User--><path d="M465.403,78.124 C541.159,72.141 676.097,61.484 750.198,55.631 " fill="none" id="Administrator-User" style="stroke: #A80036; stroke-width: 1.0;"/><text fill="#000000" font-family="sans-serif" font-size="13" lengthAdjust="spacingAndGlyphs" textLength="52" x="515.5" y="63.5669">acts like</text><polygon fill="#000000" points="570.5,57.5664,576.5,60.5664,570.5,63.5664,570.5,57.5664" style="stroke: #000000; stroke-width: 1.0;"/><text fill="#000000" font-family="sans-serif" font-size="13" lengthAdjust="spacingAndGlyphs" textLength="7" x="473.0781" y="90.5997">*</text><text fill="#000000" font-family="sans-serif" font-size="13" lengthAdjust="spacingAndGlyphs" textLength="8" x="734.498" y="69.255">1</text><!--MD5=[45817597bcd7048073a670d966abfd17]
link Organization to Collaborator--><path d="M323.014,219.231 C332.952,221.448 343.273,223.637 353,225.5 C400.866,234.668 455.79,242.954 494.951,248.483 " fill="none" id="Organization-Collaborator" style="stroke: #A80036; stroke-width: 1.0;"/><text fill="#000000" font-family="sans-serif" font-size="13" lengthAdjust="spacingAndGlyphs" textLength="54" x="375.5" y="221.5669">contains</text><polygon fill="#000000" points="432.5,215.5664,438.5,218.5664,432.5,221.5664,432.5,215.5664" style="stroke: #000000; stroke-width: 1.0;"/><text fill="#000000" font-family="sans-serif" font-size="13" lengthAdjust="spacingAndGlyphs" textLength="8" x="331.1722" y="234.1797">1</text><text fill="#000000" font-family="sans-serif" font-size="13" lengthAdjust="spacingAndGlyphs" textLength="8" x="478.9285" y="260.6546">1</text><!--MD5=[bc039f41cf0b27fadee5cae63fc6e1fe]
link Organization to Manager--><path d="M323.081,196.536 C376.021,186.597 456.279,171.531 504.958,162.392 " fill="none" id="Organization-Manager" style="stroke: #A80036; stroke-width: 1.0;"/><text fill="#000000" font-family="sans-serif" font-size="13" lengthAdjust="spacingAndGlyphs" textLength="54" x="375.5" y="166.5669">contains</text><polygon fill="#000000" points="432.5,160.5664,438.5,163.5664,432.5,166.5664,432.5,160.5664" style="stroke: #000000; stroke-width: 1.0;"/><text fill="#000000" font-family="sans-serif" font-size="13" lengthAdjust="spacingAndGlyphs" textLength="8" x="330.8856" y="208.307">1</text><text fill="#000000" font-family="sans-serif" font-size="13" lengthAdjust="spacingAndGlyphs" textLength="8" x="488.8727" y="177.1494">1</text><!--MD5=[6eb6e197a729f6ec2412743e0bdbca1d]
link Manager to User--><path d="M591.101,137.645 C620.962,125.666 661.969,109.167 698,94.5 C715.08,87.547 733.706,79.903 750.441,73.012 " fill="none" id="Manager-User" style="stroke: #A80036; stroke-width: 1.0;"/><text fill="#000000" font-family="sans-serif" font-size="13" lengthAdjust="spacingAndGlyphs" textLength="52" x="632" y="90.5669">acts like</text><polygon fill="#000000" points="687,84.5664,693,87.5664,687,90.5664,687,84.5664" style="stroke: #000000; stroke-width: 1.0;"/><text fill="#000000" font-family="sans-serif" font-size="13" lengthAdjust="spacingAndGlyphs" textLength="7" x="599.1105" y="148.149">*</text><text fill="#000000" font-family="sans-serif" font-size="13" lengthAdjust="spacingAndGlyphs" textLength="8" x="734.4171" y="89.1527">1</text><!--MD5=[c32d3c60a61e5638fef4971a1b3a8306]
link Collaborator to PaymentTransaction--><path d="M601.038,244.983 C629.961,238.541 666.387,229.435 698,218.5 C707.776,215.119 717.892,211.172 727.807,207.028 " fill="none" id="Collaborator-PaymentTransaction" style="stroke: #A80036; stroke-width: 1.0;"/><text fill="#000000" font-family="sans-serif" font-size="13" lengthAdjust="spacingAndGlyphs" textLength="43" x="636.5" y="214.5669">makes</text><polygon fill="#000000" points="682.5,208.5664,688.5,211.5664,682.5,214.5664,682.5,208.5664" style="stroke: #000000; stroke-width: 1.0;"/><text fill="#000000" font-family="sans-serif" font-size="13" lengthAdjust="spacingAndGlyphs" textLength="8" x="609.059" y="256.6624">1</text><text fill="#000000" font-family="sans-serif" font-size="13" lengthAdjust="spacingAndGlyphs" textLength="7" x="713.0114" y="223.3166">*</text><!--MD5=[04ce0ecdab38a3951889ff50c232570f]
link Collaborator to User--><path d="M595.448,222.368 C632.029,196.06 679.783,161.179 698,145.5 C712.292,133.199 714.172,128.32 728,115.5 C735.128,108.893 742.775,102.054 750.356,95.416 " fill="none" id="Collaborator-User" style="stroke: #A80036; stroke-width: 1.0;"/><text fill="#000000" font-family="sans-serif" font-size="13" lengthAdjust="spacingAndGlyphs" textLength="52" x="632" y="141.5669">acts like</text><polygon fill="#000000" points="687,135.5664,693,138.5664,687,141.5664,687,135.5664" style="stroke: #000000; stroke-width: 1.0;"/><text fill="#000000" font-family="sans-serif" font-size="13" lengthAdjust="spacingAndGlyphs" textLength="7" x="597.1003" y="211.487">*</text><text fill="#000000" font-family="sans-serif" font-size="13" lengthAdjust="spacingAndGlyphs" textLength="8" x="734.6773" y="114.3861">1</text><!--MD5=[f919d21ae7a75ef5ececc535e09d5009]
link Collaborator to Task--><path d="M571.937,288.632 C602.23,329.141 659.79,395.6222 728,422.5002 C832.025,463.491 957.964,408.2471 1034.87,363.3832 " fill="none" id="Collaborator-Task" style="stroke: #A80036; stroke-width: 1.0;"/><text fill="#000000" font-family="sans-serif" font-size="13" lengthAdjust="spacingAndGlyphs" textLength="43" x="775.5" y="418.5671">Create</text><polygon fill="#000000" points="821.5,412.5666,827.5,415.5666,821.5,418.5666,821.5,412.5666" style="stroke: #000000; stroke-width: 1.0;"/><text fill="#000000" font-family="sans-serif" font-size="13" lengthAdjust="spacingAndGlyphs" textLength="8" x="567.6129" y="308.2387">1</text><text fill="#000000" font-family="sans-serif" font-size="13" lengthAdjust="spacingAndGlyphs" textLength="23" x="1003.9467" y="380.6387">0..*</text><!--MD5=[d2c3650dbd07e79cdad2ffd4a879dec6]
link Collaborator to Freelancer--><path d="M601.339,278.551 C611.069,282.265 621.245,285.777 631,288.5 C662.527,297.301 698.137,303.672 728.705,308.091 " fill="none" id="Collaborator-Freelancer" style="stroke: #A80036; stroke-width: 1.0;"/><text fill="#000000" font-family="sans-serif" font-size="13" lengthAdjust="spacingAndGlyphs" textLength="49" x="633.5" y="284.5669">register</text><polygon fill="#000000" points="685.5,278.5664,691.5,281.5664,685.5,284.5664,685.5,278.5664" style="stroke: #000000; stroke-width: 1.0;"/><text fill="#000000" font-family="sans-serif" font-size="13" lengthAdjust="spacingAndGlyphs" textLength="8" x="609.0439" y="294.7584">1</text><text fill="#000000" font-family="sans-serif" font-size="13" lengthAdjust="spacingAndGlyphs" textLength="7" x="713.9978" y="303.5769">*</text><!--MD5=[271ce7fefd7250ebaca83b70495774bd]
link PaymentTransaction to Task--><path d="M879.291,207.529 C926.911,230.469 988.204,259.995 1034.97,282.526 " fill="none" id="PaymentTransaction-Task" style="stroke: #A80036; stroke-width: 1.0;"/><text fill="#000000" font-family="sans-serif" font-size="13" lengthAdjust="spacingAndGlyphs" textLength="61" x="910" y="218.5669">regarding</text><polygon fill="#000000" points="974,212.5664,980,215.5664,974,218.5664,974,212.5664" style="stroke: #000000; stroke-width: 1.0;"/><text fill="#000000" font-family="sans-serif" font-size="13" lengthAdjust="spacingAndGlyphs" textLength="8" x="886.8961" y="223.7313">1</text><text fill="#000000" font-family="sans-serif" font-size="13" lengthAdjust="spacingAndGlyphs" textLength="8" x="1019.181" y="291.8684">1</text><!--MD5=[54cd5b92152f116e1ce633be05b97b77]
link PaymentTransaction to ExecutionTask--><path d="M879.291,171.5 C920.382,171.5 971.653,171.5 1014.99,171.5 " fill="none" id="PaymentTransaction-ExecutionTask" style="stroke: #A80036; stroke-width: 1.0;"/><text fill="#000000" font-family="sans-serif" font-size="13" lengthAdjust="spacingAndGlyphs" textLength="23" x="929" y="167.5669">has</text><polygon fill="#000000" points="955,161.5664,961,164.5664,955,167.5664,955,161.5664" style="stroke: #000000; stroke-width: 1.0;"/><text fill="#000000" font-family="sans-serif" font-size="13" lengthAdjust="spacingAndGlyphs" textLength="8" x="886.8961" y="184.2683">1</text><text fill="#000000" font-family="sans-serif" font-size="13" lengthAdjust="spacingAndGlyphs" textLength="7" x="1000.122" y="184.1763">*</text><!--MD5=[b4b6c1ff9c803d8207b36238c02005ea]
link Freelancer to Task--><path d="M878.133,316.5 C925.908,316.5 987.81,316.5 1034.96,316.5 " fill="none" id="Freelancer-Task" style="stroke: #A80036; stroke-width: 1.0;"/><text fill="#000000" font-family="sans-serif" font-size="13" lengthAdjust="spacingAndGlyphs" textLength="23" x="929" y="312.5669">has</text><polygon fill="#000000" points="955,306.5664,961,309.5664,955,312.5664,955,306.5664" style="stroke: #000000; stroke-width: 1.0;"/><text fill="#000000" font-family="sans-serif" font-size="13" lengthAdjust="spacingAndGlyphs" textLength="8" x="886.242" y="329.3246">1</text><text fill="#000000" font-family="sans-serif" font-size="13" lengthAdjust="spacingAndGlyphs" textLength="7" x="1020.2215" y="329.346">*</text><!--MD5=[dfd932ac90fb3b8c755ed7af68449995]
@startuml
skinparam classAttributeIconSize 0
hide methods
left to right direction


class Platform{

}

class Organization{
-String name
-String NIF
}

class Administrator{

}

class Collaborator {
 -String name
 -String email
}

class User{
-String name
-String email
-String password
-String role
}

class PaymentTransaction {
-String id
-Float amout
-Boolean payed
}

class Task{
-String id
-String briefDescription
-Integer timeDuration
-Float costPerHour
-String taskCategory
}

class ExecutionTask{
-Date endDate
-Float delay
-String briefDescriptionQuality
}

class Manager{
-String name
-String email
}

class Freelancer{
-String id
-String name
-String levelOfExpertise
-String email
-String NIF
-String IBAN
-String adress
-String country
}


Platform"1" - - "*"Organization : contains >
Platform"1" - - "*"Administrator : contains >
Platform"1" - - "0..*"Freelancer : has >

Administrator"*" - - "1" User : acts like >

Organization"1" - - "1"Collaborator : contains >
Organization"1" - - "1"Manager : contains >


Manager"*" - - "1" User : acts like >

Collaborator"1" - - "*" PaymentTransaction : makes >
Collaborator"*" - - "1" User : acts like >
Collaborator"1" - - "0..*" Task : Create >
Collaborator"1" - - "*" Freelancer : register >

PaymentTransaction"1" - - "1"Task : regarding >
PaymentTransaction"1" - - "*"ExecutionTask : has >


Freelancer"1" - - "*"Task : has >
@enduml

PlantUML version 1.2020.12(Sat Jun 06 10:54:15 UTC 2020)
(GPL source distribution)
Java Runtime: Java(TM) SE Runtime Environment
JVM: Java HotSpot(TM) 64-Bit Server VM
Default Encoding: UTF-8
Language: en
Country: US
--></g></svg>